ISO-10303-21;
HEADER;
FILE_DESCRIPTION(('FreeCAD Model'),'2;1');
FILE_NAME('Open CASCADE Shape Model','2026-08-04T21:03:15',('FreeCAD'),(
    'FreeCAD'),'Open CASCADE STEP processor 7.8','FreeCAD','Unknown');
FILE_SCHEMA(('AUTOMOTIVE_DESIGN { 1 0 10303 214 1 1 1 1 }'));
ENDSEC;
DATA;
#1 = APPLICATION_PROTOCOL_DEFINITION('international standard',
  'automotive_design',2000,#2);
#2 = APPLICATION_CONTEXT(
  'core data for automotive mechanical design processes');
#3 = SHAPE_DEFINITION_REPRESENTATION(#4,#10);
#4 = PRODUCT_DEFINITION_SHAPE('','',#5);
#5 = PRODUCT_DEFINITION('design','',#6,#9);
#6 = PRODUCT_DEFINITION_FORMATION('','',#7);
#7 = PRODUCT('Open CASCADE STEP translator 7.8 1',
  'Open CASCADE STEP translator 7.8 1','',(#8));
#8 = PRODUCT_CONTEXT('',#2,'mechanical');
#9 = PRODUCT_DEFINITION_CONTEXT('part definition',#2,'design');
#10 = ADVANCED_BREP_SHAPE_REPRESENTATION('',(#11,#15),#2224);
#11 = AXIS2_PLACEMENT_3D('',#12,#13,#14);
#12 = CARTESIAN_POINT('',(0.,0.,0.));
#13 = DIRECTION('',(0.,0.,1.));
#14 = DIRECTION('',(1.,0.,-0.));
#15 = MANIFOLD_SOLID_BREP('',#16);
#16 = CLOSED_SHELL('',(#17,#125,#158,#189,#220,#253,#284,#308,#332,#349,
    #380,#404,#428,#445,#470,#495,#526,#692,#709,#875,#892,#923,#952,
    #975,#998,#1015,#1044,#1067,#1090,#1107,#1124,#1141,#1172,#1189,
    #1213,#1238,#1262,#1279,#1303,#1328,#1353,#1377,#1401,#1425,#1450,
    #1474,#1498,#1522,#1547,#1564,#1581,#1605,#1630,#1654,#1671,#1695,
    #1720,#1745,#1769,#1793,#1817,#1842,#1866,#1890,#1914,#1939,#1956,
    #1973,#1996,#2008,#2025,#2042,#2059,#2076,#2093,#2110,#2127,#2144,
    #2161,#2178,#2195,#2212));
#17 = ADVANCED_FACE('',(#18,#52,#86),#120,.F.);
#18 = FACE_BOUND('',#19,.F.);
#19 = EDGE_LOOP('',(#20,#30,#38,#46));
#20 = ORIENTED_EDGE('',*,*,#21,.F.);
#21 = EDGE_CURVE('',#22,#24,#26,.T.);
#22 = VERTEX_POINT('',#23);
#23 = CARTESIAN_POINT('',(0.,1.5,0.6));
#24 = VERTEX_POINT('',#25);
#25 = CARTESIAN_POINT('',(0.,1.5,31.4));
#26 = LINE('',#27,#28);
#27 = CARTESIAN_POINT('',(-2.22044604925E-16,1.5,0.));
#28 = VECTOR('',#29,1.);
#29 = DIRECTION('',(0.,0.,1.));
#30 = ORIENTED_EDGE('',*,*,#31,.T.);
#31 = EDGE_CURVE('',#22,#32,#34,.T.);
#32 = VERTEX_POINT('',#33);
#33 = CARTESIAN_POINT('',(-5.551115123126E-17,88.5,0.6));
#34 = LINE('',#35,#36);
#35 = CARTESIAN_POINT('',(0.,1.5,0.6));
#36 = VECTOR('',#37,1.);
#37 = DIRECTION('',(0.,1.,0.));
#38 = ORIENTED_EDGE('',*,*,#39,.T.);
#39 = EDGE_CURVE('',#32,#40,#42,.T.);
#40 = VERTEX_POINT('',#41);
#41 = CARTESIAN_POINT('',(-1.554312234475E-15,88.5,31.4));
#42 = LINE('',#43,#44);
#43 = CARTESIAN_POINT('',(-2.22044604925E-16,88.5,0.));
#44 = VECTOR('',#45,1.);
#45 = DIRECTION('',(0.,0.,1.));
#46 = ORIENTED_EDGE('',*,*,#47,.F.);
#47 = EDGE_CURVE('',#24,#40,#48,.T.);
#48 = LINE('',#49,#50);
#49 = CARTESIAN_POINT('',(0.,1.5,31.4));
#50 = VECTOR('',#51,1.);
#51 = DIRECTION('',(0.,1.,0.));
#52 = FACE_BOUND('',#53,.F.);
#53 = EDGE_LOOP('',(#54,#64,#72,#80));
#54 = ORIENTED_EDGE('',*,*,#55,.F.);
#55 = EDGE_CURVE('',#56,#58,#60,.T.);
#56 = VERTEX_POINT('',#57);
#57 = CARTESIAN_POINT('',(0.,75.889087296526,16.));
#58 = VERTEX_POINT('',#59);
#59 = CARTESIAN_POINT('',(0.,72.,19.889087296526));
#60 = LINE('',#61,#62);
#61 = CARTESIAN_POINT('',(0.,75.889087296526,16.));
#62 = VECTOR('',#63,1.);
#63 = DIRECTION('',(0.,-0.707106781187,0.707106781187));
#64 = ORIENTED_EDGE('',*,*,#65,.F.);
#65 = EDGE_CURVE('',#66,#56,#68,.T.);
#66 = VERTEX_POINT('',#67);
#67 = CARTESIAN_POINT('',(0.,72.,12.110912703474));
#68 = LINE('',#69,#70);
#69 = CARTESIAN_POINT('',(0.,72.,12.110912703474));
#70 = VECTOR('',#71,1.);
#71 = DIRECTION('',(0.,0.707106781187,0.707106781187));
#72 = ORIENTED_EDGE('',*,*,#73,.F.);
#73 = EDGE_CURVE('',#74,#66,#76,.T.);
#74 = VERTEX_POINT('',#75);
#75 = CARTESIAN_POINT('',(0.,68.110912703474,16.));
#76 = LINE('',#77,#78);
#77 = CARTESIAN_POINT('',(0.,68.110912703474,16.));
#78 = VECTOR('',#79,1.);
#79 = DIRECTION('',(0.,0.707106781187,-0.707106781187));
#80 = ORIENTED_EDGE('',*,*,#81,.F.);
#81 = EDGE_CURVE('',#58,#74,#82,.T.);
#82 = LINE('',#83,#84);
#83 = CARTESIAN_POINT('',(0.,72.,19.889087296526));
#84 = VECTOR('',#85,1.);
#85 = DIRECTION('',(0.,-0.707106781187,-0.707106781187));
#86 = FACE_BOUND('',#87,.F.);
#87 = EDGE_LOOP('',(#88,#98,#106,#114));
#88 = ORIENTED_EDGE('',*,*,#89,.F.);
#89 = EDGE_CURVE('',#90,#92,#94,.T.);
#90 = VERTEX_POINT('',#91);
#91 = CARTESIAN_POINT('',(0.,25.889087296526,16.));
#92 = VERTEX_POINT('',#93);
#93 = CARTESIAN_POINT('',(0.,22.,19.889087296526));
#94 = LINE('',#95,#96);
#95 = CARTESIAN_POINT('',(0.,25.889087296526,16.));
#96 = VECTOR('',#97,1.);
#97 = DIRECTION('',(0.,-0.707106781187,0.707106781187));
#98 = ORIENTED_EDGE('',*,*,#99,.F.);
#99 = EDGE_CURVE('',#100,#90,#102,.T.);
#100 = VERTEX_POINT('',#101);
#101 = CARTESIAN_POINT('',(0.,22.,12.110912703474));
#102 = LINE('',#103,#104);
#103 = CARTESIAN_POINT('',(0.,22.,12.110912703474));
#104 = VECTOR('',#105,1.);
#105 = DIRECTION('',(0.,0.707106781187,0.707106781187));
#106 = ORIENTED_EDGE('',*,*,#107,.F.);
#107 = EDGE_CURVE('',#108,#100,#110,.T.);
#108 = VERTEX_POINT('',#109);
#109 = CARTESIAN_POINT('',(0.,18.110912703474,16.));
#110 = LINE('',#111,#112);
#111 = CARTESIAN_POINT('',(0.,18.110912703474,16.));
#112 = VECTOR('',#113,1.);
#113 = DIRECTION('',(0.,0.707106781187,-0.707106781187));
#114 = ORIENTED_EDGE('',*,*,#115,.F.);
#115 = EDGE_CURVE('',#92,#108,#116,.T.);
#116 = LINE('',#117,#118);
#117 = CARTESIAN_POINT('',(0.,22.,19.889087296526));
#118 = VECTOR('',#119,1.);
#119 = DIRECTION('',(0.,-0.707106781187,-0.707106781187));
#120 = PLANE('',#121);
#121 = AXIS2_PLACEMENT_3D('',#122,#123,#124);
#122 = CARTESIAN_POINT('',(0.,0.,0.));
#123 = DIRECTION('',(1.,0.,0.));
#124 = DIRECTION('',(0.,0.,1.));
#125 = ADVANCED_FACE('',(#126),#153,.T.);
#126 = FACE_BOUND('',#127,.T.);
#127 = EDGE_LOOP('',(#128,#129,#138,#146));
#128 = ORIENTED_EDGE('',*,*,#21,.F.);
#129 = ORIENTED_EDGE('',*,*,#130,.F.);
#130 = EDGE_CURVE('',#131,#22,#133,.T.);
#131 = VERTEX_POINT('',#132);
#132 = CARTESIAN_POINT('',(1.5,-5.551115123126E-17,0.6));
#133 = CIRCLE('',#134,1.5);
#134 = AXIS2_PLACEMENT_3D('',#135,#136,#137);
#135 = CARTESIAN_POINT('',(1.5,1.5,0.6));
#136 = DIRECTION('',(-0.,0.,-1.));
#137 = DIRECTION('',(-4.440892098501E-16,-1.,0.));
#138 = ORIENTED_EDGE('',*,*,#139,.T.);
#139 = EDGE_CURVE('',#131,#140,#142,.T.);
#140 = VERTEX_POINT('',#141);
#141 = CARTESIAN_POINT('',(1.5,-1.554312234475E-15,31.4));
#142 = LINE('',#143,#144);
#143 = CARTESIAN_POINT('',(1.5,-2.22044604925E-16,0.));
#144 = VECTOR('',#145,1.);
#145 = DIRECTION('',(0.,0.,1.));
#146 = ORIENTED_EDGE('',*,*,#147,.T.);
#147 = EDGE_CURVE('',#140,#24,#148,.T.);
#148 = CIRCLE('',#149,1.5);
#149 = AXIS2_PLACEMENT_3D('',#150,#151,#152);
#150 = CARTESIAN_POINT('',(1.5,1.5,31.4));
#151 = DIRECTION('',(-0.,0.,-1.));
#152 = DIRECTION('',(-4.440892098501E-16,-1.,0.));
#153 = CYLINDRICAL_SURFACE('',#154,1.5);
#154 = AXIS2_PLACEMENT_3D('',#155,#156,#157);
#155 = CARTESIAN_POINT('',(1.5,1.5,0.));
#156 = DIRECTION('',(0.,0.,1.));
#157 = DIRECTION('',(-1.,0.,0.));
#158 = ADVANCED_FACE('',(#159),#184,.F.);
#159 = FACE_BOUND('',#160,.T.);
#160 = EDGE_LOOP('',(#161,#169,#170,#178));
#161 = ORIENTED_EDGE('',*,*,#162,.F.);
#162 = EDGE_CURVE('',#22,#163,#165,.T.);
#163 = VERTEX_POINT('',#164);
#164 = CARTESIAN_POINT('',(0.6,1.5,0.));
#165 = LINE('',#166,#167);
#166 = CARTESIAN_POINT('',(0.,1.5,0.6));
#167 = VECTOR('',#168,1.);
#168 = DIRECTION('',(0.707106781187,-1.137114430566E-16,-0.707106781187)
  );
#169 = ORIENTED_EDGE('',*,*,#31,.T.);
#170 = ORIENTED_EDGE('',*,*,#171,.T.);
#171 = EDGE_CURVE('',#32,#172,#174,.T.);
#172 = VERTEX_POINT('',#173);
#173 = CARTESIAN_POINT('',(0.6,88.5,-5.551115123126E-17));
#174 = LINE('',#175,#176);
#175 = CARTESIAN_POINT('',(0.3,88.5,0.3));
#176 = VECTOR('',#177,1.);
#177 = DIRECTION('',(0.707106781187,0.,-0.707106781187));
#178 = ORIENTED_EDGE('',*,*,#179,.F.);
#179 = EDGE_CURVE('',#163,#172,#180,.T.);
#180 = LINE('',#181,#182);
#181 = CARTESIAN_POINT('',(0.6,1.5,0.));
#182 = VECTOR('',#183,1.);
#183 = DIRECTION('',(0.,1.,0.));
#184 = PLANE('',#185);
#185 = AXIS2_PLACEMENT_3D('',#186,#187,#188);
#186 = CARTESIAN_POINT('',(0.3,1.5,0.3));
#187 = DIRECTION('',(0.707106781187,0.,0.707106781187));
#188 = DIRECTION('',(0.,-1.,0.));
#189 = ADVANCED_FACE('',(#190),#215,.F.);
#190 = FACE_BOUND('',#191,.F.);
#191 = EDGE_LOOP('',(#192,#200,#201,#209));
#192 = ORIENTED_EDGE('',*,*,#193,.F.);
#193 = EDGE_CURVE('',#24,#194,#196,.T.);
#194 = VERTEX_POINT('',#195);
#195 = CARTESIAN_POINT('',(0.6,1.5,32.));
#196 = LINE('',#197,#198);
#197 = CARTESIAN_POINT('',(0.,1.5,31.4));
#198 = VECTOR('',#199,1.);
#199 = DIRECTION('',(0.707106781187,-1.137114430566E-16,0.707106781187)
  );
#200 = ORIENTED_EDGE('',*,*,#47,.T.);
#201 = ORIENTED_EDGE('',*,*,#202,.T.);
#202 = EDGE_CURVE('',#40,#203,#205,.T.);
#203 = VERTEX_POINT('',#204);
#204 = CARTESIAN_POINT('',(0.6,88.5,32.));
#205 = LINE('',#206,#207);
#206 = CARTESIAN_POINT('',(0.3,88.5,31.7));
#207 = VECTOR('',#208,1.);
#208 = DIRECTION('',(0.707106781187,0.,0.707106781187));
#209 = ORIENTED_EDGE('',*,*,#210,.F.);
#210 = EDGE_CURVE('',#194,#203,#211,.T.);
#211 = LINE('',#212,#213);
#212 = CARTESIAN_POINT('',(0.6,1.5,32.));
#213 = VECTOR('',#214,1.);
#214 = DIRECTION('',(0.,1.,0.));
#215 = PLANE('',#216);
#216 = AXIS2_PLACEMENT_3D('',#217,#218,#219);
#217 = CARTESIAN_POINT('',(0.3,1.5,31.7));
#218 = DIRECTION('',(0.707106781187,0.,-0.707106781187));
#219 = DIRECTION('',(0.,1.,0.));
#220 = ADVANCED_FACE('',(#221),#248,.T.);
#221 = FACE_BOUND('',#222,.F.);
#222 = EDGE_LOOP('',(#223,#224,#233,#241));
#223 = ORIENTED_EDGE('',*,*,#39,.F.);
#224 = ORIENTED_EDGE('',*,*,#225,.T.);
#225 = EDGE_CURVE('',#32,#226,#228,.T.);
#226 = VERTEX_POINT('',#227);
#227 = CARTESIAN_POINT('',(1.5,90.,0.6));
#228 = CIRCLE('',#229,1.5);
#229 = AXIS2_PLACEMENT_3D('',#230,#231,#232);
#230 = CARTESIAN_POINT('',(1.5,88.5,0.6));
#231 = DIRECTION('',(0.,0.,-1.));
#232 = DIRECTION('',(-1.,0.,0.));
#233 = ORIENTED_EDGE('',*,*,#234,.T.);
#234 = EDGE_CURVE('',#226,#235,#237,.T.);
#235 = VERTEX_POINT('',#236);
#236 = CARTESIAN_POINT('',(1.5,90.,31.4));
#237 = LINE('',#238,#239);
#238 = CARTESIAN_POINT('',(1.5,90.,0.));
#239 = VECTOR('',#240,1.);
#240 = DIRECTION('',(0.,0.,1.));
#241 = ORIENTED_EDGE('',*,*,#242,.F.);
#242 = EDGE_CURVE('',#40,#235,#243,.T.);
#243 = CIRCLE('',#244,1.5);
#244 = AXIS2_PLACEMENT_3D('',#245,#246,#247);
#245 = CARTESIAN_POINT('',(1.5,88.5,31.4));
#246 = DIRECTION('',(0.,0.,-1.));
#247 = DIRECTION('',(-1.,0.,0.));
#248 = CYLINDRICAL_SURFACE('',#249,1.5);
#249 = AXIS2_PLACEMENT_3D('',#250,#251,#252);
#250 = CARTESIAN_POINT('',(1.5,88.5,0.));
#251 = DIRECTION('',(0.,0.,1.));
#252 = DIRECTION('',(-1.,0.,0.));
#253 = ADVANCED_FACE('',(#254),#279,.T.);
#254 = FACE_BOUND('',#255,.T.);
#255 = EDGE_LOOP('',(#256,#264,#272,#278));
#256 = ORIENTED_EDGE('',*,*,#257,.T.);
#257 = EDGE_CURVE('',#56,#258,#260,.T.);
#258 = VERTEX_POINT('',#259);
#259 = CARTESIAN_POINT('',(4.,75.889087296526,16.));
#260 = LINE('',#261,#262);
#261 = CARTESIAN_POINT('',(0.,75.889087296526,16.));
#262 = VECTOR('',#263,1.);
#263 = DIRECTION('',(1.,0.,0.));
#264 = ORIENTED_EDGE('',*,*,#265,.T.);
#265 = EDGE_CURVE('',#258,#266,#268,.T.);
#266 = VERTEX_POINT('',#267);
#267 = CARTESIAN_POINT('',(4.,72.,19.889087296526));
#268 = LINE('',#269,#270);
#269 = CARTESIAN_POINT('',(4.,75.889087296526,16.));
#270 = VECTOR('',#271,1.);
#271 = DIRECTION('',(0.,-0.707106781187,0.707106781187));
#272 = ORIENTED_EDGE('',*,*,#273,.F.);
#273 = EDGE_CURVE('',#58,#266,#274,.T.);
#274 = LINE('',#275,#276);
#275 = CARTESIAN_POINT('',(0.,72.,19.889087296526));
#276 = VECTOR('',#277,1.);
#277 = DIRECTION('',(1.,0.,0.));
#278 = ORIENTED_EDGE('',*,*,#55,.F.);
#279 = PLANE('',#280);
#280 = AXIS2_PLACEMENT_3D('',#281,#282,#283);
#281 = CARTESIAN_POINT('',(0.,75.889087296526,16.));
#282 = DIRECTION('',(0.,-0.707106781187,-0.707106781187));
#283 = DIRECTION('',(0.,-0.707106781187,0.707106781187));
#284 = ADVANCED_FACE('',(#285),#303,.T.);
#285 = FACE_BOUND('',#286,.T.);
#286 = EDGE_LOOP('',(#287,#288,#296,#302));
#287 = ORIENTED_EDGE('',*,*,#273,.T.);
#288 = ORIENTED_EDGE('',*,*,#289,.T.);
#289 = EDGE_CURVE('',#266,#290,#292,.T.);
#290 = VERTEX_POINT('',#291);
#291 = CARTESIAN_POINT('',(4.,68.110912703474,16.));
#292 = LINE('',#293,#294);
#293 = CARTESIAN_POINT('',(4.,72.,19.889087296526));
#294 = VECTOR('',#295,1.);
#295 = DIRECTION('',(0.,-0.707106781187,-0.707106781187));
#296 = ORIENTED_EDGE('',*,*,#297,.F.);
#297 = EDGE_CURVE('',#74,#290,#298,.T.);
#298 = LINE('',#299,#300);
#299 = CARTESIAN_POINT('',(0.,68.110912703474,16.));
#300 = VECTOR('',#301,1.);
#301 = DIRECTION('',(1.,0.,0.));
#302 = ORIENTED_EDGE('',*,*,#81,.F.);
#303 = PLANE('',#304);
#304 = AXIS2_PLACEMENT_3D('',#305,#306,#307);
#305 = CARTESIAN_POINT('',(0.,72.,19.889087296526));
#306 = DIRECTION('',(0.,0.707106781187,-0.707106781187));
#307 = DIRECTION('',(0.,-0.707106781187,-0.707106781187));
#308 = ADVANCED_FACE('',(#309),#327,.T.);
#309 = FACE_BOUND('',#310,.T.);
#310 = EDGE_LOOP('',(#311,#312,#320,#326));
#311 = ORIENTED_EDGE('',*,*,#297,.T.);
#312 = ORIENTED_EDGE('',*,*,#313,.T.);
#313 = EDGE_CURVE('',#290,#314,#316,.T.);
#314 = VERTEX_POINT('',#315);
#315 = CARTESIAN_POINT('',(4.,72.,12.110912703474));
#316 = LINE('',#317,#318);
#317 = CARTESIAN_POINT('',(4.,68.110912703474,16.));
#318 = VECTOR('',#319,1.);
#319 = DIRECTION('',(0.,0.707106781187,-0.707106781187));
#320 = ORIENTED_EDGE('',*,*,#321,.F.);
#321 = EDGE_CURVE('',#66,#314,#322,.T.);
#322 = LINE('',#323,#324);
#323 = CARTESIAN_POINT('',(0.,72.,12.110912703474));
#324 = VECTOR('',#325,1.);
#325 = DIRECTION('',(1.,0.,0.));
#326 = ORIENTED_EDGE('',*,*,#73,.F.);
#327 = PLANE('',#328);
#328 = AXIS2_PLACEMENT_3D('',#329,#330,#331);
#329 = CARTESIAN_POINT('',(0.,68.110912703474,16.));
#330 = DIRECTION('',(0.,0.707106781187,0.707106781187));
#331 = DIRECTION('',(0.,0.707106781187,-0.707106781187));
#332 = ADVANCED_FACE('',(#333),#344,.T.);
#333 = FACE_BOUND('',#334,.T.);
#334 = EDGE_LOOP('',(#335,#336,#342,#343));
#335 = ORIENTED_EDGE('',*,*,#321,.T.);
#336 = ORIENTED_EDGE('',*,*,#337,.T.);
#337 = EDGE_CURVE('',#314,#258,#338,.T.);
#338 = LINE('',#339,#340);
#339 = CARTESIAN_POINT('',(4.,72.,12.110912703474));
#340 = VECTOR('',#341,1.);
#341 = DIRECTION('',(0.,0.707106781187,0.707106781187));
#342 = ORIENTED_EDGE('',*,*,#257,.F.);
#343 = ORIENTED_EDGE('',*,*,#65,.F.);
#344 = PLANE('',#345);
#345 = AXIS2_PLACEMENT_3D('',#346,#347,#348);
#346 = CARTESIAN_POINT('',(0.,72.,12.110912703474));
#347 = DIRECTION('',(0.,-0.707106781187,0.707106781187));
#348 = DIRECTION('',(0.,0.707106781187,0.707106781187));
#349 = ADVANCED_FACE('',(#350),#375,.T.);
#350 = FACE_BOUND('',#351,.T.);
#351 = EDGE_LOOP('',(#352,#360,#368,#374));
#352 = ORIENTED_EDGE('',*,*,#353,.T.);
#353 = EDGE_CURVE('',#90,#354,#356,.T.);
#354 = VERTEX_POINT('',#355);
#355 = CARTESIAN_POINT('',(4.,25.889087296526,16.));
#356 = LINE('',#357,#358);
#357 = CARTESIAN_POINT('',(0.,25.889087296526,16.));
#358 = VECTOR('',#359,1.);
#359 = DIRECTION('',(1.,0.,0.));
#360 = ORIENTED_EDGE('',*,*,#361,.T.);
#361 = EDGE_CURVE('',#354,#362,#364,.T.);
#362 = VERTEX_POINT('',#363);
#363 = CARTESIAN_POINT('',(4.,22.,19.889087296526));
#364 = LINE('',#365,#366);
#365 = CARTESIAN_POINT('',(4.,25.889087296526,16.));
#366 = VECTOR('',#367,1.);
#367 = DIRECTION('',(0.,-0.707106781187,0.707106781187));
#368 = ORIENTED_EDGE('',*,*,#369,.F.);
#369 = EDGE_CURVE('',#92,#362,#370,.T.);
#370 = LINE('',#371,#372);
#371 = CARTESIAN_POINT('',(0.,22.,19.889087296526));
#372 = VECTOR('',#373,1.);
#373 = DIRECTION('',(1.,0.,0.));
#374 = ORIENTED_EDGE('',*,*,#89,.F.);
#375 = PLANE('',#376);
#376 = AXIS2_PLACEMENT_3D('',#377,#378,#379);
#377 = CARTESIAN_POINT('',(0.,25.889087296526,16.));
#378 = DIRECTION('',(0.,-0.707106781187,-0.707106781187));
#379 = DIRECTION('',(0.,-0.707106781187,0.707106781187));
#380 = ADVANCED_FACE('',(#381),#399,.T.);
#381 = FACE_BOUND('',#382,.T.);
#382 = EDGE_LOOP('',(#383,#391,#397,#398));
#383 = ORIENTED_EDGE('',*,*,#384,.T.);
#384 = EDGE_CURVE('',#100,#385,#387,.T.);
#385 = VERTEX_POINT('',#386);
#386 = CARTESIAN_POINT('',(4.,22.,12.110912703474));
#387 = LINE('',#388,#389);
#388 = CARTESIAN_POINT('',(0.,22.,12.110912703474));
#389 = VECTOR('',#390,1.);
#390 = DIRECTION('',(1.,0.,0.));
#391 = ORIENTED_EDGE('',*,*,#392,.T.);
#392 = EDGE_CURVE('',#385,#354,#393,.T.);
#393 = LINE('',#394,#395);
#394 = CARTESIAN_POINT('',(4.,22.,12.110912703474));
#395 = VECTOR('',#396,1.);
#396 = DIRECTION('',(0.,0.707106781187,0.707106781187));
#397 = ORIENTED_EDGE('',*,*,#353,.F.);
#398 = ORIENTED_EDGE('',*,*,#99,.F.);
#399 = PLANE('',#400);
#400 = AXIS2_PLACEMENT_3D('',#401,#402,#403);
#401 = CARTESIAN_POINT('',(0.,22.,12.110912703474));
#402 = DIRECTION('',(0.,-0.707106781187,0.707106781187));
#403 = DIRECTION('',(0.,0.707106781187,0.707106781187));
#404 = ADVANCED_FACE('',(#405),#423,.T.);
#405 = FACE_BOUND('',#406,.T.);
#406 = EDGE_LOOP('',(#407,#408,#416,#422));
#407 = ORIENTED_EDGE('',*,*,#369,.T.);
#408 = ORIENTED_EDGE('',*,*,#409,.T.);
#409 = EDGE_CURVE('',#362,#410,#412,.T.);
#410 = VERTEX_POINT('',#411);
#411 = CARTESIAN_POINT('',(4.,18.110912703474,16.));
#412 = LINE('',#413,#414);
#413 = CARTESIAN_POINT('',(4.,22.,19.889087296526));
#414 = VECTOR('',#415,1.);
#415 = DIRECTION('',(0.,-0.707106781187,-0.707106781187));
#416 = ORIENTED_EDGE('',*,*,#417,.F.);
#417 = EDGE_CURVE('',#108,#410,#418,.T.);
#418 = LINE('',#419,#420);
#419 = CARTESIAN_POINT('',(0.,18.110912703474,16.));
#420 = VECTOR('',#421,1.);
#421 = DIRECTION('',(1.,0.,0.));
#422 = ORIENTED_EDGE('',*,*,#115,.F.);
#423 = PLANE('',#424);
#424 = AXIS2_PLACEMENT_3D('',#425,#426,#427);
#425 = CARTESIAN_POINT('',(0.,22.,19.889087296526));
#426 = DIRECTION('',(0.,0.707106781187,-0.707106781187));
#427 = DIRECTION('',(0.,-0.707106781187,-0.707106781187));
#428 = ADVANCED_FACE('',(#429),#440,.T.);
#429 = FACE_BOUND('',#430,.T.);
#430 = EDGE_LOOP('',(#431,#432,#438,#439));
#431 = ORIENTED_EDGE('',*,*,#417,.T.);
#432 = ORIENTED_EDGE('',*,*,#433,.T.);
#433 = EDGE_CURVE('',#410,#385,#434,.T.);
#434 = LINE('',#435,#436);
#435 = CARTESIAN_POINT('',(4.,18.110912703474,16.));
#436 = VECTOR('',#437,1.);
#437 = DIRECTION('',(0.,0.707106781187,-0.707106781187));
#438 = ORIENTED_EDGE('',*,*,#384,.F.);
#439 = ORIENTED_EDGE('',*,*,#107,.F.);
#440 = PLANE('',#441);
#441 = AXIS2_PLACEMENT_3D('',#442,#443,#444);
#442 = CARTESIAN_POINT('',(0.,18.110912703474,16.));
#443 = DIRECTION('',(0.,0.707106781187,0.707106781187));
#444 = DIRECTION('',(0.,0.707106781187,-0.707106781187));
#445 = ADVANCED_FACE('',(#446),#465,.T.);
#446 = FACE_BOUND('',#447,.T.);
#447 = EDGE_LOOP('',(#448,#456,#457,#458));
#448 = ORIENTED_EDGE('',*,*,#449,.F.);
#449 = EDGE_CURVE('',#131,#450,#452,.T.);
#450 = VERTEX_POINT('',#451);
#451 = CARTESIAN_POINT('',(1.5,0.6,-5.551115123126E-17));
#452 = LINE('',#453,#454);
#453 = CARTESIAN_POINT('',(1.5,0.3,0.3));
#454 = VECTOR('',#455,1.);
#455 = DIRECTION('',(0.,0.707106781187,-0.707106781187));
#456 = ORIENTED_EDGE('',*,*,#130,.T.);
#457 = ORIENTED_EDGE('',*,*,#162,.T.);
#458 = ORIENTED_EDGE('',*,*,#459,.F.);
#459 = EDGE_CURVE('',#450,#163,#460,.T.);
#460 = CIRCLE('',#461,0.9);
#461 = AXIS2_PLACEMENT_3D('',#462,#463,#464);
#462 = CARTESIAN_POINT('',(1.5,1.5,0.));
#463 = DIRECTION('',(-0.,0.,-1.));
#464 = DIRECTION('',(-4.440892098501E-16,-1.,0.));
#465 = CONICAL_SURFACE('',#466,1.5,0.785398163397);
#466 = AXIS2_PLACEMENT_3D('',#467,#468,#469);
#467 = CARTESIAN_POINT('',(1.5,1.5,0.6));
#468 = DIRECTION('',(0.,0.,1.));
#469 = DIRECTION('',(-4.440892098501E-16,-1.,0.));
#470 = ADVANCED_FACE('',(#471),#490,.T.);
#471 = FACE_BOUND('',#472,.F.);
#472 = EDGE_LOOP('',(#473,#481,#482,#483));
#473 = ORIENTED_EDGE('',*,*,#474,.F.);
#474 = EDGE_CURVE('',#140,#475,#477,.T.);
#475 = VERTEX_POINT('',#476);
#476 = CARTESIAN_POINT('',(1.5,0.6,32.));
#477 = LINE('',#478,#479);
#478 = CARTESIAN_POINT('',(1.5,0.3,31.7));
#479 = VECTOR('',#480,1.);
#480 = DIRECTION('',(0.,0.707106781187,0.707106781187));
#481 = ORIENTED_EDGE('',*,*,#147,.T.);
#482 = ORIENTED_EDGE('',*,*,#193,.T.);
#483 = ORIENTED_EDGE('',*,*,#484,.F.);
#484 = EDGE_CURVE('',#475,#194,#485,.T.);
#485 = CIRCLE('',#486,0.9);
#486 = AXIS2_PLACEMENT_3D('',#487,#488,#489);
#487 = CARTESIAN_POINT('',(1.5,1.5,32.));
#488 = DIRECTION('',(-0.,0.,-1.));
#489 = DIRECTION('',(-4.440892098501E-16,-1.,0.));
#490 = CONICAL_SURFACE('',#491,1.5,0.785398163397);
#491 = AXIS2_PLACEMENT_3D('',#492,#493,#494);
#492 = CARTESIAN_POINT('',(1.5,1.5,31.4));
#493 = DIRECTION('',(-0.,-0.,-1.));
#494 = DIRECTION('',(-4.440892098501E-16,-1.,0.));
#495 = ADVANCED_FACE('',(#496),#521,.F.);
#496 = FACE_BOUND('',#497,.F.);
#497 = EDGE_LOOP('',(#498,#499,#507,#515));
#498 = ORIENTED_EDGE('',*,*,#139,.T.);
#499 = ORIENTED_EDGE('',*,*,#500,.F.);
#500 = EDGE_CURVE('',#501,#140,#503,.T.);
#501 = VERTEX_POINT('',#502);
#502 = CARTESIAN_POINT('',(8.,-1.554312234475E-15,31.4));
#503 = LINE('',#504,#505);
#504 = CARTESIAN_POINT('',(8.,0.,31.4));
#505 = VECTOR('',#506,1.);
#506 = DIRECTION('',(-1.,0.,0.));
#507 = ORIENTED_EDGE('',*,*,#508,.F.);
#508 = EDGE_CURVE('',#509,#501,#511,.T.);
#509 = VERTEX_POINT('',#510);
#510 = CARTESIAN_POINT('',(8.,-5.551115123126E-17,0.6));
#511 = LINE('',#512,#513);
#512 = CARTESIAN_POINT('',(8.,0.,0.));
#513 = VECTOR('',#514,1.);
#514 = DIRECTION('',(0.,0.,1.));
#515 = ORIENTED_EDGE('',*,*,#516,.T.);
#516 = EDGE_CURVE('',#509,#131,#517,.T.);
#517 = LINE('',#518,#519);
#518 = CARTESIAN_POINT('',(8.,0.,0.6));
#519 = VECTOR('',#520,1.);
#520 = DIRECTION('',(-1.,0.,0.));
#521 = PLANE('',#522);
#522 = AXIS2_PLACEMENT_3D('',#523,#524,#525);
#523 = CARTESIAN_POINT('',(0.,0.,0.));
#524 = DIRECTION('',(0.,1.,0.));
#525 = DIRECTION('',(0.,0.,1.));
#526 = ADVANCED_FACE('',(#527),#687,.T.);
#527 = FACE_BOUND('',#528,.T.);
#528 = EDGE_LOOP('',(#529,#537,#538,#539,#548,#556,#565,#573,#581,#589,
    #597,#605,#614,#622,#631,#639,#648,#656,#664,#673,#681));
#529 = ORIENTED_EDGE('',*,*,#530,.T.);
#530 = EDGE_CURVE('',#531,#450,#533,.T.);
#531 = VERTEX_POINT('',#532);
#532 = CARTESIAN_POINT('',(7.4,0.6,-5.551115123126E-17));
#533 = LINE('',#534,#535);
#534 = CARTESIAN_POINT('',(8.,0.6,0.));
#535 = VECTOR('',#536,1.);
#536 = DIRECTION('',(-1.,0.,0.));
#537 = ORIENTED_EDGE('',*,*,#459,.T.);
#538 = ORIENTED_EDGE('',*,*,#179,.T.);
#539 = ORIENTED_EDGE('',*,*,#540,.T.);
#540 = EDGE_CURVE('',#172,#541,#543,.T.);
#541 = VERTEX_POINT('',#542);
#542 = CARTESIAN_POINT('',(1.5,89.4,0.));
#543 = CIRCLE('',#544,0.9);
#544 = AXIS2_PLACEMENT_3D('',#545,#546,#547);
#545 = CARTESIAN_POINT('',(1.5,88.5,0.));
#546 = DIRECTION('',(0.,0.,-1.));
#547 = DIRECTION('',(-1.,0.,0.));
#548 = ORIENTED_EDGE('',*,*,#549,.T.);
#549 = EDGE_CURVE('',#541,#550,#552,.T.);
#550 = VERTEX_POINT('',#551);
#551 = CARTESIAN_POINT('',(6.5,89.4,-8.326672684689E-16));
#552 = LINE('',#553,#554);
#553 = CARTESIAN_POINT('',(1.5,89.4,0.));
#554 = VECTOR('',#555,1.);
#555 = DIRECTION('',(1.,0.,0.));
#556 = ORIENTED_EDGE('',*,*,#557,.T.);
#557 = EDGE_CURVE('',#550,#558,#560,.T.);
#558 = VERTEX_POINT('',#559);
#559 = CARTESIAN_POINT('',(7.4,88.5,-1.110223024625E-16));
#560 = CIRCLE('',#561,0.9);
#561 = AXIS2_PLACEMENT_3D('',#562,#563,#564);
#562 = CARTESIAN_POINT('',(6.5,88.5,0.));
#563 = DIRECTION('',(0.,0.,-1.));
#564 = DIRECTION('',(0.,1.,0.));
#565 = ORIENTED_EDGE('',*,*,#566,.T.);
#566 = EDGE_CURVE('',#558,#567,#569,.T.);
#567 = VERTEX_POINT('',#568);
#568 = CARTESIAN_POINT('',(7.4,29.4,-7.216449660064E-16));
#569 = LINE('',#570,#571);
#570 = CARTESIAN_POINT('',(7.4,88.5,0.));
#571 = VECTOR('',#572,1.);
#572 = DIRECTION('',(0.,-1.,0.));
#573 = ORIENTED_EDGE('',*,*,#574,.T.);
#574 = EDGE_CURVE('',#567,#575,#577,.T.);
#575 = VERTEX_POINT('',#576);
#576 = CARTESIAN_POINT('',(30.6,29.4,9.436895709314E-16));
#577 = LINE('',#578,#579);
#578 = CARTESIAN_POINT('',(8.,29.4,0.));
#579 = VECTOR('',#580,1.);
#580 = DIRECTION('',(1.,0.,0.));
#581 = ORIENTED_EDGE('',*,*,#582,.T.);
#582 = EDGE_CURVE('',#575,#583,#585,.T.);
#583 = VERTEX_POINT('',#584);
#584 = CARTESIAN_POINT('',(30.6,44.6,9.436895709314E-16));
#585 = LINE('',#586,#587);
#586 = CARTESIAN_POINT('',(30.6,30.,0.));
#587 = VECTOR('',#588,1.);
#588 = DIRECTION('',(0.,1.,0.));
#589 = ORIENTED_EDGE('',*,*,#590,.F.);
#590 = EDGE_CURVE('',#591,#583,#593,.T.);
#591 = VERTEX_POINT('',#592);
#592 = CARTESIAN_POINT('',(27.6,44.6,-1.554312234475E-15));
#593 = LINE('',#594,#595);
#594 = CARTESIAN_POINT('',(27.,44.6,0.));
#595 = VECTOR('',#596,1.);
#596 = DIRECTION('',(1.,0.,0.));
#597 = ORIENTED_EDGE('',*,*,#598,.T.);
#598 = EDGE_CURVE('',#591,#599,#601,.T.);
#599 = VERTEX_POINT('',#600);
#600 = CARTESIAN_POINT('',(27.6,46.5,-1.554312234475E-15));
#601 = LINE('',#602,#603);
#602 = CARTESIAN_POINT('',(27.6,44.,0.));
#603 = VECTOR('',#604,1.);
#604 = DIRECTION('',(0.,1.,0.));
#605 = ORIENTED_EDGE('',*,*,#606,.T.);
#606 = EDGE_CURVE('',#599,#607,#609,.T.);
#607 = VERTEX_POINT('',#608);
#608 = CARTESIAN_POINT('',(28.5,47.4,6.661338147751E-16));
#609 = CIRCLE('',#610,0.9);
#610 = AXIS2_PLACEMENT_3D('',#611,#612,#613);
#611 = CARTESIAN_POINT('',(28.5,46.5,0.));
#612 = DIRECTION('',(0.,0.,-1.));
#613 = DIRECTION('',(-1.,0.,0.));
#614 = ORIENTED_EDGE('',*,*,#615,.T.);
#615 = EDGE_CURVE('',#607,#616,#618,.T.);
#616 = VERTEX_POINT('',#617);
#617 = CARTESIAN_POINT('',(36.5,47.4,-4.107825191113E-15));
#618 = LINE('',#619,#620);
#619 = CARTESIAN_POINT('',(28.5,47.4,0.));
#620 = VECTOR('',#621,1.);
#621 = DIRECTION('',(1.,0.,0.));
#622 = ORIENTED_EDGE('',*,*,#623,.T.);
#623 = EDGE_CURVE('',#616,#624,#626,.T.);
#624 = VERTEX_POINT('',#625);
#625 = CARTESIAN_POINT('',(37.4,46.5,6.661338147751E-16));
#626 = CIRCLE('',#627,0.9);
#627 = AXIS2_PLACEMENT_3D('',#628,#629,#630);
#628 = CARTESIAN_POINT('',(36.5,46.5,0.));
#629 = DIRECTION('',(0.,0.,-1.));
#630 = DIRECTION('',(0.,1.,0.));
#631 = ORIENTED_EDGE('',*,*,#632,.T.);
#632 = EDGE_CURVE('',#624,#633,#635,.T.);
#633 = VERTEX_POINT('',#634);
#634 = CARTESIAN_POINT('',(37.4,21.5,-1.554312234475E-15));
#635 = LINE('',#636,#637);
#636 = CARTESIAN_POINT('',(37.4,46.5,0.));
#637 = VECTOR('',#638,1.);
#638 = DIRECTION('',(0.,-1.,0.));
#639 = ORIENTED_EDGE('',*,*,#640,.T.);
#640 = EDGE_CURVE('',#633,#641,#643,.T.);
#641 = VERTEX_POINT('',#642);
#642 = CARTESIAN_POINT('',(36.5,20.6,6.661338147751E-16));
#643 = CIRCLE('',#644,0.9);
#644 = AXIS2_PLACEMENT_3D('',#645,#646,#647);
#645 = CARTESIAN_POINT('',(36.5,21.5,0.));
#646 = DIRECTION('',(0.,0.,-1.));
#647 = DIRECTION('',(1.,0.,0.));
#648 = ORIENTED_EDGE('',*,*,#649,.T.);
#649 = EDGE_CURVE('',#641,#650,#652,.T.);
#650 = VERTEX_POINT('',#651);
#651 = CARTESIAN_POINT('',(35.64,20.6,9.436895709314E-16));
#652 = LINE('',#653,#654);
#653 = CARTESIAN_POINT('',(36.5,20.6,0.));
#654 = VECTOR('',#655,1.);
#655 = DIRECTION('',(-1.,0.,0.));
#656 = ORIENTED_EDGE('',*,*,#657,.T.);
#657 = EDGE_CURVE('',#650,#658,#660,.T.);
#658 = VERTEX_POINT('',#659);
#659 = CARTESIAN_POINT('',(27.894117647059,6.076470588235,
    -2.997602166488E-15));
#660 = LINE('',#661,#662);
#661 = CARTESIAN_POINT('',(35.470588235294,20.282352941176,0.));
#662 = VECTOR('',#663,1.);
#663 = DIRECTION('',(-0.470588235294,-0.882352941176,0.));
#664 = ORIENTED_EDGE('',*,*,#665,.T.);
#665 = EDGE_CURVE('',#658,#666,#668,.T.);
#666 = VERTEX_POINT('',#667);
#667 = CARTESIAN_POINT('',(27.1,5.6,6.661338147751E-16));
#668 = CIRCLE('',#669,0.9);
#669 = AXIS2_PLACEMENT_3D('',#670,#671,#672);
#670 = CARTESIAN_POINT('',(27.1,6.5,0.));
#671 = DIRECTION('',(0.,-0.,-1.));
#672 = DIRECTION('',(0.882352941176,-0.470588235294,0.));
#673 = ORIENTED_EDGE('',*,*,#674,.T.);
#674 = EDGE_CURVE('',#666,#675,#677,.T.);
#675 = VERTEX_POINT('',#676);
#676 = CARTESIAN_POINT('',(7.4,5.6,-7.216449660064E-16));
#677 = LINE('',#678,#679);
#678 = CARTESIAN_POINT('',(27.1,5.6,0.));
#679 = VECTOR('',#680,1.);
#680 = DIRECTION('',(-1.,0.,0.));
#681 = ORIENTED_EDGE('',*,*,#682,.F.);
#682 = EDGE_CURVE('',#531,#675,#683,.T.);
#683 = LINE('',#684,#685);
#684 = CARTESIAN_POINT('',(7.4,0.,0.));
#685 = VECTOR('',#686,1.);
#686 = DIRECTION('',(0.,1.,0.));
#687 = PLANE('',#688);
#688 = AXIS2_PLACEMENT_3D('',#689,#690,#691);
#689 = CARTESIAN_POINT('',(13.75,40.099315068493,0.));
#690 = DIRECTION('',(-0.,-0.,-1.));
#691 = DIRECTION('',(-1.,0.,0.));
#692 = ADVANCED_FACE('',(#693),#704,.T.);
#693 = FACE_BOUND('',#694,.T.);
#694 = EDGE_LOOP('',(#695,#696,#697,#703));
#695 = ORIENTED_EDGE('',*,*,#171,.F.);
#696 = ORIENTED_EDGE('',*,*,#225,.T.);
#697 = ORIENTED_EDGE('',*,*,#698,.T.);
#698 = EDGE_CURVE('',#226,#541,#699,.T.);
#699 = LINE('',#700,#701);
#700 = CARTESIAN_POINT('',(1.5,90.,0.6));
#701 = VECTOR('',#702,1.);
#702 = DIRECTION('',(4.329780281177E-17,-0.707106781187,-0.707106781187)
  );
#703 = ORIENTED_EDGE('',*,*,#540,.F.);
#704 = CONICAL_SURFACE('',#705,1.5,0.785398163397);
#705 = AXIS2_PLACEMENT_3D('',#706,#707,#708);
#706 = CARTESIAN_POINT('',(1.5,88.5,0.6));
#707 = DIRECTION('',(0.,0.,1.));
#708 = DIRECTION('',(-1.,0.,0.));
#709 = ADVANCED_FACE('',(#710),#870,.T.);
#710 = FACE_BOUND('',#711,.T.);
#711 = EDGE_LOOP('',(#712,#720,#728,#736,#745,#753,#761,#770,#778,#787,
    #795,#804,#812,#820,#828,#836,#844,#853,#861,#868,#869));
#712 = ORIENTED_EDGE('',*,*,#713,.F.);
#713 = EDGE_CURVE('',#714,#475,#716,.T.);
#714 = VERTEX_POINT('',#715);
#715 = CARTESIAN_POINT('',(7.4,0.6,32.));
#716 = LINE('',#717,#718);
#717 = CARTESIAN_POINT('',(8.,0.6,32.));
#718 = VECTOR('',#719,1.);
#719 = DIRECTION('',(-1.,0.,0.));
#720 = ORIENTED_EDGE('',*,*,#721,.T.);
#721 = EDGE_CURVE('',#714,#722,#724,.T.);
#722 = VERTEX_POINT('',#723);
#723 = CARTESIAN_POINT('',(7.4,5.6,32.));
#724 = LINE('',#725,#726);
#725 = CARTESIAN_POINT('',(7.4,0.,32.));
#726 = VECTOR('',#727,1.);
#727 = DIRECTION('',(0.,1.,0.));
#728 = ORIENTED_EDGE('',*,*,#729,.F.);
#729 = EDGE_CURVE('',#730,#722,#732,.T.);
#730 = VERTEX_POINT('',#731);
#731 = CARTESIAN_POINT('',(27.1,5.6,32.));
#732 = LINE('',#733,#734);
#733 = CARTESIAN_POINT('',(27.1,5.6,32.));
#734 = VECTOR('',#735,1.);
#735 = DIRECTION('',(-1.,0.,0.));
#736 = ORIENTED_EDGE('',*,*,#737,.F.);
#737 = EDGE_CURVE('',#738,#730,#740,.T.);
#738 = VERTEX_POINT('',#739);
#739 = CARTESIAN_POINT('',(27.894117647059,6.076470588235,32.));
#740 = CIRCLE('',#741,0.9);
#741 = AXIS2_PLACEMENT_3D('',#742,#743,#744);
#742 = CARTESIAN_POINT('',(27.1,6.5,32.));
#743 = DIRECTION('',(0.,-0.,-1.));
#744 = DIRECTION('',(0.882352941176,-0.470588235294,0.));
#745 = ORIENTED_EDGE('',*,*,#746,.F.);
#746 = EDGE_CURVE('',#747,#738,#749,.T.);
#747 = VERTEX_POINT('',#748);
#748 = CARTESIAN_POINT('',(35.64,20.6,32.));
#749 = LINE('',#750,#751);
#750 = CARTESIAN_POINT('',(35.470588235294,20.282352941176,32.));
#751 = VECTOR('',#752,1.);
#752 = DIRECTION('',(-0.470588235294,-0.882352941176,0.));
#753 = ORIENTED_EDGE('',*,*,#754,.F.);
#754 = EDGE_CURVE('',#755,#747,#757,.T.);
#755 = VERTEX_POINT('',#756);
#756 = CARTESIAN_POINT('',(36.5,20.6,32.));
#757 = LINE('',#758,#759);
#758 = CARTESIAN_POINT('',(36.5,20.6,32.));
#759 = VECTOR('',#760,1.);
#760 = DIRECTION('',(-1.,0.,0.));
#761 = ORIENTED_EDGE('',*,*,#762,.F.);
#762 = EDGE_CURVE('',#763,#755,#765,.T.);
#763 = VERTEX_POINT('',#764);
#764 = CARTESIAN_POINT('',(37.4,21.5,32.));
#765 = CIRCLE('',#766,0.9);
#766 = AXIS2_PLACEMENT_3D('',#767,#768,#769);
#767 = CARTESIAN_POINT('',(36.5,21.5,32.));
#768 = DIRECTION('',(0.,0.,-1.));
#769 = DIRECTION('',(1.,0.,0.));
#770 = ORIENTED_EDGE('',*,*,#771,.F.);
#771 = EDGE_CURVE('',#772,#763,#774,.T.);
#772 = VERTEX_POINT('',#773);
#773 = CARTESIAN_POINT('',(37.4,46.5,32.));
#774 = LINE('',#775,#776);
#775 = CARTESIAN_POINT('',(37.4,46.5,32.));
#776 = VECTOR('',#777,1.);
#777 = DIRECTION('',(0.,-1.,0.));
#778 = ORIENTED_EDGE('',*,*,#779,.F.);
#779 = EDGE_CURVE('',#780,#772,#782,.T.);
#780 = VERTEX_POINT('',#781);
#781 = CARTESIAN_POINT('',(36.5,47.4,32.));
#782 = CIRCLE('',#783,0.9);
#783 = AXIS2_PLACEMENT_3D('',#784,#785,#786);
#784 = CARTESIAN_POINT('',(36.5,46.5,32.));
#785 = DIRECTION('',(0.,0.,-1.));
#786 = DIRECTION('',(0.,1.,0.));
#787 = ORIENTED_EDGE('',*,*,#788,.F.);
#788 = EDGE_CURVE('',#789,#780,#791,.T.);
#789 = VERTEX_POINT('',#790);
#790 = CARTESIAN_POINT('',(28.5,47.4,32.));
#791 = LINE('',#792,#793);
#792 = CARTESIAN_POINT('',(28.5,47.4,32.));
#793 = VECTOR('',#794,1.);
#794 = DIRECTION('',(1.,0.,0.));
#795 = ORIENTED_EDGE('',*,*,#796,.F.);
#796 = EDGE_CURVE('',#797,#789,#799,.T.);
#797 = VERTEX_POINT('',#798);
#798 = CARTESIAN_POINT('',(27.6,46.5,32.));
#799 = CIRCLE('',#800,0.9);
#800 = AXIS2_PLACEMENT_3D('',#801,#802,#803);
#801 = CARTESIAN_POINT('',(28.5,46.5,32.));
#802 = DIRECTION('',(0.,0.,-1.));
#803 = DIRECTION('',(-1.,0.,0.));
#804 = ORIENTED_EDGE('',*,*,#805,.F.);
#805 = EDGE_CURVE('',#806,#797,#808,.T.);
#806 = VERTEX_POINT('',#807);
#807 = CARTESIAN_POINT('',(27.6,44.6,32.));
#808 = LINE('',#809,#810);
#809 = CARTESIAN_POINT('',(27.6,44.,32.));
#810 = VECTOR('',#811,1.);
#811 = DIRECTION('',(0.,1.,0.));
#812 = ORIENTED_EDGE('',*,*,#813,.T.);
#813 = EDGE_CURVE('',#806,#814,#816,.T.);
#814 = VERTEX_POINT('',#815);
#815 = CARTESIAN_POINT('',(30.6,44.6,32.));
#816 = LINE('',#817,#818);
#817 = CARTESIAN_POINT('',(27.,44.6,32.));
#818 = VECTOR('',#819,1.);
#819 = DIRECTION('',(1.,0.,0.));
#820 = ORIENTED_EDGE('',*,*,#821,.F.);
#821 = EDGE_CURVE('',#822,#814,#824,.T.);
#822 = VERTEX_POINT('',#823);
#823 = CARTESIAN_POINT('',(30.6,29.4,32.));
#824 = LINE('',#825,#826);
#825 = CARTESIAN_POINT('',(30.6,30.,32.));
#826 = VECTOR('',#827,1.);
#827 = DIRECTION('',(0.,1.,0.));
#828 = ORIENTED_EDGE('',*,*,#829,.F.);
#829 = EDGE_CURVE('',#830,#822,#832,.T.);
#830 = VERTEX_POINT('',#831);
#831 = CARTESIAN_POINT('',(7.4,29.4,32.));
#832 = LINE('',#833,#834);
#833 = CARTESIAN_POINT('',(8.,29.4,32.));
#834 = VECTOR('',#835,1.);
#835 = DIRECTION('',(1.,0.,0.));
#836 = ORIENTED_EDGE('',*,*,#837,.F.);
#837 = EDGE_CURVE('',#838,#830,#840,.T.);
#838 = VERTEX_POINT('',#839);
#839 = CARTESIAN_POINT('',(7.4,88.5,32.));
#840 = LINE('',#841,#842);
#841 = CARTESIAN_POINT('',(7.4,88.5,32.));
#842 = VECTOR('',#843,1.);
#843 = DIRECTION('',(0.,-1.,0.));
#844 = ORIENTED_EDGE('',*,*,#845,.F.);
#845 = EDGE_CURVE('',#846,#838,#848,.T.);
#846 = VERTEX_POINT('',#847);
#847 = CARTESIAN_POINT('',(6.5,89.4,32.));
#848 = CIRCLE('',#849,0.9);
#849 = AXIS2_PLACEMENT_3D('',#850,#851,#852);
#850 = CARTESIAN_POINT('',(6.5,88.5,32.));
#851 = DIRECTION('',(0.,0.,-1.));
#852 = DIRECTION('',(0.,1.,0.));
#853 = ORIENTED_EDGE('',*,*,#854,.F.);
#854 = EDGE_CURVE('',#855,#846,#857,.T.);
#855 = VERTEX_POINT('',#856);
#856 = CARTESIAN_POINT('',(1.5,89.4,32.));
#857 = LINE('',#858,#859);
#858 = CARTESIAN_POINT('',(1.5,89.4,32.));
#859 = VECTOR('',#860,1.);
#860 = DIRECTION('',(1.,0.,0.));
#861 = ORIENTED_EDGE('',*,*,#862,.F.);
#862 = EDGE_CURVE('',#203,#855,#863,.T.);
#863 = CIRCLE('',#864,0.9);
#864 = AXIS2_PLACEMENT_3D('',#865,#866,#867);
#865 = CARTESIAN_POINT('',(1.5,88.5,32.));
#866 = DIRECTION('',(0.,0.,-1.));
#867 = DIRECTION('',(-1.,0.,0.));
#868 = ORIENTED_EDGE('',*,*,#210,.F.);
#869 = ORIENTED_EDGE('',*,*,#484,.F.);
#870 = PLANE('',#871);
#871 = AXIS2_PLACEMENT_3D('',#872,#873,#874);
#872 = CARTESIAN_POINT('',(13.75,40.099315068493,32.));
#873 = DIRECTION('',(0.,0.,1.));
#874 = DIRECTION('',(1.,0.,0.));
#875 = ADVANCED_FACE('',(#876),#887,.T.);
#876 = FACE_BOUND('',#877,.F.);
#877 = EDGE_LOOP('',(#878,#879,#880,#886));
#878 = ORIENTED_EDGE('',*,*,#202,.F.);
#879 = ORIENTED_EDGE('',*,*,#242,.T.);
#880 = ORIENTED_EDGE('',*,*,#881,.T.);
#881 = EDGE_CURVE('',#235,#855,#882,.T.);
#882 = LINE('',#883,#884);
#883 = CARTESIAN_POINT('',(1.5,90.,31.4));
#884 = VECTOR('',#885,1.);
#885 = DIRECTION('',(4.329780281177E-17,-0.707106781187,0.707106781187)
  );
#886 = ORIENTED_EDGE('',*,*,#862,.F.);
#887 = CONICAL_SURFACE('',#888,1.5,0.785398163397);
#888 = AXIS2_PLACEMENT_3D('',#889,#890,#891);
#889 = CARTESIAN_POINT('',(1.5,88.5,31.4));
#890 = DIRECTION('',(-0.,-0.,-1.));
#891 = DIRECTION('',(-1.,0.,0.));
#892 = ADVANCED_FACE('',(#893),#918,.T.);
#893 = FACE_BOUND('',#894,.T.);
#894 = EDGE_LOOP('',(#895,#896,#904,#912));
#895 = ORIENTED_EDGE('',*,*,#234,.T.);
#896 = ORIENTED_EDGE('',*,*,#897,.T.);
#897 = EDGE_CURVE('',#235,#898,#900,.T.);
#898 = VERTEX_POINT('',#899);
#899 = CARTESIAN_POINT('',(6.5,90.,31.4));
#900 = LINE('',#901,#902);
#901 = CARTESIAN_POINT('',(1.5,90.,31.4));
#902 = VECTOR('',#903,1.);
#903 = DIRECTION('',(1.,0.,0.));
#904 = ORIENTED_EDGE('',*,*,#905,.F.);
#905 = EDGE_CURVE('',#906,#898,#908,.T.);
#906 = VERTEX_POINT('',#907);
#907 = CARTESIAN_POINT('',(6.5,90.,0.6));
#908 = LINE('',#909,#910);
#909 = CARTESIAN_POINT('',(6.5,90.,0.));
#910 = VECTOR('',#911,1.);
#911 = DIRECTION('',(0.,0.,1.));
#912 = ORIENTED_EDGE('',*,*,#913,.F.);
#913 = EDGE_CURVE('',#226,#906,#914,.T.);
#914 = LINE('',#915,#916);
#915 = CARTESIAN_POINT('',(1.5,90.,0.6));
#916 = VECTOR('',#917,1.);
#917 = DIRECTION('',(1.,0.,0.));
#918 = PLANE('',#919);
#919 = AXIS2_PLACEMENT_3D('',#920,#921,#922);
#920 = CARTESIAN_POINT('',(0.,90.,0.));
#921 = DIRECTION('',(0.,1.,0.));
#922 = DIRECTION('',(0.,0.,1.));
#923 = ADVANCED_FACE('',(#924),#947,.F.);
#924 = FACE_BOUND('',#925,.F.);
#925 = EDGE_LOOP('',(#926,#927,#934,#942));
#926 = ORIENTED_EDGE('',*,*,#265,.T.);
#927 = ORIENTED_EDGE('',*,*,#928,.T.);
#928 = EDGE_CURVE('',#266,#929,#931,.T.);
#929 = VERTEX_POINT('',#930);
#930 = CARTESIAN_POINT('',(8.,72.,23.071067811865));
#931 = B_SPLINE_CURVE_WITH_KNOTS('',1,(#932,#933),.UNSPECIFIED.,.F.,.F.,
  (2,2),(0.,1.),.PIECEWISE_BEZIER_KNOTS.);
#932 = CARTESIAN_POINT('',(4.,72.,19.889087296526));
#933 = CARTESIAN_POINT('',(8.,72.,23.071067811865));
#934 = ORIENTED_EDGE('',*,*,#935,.F.);
#935 = EDGE_CURVE('',#936,#929,#938,.T.);
#936 = VERTEX_POINT('',#937);
#937 = CARTESIAN_POINT('',(8.,79.071067811865,16.));
#938 = LINE('',#939,#940);
#939 = CARTESIAN_POINT('',(8.,79.071067811865,16.));
#940 = VECTOR('',#941,1.);
#941 = DIRECTION('',(0.,-0.707106781187,0.707106781187));
#942 = ORIENTED_EDGE('',*,*,#943,.F.);
#943 = EDGE_CURVE('',#258,#936,#944,.T.);
#944 = B_SPLINE_CURVE_WITH_KNOTS('',1,(#945,#946),.UNSPECIFIED.,.F.,.F.,
  (2,2),(0.,1.),.PIECEWISE_BEZIER_KNOTS.);
#945 = CARTESIAN_POINT('',(4.,75.889087296526,16.));
#946 = CARTESIAN_POINT('',(8.,79.071067811865,16.));
#947 = B_SPLINE_SURFACE_WITH_KNOTS('',1,1,(
    (#948,#949)
    ,(#950,#951
  )),.UNSPECIFIED.,.F.,.F.,.F.,(2,2),(2,2),(0.,10.),(0.,1.),
  .PIECEWISE_BEZIER_KNOTS.);
#948 = CARTESIAN_POINT('',(4.,75.889087296526,16.));
#949 = CARTESIAN_POINT('',(8.,79.071067811865,16.));
#950 = CARTESIAN_POINT('',(4.,72.,19.889087296526));
#951 = CARTESIAN_POINT('',(8.,72.,23.071067811865));
#952 = ADVANCED_FACE('',(#953),#970,.F.);
#953 = FACE_BOUND('',#954,.F.);
#954 = EDGE_LOOP('',(#955,#956,#963,#969));
#955 = ORIENTED_EDGE('',*,*,#289,.T.);
#956 = ORIENTED_EDGE('',*,*,#957,.T.);
#957 = EDGE_CURVE('',#290,#958,#960,.T.);
#958 = VERTEX_POINT('',#959);
#959 = CARTESIAN_POINT('',(8.,64.928932188135,16.));
#960 = B_SPLINE_CURVE_WITH_KNOTS('',1,(#961,#962),.UNSPECIFIED.,.F.,.F.,
  (2,2),(0.,1.),.PIECEWISE_BEZIER_KNOTS.);
#961 = CARTESIAN_POINT('',(4.,68.110912703474,16.));
#962 = CARTESIAN_POINT('',(8.,64.928932188135,16.));
#963 = ORIENTED_EDGE('',*,*,#964,.F.);
#964 = EDGE_CURVE('',#929,#958,#965,.T.);
#965 = LINE('',#966,#967);
#966 = CARTESIAN_POINT('',(8.,72.,23.071067811865));
#967 = VECTOR('',#968,1.);
#968 = DIRECTION('',(0.,-0.707106781187,-0.707106781187));
#969 = ORIENTED_EDGE('',*,*,#928,.F.);
#970 = B_SPLINE_SURFACE_WITH_KNOTS('',1,1,(
    (#971,#972)
    ,(#973,#974
  )),.UNSPECIFIED.,.F.,.F.,.F.,(2,2),(2,2),(0.,10.),(0.,1.),
  .PIECEWISE_BEZIER_KNOTS.);
#971 = CARTESIAN_POINT('',(4.,72.,19.889087296526));
#972 = CARTESIAN_POINT('',(8.,72.,23.071067811865));
#973 = CARTESIAN_POINT('',(4.,68.110912703474,16.));
#974 = CARTESIAN_POINT('',(8.,64.928932188135,16.));
#975 = ADVANCED_FACE('',(#976),#993,.F.);
#976 = FACE_BOUND('',#977,.F.);
#977 = EDGE_LOOP('',(#978,#979,#986,#992));
#978 = ORIENTED_EDGE('',*,*,#313,.T.);
#979 = ORIENTED_EDGE('',*,*,#980,.T.);
#980 = EDGE_CURVE('',#314,#981,#983,.T.);
#981 = VERTEX_POINT('',#982);
#982 = CARTESIAN_POINT('',(8.,72.,8.928932188135));
#983 = B_SPLINE_CURVE_WITH_KNOTS('',1,(#984,#985),.UNSPECIFIED.,.F.,.F.,
  (2,2),(0.,1.),.PIECEWISE_BEZIER_KNOTS.);
#984 = CARTESIAN_POINT('',(4.,72.,12.110912703474));
#985 = CARTESIAN_POINT('',(8.,72.,8.928932188135));
#986 = ORIENTED_EDGE('',*,*,#987,.F.);
#987 = EDGE_CURVE('',#958,#981,#988,.T.);
#988 = LINE('',#989,#990);
#989 = CARTESIAN_POINT('',(8.,64.928932188135,16.));
#990 = VECTOR('',#991,1.);
#991 = DIRECTION('',(0.,0.707106781187,-0.707106781187));
#992 = ORIENTED_EDGE('',*,*,#957,.F.);
#993 = B_SPLINE_SURFACE_WITH_KNOTS('',1,1,(
    (#994,#995)
    ,(#996,#997
  )),.UNSPECIFIED.,.F.,.F.,.F.,(2,2),(2,2),(0.,10.),(0.,1.),
  .PIECEWISE_BEZIER_KNOTS.);
#994 = CARTESIAN_POINT('',(4.,68.110912703474,16.));
#995 = CARTESIAN_POINT('',(8.,64.928932188135,16.));
#996 = CARTESIAN_POINT('',(4.,72.,12.110912703474));
#997 = CARTESIAN_POINT('',(8.,72.,8.928932188135));
#998 = ADVANCED_FACE('',(#999),#1010,.F.);
#999 = FACE_BOUND('',#1000,.F.);
#1000 = EDGE_LOOP('',(#1001,#1002,#1003,#1009));
#1001 = ORIENTED_EDGE('',*,*,#337,.T.);
#1002 = ORIENTED_EDGE('',*,*,#943,.T.);
#1003 = ORIENTED_EDGE('',*,*,#1004,.F.);
#1004 = EDGE_CURVE('',#981,#936,#1005,.T.);
#1005 = LINE('',#1006,#1007);
#1006 = CARTESIAN_POINT('',(8.,72.,8.928932188135));
#1007 = VECTOR('',#1008,1.);
#1008 = DIRECTION('',(0.,0.707106781187,0.707106781187));
#1009 = ORIENTED_EDGE('',*,*,#980,.F.);
#1010 = B_SPLINE_SURFACE_WITH_KNOTS('',1,1,(
    (#1011,#1012)
    ,(#1013,#1014
    )),.UNSPECIFIED.,.F.,.F.,.F.,(2,2),(2,2),(0.,10.),(0.,1.),
  .PIECEWISE_BEZIER_KNOTS.);
#1011 = CARTESIAN_POINT('',(4.,72.,12.110912703474));
#1012 = CARTESIAN_POINT('',(8.,72.,8.928932188135));
#1013 = CARTESIAN_POINT('',(4.,75.889087296526,16.));
#1014 = CARTESIAN_POINT('',(8.,79.071067811865,16.));
#1015 = ADVANCED_FACE('',(#1016),#1039,.F.);
#1016 = FACE_BOUND('',#1017,.F.);
#1017 = EDGE_LOOP('',(#1018,#1019,#1026,#1034));
#1018 = ORIENTED_EDGE('',*,*,#361,.T.);
#1019 = ORIENTED_EDGE('',*,*,#1020,.T.);
#1020 = EDGE_CURVE('',#362,#1021,#1023,.T.);
#1021 = VERTEX_POINT('',#1022);
#1022 = CARTESIAN_POINT('',(8.,22.,23.071067811865));
#1023 = B_SPLINE_CURVE_WITH_KNOTS('',1,(#1024,#1025),.UNSPECIFIED.,.F.,
  .F.,(2,2),(0.,1.),.PIECEWISE_BEZIER_KNOTS.);
#1024 = CARTESIAN_POINT('',(4.,22.,19.889087296526));
#1025 = CARTESIAN_POINT('',(8.,22.,23.071067811865));
#1026 = ORIENTED_EDGE('',*,*,#1027,.F.);
#1027 = EDGE_CURVE('',#1028,#1021,#1030,.T.);
#1028 = VERTEX_POINT('',#1029);
#1029 = CARTESIAN_POINT('',(8.,29.071067811865,16.));
#1030 = LINE('',#1031,#1032);
#1031 = CARTESIAN_POINT('',(8.,29.071067811865,16.));
#1032 = VECTOR('',#1033,1.);
#1033 = DIRECTION('',(0.,-0.707106781187,0.707106781187));
#1034 = ORIENTED_EDGE('',*,*,#1035,.F.);
#1035 = EDGE_CURVE('',#354,#1028,#1036,.T.);
#1036 = B_SPLINE_CURVE_WITH_KNOTS('',1,(#1037,#1038),.UNSPECIFIED.,.F.,
  .F.,(2,2),(0.,1.),.PIECEWISE_BEZIER_KNOTS.);
#1037 = CARTESIAN_POINT('',(4.,25.889087296526,16.));
#1038 = CARTESIAN_POINT('',(8.,29.071067811865,16.));
#1039 = B_SPLINE_SURFACE_WITH_KNOTS('',1,1,(
    (#1040,#1041)
    ,(#1042,#1043
    )),.UNSPECIFIED.,.F.,.F.,.F.,(2,2),(2,2),(0.,10.),(0.,1.),
  .PIECEWISE_BEZIER_KNOTS.);
#1040 = CARTESIAN_POINT('',(4.,25.889087296526,16.));
#1041 = CARTESIAN_POINT('',(8.,29.071067811865,16.));
#1042 = CARTESIAN_POINT('',(4.,22.,19.889087296526));
#1043 = CARTESIAN_POINT('',(8.,22.,23.071067811865));
#1044 = ADVANCED_FACE('',(#1045),#1062,.F.);
#1045 = FACE_BOUND('',#1046,.F.);
#1046 = EDGE_LOOP('',(#1047,#1048,#1049,#1057));
#1047 = ORIENTED_EDGE('',*,*,#392,.T.);
#1048 = ORIENTED_EDGE('',*,*,#1035,.T.);
#1049 = ORIENTED_EDGE('',*,*,#1050,.F.);
#1050 = EDGE_CURVE('',#1051,#1028,#1053,.T.);
#1051 = VERTEX_POINT('',#1052);
#1052 = CARTESIAN_POINT('',(8.,22.,8.928932188135));
#1053 = LINE('',#1054,#1055);
#1054 = CARTESIAN_POINT('',(8.,22.,8.928932188135));
#1055 = VECTOR('',#1056,1.);
#1056 = DIRECTION('',(0.,0.707106781187,0.707106781187));
#1057 = ORIENTED_EDGE('',*,*,#1058,.F.);
#1058 = EDGE_CURVE('',#385,#1051,#1059,.T.);
#1059 = B_SPLINE_CURVE_WITH_KNOTS('',1,(#1060,#1061),.UNSPECIFIED.,.F.,
  .F.,(2,2),(0.,1.),.PIECEWISE_BEZIER_KNOTS.);
#1060 = CARTESIAN_POINT('',(4.,22.,12.110912703474));
#1061 = CARTESIAN_POINT('',(8.,22.,8.928932188135));
#1062 = B_SPLINE_SURFACE_WITH_KNOTS('',1,1,(
    (#1063,#1064)
    ,(#1065,#1066
    )),.UNSPECIFIED.,.F.,.F.,.F.,(2,2),(2,2),(0.,10.),(0.,1.),
  .PIECEWISE_BEZIER_KNOTS.);
#1063 = CARTESIAN_POINT('',(4.,22.,12.110912703474));
#1064 = CARTESIAN_POINT('',(8.,22.,8.928932188135));
#1065 = CARTESIAN_POINT('',(4.,25.889087296526,16.));
#1066 = CARTESIAN_POINT('',(8.,29.071067811865,16.));
#1067 = ADVANCED_FACE('',(#1068),#1085,.F.);
#1068 = FACE_BOUND('',#1069,.F.);
#1069 = EDGE_LOOP('',(#1070,#1071,#1078,#1084));
#1070 = ORIENTED_EDGE('',*,*,#409,.T.);
#1071 = ORIENTED_EDGE('',*,*,#1072,.T.);
#1072 = EDGE_CURVE('',#410,#1073,#1075,.T.);
#1073 = VERTEX_POINT('',#1074);
#1074 = CARTESIAN_POINT('',(8.,14.928932188135,16.));
#1075 = B_SPLINE_CURVE_WITH_KNOTS('',1,(#1076,#1077),.UNSPECIFIED.,.F.,
  .F.,(2,2),(0.,1.),.PIECEWISE_BEZIER_KNOTS.);
#1076 = CARTESIAN_POINT('',(4.,18.110912703474,16.));
#1077 = CARTESIAN_POINT('',(8.,14.928932188135,16.));
#1078 = ORIENTED_EDGE('',*,*,#1079,.F.);
#1079 = EDGE_CURVE('',#1021,#1073,#1080,.T.);
#1080 = LINE('',#1081,#1082);
#1081 = CARTESIAN_POINT('',(8.,22.,23.071067811865));
#1082 = VECTOR('',#1083,1.);
#1083 = DIRECTION('',(0.,-0.707106781187,-0.707106781187));
#1084 = ORIENTED_EDGE('',*,*,#1020,.F.);
#1085 = B_SPLINE_SURFACE_WITH_KNOTS('',1,1,(
    (#1086,#1087)
    ,(#1088,#1089
    )),.UNSPECIFIED.,.F.,.F.,.F.,(2,2),(2,2),(0.,10.),(0.,1.),
  .PIECEWISE_BEZIER_KNOTS.);
#1086 = CARTESIAN_POINT('',(4.,22.,19.889087296526));
#1087 = CARTESIAN_POINT('',(8.,22.,23.071067811865));
#1088 = CARTESIAN_POINT('',(4.,18.110912703474,16.));
#1089 = CARTESIAN_POINT('',(8.,14.928932188135,16.));
#1090 = ADVANCED_FACE('',(#1091),#1102,.F.);
#1091 = FACE_BOUND('',#1092,.F.);
#1092 = EDGE_LOOP('',(#1093,#1094,#1095,#1101));
#1093 = ORIENTED_EDGE('',*,*,#433,.T.);
#1094 = ORIENTED_EDGE('',*,*,#1058,.T.);
#1095 = ORIENTED_EDGE('',*,*,#1096,.F.);
#1096 = EDGE_CURVE('',#1073,#1051,#1097,.T.);
#1097 = LINE('',#1098,#1099);
#1098 = CARTESIAN_POINT('',(8.,14.928932188135,16.));
#1099 = VECTOR('',#1100,1.);
#1100 = DIRECTION('',(0.,0.707106781187,-0.707106781187));
#1101 = ORIENTED_EDGE('',*,*,#1072,.F.);
#1102 = B_SPLINE_SURFACE_WITH_KNOTS('',1,1,(
    (#1103,#1104)
    ,(#1105,#1106
    )),.UNSPECIFIED.,.F.,.F.,.F.,(2,2),(2,2),(0.,10.),(0.,1.),
  .PIECEWISE_BEZIER_KNOTS.);
#1103 = CARTESIAN_POINT('',(4.,18.110912703474,16.));
#1104 = CARTESIAN_POINT('',(8.,14.928932188135,16.));
#1105 = CARTESIAN_POINT('',(4.,22.,12.110912703474));
#1106 = CARTESIAN_POINT('',(8.,22.,8.928932188135));
#1107 = ADVANCED_FACE('',(#1108),#1119,.F.);
#1108 = FACE_BOUND('',#1109,.T.);
#1109 = EDGE_LOOP('',(#1110,#1116,#1117,#1118));
#1110 = ORIENTED_EDGE('',*,*,#1111,.F.);
#1111 = EDGE_CURVE('',#509,#531,#1112,.T.);
#1112 = LINE('',#1113,#1114);
#1113 = CARTESIAN_POINT('',(7.8,0.2,0.4));
#1114 = VECTOR('',#1115,1.);
#1115 = DIRECTION('',(-0.57735026919,0.57735026919,-0.57735026919));
#1116 = ORIENTED_EDGE('',*,*,#516,.T.);
#1117 = ORIENTED_EDGE('',*,*,#449,.T.);
#1118 = ORIENTED_EDGE('',*,*,#530,.F.);
#1119 = PLANE('',#1120);
#1120 = AXIS2_PLACEMENT_3D('',#1121,#1122,#1123);
#1121 = CARTESIAN_POINT('',(8.,0.3,0.3));
#1122 = DIRECTION('',(0.,0.707106781187,0.707106781187));
#1123 = DIRECTION('',(1.,0.,0.));
#1124 = ADVANCED_FACE('',(#1125),#1136,.F.);
#1125 = FACE_BOUND('',#1126,.F.);
#1126 = EDGE_LOOP('',(#1127,#1133,#1134,#1135));
#1127 = ORIENTED_EDGE('',*,*,#1128,.F.);
#1128 = EDGE_CURVE('',#501,#714,#1129,.T.);
#1129 = LINE('',#1130,#1131);
#1130 = CARTESIAN_POINT('',(7.8,0.2,31.6));
#1131 = VECTOR('',#1132,1.);
#1132 = DIRECTION('',(-0.57735026919,0.57735026919,0.57735026919));
#1133 = ORIENTED_EDGE('',*,*,#500,.T.);
#1134 = ORIENTED_EDGE('',*,*,#474,.T.);
#1135 = ORIENTED_EDGE('',*,*,#713,.F.);
#1136 = PLANE('',#1137);
#1137 = AXIS2_PLACEMENT_3D('',#1138,#1139,#1140);
#1138 = CARTESIAN_POINT('',(8.,0.3,31.7));
#1139 = DIRECTION('',(0.,0.707106781187,-0.707106781187));
#1140 = DIRECTION('',(-1.,0.,0.));
#1141 = ADVANCED_FACE('',(#1142),#1167,.T.);
#1142 = FACE_BOUND('',#1143,.T.);
#1143 = EDGE_LOOP('',(#1144,#1154,#1160,#1161));
#1144 = ORIENTED_EDGE('',*,*,#1145,.F.);
#1145 = EDGE_CURVE('',#1146,#1148,#1150,.T.);
#1146 = VERTEX_POINT('',#1147);
#1147 = CARTESIAN_POINT('',(8.,5.,31.4));
#1148 = VERTEX_POINT('',#1149);
#1149 = CARTESIAN_POINT('',(8.,5.,0.6));
#1150 = LINE('',#1151,#1152);
#1151 = CARTESIAN_POINT('',(8.,5.,0.));
#1152 = VECTOR('',#1153,1.);
#1153 = DIRECTION('',(0.,0.,-1.));
#1154 = ORIENTED_EDGE('',*,*,#1155,.F.);
#1155 = EDGE_CURVE('',#501,#1146,#1156,.T.);
#1156 = LINE('',#1157,#1158);
#1157 = CARTESIAN_POINT('',(8.,0.,31.4));
#1158 = VECTOR('',#1159,1.);
#1159 = DIRECTION('',(0.,1.,0.));
#1160 = ORIENTED_EDGE('',*,*,#508,.F.);
#1161 = ORIENTED_EDGE('',*,*,#1162,.T.);
#1162 = EDGE_CURVE('',#509,#1148,#1163,.T.);
#1163 = LINE('',#1164,#1165);
#1164 = CARTESIAN_POINT('',(8.,0.,0.6));
#1165 = VECTOR('',#1166,1.);
#1166 = DIRECTION('',(0.,1.,0.));
#1167 = PLANE('',#1168);
#1168 = AXIS2_PLACEMENT_3D('',#1169,#1170,#1171);
#1169 = CARTESIAN_POINT('',(8.,0.,0.));
#1170 = DIRECTION('',(1.,0.,0.));
#1171 = DIRECTION('',(0.,0.,1.));
#1172 = ADVANCED_FACE('',(#1173),#1184,.T.);
#1173 = FACE_BOUND('',#1174,.T.);
#1174 = EDGE_LOOP('',(#1175,#1176,#1177,#1183));
#1175 = ORIENTED_EDGE('',*,*,#1111,.T.);
#1176 = ORIENTED_EDGE('',*,*,#682,.T.);
#1177 = ORIENTED_EDGE('',*,*,#1178,.T.);
#1178 = EDGE_CURVE('',#675,#1148,#1179,.T.);
#1179 = LINE('',#1180,#1181);
#1180 = CARTESIAN_POINT('',(11.816666666667,1.183333333333,
    4.416666666667));
#1181 = VECTOR('',#1182,1.);
#1182 = DIRECTION('',(0.57735026919,-0.57735026919,0.57735026919));
#1183 = ORIENTED_EDGE('',*,*,#1162,.F.);
#1184 = PLANE('',#1185);
#1185 = AXIS2_PLACEMENT_3D('',#1186,#1187,#1188);
#1186 = CARTESIAN_POINT('',(7.7,0.,0.3));
#1187 = DIRECTION('',(0.707106781187,0.,-0.707106781187));
#1188 = DIRECTION('',(0.,1.,0.));
#1189 = ADVANCED_FACE('',(#1190),#1208,.T.);
#1190 = FACE_BOUND('',#1191,.F.);
#1191 = EDGE_LOOP('',(#1192,#1200,#1201,#1202));
#1192 = ORIENTED_EDGE('',*,*,#1193,.F.);
#1193 = EDGE_CURVE('',#666,#1194,#1196,.T.);
#1194 = VERTEX_POINT('',#1195);
#1195 = CARTESIAN_POINT('',(27.1,5.,0.6));
#1196 = LINE('',#1197,#1198);
#1197 = CARTESIAN_POINT('',(27.1,5.,0.6));
#1198 = VECTOR('',#1199,1.);
#1199 = DIRECTION('',(0.,-0.707106781187,0.707106781187));
#1200 = ORIENTED_EDGE('',*,*,#674,.T.);
#1201 = ORIENTED_EDGE('',*,*,#1178,.T.);
#1202 = ORIENTED_EDGE('',*,*,#1203,.F.);
#1203 = EDGE_CURVE('',#1194,#1148,#1204,.T.);
#1204 = LINE('',#1205,#1206);
#1205 = CARTESIAN_POINT('',(27.1,5.,0.6));
#1206 = VECTOR('',#1207,1.);
#1207 = DIRECTION('',(-1.,0.,0.));
#1208 = PLANE('',#1209);
#1209 = AXIS2_PLACEMENT_3D('',#1210,#1211,#1212);
#1210 = CARTESIAN_POINT('',(27.1,5.3,0.3));
#1211 = DIRECTION('',(0.,-0.707106781187,-0.707106781187));
#1212 = DIRECTION('',(1.,0.,0.));
#1213 = ADVANCED_FACE('',(#1214),#1233,.T.);
#1214 = FACE_BOUND('',#1215,.F.);
#1215 = EDGE_LOOP('',(#1216,#1224,#1225,#1226));
#1216 = ORIENTED_EDGE('',*,*,#1217,.F.);
#1217 = EDGE_CURVE('',#658,#1218,#1220,.T.);
#1218 = VERTEX_POINT('',#1219);
#1219 = CARTESIAN_POINT('',(28.423529411765,5.794117647059,0.6));
#1220 = LINE('',#1221,#1222);
#1221 = CARTESIAN_POINT('',(28.158823529412,5.935294117647,0.3));
#1222 = VECTOR('',#1223,1.);
#1223 = DIRECTION('',(0.623917748106,-0.332756132323,0.707106781187));
#1224 = ORIENTED_EDGE('',*,*,#665,.T.);
#1225 = ORIENTED_EDGE('',*,*,#1193,.T.);
#1226 = ORIENTED_EDGE('',*,*,#1227,.F.);
#1227 = EDGE_CURVE('',#1218,#1194,#1228,.T.);
#1228 = CIRCLE('',#1229,1.5);
#1229 = AXIS2_PLACEMENT_3D('',#1230,#1231,#1232);
#1230 = CARTESIAN_POINT('',(27.1,6.5,0.6));
#1231 = DIRECTION('',(0.,-0.,-1.));
#1232 = DIRECTION('',(0.882352941176,-0.470588235294,0.));
#1233 = CONICAL_SURFACE('',#1234,1.5,0.785398163397);
#1234 = AXIS2_PLACEMENT_3D('',#1235,#1236,#1237);
#1235 = CARTESIAN_POINT('',(27.1,6.5,0.6));
#1236 = DIRECTION('',(0.,0.,1.));
#1237 = DIRECTION('',(0.882352941176,-0.470588235294,0.));
#1238 = ADVANCED_FACE('',(#1239),#1257,.T.);
#1239 = FACE_BOUND('',#1240,.F.);
#1240 = EDGE_LOOP('',(#1241,#1249,#1250,#1251));
#1241 = ORIENTED_EDGE('',*,*,#1242,.F.);
#1242 = EDGE_CURVE('',#650,#1243,#1245,.T.);
#1243 = VERTEX_POINT('',#1244);
#1244 = CARTESIAN_POINT('',(36.,20.,0.6));
#1245 = LINE('',#1246,#1247);
#1246 = CARTESIAN_POINT('',(35.885593220339,20.190677966102,
    0.409322033898));
#1247 = VECTOR('',#1248,1.);
#1248 = DIRECTION('',(0.390566732942,-0.650944554904,0.650944554904));
#1249 = ORIENTED_EDGE('',*,*,#657,.T.);
#1250 = ORIENTED_EDGE('',*,*,#1217,.T.);
#1251 = ORIENTED_EDGE('',*,*,#1252,.F.);
#1252 = EDGE_CURVE('',#1243,#1218,#1253,.T.);
#1253 = LINE('',#1254,#1255);
#1254 = CARTESIAN_POINT('',(36.,20.,0.6));
#1255 = VECTOR('',#1256,1.);
#1256 = DIRECTION('',(-0.470588235294,-0.882352941176,0.));
#1257 = PLANE('',#1258);
#1258 = AXIS2_PLACEMENT_3D('',#1259,#1260,#1261);
#1259 = CARTESIAN_POINT('',(35.735294117647,20.141176470588,0.3));
#1260 = DIRECTION('',(0.623917748106,-0.332756132323,-0.707106781187));
#1261 = DIRECTION('',(0.470588235294,0.882352941176,8.326672684689E-17)
  );
#1262 = ADVANCED_FACE('',(#1263),#1274,.T.);
#1263 = FACE_BOUND('',#1264,.T.);
#1264 = EDGE_LOOP('',(#1265,#1266,#1267,#1273));
#1265 = ORIENTED_EDGE('',*,*,#698,.F.);
#1266 = ORIENTED_EDGE('',*,*,#913,.T.);
#1267 = ORIENTED_EDGE('',*,*,#1268,.T.);
#1268 = EDGE_CURVE('',#906,#550,#1269,.T.);
#1269 = LINE('',#1270,#1271);
#1270 = CARTESIAN_POINT('',(6.5,89.7,0.3));
#1271 = VECTOR('',#1272,1.);
#1272 = DIRECTION('',(0.,-0.707106781187,-0.707106781187));
#1273 = ORIENTED_EDGE('',*,*,#549,.F.);
#1274 = PLANE('',#1275);
#1275 = AXIS2_PLACEMENT_3D('',#1276,#1277,#1278);
#1276 = CARTESIAN_POINT('',(1.5,89.7,0.3));
#1277 = DIRECTION('',(0.,0.707106781187,-0.707106781187));
#1278 = DIRECTION('',(1.,0.,0.));
#1279 = ADVANCED_FACE('',(#1280),#1298,.F.);
#1280 = FACE_BOUND('',#1281,.F.);
#1281 = EDGE_LOOP('',(#1282,#1290,#1291,#1292));
#1282 = ORIENTED_EDGE('',*,*,#1283,.F.);
#1283 = EDGE_CURVE('',#641,#1284,#1286,.T.);
#1284 = VERTEX_POINT('',#1285);
#1285 = CARTESIAN_POINT('',(36.5,20.,0.6));
#1286 = LINE('',#1287,#1288);
#1287 = CARTESIAN_POINT('',(36.5,20.,0.6));
#1288 = VECTOR('',#1289,1.);
#1289 = DIRECTION('',(4.329780281177E-17,-0.707106781187,0.707106781187)
  );
#1290 = ORIENTED_EDGE('',*,*,#649,.T.);
#1291 = ORIENTED_EDGE('',*,*,#1242,.T.);
#1292 = ORIENTED_EDGE('',*,*,#1293,.F.);
#1293 = EDGE_CURVE('',#1284,#1243,#1294,.T.);
#1294 = LINE('',#1295,#1296);
#1295 = CARTESIAN_POINT('',(36.5,20.,0.6));
#1296 = VECTOR('',#1297,1.);
#1297 = DIRECTION('',(-1.,0.,0.));
#1298 = PLANE('',#1299);
#1299 = AXIS2_PLACEMENT_3D('',#1300,#1301,#1302);
#1300 = CARTESIAN_POINT('',(36.5,20.3,0.3));
#1301 = DIRECTION('',(0.,0.707106781187,0.707106781187));
#1302 = DIRECTION('',(-1.,0.,0.));
#1303 = ADVANCED_FACE('',(#1304),#1323,.T.);
#1304 = FACE_BOUND('',#1305,.T.);
#1305 = EDGE_LOOP('',(#1306,#1307,#1316,#1322));
#1306 = ORIENTED_EDGE('',*,*,#1268,.F.);
#1307 = ORIENTED_EDGE('',*,*,#1308,.T.);
#1308 = EDGE_CURVE('',#906,#1309,#1311,.T.);
#1309 = VERTEX_POINT('',#1310);
#1310 = CARTESIAN_POINT('',(8.,88.5,0.6));
#1311 = CIRCLE('',#1312,1.5);
#1312 = AXIS2_PLACEMENT_3D('',#1313,#1314,#1315);
#1313 = CARTESIAN_POINT('',(6.5,88.5,0.6));
#1314 = DIRECTION('',(0.,0.,-1.));
#1315 = DIRECTION('',(0.,1.,0.));
#1316 = ORIENTED_EDGE('',*,*,#1317,.T.);
#1317 = EDGE_CURVE('',#1309,#558,#1318,.T.);
#1318 = LINE('',#1319,#1320);
#1319 = CARTESIAN_POINT('',(8.,88.5,0.6));
#1320 = VECTOR('',#1321,1.);
#1321 = DIRECTION('',(-0.707106781187,-4.329780281177E-17,
    -0.707106781187));
#1322 = ORIENTED_EDGE('',*,*,#557,.F.);
#1323 = CONICAL_SURFACE('',#1324,1.5,0.785398163397);
#1324 = AXIS2_PLACEMENT_3D('',#1325,#1326,#1327);
#1325 = CARTESIAN_POINT('',(6.5,88.5,0.6));
#1326 = DIRECTION('',(0.,0.,1.));
#1327 = DIRECTION('',(0.,1.,0.));
#1328 = ADVANCED_FACE('',(#1329),#1348,.T.);
#1329 = FACE_BOUND('',#1330,.F.);
#1330 = EDGE_LOOP('',(#1331,#1339,#1340,#1341));
#1331 = ORIENTED_EDGE('',*,*,#1332,.F.);
#1332 = EDGE_CURVE('',#633,#1333,#1335,.T.);
#1333 = VERTEX_POINT('',#1334);
#1334 = CARTESIAN_POINT('',(38.,21.5,0.6));
#1335 = LINE('',#1336,#1337);
#1336 = CARTESIAN_POINT('',(37.7,21.5,0.3));
#1337 = VECTOR('',#1338,1.);
#1338 = DIRECTION('',(0.707106781187,0.,0.707106781187));
#1339 = ORIENTED_EDGE('',*,*,#640,.T.);
#1340 = ORIENTED_EDGE('',*,*,#1283,.T.);
#1341 = ORIENTED_EDGE('',*,*,#1342,.F.);
#1342 = EDGE_CURVE('',#1333,#1284,#1343,.T.);
#1343 = CIRCLE('',#1344,1.5);
#1344 = AXIS2_PLACEMENT_3D('',#1345,#1346,#1347);
#1345 = CARTESIAN_POINT('',(36.5,21.5,0.6));
#1346 = DIRECTION('',(0.,0.,-1.));
#1347 = DIRECTION('',(1.,0.,0.));
#1348 = CONICAL_SURFACE('',#1349,1.5,0.785398163397);
#1349 = AXIS2_PLACEMENT_3D('',#1350,#1351,#1352);
#1350 = CARTESIAN_POINT('',(36.5,21.5,0.6));
#1351 = DIRECTION('',(0.,0.,1.));
#1352 = DIRECTION('',(1.,0.,0.));
#1353 = ADVANCED_FACE('',(#1354),#1372,.T.);
#1354 = FACE_BOUND('',#1355,.T.);
#1355 = EDGE_LOOP('',(#1356,#1357,#1365,#1371));
#1356 = ORIENTED_EDGE('',*,*,#1317,.F.);
#1357 = ORIENTED_EDGE('',*,*,#1358,.T.);
#1358 = EDGE_CURVE('',#1309,#1359,#1361,.T.);
#1359 = VERTEX_POINT('',#1360);
#1360 = CARTESIAN_POINT('',(8.,30.,0.6));
#1361 = LINE('',#1362,#1363);
#1362 = CARTESIAN_POINT('',(8.,88.5,0.6));
#1363 = VECTOR('',#1364,1.);
#1364 = DIRECTION('',(0.,-1.,0.));
#1365 = ORIENTED_EDGE('',*,*,#1366,.T.);
#1366 = EDGE_CURVE('',#1359,#567,#1367,.T.);
#1367 = LINE('',#1368,#1369);
#1368 = CARTESIAN_POINT('',(17.55,39.55,10.15));
#1369 = VECTOR('',#1370,1.);
#1370 = DIRECTION('',(-0.57735026919,-0.57735026919,-0.57735026919));
#1371 = ORIENTED_EDGE('',*,*,#566,.F.);
#1372 = PLANE('',#1373);
#1373 = AXIS2_PLACEMENT_3D('',#1374,#1375,#1376);
#1374 = CARTESIAN_POINT('',(7.7,88.5,0.3));
#1375 = DIRECTION('',(0.707106781187,0.,-0.707106781187));
#1376 = DIRECTION('',(0.,-1.,0.));
#1377 = ADVANCED_FACE('',(#1378),#1396,.T.);
#1378 = FACE_BOUND('',#1379,.F.);
#1379 = EDGE_LOOP('',(#1380,#1388,#1389,#1390));
#1380 = ORIENTED_EDGE('',*,*,#1381,.F.);
#1381 = EDGE_CURVE('',#624,#1382,#1384,.T.);
#1382 = VERTEX_POINT('',#1383);
#1383 = CARTESIAN_POINT('',(38.,46.5,0.6));
#1384 = LINE('',#1385,#1386);
#1385 = CARTESIAN_POINT('',(38.,46.5,0.6));
#1386 = VECTOR('',#1387,1.);
#1387 = DIRECTION('',(0.707106781187,4.329780281177E-17,0.707106781187)
  );
#1388 = ORIENTED_EDGE('',*,*,#632,.T.);
#1389 = ORIENTED_EDGE('',*,*,#1332,.T.);
#1390 = ORIENTED_EDGE('',*,*,#1391,.F.);
#1391 = EDGE_CURVE('',#1382,#1333,#1392,.T.);
#1392 = LINE('',#1393,#1394);
#1393 = CARTESIAN_POINT('',(38.,46.5,0.6));
#1394 = VECTOR('',#1395,1.);
#1395 = DIRECTION('',(0.,-1.,0.));
#1396 = PLANE('',#1397);
#1397 = AXIS2_PLACEMENT_3D('',#1398,#1399,#1400);
#1398 = CARTESIAN_POINT('',(37.7,46.5,0.3));
#1399 = DIRECTION('',(0.707106781187,0.,-0.707106781187));
#1400 = DIRECTION('',(0.,1.,0.));
#1401 = ADVANCED_FACE('',(#1402),#1420,.T.);
#1402 = FACE_BOUND('',#1403,.F.);
#1403 = EDGE_LOOP('',(#1404,#1405,#1406,#1414));
#1404 = ORIENTED_EDGE('',*,*,#1366,.T.);
#1405 = ORIENTED_EDGE('',*,*,#574,.T.);
#1406 = ORIENTED_EDGE('',*,*,#1407,.T.);
#1407 = EDGE_CURVE('',#575,#1408,#1410,.T.);
#1408 = VERTEX_POINT('',#1409);
#1409 = CARTESIAN_POINT('',(30.,30.,0.6));
#1410 = LINE('',#1411,#1412);
#1411 = CARTESIAN_POINT('',(26.533333333333,33.466666666667,
    4.066666666667));
#1412 = VECTOR('',#1413,1.);
#1413 = DIRECTION('',(-0.57735026919,0.57735026919,0.57735026919));
#1414 = ORIENTED_EDGE('',*,*,#1415,.F.);
#1415 = EDGE_CURVE('',#1359,#1408,#1416,.T.);
#1416 = LINE('',#1417,#1418);
#1417 = CARTESIAN_POINT('',(8.,30.,0.6));
#1418 = VECTOR('',#1419,1.);
#1419 = DIRECTION('',(1.,0.,0.));
#1420 = PLANE('',#1421);
#1421 = AXIS2_PLACEMENT_3D('',#1422,#1423,#1424);
#1422 = CARTESIAN_POINT('',(8.,29.7,0.3));
#1423 = DIRECTION('',(0.,0.707106781187,-0.707106781187));
#1424 = DIRECTION('',(-1.,0.,0.));
#1425 = ADVANCED_FACE('',(#1426),#1445,.T.);
#1426 = FACE_BOUND('',#1427,.F.);
#1427 = EDGE_LOOP('',(#1428,#1436,#1437,#1438));
#1428 = ORIENTED_EDGE('',*,*,#1429,.F.);
#1429 = EDGE_CURVE('',#616,#1430,#1432,.T.);
#1430 = VERTEX_POINT('',#1431);
#1431 = CARTESIAN_POINT('',(36.5,48.,0.6));
#1432 = LINE('',#1433,#1434);
#1433 = CARTESIAN_POINT('',(36.5,47.7,0.3));
#1434 = VECTOR('',#1435,1.);
#1435 = DIRECTION('',(0.,0.707106781187,0.707106781187));
#1436 = ORIENTED_EDGE('',*,*,#623,.T.);
#1437 = ORIENTED_EDGE('',*,*,#1381,.T.);
#1438 = ORIENTED_EDGE('',*,*,#1439,.F.);
#1439 = EDGE_CURVE('',#1430,#1382,#1440,.T.);
#1440 = CIRCLE('',#1441,1.5);
#1441 = AXIS2_PLACEMENT_3D('',#1442,#1443,#1444);
#1442 = CARTESIAN_POINT('',(36.5,46.5,0.6));
#1443 = DIRECTION('',(0.,0.,-1.));
#1444 = DIRECTION('',(0.,1.,0.));
#1445 = CONICAL_SURFACE('',#1446,1.5,0.785398163397);
#1446 = AXIS2_PLACEMENT_3D('',#1447,#1448,#1449);
#1447 = CARTESIAN_POINT('',(36.5,46.5,0.6));
#1448 = DIRECTION('',(0.,0.,1.));
#1449 = DIRECTION('',(0.,1.,0.));
#1450 = ADVANCED_FACE('',(#1451),#1469,.F.);
#1451 = FACE_BOUND('',#1452,.F.);
#1452 = EDGE_LOOP('',(#1453,#1454,#1455,#1463));
#1453 = ORIENTED_EDGE('',*,*,#1407,.F.);
#1454 = ORIENTED_EDGE('',*,*,#582,.T.);
#1455 = ORIENTED_EDGE('',*,*,#1456,.T.);
#1456 = EDGE_CURVE('',#583,#1457,#1459,.T.);
#1457 = VERTEX_POINT('',#1458);
#1458 = CARTESIAN_POINT('',(30.,44.,0.6));
#1459 = LINE('',#1460,#1461);
#1460 = CARTESIAN_POINT('',(27.366666666667,41.366666666667,
    3.233333333333));
#1461 = VECTOR('',#1462,1.);
#1462 = DIRECTION('',(-0.57735026919,-0.57735026919,0.57735026919));
#1463 = ORIENTED_EDGE('',*,*,#1464,.F.);
#1464 = EDGE_CURVE('',#1408,#1457,#1465,.T.);
#1465 = LINE('',#1466,#1467);
#1466 = CARTESIAN_POINT('',(30.,30.,0.6));
#1467 = VECTOR('',#1468,1.);
#1468 = DIRECTION('',(0.,1.,0.));
#1469 = PLANE('',#1470);
#1470 = AXIS2_PLACEMENT_3D('',#1471,#1472,#1473);
#1471 = CARTESIAN_POINT('',(30.3,30.,0.3));
#1472 = DIRECTION('',(0.707106781187,0.,0.707106781187));
#1473 = DIRECTION('',(0.,1.,0.));
#1474 = ADVANCED_FACE('',(#1475),#1493,.T.);
#1475 = FACE_BOUND('',#1476,.F.);
#1476 = EDGE_LOOP('',(#1477,#1485,#1486,#1487));
#1477 = ORIENTED_EDGE('',*,*,#1478,.F.);
#1478 = EDGE_CURVE('',#607,#1479,#1481,.T.);
#1479 = VERTEX_POINT('',#1480);
#1480 = CARTESIAN_POINT('',(28.5,48.,0.6));
#1481 = LINE('',#1482,#1483);
#1482 = CARTESIAN_POINT('',(28.5,48.,0.6));
#1483 = VECTOR('',#1484,1.);
#1484 = DIRECTION('',(-4.329780281177E-17,0.707106781187,0.707106781187)
  );
#1485 = ORIENTED_EDGE('',*,*,#615,.T.);
#1486 = ORIENTED_EDGE('',*,*,#1429,.T.);
#1487 = ORIENTED_EDGE('',*,*,#1488,.F.);
#1488 = EDGE_CURVE('',#1479,#1430,#1489,.T.);
#1489 = LINE('',#1490,#1491);
#1490 = CARTESIAN_POINT('',(28.5,48.,0.6));
#1491 = VECTOR('',#1492,1.);
#1492 = DIRECTION('',(1.,0.,0.));
#1493 = PLANE('',#1494);
#1494 = AXIS2_PLACEMENT_3D('',#1495,#1496,#1497);
#1495 = CARTESIAN_POINT('',(28.5,47.7,0.3));
#1496 = DIRECTION('',(0.,0.707106781187,-0.707106781187));
#1497 = DIRECTION('',(-1.,0.,0.));
#1498 = ADVANCED_FACE('',(#1499),#1517,.F.);
#1499 = FACE_BOUND('',#1500,.T.);
#1500 = EDGE_LOOP('',(#1501,#1509,#1510,#1511));
#1501 = ORIENTED_EDGE('',*,*,#1502,.F.);
#1502 = EDGE_CURVE('',#591,#1503,#1505,.T.);
#1503 = VERTEX_POINT('',#1504);
#1504 = CARTESIAN_POINT('',(27.,44.,0.6));
#1505 = LINE('',#1506,#1507);
#1506 = CARTESIAN_POINT('',(27.2,44.2,0.4));
#1507 = VECTOR('',#1508,1.);
#1508 = DIRECTION('',(-0.57735026919,-0.57735026919,0.57735026919));
#1509 = ORIENTED_EDGE('',*,*,#590,.T.);
#1510 = ORIENTED_EDGE('',*,*,#1456,.T.);
#1511 = ORIENTED_EDGE('',*,*,#1512,.F.);
#1512 = EDGE_CURVE('',#1503,#1457,#1513,.T.);
#1513 = LINE('',#1514,#1515);
#1514 = CARTESIAN_POINT('',(27.,44.,0.6));
#1515 = VECTOR('',#1516,1.);
#1516 = DIRECTION('',(1.,0.,0.));
#1517 = PLANE('',#1518);
#1518 = AXIS2_PLACEMENT_3D('',#1519,#1520,#1521);
#1519 = CARTESIAN_POINT('',(27.,44.3,0.3));
#1520 = DIRECTION('',(0.,0.707106781187,0.707106781187));
#1521 = DIRECTION('',(-1.,0.,0.));
#1522 = ADVANCED_FACE('',(#1523),#1542,.T.);
#1523 = FACE_BOUND('',#1524,.F.);
#1524 = EDGE_LOOP('',(#1525,#1533,#1534,#1535));
#1525 = ORIENTED_EDGE('',*,*,#1526,.F.);
#1526 = EDGE_CURVE('',#599,#1527,#1529,.T.);
#1527 = VERTEX_POINT('',#1528);
#1528 = CARTESIAN_POINT('',(27.,46.5,0.6));
#1529 = LINE('',#1530,#1531);
#1530 = CARTESIAN_POINT('',(27.3,46.5,0.3));
#1531 = VECTOR('',#1532,1.);
#1532 = DIRECTION('',(-0.707106781187,0.,0.707106781187));
#1533 = ORIENTED_EDGE('',*,*,#606,.T.);
#1534 = ORIENTED_EDGE('',*,*,#1478,.T.);
#1535 = ORIENTED_EDGE('',*,*,#1536,.F.);
#1536 = EDGE_CURVE('',#1527,#1479,#1537,.T.);
#1537 = CIRCLE('',#1538,1.5);
#1538 = AXIS2_PLACEMENT_3D('',#1539,#1540,#1541);
#1539 = CARTESIAN_POINT('',(28.5,46.5,0.6));
#1540 = DIRECTION('',(0.,0.,-1.));
#1541 = DIRECTION('',(-1.,0.,0.));
#1542 = CONICAL_SURFACE('',#1543,1.5,0.785398163397);
#1543 = AXIS2_PLACEMENT_3D('',#1544,#1545,#1546);
#1544 = CARTESIAN_POINT('',(28.5,46.5,0.6));
#1545 = DIRECTION('',(0.,0.,1.));
#1546 = DIRECTION('',(-1.,0.,0.));
#1547 = ADVANCED_FACE('',(#1548),#1559,.F.);
#1548 = FACE_BOUND('',#1549,.F.);
#1549 = EDGE_LOOP('',(#1550,#1551,#1552,#1553));
#1550 = ORIENTED_EDGE('',*,*,#1502,.F.);
#1551 = ORIENTED_EDGE('',*,*,#598,.T.);
#1552 = ORIENTED_EDGE('',*,*,#1526,.T.);
#1553 = ORIENTED_EDGE('',*,*,#1554,.F.);
#1554 = EDGE_CURVE('',#1503,#1527,#1555,.T.);
#1555 = LINE('',#1556,#1557);
#1556 = CARTESIAN_POINT('',(27.,44.,0.6));
#1557 = VECTOR('',#1558,1.);
#1558 = DIRECTION('',(0.,1.,0.));
#1559 = PLANE('',#1560);
#1560 = AXIS2_PLACEMENT_3D('',#1561,#1562,#1563);
#1561 = CARTESIAN_POINT('',(27.3,44.,0.3));
#1562 = DIRECTION('',(0.707106781187,0.,0.707106781187));
#1563 = DIRECTION('',(0.,1.,0.));
#1564 = ADVANCED_FACE('',(#1565),#1576,.T.);
#1565 = FACE_BOUND('',#1566,.F.);
#1566 = EDGE_LOOP('',(#1567,#1568,#1569,#1575));
#1567 = ORIENTED_EDGE('',*,*,#1128,.T.);
#1568 = ORIENTED_EDGE('',*,*,#721,.T.);
#1569 = ORIENTED_EDGE('',*,*,#1570,.T.);
#1570 = EDGE_CURVE('',#722,#1146,#1571,.T.);
#1571 = LINE('',#1572,#1573);
#1572 = CARTESIAN_POINT('',(11.816666666667,1.183333333333,
    27.583333333333));
#1573 = VECTOR('',#1574,1.);
#1574 = DIRECTION('',(0.57735026919,-0.57735026919,-0.57735026919));
#1575 = ORIENTED_EDGE('',*,*,#1155,.F.);
#1576 = PLANE('',#1577);
#1577 = AXIS2_PLACEMENT_3D('',#1578,#1579,#1580);
#1578 = CARTESIAN_POINT('',(7.7,0.,31.7));
#1579 = DIRECTION('',(0.707106781187,0.,0.707106781187));
#1580 = DIRECTION('',(0.,-1.,0.));
#1581 = ADVANCED_FACE('',(#1582),#1600,.T.);
#1582 = FACE_BOUND('',#1583,.T.);
#1583 = EDGE_LOOP('',(#1584,#1592,#1593,#1594));
#1584 = ORIENTED_EDGE('',*,*,#1585,.F.);
#1585 = EDGE_CURVE('',#730,#1586,#1588,.T.);
#1586 = VERTEX_POINT('',#1587);
#1587 = CARTESIAN_POINT('',(27.1,5.,31.4));
#1588 = LINE('',#1589,#1590);
#1589 = CARTESIAN_POINT('',(27.1,5.,31.4));
#1590 = VECTOR('',#1591,1.);
#1591 = DIRECTION('',(-5.551115123126E-17,-0.707106781187,
    -0.707106781187));
#1592 = ORIENTED_EDGE('',*,*,#729,.T.);
#1593 = ORIENTED_EDGE('',*,*,#1570,.T.);
#1594 = ORIENTED_EDGE('',*,*,#1595,.F.);
#1595 = EDGE_CURVE('',#1586,#1146,#1596,.T.);
#1596 = LINE('',#1597,#1598);
#1597 = CARTESIAN_POINT('',(27.1,5.,31.4));
#1598 = VECTOR('',#1599,1.);
#1599 = DIRECTION('',(-1.,0.,0.));
#1600 = PLANE('',#1601);
#1601 = AXIS2_PLACEMENT_3D('',#1602,#1603,#1604);
#1602 = CARTESIAN_POINT('',(27.1,5.3,31.7));
#1603 = DIRECTION('',(0.,-0.707106781187,0.707106781187));
#1604 = DIRECTION('',(-1.,0.,0.));
#1605 = ADVANCED_FACE('',(#1606),#1625,.T.);
#1606 = FACE_BOUND('',#1607,.T.);
#1607 = EDGE_LOOP('',(#1608,#1616,#1617,#1618));
#1608 = ORIENTED_EDGE('',*,*,#1609,.F.);
#1609 = EDGE_CURVE('',#738,#1610,#1612,.T.);
#1610 = VERTEX_POINT('',#1611);
#1611 = CARTESIAN_POINT('',(28.423529411765,5.794117647059,31.4));
#1612 = LINE('',#1613,#1614);
#1613 = CARTESIAN_POINT('',(28.158823529412,5.935294117647,31.7));
#1614 = VECTOR('',#1615,1.);
#1615 = DIRECTION('',(0.623917748106,-0.332756132323,-0.707106781187));
#1616 = ORIENTED_EDGE('',*,*,#737,.T.);
#1617 = ORIENTED_EDGE('',*,*,#1585,.T.);
#1618 = ORIENTED_EDGE('',*,*,#1619,.F.);
#1619 = EDGE_CURVE('',#1610,#1586,#1620,.T.);
#1620 = CIRCLE('',#1621,1.5);
#1621 = AXIS2_PLACEMENT_3D('',#1622,#1623,#1624);
#1622 = CARTESIAN_POINT('',(27.1,6.5,31.4));
#1623 = DIRECTION('',(0.,-0.,-1.));
#1624 = DIRECTION('',(0.882352941176,-0.470588235294,0.));
#1625 = CONICAL_SURFACE('',#1626,1.5,0.785398163397);
#1626 = AXIS2_PLACEMENT_3D('',#1627,#1628,#1629);
#1627 = CARTESIAN_POINT('',(27.1,6.5,31.4));
#1628 = DIRECTION('',(-0.,-0.,-1.));
#1629 = DIRECTION('',(0.882352941176,-0.470588235294,0.));
#1630 = ADVANCED_FACE('',(#1631),#1649,.T.);
#1631 = FACE_BOUND('',#1632,.T.);
#1632 = EDGE_LOOP('',(#1633,#1641,#1642,#1643));
#1633 = ORIENTED_EDGE('',*,*,#1634,.F.);
#1634 = EDGE_CURVE('',#747,#1635,#1637,.T.);
#1635 = VERTEX_POINT('',#1636);
#1636 = CARTESIAN_POINT('',(36.,20.,31.4));
#1637 = LINE('',#1638,#1639);
#1638 = CARTESIAN_POINT('',(35.885593220339,20.190677966102,
    31.590677966102));
#1639 = VECTOR('',#1640,1.);
#1640 = DIRECTION('',(0.390566732942,-0.650944554904,-0.650944554904));
#1641 = ORIENTED_EDGE('',*,*,#746,.T.);
#1642 = ORIENTED_EDGE('',*,*,#1609,.T.);
#1643 = ORIENTED_EDGE('',*,*,#1644,.F.);
#1644 = EDGE_CURVE('',#1635,#1610,#1645,.T.);
#1645 = LINE('',#1646,#1647);
#1646 = CARTESIAN_POINT('',(36.,20.,31.4));
#1647 = VECTOR('',#1648,1.);
#1648 = DIRECTION('',(-0.470588235294,-0.882352941176,0.));
#1649 = PLANE('',#1650);
#1650 = AXIS2_PLACEMENT_3D('',#1651,#1652,#1653);
#1651 = CARTESIAN_POINT('',(35.735294117647,20.141176470588,31.7));
#1652 = DIRECTION('',(0.623917748106,-0.332756132323,0.707106781187));
#1653 = DIRECTION('',(-0.470588235294,-0.882352941176,1.110223024625E-16
    ));
#1654 = ADVANCED_FACE('',(#1655),#1666,.T.);
#1655 = FACE_BOUND('',#1656,.F.);
#1656 = EDGE_LOOP('',(#1657,#1658,#1659,#1665));
#1657 = ORIENTED_EDGE('',*,*,#881,.F.);
#1658 = ORIENTED_EDGE('',*,*,#897,.T.);
#1659 = ORIENTED_EDGE('',*,*,#1660,.T.);
#1660 = EDGE_CURVE('',#898,#846,#1661,.T.);
#1661 = LINE('',#1662,#1663);
#1662 = CARTESIAN_POINT('',(6.5,89.7,31.7));
#1663 = VECTOR('',#1664,1.);
#1664 = DIRECTION('',(0.,-0.707106781187,0.707106781187));
#1665 = ORIENTED_EDGE('',*,*,#854,.F.);
#1666 = PLANE('',#1667);
#1667 = AXIS2_PLACEMENT_3D('',#1668,#1669,#1670);
#1668 = CARTESIAN_POINT('',(1.5,89.7,31.7));
#1669 = DIRECTION('',(-6.963829119075E-18,0.707106781187,0.707106781187)
  );
#1670 = DIRECTION('',(-1.,-4.924170793122E-18,-4.924170793122E-18));
#1671 = ADVANCED_FACE('',(#1672),#1690,.F.);
#1672 = FACE_BOUND('',#1673,.T.);
#1673 = EDGE_LOOP('',(#1674,#1682,#1683,#1684));
#1674 = ORIENTED_EDGE('',*,*,#1675,.F.);
#1675 = EDGE_CURVE('',#755,#1676,#1678,.T.);
#1676 = VERTEX_POINT('',#1677);
#1677 = CARTESIAN_POINT('',(36.5,20.,31.4));
#1678 = LINE('',#1679,#1680);
#1679 = CARTESIAN_POINT('',(36.5,20.,31.4));
#1680 = VECTOR('',#1681,1.);
#1681 = DIRECTION('',(4.329780281177E-17,-0.707106781187,-0.707106781187
    ));
#1682 = ORIENTED_EDGE('',*,*,#754,.T.);
#1683 = ORIENTED_EDGE('',*,*,#1634,.T.);
#1684 = ORIENTED_EDGE('',*,*,#1685,.F.);
#1685 = EDGE_CURVE('',#1676,#1635,#1686,.T.);
#1686 = LINE('',#1687,#1688);
#1687 = CARTESIAN_POINT('',(36.5,20.,31.4));
#1688 = VECTOR('',#1689,1.);
#1689 = DIRECTION('',(-1.,0.,0.));
#1690 = PLANE('',#1691);
#1691 = AXIS2_PLACEMENT_3D('',#1692,#1693,#1694);
#1692 = CARTESIAN_POINT('',(36.5,20.3,31.7));
#1693 = DIRECTION('',(0.,0.707106781187,-0.707106781187));
#1694 = DIRECTION('',(1.,0.,0.));
#1695 = ADVANCED_FACE('',(#1696),#1715,.T.);
#1696 = FACE_BOUND('',#1697,.F.);
#1697 = EDGE_LOOP('',(#1698,#1699,#1708,#1714));
#1698 = ORIENTED_EDGE('',*,*,#1660,.F.);
#1699 = ORIENTED_EDGE('',*,*,#1700,.T.);
#1700 = EDGE_CURVE('',#898,#1701,#1703,.T.);
#1701 = VERTEX_POINT('',#1702);
#1702 = CARTESIAN_POINT('',(8.,88.5,31.4));
#1703 = CIRCLE('',#1704,1.5);
#1704 = AXIS2_PLACEMENT_3D('',#1705,#1706,#1707);
#1705 = CARTESIAN_POINT('',(6.5,88.5,31.4));
#1706 = DIRECTION('',(0.,0.,-1.));
#1707 = DIRECTION('',(0.,1.,0.));
#1708 = ORIENTED_EDGE('',*,*,#1709,.T.);
#1709 = EDGE_CURVE('',#1701,#838,#1710,.T.);
#1710 = LINE('',#1711,#1712);
#1711 = CARTESIAN_POINT('',(8.,88.5,31.4));
#1712 = VECTOR('',#1713,1.);
#1713 = DIRECTION('',(-0.707106781187,-4.329780281177E-17,0.707106781187
    ));
#1714 = ORIENTED_EDGE('',*,*,#845,.F.);
#1715 = CONICAL_SURFACE('',#1716,1.5,0.785398163397);
#1716 = AXIS2_PLACEMENT_3D('',#1717,#1718,#1719);
#1717 = CARTESIAN_POINT('',(6.5,88.5,31.4));
#1718 = DIRECTION('',(-0.,-0.,-1.));
#1719 = DIRECTION('',(0.,1.,0.));
#1720 = ADVANCED_FACE('',(#1721),#1740,.T.);
#1721 = FACE_BOUND('',#1722,.T.);
#1722 = EDGE_LOOP('',(#1723,#1731,#1732,#1733));
#1723 = ORIENTED_EDGE('',*,*,#1724,.F.);
#1724 = EDGE_CURVE('',#763,#1725,#1727,.T.);
#1725 = VERTEX_POINT('',#1726);
#1726 = CARTESIAN_POINT('',(38.,21.5,31.4));
#1727 = LINE('',#1728,#1729);
#1728 = CARTESIAN_POINT('',(37.7,21.5,31.7));
#1729 = VECTOR('',#1730,1.);
#1730 = DIRECTION('',(0.707106781187,0.,-0.707106781187));
#1731 = ORIENTED_EDGE('',*,*,#762,.T.);
#1732 = ORIENTED_EDGE('',*,*,#1675,.T.);
#1733 = ORIENTED_EDGE('',*,*,#1734,.F.);
#1734 = EDGE_CURVE('',#1725,#1676,#1735,.T.);
#1735 = CIRCLE('',#1736,1.5);
#1736 = AXIS2_PLACEMENT_3D('',#1737,#1738,#1739);
#1737 = CARTESIAN_POINT('',(36.5,21.5,31.4));
#1738 = DIRECTION('',(0.,0.,-1.));
#1739 = DIRECTION('',(1.,0.,0.));
#1740 = CONICAL_SURFACE('',#1741,1.5,0.785398163397);
#1741 = AXIS2_PLACEMENT_3D('',#1742,#1743,#1744);
#1742 = CARTESIAN_POINT('',(36.5,21.5,31.4));
#1743 = DIRECTION('',(-0.,-0.,-1.));
#1744 = DIRECTION('',(1.,0.,0.));
#1745 = ADVANCED_FACE('',(#1746),#1764,.T.);
#1746 = FACE_BOUND('',#1747,.F.);
#1747 = EDGE_LOOP('',(#1748,#1749,#1757,#1763));
#1748 = ORIENTED_EDGE('',*,*,#1709,.F.);
#1749 = ORIENTED_EDGE('',*,*,#1750,.T.);
#1750 = EDGE_CURVE('',#1701,#1751,#1753,.T.);
#1751 = VERTEX_POINT('',#1752);
#1752 = CARTESIAN_POINT('',(8.,30.,31.4));
#1753 = LINE('',#1754,#1755);
#1754 = CARTESIAN_POINT('',(8.,88.5,31.4));
#1755 = VECTOR('',#1756,1.);
#1756 = DIRECTION('',(0.,-1.,0.));
#1757 = ORIENTED_EDGE('',*,*,#1758,.T.);
#1758 = EDGE_CURVE('',#1751,#830,#1759,.T.);
#1759 = LINE('',#1760,#1761);
#1760 = CARTESIAN_POINT('',(17.55,39.55,21.85));
#1761 = VECTOR('',#1762,1.);
#1762 = DIRECTION('',(-0.57735026919,-0.57735026919,0.57735026919));
#1763 = ORIENTED_EDGE('',*,*,#837,.F.);
#1764 = PLANE('',#1765);
#1765 = AXIS2_PLACEMENT_3D('',#1766,#1767,#1768);
#1766 = CARTESIAN_POINT('',(7.7,88.5,31.7));
#1767 = DIRECTION('',(0.707106781187,0.,0.707106781187));
#1768 = DIRECTION('',(0.,1.,0.));
#1769 = ADVANCED_FACE('',(#1770),#1788,.T.);
#1770 = FACE_BOUND('',#1771,.T.);
#1771 = EDGE_LOOP('',(#1772,#1780,#1781,#1782));
#1772 = ORIENTED_EDGE('',*,*,#1773,.F.);
#1773 = EDGE_CURVE('',#772,#1774,#1776,.T.);
#1774 = VERTEX_POINT('',#1775);
#1775 = CARTESIAN_POINT('',(38.,46.5,31.4));
#1776 = LINE('',#1777,#1778);
#1777 = CARTESIAN_POINT('',(38.,46.5,31.4));
#1778 = VECTOR('',#1779,1.);
#1779 = DIRECTION('',(0.707106781187,4.329780281177E-17,-0.707106781187)
  );
#1780 = ORIENTED_EDGE('',*,*,#771,.T.);
#1781 = ORIENTED_EDGE('',*,*,#1724,.T.);
#1782 = ORIENTED_EDGE('',*,*,#1783,.F.);
#1783 = EDGE_CURVE('',#1774,#1725,#1784,.T.);
#1784 = LINE('',#1785,#1786);
#1785 = CARTESIAN_POINT('',(38.,46.5,31.4));
#1786 = VECTOR('',#1787,1.);
#1787 = DIRECTION('',(0.,-1.,0.));
#1788 = PLANE('',#1789);
#1789 = AXIS2_PLACEMENT_3D('',#1790,#1791,#1792);
#1790 = CARTESIAN_POINT('',(37.7,46.5,31.7));
#1791 = DIRECTION('',(0.707106781187,0.,0.707106781187));
#1792 = DIRECTION('',(0.,-1.,0.));
#1793 = ADVANCED_FACE('',(#1794),#1812,.T.);
#1794 = FACE_BOUND('',#1795,.T.);
#1795 = EDGE_LOOP('',(#1796,#1797,#1798,#1806));
#1796 = ORIENTED_EDGE('',*,*,#1758,.T.);
#1797 = ORIENTED_EDGE('',*,*,#829,.T.);
#1798 = ORIENTED_EDGE('',*,*,#1799,.T.);
#1799 = EDGE_CURVE('',#822,#1800,#1802,.T.);
#1800 = VERTEX_POINT('',#1801);
#1801 = CARTESIAN_POINT('',(30.,30.,31.4));
#1802 = LINE('',#1803,#1804);
#1803 = CARTESIAN_POINT('',(26.533333333333,33.466666666667,
    27.933333333333));
#1804 = VECTOR('',#1805,1.);
#1805 = DIRECTION('',(-0.57735026919,0.57735026919,-0.57735026919));
#1806 = ORIENTED_EDGE('',*,*,#1807,.F.);
#1807 = EDGE_CURVE('',#1751,#1800,#1808,.T.);
#1808 = LINE('',#1809,#1810);
#1809 = CARTESIAN_POINT('',(8.,30.,31.4));
#1810 = VECTOR('',#1811,1.);
#1811 = DIRECTION('',(1.,0.,0.));
#1812 = PLANE('',#1813);
#1813 = AXIS2_PLACEMENT_3D('',#1814,#1815,#1816);
#1814 = CARTESIAN_POINT('',(8.,29.7,31.7));
#1815 = DIRECTION('',(0.,0.707106781187,0.707106781187));
#1816 = DIRECTION('',(1.,0.,0.));
#1817 = ADVANCED_FACE('',(#1818),#1837,.T.);
#1818 = FACE_BOUND('',#1819,.T.);
#1819 = EDGE_LOOP('',(#1820,#1828,#1829,#1830));
#1820 = ORIENTED_EDGE('',*,*,#1821,.F.);
#1821 = EDGE_CURVE('',#780,#1822,#1824,.T.);
#1822 = VERTEX_POINT('',#1823);
#1823 = CARTESIAN_POINT('',(36.5,48.,31.4));
#1824 = LINE('',#1825,#1826);
#1825 = CARTESIAN_POINT('',(36.5,47.7,31.7));
#1826 = VECTOR('',#1827,1.);
#1827 = DIRECTION('',(0.,0.707106781187,-0.707106781187));
#1828 = ORIENTED_EDGE('',*,*,#779,.T.);
#1829 = ORIENTED_EDGE('',*,*,#1773,.T.);
#1830 = ORIENTED_EDGE('',*,*,#1831,.F.);
#1831 = EDGE_CURVE('',#1822,#1774,#1832,.T.);
#1832 = CIRCLE('',#1833,1.5);
#1833 = AXIS2_PLACEMENT_3D('',#1834,#1835,#1836);
#1834 = CARTESIAN_POINT('',(36.5,46.5,31.4));
#1835 = DIRECTION('',(0.,0.,-1.));
#1836 = DIRECTION('',(0.,1.,0.));
#1837 = CONICAL_SURFACE('',#1838,1.5,0.785398163397);
#1838 = AXIS2_PLACEMENT_3D('',#1839,#1840,#1841);
#1839 = CARTESIAN_POINT('',(36.5,46.5,31.4));
#1840 = DIRECTION('',(-0.,-0.,-1.));
#1841 = DIRECTION('',(0.,1.,0.));
#1842 = ADVANCED_FACE('',(#1843),#1861,.F.);
#1843 = FACE_BOUND('',#1844,.T.);
#1844 = EDGE_LOOP('',(#1845,#1846,#1847,#1855));
#1845 = ORIENTED_EDGE('',*,*,#1799,.F.);
#1846 = ORIENTED_EDGE('',*,*,#821,.T.);
#1847 = ORIENTED_EDGE('',*,*,#1848,.T.);
#1848 = EDGE_CURVE('',#814,#1849,#1851,.T.);
#1849 = VERTEX_POINT('',#1850);
#1850 = CARTESIAN_POINT('',(30.,44.,31.4));
#1851 = LINE('',#1852,#1853);
#1852 = CARTESIAN_POINT('',(27.366666666667,41.366666666667,
    28.766666666667));
#1853 = VECTOR('',#1854,1.);
#1854 = DIRECTION('',(-0.57735026919,-0.57735026919,-0.57735026919));
#1855 = ORIENTED_EDGE('',*,*,#1856,.F.);
#1856 = EDGE_CURVE('',#1800,#1849,#1857,.T.);
#1857 = LINE('',#1858,#1859);
#1858 = CARTESIAN_POINT('',(30.,30.,31.4));
#1859 = VECTOR('',#1860,1.);
#1860 = DIRECTION('',(0.,1.,0.));
#1861 = PLANE('',#1862);
#1862 = AXIS2_PLACEMENT_3D('',#1863,#1864,#1865);
#1863 = CARTESIAN_POINT('',(30.3,30.,31.7));
#1864 = DIRECTION('',(0.707106781187,0.,-0.707106781187));
#1865 = DIRECTION('',(-0.,-1.,-0.));
#1866 = ADVANCED_FACE('',(#1867),#1885,.T.);
#1867 = FACE_BOUND('',#1868,.T.);
#1868 = EDGE_LOOP('',(#1869,#1877,#1878,#1879));
#1869 = ORIENTED_EDGE('',*,*,#1870,.F.);
#1870 = EDGE_CURVE('',#789,#1871,#1873,.T.);
#1871 = VERTEX_POINT('',#1872);
#1872 = CARTESIAN_POINT('',(28.5,48.,31.4));
#1873 = LINE('',#1874,#1875);
#1874 = CARTESIAN_POINT('',(28.5,48.,31.4));
#1875 = VECTOR('',#1876,1.);
#1876 = DIRECTION('',(-4.329780281177E-17,0.707106781187,-0.707106781187
    ));
#1877 = ORIENTED_EDGE('',*,*,#788,.T.);
#1878 = ORIENTED_EDGE('',*,*,#1821,.T.);
#1879 = ORIENTED_EDGE('',*,*,#1880,.F.);
#1880 = EDGE_CURVE('',#1871,#1822,#1881,.T.);
#1881 = LINE('',#1882,#1883);
#1882 = CARTESIAN_POINT('',(28.5,48.,31.4));
#1883 = VECTOR('',#1884,1.);
#1884 = DIRECTION('',(1.,0.,0.));
#1885 = PLANE('',#1886);
#1886 = AXIS2_PLACEMENT_3D('',#1887,#1888,#1889);
#1887 = CARTESIAN_POINT('',(28.5,47.7,31.7));
#1888 = DIRECTION('',(0.,0.707106781187,0.707106781187));
#1889 = DIRECTION('',(1.,0.,0.));
#1890 = ADVANCED_FACE('',(#1891),#1909,.F.);
#1891 = FACE_BOUND('',#1892,.F.);
#1892 = EDGE_LOOP('',(#1893,#1901,#1902,#1903));
#1893 = ORIENTED_EDGE('',*,*,#1894,.F.);
#1894 = EDGE_CURVE('',#806,#1895,#1897,.T.);
#1895 = VERTEX_POINT('',#1896);
#1896 = CARTESIAN_POINT('',(27.,44.,31.4));
#1897 = LINE('',#1898,#1899);
#1898 = CARTESIAN_POINT('',(27.2,44.2,31.6));
#1899 = VECTOR('',#1900,1.);
#1900 = DIRECTION('',(-0.57735026919,-0.57735026919,-0.57735026919));
#1901 = ORIENTED_EDGE('',*,*,#813,.T.);
#1902 = ORIENTED_EDGE('',*,*,#1848,.T.);
#1903 = ORIENTED_EDGE('',*,*,#1904,.F.);
#1904 = EDGE_CURVE('',#1895,#1849,#1905,.T.);
#1905 = LINE('',#1906,#1907);
#1906 = CARTESIAN_POINT('',(27.,44.,31.4));
#1907 = VECTOR('',#1908,1.);
#1908 = DIRECTION('',(1.,0.,0.));
#1909 = PLANE('',#1910);
#1910 = AXIS2_PLACEMENT_3D('',#1911,#1912,#1913);
#1911 = CARTESIAN_POINT('',(27.,44.3,31.7));
#1912 = DIRECTION('',(0.,0.707106781187,-0.707106781187));
#1913 = DIRECTION('',(1.,0.,0.));
#1914 = ADVANCED_FACE('',(#1915),#1934,.T.);
#1915 = FACE_BOUND('',#1916,.T.);
#1916 = EDGE_LOOP('',(#1917,#1925,#1926,#1927));
#1917 = ORIENTED_EDGE('',*,*,#1918,.F.);
#1918 = EDGE_CURVE('',#797,#1919,#1921,.T.);
#1919 = VERTEX_POINT('',#1920);
#1920 = CARTESIAN_POINT('',(27.,46.5,31.4));
#1921 = LINE('',#1922,#1923);
#1922 = CARTESIAN_POINT('',(27.3,46.5,31.7));
#1923 = VECTOR('',#1924,1.);
#1924 = DIRECTION('',(-0.707106781187,0.,-0.707106781187));
#1925 = ORIENTED_EDGE('',*,*,#796,.T.);
#1926 = ORIENTED_EDGE('',*,*,#1870,.T.);
#1927 = ORIENTED_EDGE('',*,*,#1928,.F.);
#1928 = EDGE_CURVE('',#1919,#1871,#1929,.T.);
#1929 = CIRCLE('',#1930,1.5);
#1930 = AXIS2_PLACEMENT_3D('',#1931,#1932,#1933);
#1931 = CARTESIAN_POINT('',(28.5,46.5,31.4));
#1932 = DIRECTION('',(0.,0.,-1.));
#1933 = DIRECTION('',(-1.,0.,0.));
#1934 = CONICAL_SURFACE('',#1935,1.5,0.785398163397);
#1935 = AXIS2_PLACEMENT_3D('',#1936,#1937,#1938);
#1936 = CARTESIAN_POINT('',(28.5,46.5,31.4));
#1937 = DIRECTION('',(-0.,-0.,-1.));
#1938 = DIRECTION('',(-1.,0.,0.));
#1939 = ADVANCED_FACE('',(#1940),#1951,.F.);
#1940 = FACE_BOUND('',#1941,.T.);
#1941 = EDGE_LOOP('',(#1942,#1943,#1944,#1945));
#1942 = ORIENTED_EDGE('',*,*,#1894,.F.);
#1943 = ORIENTED_EDGE('',*,*,#805,.T.);
#1944 = ORIENTED_EDGE('',*,*,#1918,.T.);
#1945 = ORIENTED_EDGE('',*,*,#1946,.F.);
#1946 = EDGE_CURVE('',#1895,#1919,#1947,.T.);
#1947 = LINE('',#1948,#1949);
#1948 = CARTESIAN_POINT('',(27.,44.,31.4));
#1949 = VECTOR('',#1950,1.);
#1950 = DIRECTION('',(0.,1.,0.));
#1951 = PLANE('',#1952);
#1952 = AXIS2_PLACEMENT_3D('',#1953,#1954,#1955);
#1953 = CARTESIAN_POINT('',(27.3,44.,31.7));
#1954 = DIRECTION('',(0.707106781187,0.,-0.707106781187));
#1955 = DIRECTION('',(-0.,-1.,-0.));
#1956 = ADVANCED_FACE('',(#1957),#1968,.T.);
#1957 = FACE_BOUND('',#1958,.F.);
#1958 = EDGE_LOOP('',(#1959,#1960,#1961,#1967));
#1959 = ORIENTED_EDGE('',*,*,#905,.F.);
#1960 = ORIENTED_EDGE('',*,*,#1308,.T.);
#1961 = ORIENTED_EDGE('',*,*,#1962,.T.);
#1962 = EDGE_CURVE('',#1309,#1701,#1963,.T.);
#1963 = LINE('',#1964,#1965);
#1964 = CARTESIAN_POINT('',(8.,88.5,0.));
#1965 = VECTOR('',#1966,1.);
#1966 = DIRECTION('',(0.,0.,1.));
#1967 = ORIENTED_EDGE('',*,*,#1700,.F.);
#1968 = CYLINDRICAL_SURFACE('',#1969,1.5);
#1969 = AXIS2_PLACEMENT_3D('',#1970,#1971,#1972);
#1970 = CARTESIAN_POINT('',(6.5,88.5,0.));
#1971 = DIRECTION('',(0.,0.,1.));
#1972 = DIRECTION('',(0.,1.,0.));
#1973 = ADVANCED_FACE('',(#1974,#1985),#1991,.T.);
#1974 = FACE_BOUND('',#1975,.T.);
#1975 = EDGE_LOOP('',(#1976,#1977,#1978,#1984));
#1976 = ORIENTED_EDGE('',*,*,#1962,.T.);
#1977 = ORIENTED_EDGE('',*,*,#1750,.T.);
#1978 = ORIENTED_EDGE('',*,*,#1979,.F.);
#1979 = EDGE_CURVE('',#1359,#1751,#1980,.T.);
#1980 = LINE('',#1981,#1982);
#1981 = CARTESIAN_POINT('',(8.,30.,0.));
#1982 = VECTOR('',#1983,1.);
#1983 = DIRECTION('',(0.,0.,1.));
#1984 = ORIENTED_EDGE('',*,*,#1358,.F.);
#1985 = FACE_BOUND('',#1986,.T.);
#1986 = EDGE_LOOP('',(#1987,#1988,#1989,#1990));
#1987 = ORIENTED_EDGE('',*,*,#935,.F.);
#1988 = ORIENTED_EDGE('',*,*,#1004,.F.);
#1989 = ORIENTED_EDGE('',*,*,#987,.F.);
#1990 = ORIENTED_EDGE('',*,*,#964,.F.);
#1991 = PLANE('',#1992);
#1992 = AXIS2_PLACEMENT_3D('',#1993,#1994,#1995);
#1993 = CARTESIAN_POINT('',(8.,0.,0.));
#1994 = DIRECTION('',(1.,0.,0.));
#1995 = DIRECTION('',(0.,0.,1.));
#1996 = ADVANCED_FACE('',(#1997),#2003,.T.);
#1997 = FACE_BOUND('',#1998,.F.);
#1998 = EDGE_LOOP('',(#1999,#2000,#2001,#2002));
#1999 = ORIENTED_EDGE('',*,*,#1027,.T.);
#2000 = ORIENTED_EDGE('',*,*,#1079,.T.);
#2001 = ORIENTED_EDGE('',*,*,#1096,.T.);
#2002 = ORIENTED_EDGE('',*,*,#1050,.T.);
#2003 = PLANE('',#2004);
#2004 = AXIS2_PLACEMENT_3D('',#2005,#2006,#2007);
#2005 = CARTESIAN_POINT('',(8.,29.071067811865,16.));
#2006 = DIRECTION('',(-1.,0.,0.));
#2007 = DIRECTION('',(0.,-1.,0.));
#2008 = ADVANCED_FACE('',(#2009),#2020,.T.);
#2009 = FACE_BOUND('',#2010,.T.);
#2010 = EDGE_LOOP('',(#2011,#2017,#2018,#2019));
#2011 = ORIENTED_EDGE('',*,*,#2012,.T.);
#2012 = EDGE_CURVE('',#1194,#1586,#2013,.T.);
#2013 = LINE('',#2014,#2015);
#2014 = CARTESIAN_POINT('',(27.1,5.,0.));
#2015 = VECTOR('',#2016,1.);
#2016 = DIRECTION('',(0.,0.,1.));
#2017 = ORIENTED_EDGE('',*,*,#1595,.T.);
#2018 = ORIENTED_EDGE('',*,*,#1145,.T.);
#2019 = ORIENTED_EDGE('',*,*,#1203,.F.);
#2020 = PLANE('',#2021);
#2021 = AXIS2_PLACEMENT_3D('',#2022,#2023,#2024);
#2022 = CARTESIAN_POINT('',(28.,5.,0.));
#2023 = DIRECTION('',(0.,-1.,0.));
#2024 = DIRECTION('',(-1.,0.,0.));
#2025 = ADVANCED_FACE('',(#2026),#2037,.T.);
#2026 = FACE_BOUND('',#2027,.T.);
#2027 = EDGE_LOOP('',(#2028,#2029,#2030,#2036));
#2028 = ORIENTED_EDGE('',*,*,#2012,.F.);
#2029 = ORIENTED_EDGE('',*,*,#1227,.F.);
#2030 = ORIENTED_EDGE('',*,*,#2031,.T.);
#2031 = EDGE_CURVE('',#1218,#1610,#2032,.T.);
#2032 = LINE('',#2033,#2034);
#2033 = CARTESIAN_POINT('',(28.423529411765,5.794117647059,0.));
#2034 = VECTOR('',#2035,1.);
#2035 = DIRECTION('',(0.,0.,1.));
#2036 = ORIENTED_EDGE('',*,*,#1619,.T.);
#2037 = CYLINDRICAL_SURFACE('',#2038,1.5);
#2038 = AXIS2_PLACEMENT_3D('',#2039,#2040,#2041);
#2039 = CARTESIAN_POINT('',(27.1,6.5,0.));
#2040 = DIRECTION('',(0.,0.,1.));
#2041 = DIRECTION('',(0.,-1.,0.));
#2042 = ADVANCED_FACE('',(#2043),#2054,.T.);
#2043 = FACE_BOUND('',#2044,.T.);
#2044 = EDGE_LOOP('',(#2045,#2046,#2047,#2053));
#2045 = ORIENTED_EDGE('',*,*,#2031,.F.);
#2046 = ORIENTED_EDGE('',*,*,#1252,.F.);
#2047 = ORIENTED_EDGE('',*,*,#2048,.T.);
#2048 = EDGE_CURVE('',#1243,#1635,#2049,.T.);
#2049 = LINE('',#2050,#2051);
#2050 = CARTESIAN_POINT('',(36.,20.,0.));
#2051 = VECTOR('',#2052,1.);
#2052 = DIRECTION('',(0.,0.,1.));
#2053 = ORIENTED_EDGE('',*,*,#1644,.T.);
#2054 = PLANE('',#2055);
#2055 = AXIS2_PLACEMENT_3D('',#2056,#2057,#2058);
#2056 = CARTESIAN_POINT('',(36.,20.,0.));
#2057 = DIRECTION('',(0.882352941176,-0.470588235294,0.));
#2058 = DIRECTION('',(-0.470588235294,-0.882352941176,0.));
#2059 = ADVANCED_FACE('',(#2060),#2071,.F.);
#2060 = FACE_BOUND('',#2061,.F.);
#2061 = EDGE_LOOP('',(#2062,#2068,#2069,#2070));
#2062 = ORIENTED_EDGE('',*,*,#2063,.F.);
#2063 = EDGE_CURVE('',#1284,#1676,#2064,.T.);
#2064 = LINE('',#2065,#2066);
#2065 = CARTESIAN_POINT('',(36.5,20.,0.));
#2066 = VECTOR('',#2067,1.);
#2067 = DIRECTION('',(0.,0.,1.));
#2068 = ORIENTED_EDGE('',*,*,#1293,.T.);
#2069 = ORIENTED_EDGE('',*,*,#2048,.T.);
#2070 = ORIENTED_EDGE('',*,*,#1685,.F.);
#2071 = PLANE('',#2072);
#2072 = AXIS2_PLACEMENT_3D('',#2073,#2074,#2075);
#2073 = CARTESIAN_POINT('',(30.,20.,0.));
#2074 = DIRECTION('',(0.,1.,0.));
#2075 = DIRECTION('',(0.,0.,1.));
#2076 = ADVANCED_FACE('',(#2077),#2088,.T.);
#2077 = FACE_BOUND('',#2078,.T.);
#2078 = EDGE_LOOP('',(#2079,#2080,#2081,#2087));
#2079 = ORIENTED_EDGE('',*,*,#2063,.F.);
#2080 = ORIENTED_EDGE('',*,*,#1342,.F.);
#2081 = ORIENTED_EDGE('',*,*,#2082,.T.);
#2082 = EDGE_CURVE('',#1333,#1725,#2083,.T.);
#2083 = LINE('',#2084,#2085);
#2084 = CARTESIAN_POINT('',(38.,21.5,0.));
#2085 = VECTOR('',#2086,1.);
#2086 = DIRECTION('',(0.,0.,1.));
#2087 = ORIENTED_EDGE('',*,*,#1734,.T.);
#2088 = CYLINDRICAL_SURFACE('',#2089,1.5);
#2089 = AXIS2_PLACEMENT_3D('',#2090,#2091,#2092);
#2090 = CARTESIAN_POINT('',(36.5,21.5,0.));
#2091 = DIRECTION('',(0.,0.,1.));
#2092 = DIRECTION('',(0.,-1.,0.));
#2093 = ADVANCED_FACE('',(#2094),#2105,.T.);
#2094 = FACE_BOUND('',#2095,.T.);
#2095 = EDGE_LOOP('',(#2096,#2097,#2098,#2104));
#2096 = ORIENTED_EDGE('',*,*,#2082,.F.);
#2097 = ORIENTED_EDGE('',*,*,#1391,.F.);
#2098 = ORIENTED_EDGE('',*,*,#2099,.T.);
#2099 = EDGE_CURVE('',#1382,#1774,#2100,.T.);
#2100 = LINE('',#2101,#2102);
#2101 = CARTESIAN_POINT('',(38.,46.5,0.));
#2102 = VECTOR('',#2103,1.);
#2103 = DIRECTION('',(0.,0.,1.));
#2104 = ORIENTED_EDGE('',*,*,#1783,.T.);
#2105 = PLANE('',#2106);
#2106 = AXIS2_PLACEMENT_3D('',#2107,#2108,#2109);
#2107 = CARTESIAN_POINT('',(38.,20.,0.));
#2108 = DIRECTION('',(1.,0.,0.));
#2109 = DIRECTION('',(0.,0.,1.));
#2110 = ADVANCED_FACE('',(#2111),#2122,.T.);
#2111 = FACE_BOUND('',#2112,.T.);
#2112 = EDGE_LOOP('',(#2113,#2119,#2120,#2121));
#2113 = ORIENTED_EDGE('',*,*,#2114,.T.);
#2114 = EDGE_CURVE('',#1800,#1408,#2115,.T.);
#2115 = LINE('',#2116,#2117);
#2116 = CARTESIAN_POINT('',(30.,30.,0.));
#2117 = VECTOR('',#2118,1.);
#2118 = DIRECTION('',(0.,0.,-1.));
#2119 = ORIENTED_EDGE('',*,*,#1415,.F.);
#2120 = ORIENTED_EDGE('',*,*,#1979,.T.);
#2121 = ORIENTED_EDGE('',*,*,#1807,.T.);
#2122 = PLANE('',#2123);
#2123 = AXIS2_PLACEMENT_3D('',#2124,#2125,#2126);
#2124 = CARTESIAN_POINT('',(6.,30.,0.));
#2125 = DIRECTION('',(0.,1.,0.));
#2126 = DIRECTION('',(0.,0.,1.));
#2127 = ADVANCED_FACE('',(#2128),#2139,.T.);
#2128 = FACE_BOUND('',#2129,.T.);
#2129 = EDGE_LOOP('',(#2130,#2131,#2132,#2138));
#2130 = ORIENTED_EDGE('',*,*,#2099,.F.);
#2131 = ORIENTED_EDGE('',*,*,#1439,.F.);
#2132 = ORIENTED_EDGE('',*,*,#2133,.T.);
#2133 = EDGE_CURVE('',#1430,#1822,#2134,.T.);
#2134 = LINE('',#2135,#2136);
#2135 = CARTESIAN_POINT('',(36.5,48.,0.));
#2136 = VECTOR('',#2137,1.);
#2137 = DIRECTION('',(0.,0.,1.));
#2138 = ORIENTED_EDGE('',*,*,#1831,.T.);
#2139 = CYLINDRICAL_SURFACE('',#2140,1.5);
#2140 = AXIS2_PLACEMENT_3D('',#2141,#2142,#2143);
#2141 = CARTESIAN_POINT('',(36.5,46.5,0.));
#2142 = DIRECTION('',(0.,0.,1.));
#2143 = DIRECTION('',(1.,0.,0.));
#2144 = ADVANCED_FACE('',(#2145),#2156,.F.);
#2145 = FACE_BOUND('',#2146,.F.);
#2146 = EDGE_LOOP('',(#2147,#2153,#2154,#2155));
#2147 = ORIENTED_EDGE('',*,*,#2148,.T.);
#2148 = EDGE_CURVE('',#1457,#1849,#2149,.T.);
#2149 = LINE('',#2150,#2151);
#2150 = CARTESIAN_POINT('',(30.,44.,0.));
#2151 = VECTOR('',#2152,1.);
#2152 = DIRECTION('',(0.,0.,1.));
#2153 = ORIENTED_EDGE('',*,*,#1856,.F.);
#2154 = ORIENTED_EDGE('',*,*,#2114,.T.);
#2155 = ORIENTED_EDGE('',*,*,#1464,.T.);
#2156 = PLANE('',#2157);
#2157 = AXIS2_PLACEMENT_3D('',#2158,#2159,#2160);
#2158 = CARTESIAN_POINT('',(30.,20.,0.));
#2159 = DIRECTION('',(1.,0.,0.));
#2160 = DIRECTION('',(0.,0.,1.));
#2161 = ADVANCED_FACE('',(#2162),#2173,.T.);
#2162 = FACE_BOUND('',#2163,.T.);
#2163 = EDGE_LOOP('',(#2164,#2170,#2171,#2172));
#2164 = ORIENTED_EDGE('',*,*,#2165,.T.);
#2165 = EDGE_CURVE('',#1479,#1871,#2166,.T.);
#2166 = LINE('',#2167,#2168);
#2167 = CARTESIAN_POINT('',(28.5,48.,0.));
#2168 = VECTOR('',#2169,1.);
#2169 = DIRECTION('',(0.,0.,1.));
#2170 = ORIENTED_EDGE('',*,*,#1880,.T.);
#2171 = ORIENTED_EDGE('',*,*,#2133,.F.);
#2172 = ORIENTED_EDGE('',*,*,#1488,.F.);
#2173 = PLANE('',#2174);
#2174 = AXIS2_PLACEMENT_3D('',#2175,#2176,#2177);
#2175 = CARTESIAN_POINT('',(32.5,48.,16.));
#2176 = DIRECTION('',(0.,1.,0.));
#2177 = DIRECTION('',(0.,0.,1.));
#2178 = ADVANCED_FACE('',(#2179),#2190,.F.);
#2179 = FACE_BOUND('',#2180,.F.);
#2180 = EDGE_LOOP('',(#2181,#2182,#2183,#2189));
#2181 = ORIENTED_EDGE('',*,*,#2148,.F.);
#2182 = ORIENTED_EDGE('',*,*,#1512,.F.);
#2183 = ORIENTED_EDGE('',*,*,#2184,.T.);
#2184 = EDGE_CURVE('',#1503,#1895,#2185,.T.);
#2185 = LINE('',#2186,#2187);
#2186 = CARTESIAN_POINT('',(27.,44.,0.));
#2187 = VECTOR('',#2188,1.);
#2188 = DIRECTION('',(0.,0.,1.));
#2189 = ORIENTED_EDGE('',*,*,#1904,.T.);
#2190 = PLANE('',#2191);
#2191 = AXIS2_PLACEMENT_3D('',#2192,#2193,#2194);
#2192 = CARTESIAN_POINT('',(27.,44.,0.));
#2193 = DIRECTION('',(0.,1.,0.));
#2194 = DIRECTION('',(0.,0.,1.));
#2195 = ADVANCED_FACE('',(#2196),#2207,.T.);
#2196 = FACE_BOUND('',#2197,.F.);
#2197 = EDGE_LOOP('',(#2198,#2204,#2205,#2206));
#2198 = ORIENTED_EDGE('',*,*,#2199,.F.);
#2199 = EDGE_CURVE('',#1527,#1919,#2200,.T.);
#2200 = LINE('',#2201,#2202);
#2201 = CARTESIAN_POINT('',(27.,46.5,0.));
#2202 = VECTOR('',#2203,1.);
#2203 = DIRECTION('',(0.,0.,1.));
#2204 = ORIENTED_EDGE('',*,*,#1536,.T.);
#2205 = ORIENTED_EDGE('',*,*,#2165,.T.);
#2206 = ORIENTED_EDGE('',*,*,#1928,.F.);
#2207 = CYLINDRICAL_SURFACE('',#2208,1.5);
#2208 = AXIS2_PLACEMENT_3D('',#2209,#2210,#2211);
#2209 = CARTESIAN_POINT('',(28.5,46.5,0.));
#2210 = DIRECTION('',(0.,0.,1.));
#2211 = DIRECTION('',(-1.,0.,0.));
#2212 = ADVANCED_FACE('',(#2213),#2219,.F.);
#2213 = FACE_BOUND('',#2214,.F.);
#2214 = EDGE_LOOP('',(#2215,#2216,#2217,#2218));
#2215 = ORIENTED_EDGE('',*,*,#2199,.T.);
#2216 = ORIENTED_EDGE('',*,*,#1946,.F.);
#2217 = ORIENTED_EDGE('',*,*,#2184,.F.);
#2218 = ORIENTED_EDGE('',*,*,#1554,.T.);
#2219 = PLANE('',#2220);
#2220 = AXIS2_PLACEMENT_3D('',#2221,#2222,#2223);
#2221 = CARTESIAN_POINT('',(27.,44.,0.));
#2222 = DIRECTION('',(1.,0.,0.));
#2223 = DIRECTION('',(0.,0.,1.));
#2224 = ( GEOMETRIC_REPRESENTATION_CONTEXT(3) 
GLOBAL_UNCERTAINTY_ASSIGNED_CONTEXT((#2228)) 
GLOBAL_UNIT_ASSIGNED_CONTEXT((#2225,#2226,#2227)) REPRESENTATION_CONTEXT
('Context #1','3D Context with UNIT and UNCERTAINTY') );
#2225 = ( LENGTH_UNIT() NAMED_UNIT(*) SI_UNIT(.MILLI.,.METRE.) );
#2226 = ( NAMED_UNIT(*) PLANE_ANGLE_UNIT() SI_UNIT($,.RADIAN.) );
#2227 = ( NAMED_UNIT(*) SI_UNIT($,.STERADIAN.) SOLID_ANGLE_UNIT() );
#2228 = UNCERTAINTY_MEASURE_WITH_UNIT(LENGTH_MEASURE(1.E-07),#2225,
  'distance_accuracy_value','confusion accuracy');
#2229 = PRODUCT_RELATED_PRODUCT_CATEGORY('part',$,(#7));
ENDSEC;
END-ISO-10303-21;
