ISO-10303-21;
HEADER;
FILE_DESCRIPTION(('FreeCAD Model'),'2;1');
FILE_NAME('Open CASCADE Shape Model','2026-08-16T15:47:46',('FreeCAD'),(
    'FreeCAD'),'Open CASCADE STEP processor 7.8','FreeCAD','Unknown');
FILE_SCHEMA(('AUTOMOTIVE_DESIGN { 1 0 10303 214 1 1 1 1 }'));
ENDSEC;
DATA;
#1 = APPLICATION_PROTOCOL_DEFINITION('international standard',
  'automotive_design',2000,#2);
#2 = APPLICATION_CONTEXT(
  'core data for automotive mechanical design processes');
#3 = SHAPE_DEFINITION_REPRESENTATION(#4,#10);
#4 = PRODUCT_DEFINITION_SHAPE('','',#5);
#5 = PRODUCT_DEFINITION('design','',#6,#9);
#6 = PRODUCT_DEFINITION_FORMATION('','',#7);
#7 = PRODUCT('Open CASCADE STEP translator 7.8 1',
  'Open CASCADE STEP translator 7.8 1','',(#8));
#8 = PRODUCT_CONTEXT('',#2,'mechanical');
#9 = PRODUCT_DEFINITION_CONTEXT('part definition',#2,'design');
#10 = ADVANCED_BREP_SHAPE_REPRESENTATION('',(#11,#15),#1166);
#11 = AXIS2_PLACEMENT_3D('',#12,#13,#14);
#12 = CARTESIAN_POINT('',(0.,0.,0.));
#13 = DIRECTION('',(0.,0.,1.));
#14 = DIRECTION('',(1.,0.,-0.));
#15 = MANIFOLD_SOLID_BREP('',#16);
#16 = CLOSED_SHELL('',(#17,#57,#184,#270,#381,#451,#468,#536,#548,#573,
    #598,#620,#637,#649,#674,#793,#818,#843,#868,#987,#1106,#1126,#1146)
  );
#17 = ADVANCED_FACE('',(#18),#52,.F.);
#18 = FACE_BOUND('',#19,.F.);
#19 = EDGE_LOOP('',(#20,#30,#38,#46));
#20 = ORIENTED_EDGE('',*,*,#21,.F.);
#21 = EDGE_CURVE('',#22,#24,#26,.T.);
#22 = VERTEX_POINT('',#23);
#23 = CARTESIAN_POINT('',(91.188780654086,-40.02055271899,0.));
#24 = VERTEX_POINT('',#25);
#25 = CARTESIAN_POINT('',(10.935574998896,98.982076946066,0.));
#26 = LINE('',#27,#28);
#27 = CARTESIAN_POINT('',(96.062177826491,-48.46152422706,0.));
#28 = VECTOR('',#29,1.);
#29 = DIRECTION('',(-0.5,0.866025403784,0.));
#30 = ORIENTED_EDGE('',*,*,#31,.T.);
#31 = EDGE_CURVE('',#22,#32,#34,.T.);
#32 = VERTEX_POINT('',#33);
#33 = CARTESIAN_POINT('',(91.188780654086,-40.02055271899,8.));
#34 = LINE('',#35,#36);
#35 = CARTESIAN_POINT('',(91.188780654087,-40.02055271899,0.));
#36 = VECTOR('',#37,1.);
#37 = DIRECTION('',(0.,0.,1.));
#38 = ORIENTED_EDGE('',*,*,#39,.T.);
#39 = EDGE_CURVE('',#32,#40,#42,.T.);
#40 = VERTEX_POINT('',#41);
#41 = CARTESIAN_POINT('',(10.935574998896,98.982076946066,8.));
#42 = LINE('',#43,#44);
#43 = CARTESIAN_POINT('',(96.062177826491,-48.46152422706,8.));
#44 = VECTOR('',#45,1.);
#45 = DIRECTION('',(-0.5,0.866025403784,0.));
#46 = ORIENTED_EDGE('',*,*,#47,.F.);
#47 = EDGE_CURVE('',#24,#40,#48,.T.);
#48 = LINE('',#49,#50);
#49 = CARTESIAN_POINT('',(10.935574998896,98.982076946066,0.));
#50 = VECTOR('',#51,1.);
#51 = DIRECTION('',(0.,0.,1.));
#52 = PLANE('',#53);
#53 = AXIS2_PLACEMENT_3D('',#54,#55,#56);
#54 = CARTESIAN_POINT('',(96.062177826491,-48.46152422706,0.));
#55 = DIRECTION('',(-0.866025403784,-0.5,0.));
#56 = DIRECTION('',(0.,0.,1.));
#57 = ADVANCED_FACE('',(#58,#120,#131,#142,#168),#179,.T.);
#58 = FACE_BOUND('',#59,.T.);
#59 = EDGE_LOOP('',(#60,#71,#78,#79,#88,#97,#105,#114));
#60 = ORIENTED_EDGE('',*,*,#61,.F.);
#61 = EDGE_CURVE('',#62,#64,#66,.T.);
#62 = VERTEX_POINT('',#63);
#63 = CARTESIAN_POINT('',(12.,103.92304845413,0.));
#64 = VERTEX_POINT('',#65);
#65 = CARTESIAN_POINT('',(-10.93557499889,98.982076946066,0.));
#66 = CIRCLE('',#67,12.);
#67 = AXIS2_PLACEMENT_3D('',#68,#69,#70);
#68 = CARTESIAN_POINT('',(6.363451432349E-15,103.92304845413,0.));
#69 = DIRECTION('',(0.,0.,1.));
#70 = DIRECTION('',(1.,0.,0.));
#71 = ORIENTED_EDGE('',*,*,#72,.F.);
#72 = EDGE_CURVE('',#24,#62,#73,.T.);
#73 = CIRCLE('',#74,12.);
#74 = AXIS2_PLACEMENT_3D('',#75,#76,#77);
#75 = CARTESIAN_POINT('',(6.363451432349E-15,103.92304845413,0.));
#76 = DIRECTION('',(0.,0.,1.));
#77 = DIRECTION('',(1.,0.,0.));
#78 = ORIENTED_EDGE('',*,*,#21,.F.);
#79 = ORIENTED_EDGE('',*,*,#80,.F.);
#80 = EDGE_CURVE('',#81,#22,#83,.T.);
#81 = VERTEX_POINT('',#82);
#82 = CARTESIAN_POINT('',(102.,-51.96152422706,0.));
#83 = CIRCLE('',#84,12.);
#84 = AXIS2_PLACEMENT_3D('',#85,#86,#87);
#85 = CARTESIAN_POINT('',(90.,-51.96152422706,0.));
#86 = DIRECTION('',(0.,0.,1.));
#87 = DIRECTION('',(1.,0.,0.));
#88 = ORIENTED_EDGE('',*,*,#89,.F.);
#89 = EDGE_CURVE('',#90,#81,#92,.T.);
#90 = VERTEX_POINT('',#91);
#91 = CARTESIAN_POINT('',(80.253205655191,-58.96152422706,0.));
#92 = CIRCLE('',#93,12.);
#93 = AXIS2_PLACEMENT_3D('',#94,#95,#96);
#94 = CARTESIAN_POINT('',(90.,-51.96152422706,0.));
#95 = DIRECTION('',(0.,0.,1.));
#96 = DIRECTION('',(1.,0.,0.));
#97 = ORIENTED_EDGE('',*,*,#98,.F.);
#98 = EDGE_CURVE('',#99,#90,#101,.T.);
#99 = VERTEX_POINT('',#100);
#100 = CARTESIAN_POINT('',(-80.25320565519,-58.96152422706,0.));
#101 = LINE('',#102,#103);
#102 = CARTESIAN_POINT('',(-90.,-58.96152422706,0.));
#103 = VECTOR('',#104,1.);
#104 = DIRECTION('',(1.,-3.947459643112E-16,0.));
#105 = ORIENTED_EDGE('',*,*,#106,.F.);
#106 = EDGE_CURVE('',#107,#99,#109,.T.);
#107 = VERTEX_POINT('',#108);
#108 = CARTESIAN_POINT('',(-91.18878065408,-40.02055271899,0.));
#109 = CIRCLE('',#110,12.);
#110 = AXIS2_PLACEMENT_3D('',#111,#112,#113);
#111 = CARTESIAN_POINT('',(-90.,-51.96152422706,0.));
#112 = DIRECTION('',(0.,0.,1.));
#113 = DIRECTION('',(1.,0.,0.));
#114 = ORIENTED_EDGE('',*,*,#115,.F.);
#115 = EDGE_CURVE('',#64,#107,#116,.T.);
#116 = LINE('',#117,#118);
#117 = CARTESIAN_POINT('',(-6.062177826491,107.42304845413,0.));
#118 = VECTOR('',#119,1.);
#119 = DIRECTION('',(-0.5,-0.866025403784,0.));
#120 = FACE_BOUND('',#121,.T.);
#121 = EDGE_LOOP('',(#122));
#122 = ORIENTED_EDGE('',*,*,#123,.T.);
#123 = EDGE_CURVE('',#124,#124,#126,.T.);
#124 = VERTEX_POINT('',#125);
#125 = CARTESIAN_POINT('',(94.7,-51.96152422706,0.));
#126 = CIRCLE('',#127,4.7);
#127 = AXIS2_PLACEMENT_3D('',#128,#129,#130);
#128 = CARTESIAN_POINT('',(90.,-51.96152422706,0.));
#129 = DIRECTION('',(0.,0.,1.));
#130 = DIRECTION('',(1.,0.,0.));
#131 = FACE_BOUND('',#132,.T.);
#132 = EDGE_LOOP('',(#133));
#133 = ORIENTED_EDGE('',*,*,#134,.T.);
#134 = EDGE_CURVE('',#135,#135,#137,.T.);
#135 = VERTEX_POINT('',#136);
#136 = CARTESIAN_POINT('',(-85.3,-51.96152422706,0.));
#137 = CIRCLE('',#138,4.7);
#138 = AXIS2_PLACEMENT_3D('',#139,#140,#141);
#139 = CARTESIAN_POINT('',(-90.,-51.96152422706,0.));
#140 = DIRECTION('',(0.,0.,1.));
#141 = DIRECTION('',(1.,0.,0.));
#142 = FACE_BOUND('',#143,.T.);
#143 = EDGE_LOOP('',(#144,#154,#162));
#144 = ORIENTED_EDGE('',*,*,#145,.T.);
#145 = EDGE_CURVE('',#146,#148,#150,.T.);
#146 = VERTEX_POINT('',#147);
#147 = CARTESIAN_POINT('',(77.875644347018,-44.96152422706,0.));
#148 = VERTEX_POINT('',#149);
#149 = CARTESIAN_POINT('',(4.440892098501E-16,89.923048454133,0.));
#150 = LINE('',#151,#152);
#151 = CARTESIAN_POINT('',(83.937822173509,-55.46152422706,0.));
#152 = VECTOR('',#153,1.);
#153 = DIRECTION('',(-0.5,0.866025403784,0.));
#154 = ORIENTED_EDGE('',*,*,#155,.T.);
#155 = EDGE_CURVE('',#148,#156,#158,.T.);
#156 = VERTEX_POINT('',#157);
#157 = CARTESIAN_POINT('',(-77.87564434701,-44.96152422706,0.));
#158 = LINE('',#159,#160);
#159 = CARTESIAN_POINT('',(6.062177826491,100.42304845413,0.));
#160 = VECTOR('',#161,1.);
#161 = DIRECTION('',(-0.5,-0.866025403784,0.));
#162 = ORIENTED_EDGE('',*,*,#163,.T.);
#163 = EDGE_CURVE('',#156,#146,#164,.T.);
#164 = LINE('',#165,#166);
#165 = CARTESIAN_POINT('',(-90.,-44.96152422706,0.));
#166 = VECTOR('',#167,1.);
#167 = DIRECTION('',(1.,-3.947459643112E-16,0.));
#168 = FACE_BOUND('',#169,.T.);
#169 = EDGE_LOOP('',(#170));
#170 = ORIENTED_EDGE('',*,*,#171,.T.);
#171 = EDGE_CURVE('',#172,#172,#174,.T.);
#172 = VERTEX_POINT('',#173);
#173 = CARTESIAN_POINT('',(4.7,103.92304845413,0.));
#174 = CIRCLE('',#175,4.7);
#175 = AXIS2_PLACEMENT_3D('',#176,#177,#178);
#176 = CARTESIAN_POINT('',(6.363451432349E-15,103.92304845413,0.));
#177 = DIRECTION('',(0.,0.,1.));
#178 = DIRECTION('',(1.,0.,0.));
#179 = PLANE('',#180);
#180 = AXIS2_PLACEMENT_3D('',#181,#182,#183);
#181 = CARTESIAN_POINT('',(0.424677947867,-3.846439755627E-02,0.));
#182 = DIRECTION('',(-0.,-0.,-1.));
#183 = DIRECTION('',(-1.,0.,0.));
#184 = ADVANCED_FACE('',(#185,#214),#265,.T.);
#185 = FACE_BOUND('',#186,.T.);
#186 = EDGE_LOOP('',(#187,#188,#196,#205,#212,#213));
#187 = ORIENTED_EDGE('',*,*,#61,.T.);
#188 = ORIENTED_EDGE('',*,*,#189,.T.);
#189 = EDGE_CURVE('',#64,#190,#192,.T.);
#190 = VERTEX_POINT('',#191);
#191 = CARTESIAN_POINT('',(-10.93557499889,98.982076946066,8.));
#192 = LINE('',#193,#194);
#193 = CARTESIAN_POINT('',(-10.93557499889,98.982076946066,0.));
#194 = VECTOR('',#195,1.);
#195 = DIRECTION('',(0.,0.,1.));
#196 = ORIENTED_EDGE('',*,*,#197,.F.);
#197 = EDGE_CURVE('',#198,#190,#200,.T.);
#198 = VERTEX_POINT('',#199);
#199 = CARTESIAN_POINT('',(12.,103.92304845413,8.));
#200 = CIRCLE('',#201,12.);
#201 = AXIS2_PLACEMENT_3D('',#202,#203,#204);
#202 = CARTESIAN_POINT('',(6.363451432349E-15,103.92304845413,8.));
#203 = DIRECTION('',(0.,0.,1.));
#204 = DIRECTION('',(1.,0.,0.));
#205 = ORIENTED_EDGE('',*,*,#206,.F.);
#206 = EDGE_CURVE('',#40,#198,#207,.T.);
#207 = CIRCLE('',#208,12.);
#208 = AXIS2_PLACEMENT_3D('',#209,#210,#211);
#209 = CARTESIAN_POINT('',(6.363451432349E-15,103.92304845413,8.));
#210 = DIRECTION('',(0.,0.,1.));
#211 = DIRECTION('',(1.,0.,0.));
#212 = ORIENTED_EDGE('',*,*,#47,.F.);
#213 = ORIENTED_EDGE('',*,*,#72,.T.);
#214 = FACE_BOUND('',#215,.T.);
#215 = EDGE_LOOP('',(#216));
#216 = ORIENTED_EDGE('',*,*,#217,.T.);
#217 = EDGE_CURVE('',#218,#218,#220,.T.);
#218 = VERTEX_POINT('',#219);
#219 = CARTESIAN_POINT('',(-1.4,115.84110198648,4.));
#220 = B_SPLINE_CURVE_WITH_KNOTS('',7,(#221,#222,#223,#224,#225,#226,
    #227,#228,#229,#230,#231,#232,#233,#234,#235,#236,#237,#238,#239,
    #240,#241,#242,#243,#244,#245,#246,#247,#248,#249,#250,#251,#252,
    #253,#254,#255,#256,#257,#258,#259,#260,#261,#262,#263,#264),
  .UNSPECIFIED.,.T.,.F.,(8,6,6,6,6,6,6,8),(0.,0.151680655829,
    0.286325263905,0.423091383787,0.587131227655,0.713584861312,
    0.838707011568,1.),.UNSPECIFIED.);
#221 = CARTESIAN_POINT('',(-1.4,115.84110198648,4.));
#222 = CARTESIAN_POINT('',(-1.4,115.84110198648,3.831981036796));
#223 = CARTESIAN_POINT('',(-1.376475369157,115.84386528396,
    3.663952981369));
#224 = CARTESIAN_POINT('',(-1.329416678299,115.84939380329,
    3.498212692431));
#225 = CARTESIAN_POINT('',(-1.258275252368,115.85745261169,
    3.337305324444));
#226 = CARTESIAN_POINT('',(-1.162228400829,115.86755090987,
    3.184406463343));
#227 = CARTESIAN_POINT('',(-1.040387760114,115.87878420667,
    3.043712888817));
#228 = CARTESIAN_POINT('',(-0.761021410933,115.89961728819,
    2.812600945491));
#229 = CARTESIAN_POINT('',(-0.605041091316,115.90955631093,
    2.715001831684));
#230 = CARTESIAN_POINT('',(-0.427647991529,115.91827069435,
    2.639036154213));
#231 = CARTESIAN_POINT('',(-0.235215906883,115.9240617027,2.591908960379
    ));
#232 = CARTESIAN_POINT('',(-3.603942774406E-02,115.92573983077,
    2.577440605093));
#233 = CARTESIAN_POINT('',(0.161065625206,115.92342735852,2.595944403724
    ));
#234 = CARTESIAN_POINT('',(0.538214081242,115.91248023241,2.692779668614
    ));
#235 = CARTESIAN_POINT('',(0.711978668344,115.90392049476,2.770517741494
    ));
#236 = CARTESIAN_POINT('',(0.86620463741,115.89349027689,2.871155691527)
  );
#237 = CARTESIAN_POINT('',(0.999184271883,115.88253491939,2.989431529091
    ));
#238 = CARTESIAN_POINT('',(1.110131707447,115.87217331053,3.120537423824
    ));
#239 = CARTESIAN_POINT('',(1.199061371075,115.86318607014,3.260046601313
    ));
#240 = CARTESIAN_POINT('',(1.347954325395,115.84738014595,3.576460235463
    ));
#241 = CARTESIAN_POINT('',(1.400369863213,115.84116409192,3.759024120409
    ));
#242 = CARTESIAN_POINT('',(1.424006089353,115.83818096095,3.94732535276)
  );
#243 = CARTESIAN_POINT('',(1.418530813081,115.83886019351,4.137461183645
    ));
#244 = CARTESIAN_POINT('',(1.383655001258,115.84320555191,4.325227109379
    ));
#245 = CARTESIAN_POINT('',(1.31946885929,115.85064983313,4.505944505662)
  );
#246 = CARTESIAN_POINT('',(1.15541620003,115.86751022979,4.804355185055)
  );
#247 = CARTESIAN_POINT('',(1.065648894126,115.87623226064,4.92963131889)
  );
#248 = CARTESIAN_POINT('',(0.957023840331,115.88592424375,5.046776463137
    ));
#249 = CARTESIAN_POINT('',(0.829714182741,115.89590430485,5.152065489954
    ));
#250 = CARTESIAN_POINT('',(0.684562722449,115.90525160545,5.241564082954
    ));
#251 = CARTESIAN_POINT('',(0.523150159171,115.91291747841,5.31108808919)
  );
#252 = CARTESIAN_POINT('',(0.175024008235,115.92302220193,5.400471692653
    ));
#253 = CARTESIAN_POINT('',(-7.293914180397E-03,115.92539534436,
    5.419791000303));
#254 = CARTESIAN_POINT('',(-0.192257793338,115.92437936496,
    5.410835341078));
#255 = CARTESIAN_POINT('',(-0.37253029631,115.91980668042,5.373498000039
    ));
#256 = CARTESIAN_POINT('',(-0.541118489698,115.91249953993,
    5.310529454612));
#257 = CARTESIAN_POINT('',(-0.692352045776,115.90377346416,
    5.227471962892));
#258 = CARTESIAN_POINT('',(-0.991185826106,115.88323259992,
    5.010356512678));
#259 = CARTESIAN_POINT('',(-1.129909597743,115.87092400074,
    4.864999658071));
#260 = CARTESIAN_POINT('',(-1.239159185733,115.85961263377,
    4.704452248236));
#261 = CARTESIAN_POINT('',(-1.319959829255,115.85050512344,
    4.534068769848));
#262 = CARTESIAN_POINT('',(-1.373331553467,115.84423448007,
    4.357840924911));
#263 = CARTESIAN_POINT('',(-1.4,115.84110198648,4.178894913265));
#264 = CARTESIAN_POINT('',(-1.4,115.84110198648,4.));
#265 = CYLINDRICAL_SURFACE('',#266,12.);
#266 = AXIS2_PLACEMENT_3D('',#267,#268,#269);
#267 = CARTESIAN_POINT('',(6.363451432349E-15,103.92304845413,0.));
#268 = DIRECTION('',(0.,0.,1.));
#269 = DIRECTION('',(1.,0.,0.));
#270 = ADVANCED_FACE('',(#271,#317,#328,#354,#365),#376,.T.);
#271 = FACE_BOUND('',#272,.T.);
#272 = EDGE_LOOP('',(#273,#274,#282,#291,#299,#308,#315,#316));
#273 = ORIENTED_EDGE('',*,*,#197,.T.);
#274 = ORIENTED_EDGE('',*,*,#275,.T.);
#275 = EDGE_CURVE('',#190,#276,#278,.T.);
#276 = VERTEX_POINT('',#277);
#277 = CARTESIAN_POINT('',(-91.18878065408,-40.02055271899,8.));
#278 = LINE('',#279,#280);
#279 = CARTESIAN_POINT('',(-6.062177826491,107.42304845413,8.));
#280 = VECTOR('',#281,1.);
#281 = DIRECTION('',(-0.5,-0.866025403784,0.));
#282 = ORIENTED_EDGE('',*,*,#283,.T.);
#283 = EDGE_CURVE('',#276,#284,#286,.T.);
#284 = VERTEX_POINT('',#285);
#285 = CARTESIAN_POINT('',(-80.25320565519,-58.96152422706,8.));
#286 = CIRCLE('',#287,12.);
#287 = AXIS2_PLACEMENT_3D('',#288,#289,#290);
#288 = CARTESIAN_POINT('',(-90.,-51.96152422706,8.));
#289 = DIRECTION('',(0.,0.,1.));
#290 = DIRECTION('',(1.,0.,0.));
#291 = ORIENTED_EDGE('',*,*,#292,.T.);
#292 = EDGE_CURVE('',#284,#293,#295,.T.);
#293 = VERTEX_POINT('',#294);
#294 = CARTESIAN_POINT('',(80.253205655191,-58.96152422706,8.));
#295 = LINE('',#296,#297);
#296 = CARTESIAN_POINT('',(-90.,-58.96152422706,8.));
#297 = VECTOR('',#298,1.);
#298 = DIRECTION('',(1.,-3.947459643112E-16,0.));
#299 = ORIENTED_EDGE('',*,*,#300,.T.);
#300 = EDGE_CURVE('',#293,#301,#303,.T.);
#301 = VERTEX_POINT('',#302);
#302 = CARTESIAN_POINT('',(102.,-51.96152422706,8.));
#303 = CIRCLE('',#304,12.);
#304 = AXIS2_PLACEMENT_3D('',#305,#306,#307);
#305 = CARTESIAN_POINT('',(90.,-51.96152422706,8.));
#306 = DIRECTION('',(0.,0.,1.));
#307 = DIRECTION('',(1.,0.,0.));
#308 = ORIENTED_EDGE('',*,*,#309,.T.);
#309 = EDGE_CURVE('',#301,#32,#310,.T.);
#310 = CIRCLE('',#311,12.);
#311 = AXIS2_PLACEMENT_3D('',#312,#313,#314);
#312 = CARTESIAN_POINT('',(90.,-51.96152422706,8.));
#313 = DIRECTION('',(0.,0.,1.));
#314 = DIRECTION('',(1.,0.,0.));
#315 = ORIENTED_EDGE('',*,*,#39,.T.);
#316 = ORIENTED_EDGE('',*,*,#206,.T.);
#317 = FACE_BOUND('',#318,.T.);
#318 = EDGE_LOOP('',(#319));
#319 = ORIENTED_EDGE('',*,*,#320,.F.);
#320 = EDGE_CURVE('',#321,#321,#323,.T.);
#321 = VERTEX_POINT('',#322);
#322 = CARTESIAN_POINT('',(-85.3,-51.96152422706,8.));
#323 = CIRCLE('',#324,4.7);
#324 = AXIS2_PLACEMENT_3D('',#325,#326,#327);
#325 = CARTESIAN_POINT('',(-90.,-51.96152422706,8.));
#326 = DIRECTION('',(0.,0.,1.));
#327 = DIRECTION('',(1.,0.,0.));
#328 = FACE_BOUND('',#329,.T.);
#329 = EDGE_LOOP('',(#330,#340,#348));
#330 = ORIENTED_EDGE('',*,*,#331,.F.);
#331 = EDGE_CURVE('',#332,#334,#336,.T.);
#332 = VERTEX_POINT('',#333);
#333 = CARTESIAN_POINT('',(77.875644347018,-44.96152422706,8.));
#334 = VERTEX_POINT('',#335);
#335 = CARTESIAN_POINT('',(4.440892098501E-16,89.923048454133,8.));
#336 = LINE('',#337,#338);
#337 = CARTESIAN_POINT('',(83.937822173509,-55.46152422706,8.));
#338 = VECTOR('',#339,1.);
#339 = DIRECTION('',(-0.5,0.866025403784,0.));
#340 = ORIENTED_EDGE('',*,*,#341,.F.);
#341 = EDGE_CURVE('',#342,#332,#344,.T.);
#342 = VERTEX_POINT('',#343);
#343 = CARTESIAN_POINT('',(-77.87564434701,-44.96152422706,8.));
#344 = LINE('',#345,#346);
#345 = CARTESIAN_POINT('',(-90.,-44.96152422706,8.));
#346 = VECTOR('',#347,1.);
#347 = DIRECTION('',(1.,-3.947459643112E-16,0.));
#348 = ORIENTED_EDGE('',*,*,#349,.F.);
#349 = EDGE_CURVE('',#334,#342,#350,.T.);
#350 = LINE('',#351,#352);
#351 = CARTESIAN_POINT('',(6.062177826491,100.42304845413,8.));
#352 = VECTOR('',#353,1.);
#353 = DIRECTION('',(-0.5,-0.866025403784,0.));
#354 = FACE_BOUND('',#355,.T.);
#355 = EDGE_LOOP('',(#356));
#356 = ORIENTED_EDGE('',*,*,#357,.F.);
#357 = EDGE_CURVE('',#358,#358,#360,.T.);
#358 = VERTEX_POINT('',#359);
#359 = CARTESIAN_POINT('',(94.7,-51.96152422706,8.));
#360 = CIRCLE('',#361,4.7);
#361 = AXIS2_PLACEMENT_3D('',#362,#363,#364);
#362 = CARTESIAN_POINT('',(90.,-51.96152422706,8.));
#363 = DIRECTION('',(0.,0.,1.));
#364 = DIRECTION('',(1.,0.,0.));
#365 = FACE_BOUND('',#366,.T.);
#366 = EDGE_LOOP('',(#367));
#367 = ORIENTED_EDGE('',*,*,#368,.F.);
#368 = EDGE_CURVE('',#369,#369,#371,.T.);
#369 = VERTEX_POINT('',#370);
#370 = CARTESIAN_POINT('',(4.7,103.92304845413,8.));
#371 = CIRCLE('',#372,4.7);
#372 = AXIS2_PLACEMENT_3D('',#373,#374,#375);
#373 = CARTESIAN_POINT('',(6.363451432349E-15,103.92304845413,8.));
#374 = DIRECTION('',(0.,0.,1.));
#375 = DIRECTION('',(1.,0.,0.));
#376 = PLANE('',#377);
#377 = AXIS2_PLACEMENT_3D('',#378,#379,#380);
#378 = CARTESIAN_POINT('',(0.424677947867,-3.846439755627E-02,8.));
#379 = DIRECTION('',(0.,0.,1.));
#380 = DIRECTION('',(1.,0.,0.));
#381 = ADVANCED_FACE('',(#382,#395),#446,.T.);
#382 = FACE_BOUND('',#383,.T.);
#383 = EDGE_LOOP('',(#384,#385,#391,#392,#393,#394));
#384 = ORIENTED_EDGE('',*,*,#300,.F.);
#385 = ORIENTED_EDGE('',*,*,#386,.F.);
#386 = EDGE_CURVE('',#90,#293,#387,.T.);
#387 = LINE('',#388,#389);
#388 = CARTESIAN_POINT('',(80.253205655191,-58.96152422706,0.));
#389 = VECTOR('',#390,1.);
#390 = DIRECTION('',(0.,0.,1.));
#391 = ORIENTED_EDGE('',*,*,#89,.T.);
#392 = ORIENTED_EDGE('',*,*,#80,.T.);
#393 = ORIENTED_EDGE('',*,*,#31,.T.);
#394 = ORIENTED_EDGE('',*,*,#309,.F.);
#395 = FACE_BOUND('',#396,.T.);
#396 = EDGE_LOOP('',(#397));
#397 = ORIENTED_EDGE('',*,*,#398,.T.);
#398 = EDGE_CURVE('',#399,#399,#401,.T.);
#399 = VERTEX_POINT('',#400);
#400 = CARTESIAN_POINT('',(99.621337122679,-59.13298655854,4.));
#401 = B_SPLINE_CURVE_WITH_KNOTS('',7,(#402,#403,#404,#405,#406,#407,
    #408,#409,#410,#411,#412,#413,#414,#415,#416,#417,#418,#419,#420,
    #421,#422,#423,#424,#425,#426,#427,#428,#429,#430,#431,#432,#433,
    #434,#435,#436,#437,#438,#439,#440,#441,#442,#443,#444,#445),
  .UNSPECIFIED.,.T.,.F.,(8,6,6,6,6,6,6,8),(0.,0.151680658243,
    0.286325268462,0.423091390542,0.587131237082,0.7135848728,
    0.838707020553,1.),.UNSPECIFIED.);
#402 = CARTESIAN_POINT('',(99.621337122679,-59.13298655854,4.));
#403 = CARTESIAN_POINT('',(99.621337122679,-59.13298655854,
    4.168018963205));
#404 = CARTESIAN_POINT('',(99.635492523916,-59.11399527935,
    4.336047018631));
#405 = CARTESIAN_POINT('',(99.663809707527,-59.07600551726,
    4.501787307569));
#406 = CARTESIAN_POINT('',(99.706359553295,-59.01842463935,
    4.662694675556));
#407 = CARTESIAN_POINT('',(99.763128361823,-58.94029477505,
    4.815593536656));
#408 = CARTESIAN_POINT('',(99.833777002574,-58.84039433338,
    4.956287111183));
#409 = CARTESIAN_POINT('',(99.991502155005,-58.60887251879,
    5.187399054509));
#410 = CARTESIAN_POINT('',(100.07809976099,-58.47875911087,
    5.284998168316));
#411 = CARTESIAN_POINT('',(100.17434318831,-58.32948937172,
    5.360963845787));
#412 = CARTESIAN_POINT('',(100.27557439097,-58.16573380208,
    5.408091039622));
#413 = CARTESIAN_POINT('',(100.37661593208,-57.99408097535,
    5.422559394907));
#414 = CARTESIAN_POINT('',(100.47316579884,-57.82222675615,
    5.404055596276));
#415 = CARTESIAN_POINT('',(100.65225953756,-57.49013304915,
    5.307220331378));
#416 = CARTESIAN_POINT('',(100.73172888085,-57.33536863364,
    5.229482258494));
#417 = CARTESIAN_POINT('',(100.79980903173,-57.19658991759,
    5.128844308483));
#418 = CARTESIAN_POINT('',(100.85681123106,-57.0759484972,5.010568470933
    ));
#419 = CARTESIAN_POINT('',(100.90331153236,-56.97468439506,
    4.879462576181));
#420 = CARTESIAN_POINT('',(100.93999318569,-56.89317542701,
    4.739953398657));
#421 = CARTESIAN_POINT('',(101.00075133096,-56.75632738404,
    4.423539764535));
#422 = CARTESIAN_POINT('',(101.02157583917,-56.70782616972,4.24097587959
    ));
#423 = CARTESIAN_POINT('',(101.03081048504,-56.68586503195,4.05267464724
    ));
#424 = CARTESIAN_POINT('',(101.02866107955,-56.69094637657,
    3.862538816356));
#425 = CARTESIAN_POINT('',(101.01498636441,-56.72332239479,
    3.674772890622));
#426 = CARTESIAN_POINT('',(100.98934023007,-56.78263136491,
    3.494055494339));
#427 = CARTESIAN_POINT('',(100.92191543227,-56.93313533372,
    3.195644814945));
#428 = CARTESIAN_POINT('',(100.88458527961,-57.01523711649,3.07036868111
    ));
#429 = CARTESIAN_POINT('',(100.83866625629,-57.11415516412,
    2.953223536864));
#430 = CARTESIAN_POINT('',(100.78365441394,-57.22939859229,
    2.847934510046));
#431 = CARTESIAN_POINT('',(100.71917368357,-57.3597770946,2.758435917046
    ));
#432 = CARTESIAN_POINT('',(100.64510624266,-57.50339741137,2.68891191081
    ));
#433 = CARTESIAN_POINT('',(100.47979411744,-57.80993585803,2.59952830896
    ));
#434 = CARTESIAN_POINT('',(100.39069034792,-57.96901440036,
    2.580208994288));
#435 = CARTESIAN_POINT('',(100.29732855562,-58.12868980602,
    2.589164669342));
#436 = CARTESIAN_POINT('',(100.20323224253,-58.28252403675,
    2.626501986839));
#437 = CARTESIAN_POINT('',(100.11260996665,-58.42487213738,
    2.689470555176));
#438 = CARTESIAN_POINT('',(100.02943619416,-58.55148118821,
    2.772528033722));
#439 = CARTESIAN_POINT('',(99.862230391147,-58.80000840524,
    2.989643487322));
#440 = CARTESIAN_POINT('',(99.782208945747,-58.91399241599,3.13500034193
    ));
#441 = CARTESIAN_POINT('',(99.717788220605,-59.00294965106,
    3.295547751763));
#442 = CARTESIAN_POINT('',(99.669500563536,-59.06837130583,
    3.465931230153));
#443 = CARTESIAN_POINT('',(99.637384164976,-59.11145725316,
    3.642159075089));
#444 = CARTESIAN_POINT('',(99.621337122679,-59.13298655854,
    3.821105086735));
#445 = CARTESIAN_POINT('',(99.621337122679,-59.13298655854,4.));
#446 = CYLINDRICAL_SURFACE('',#447,12.);
#447 = AXIS2_PLACEMENT_3D('',#448,#449,#450);
#448 = CARTESIAN_POINT('',(90.,-51.96152422706,0.));
#449 = DIRECTION('',(0.,0.,1.));
#450 = DIRECTION('',(1.,0.,0.));
#451 = ADVANCED_FACE('',(#452),#463,.F.);
#452 = FACE_BOUND('',#453,.F.);
#453 = EDGE_LOOP('',(#454,#455,#456,#457));
#454 = ORIENTED_EDGE('',*,*,#115,.F.);
#455 = ORIENTED_EDGE('',*,*,#189,.T.);
#456 = ORIENTED_EDGE('',*,*,#275,.T.);
#457 = ORIENTED_EDGE('',*,*,#458,.F.);
#458 = EDGE_CURVE('',#107,#276,#459,.T.);
#459 = LINE('',#460,#461);
#460 = CARTESIAN_POINT('',(-91.18878065408,-40.02055271899,0.));
#461 = VECTOR('',#462,1.);
#462 = DIRECTION('',(0.,0.,1.));
#463 = PLANE('',#464);
#464 = AXIS2_PLACEMENT_3D('',#465,#466,#467);
#465 = CARTESIAN_POINT('',(-6.062177826491,107.42304845413,0.));
#466 = DIRECTION('',(0.866025403784,-0.5,0.));
#467 = DIRECTION('',(0.,0.,1.));
#468 = ADVANCED_FACE('',(#469,#480),#531,.T.);
#469 = FACE_BOUND('',#470,.T.);
#470 = EDGE_LOOP('',(#471,#472,#478,#479));
#471 = ORIENTED_EDGE('',*,*,#106,.T.);
#472 = ORIENTED_EDGE('',*,*,#473,.T.);
#473 = EDGE_CURVE('',#99,#284,#474,.T.);
#474 = LINE('',#475,#476);
#475 = CARTESIAN_POINT('',(-80.25320565519,-58.96152422706,0.));
#476 = VECTOR('',#477,1.);
#477 = DIRECTION('',(0.,0.,1.));
#478 = ORIENTED_EDGE('',*,*,#283,.F.);
#479 = ORIENTED_EDGE('',*,*,#458,.F.);
#480 = FACE_BOUND('',#481,.T.);
#481 = EDGE_LOOP('',(#482));
#482 = ORIENTED_EDGE('',*,*,#483,.T.);
#483 = EDGE_CURVE('',#484,#484,#486,.T.);
#484 = VERTEX_POINT('',#485);
#485 = CARTESIAN_POINT('',(-101.0213371226,-56.70811542794,4.));
#486 = B_SPLINE_CURVE_WITH_KNOTS('',7,(#487,#488,#489,#490,#491,#492,
    #493,#494,#495,#496,#497,#498,#499,#500,#501,#502,#503,#504,#505,
    #506,#507,#508,#509,#510,#511,#512,#513,#514,#515,#516,#517,#518,
    #519,#520,#521,#522,#523,#524,#525,#526,#527,#528,#529,#530),
  .UNSPECIFIED.,.T.,.F.,(8,6,6,6,6,6,6,8),(0.,0.151680658275,
    0.286325268521,0.423091390608,0.587131237125,0.713584872827,
    0.838707020568,1.),.UNSPECIFIED.);
#487 = CARTESIAN_POINT('',(-101.0213371226,-56.70811542794,4.));
#488 = CARTESIAN_POINT('',(-101.0213371226,-56.70811542794,
    4.168018963204));
#489 = CARTESIAN_POINT('',(-101.011967893,-56.7298700046,4.336047018631)
  );
#490 = CARTESIAN_POINT('',(-100.9932263858,-56.77338828602,
    4.501787307569));
#491 = CARTESIAN_POINT('',(-100.9646348056,-56.83902797234,
    4.662694675556));
#492 = CARTESIAN_POINT('',(-100.9253567626,-56.92725613481,
    4.815593536656));
#493 = CARTESIAN_POINT('',(-100.8741647626,-57.03838987329,
    4.956287111183));
#494 = CARTESIAN_POINT('',(-100.7525235659,-57.2907447694,5.187399054509
    ));
#495 = CARTESIAN_POINT('',(-100.6831408523,-57.43079720005,
    5.284998168315));
#496 = CARTESIAN_POINT('',(-100.6019911798,-57.58878132263,
    5.360963845787));
#497 = CARTESIAN_POINT('',(-100.5107902978,-57.75832790061,
    5.408091039621));
#498 = CARTESIAN_POINT('',(-100.4126553598,-57.93165885542,
    5.422559394907));
#499 = CARTESIAN_POINT('',(-100.3121001736,-58.10120060236,
    5.404055596276));
#500 = CARTESIAN_POINT('',(-100.1140454563,-58.42234718323,
    5.307220331386));
#501 = CARTESIAN_POINT('',(-100.0197502125,-58.56855186112,
    5.229482258506));
#502 = CARTESIAN_POINT('',(-99.93360439433,-58.69690035932,
    5.128844308472));
#503 = CARTESIAN_POINT('',(-99.85762695919,-58.80658642221,
    5.010568470909));
#504 = CARTESIAN_POINT('',(-99.79317982491,-58.89748891546,
    4.879462576176));
#505 = CARTESIAN_POINT('',(-99.74093181461,-58.97001064312,
    4.739953398687));
#506 = CARTESIAN_POINT('',(-99.65279700556,-59.09105276191,
    4.423539764532));
#507 = CARTESIAN_POINT('',(-99.62120597596,-59.1333379222,4.240975879586
    ));
#508 = CARTESIAN_POINT('',(-99.60680439569,-59.152315929,4.052674647238)
  );
#509 = CARTESIAN_POINT('',(-99.61013026647,-59.14791381693,
    3.862538816358));
#510 = CARTESIAN_POINT('',(-99.63133136315,-59.11988315712,
    3.674772890626));
#511 = CARTESIAN_POINT('',(-99.66987137078,-59.06801846821,
    3.494055494342));
#512 = CARTESIAN_POINT('',(-99.76649923224,-58.93437489606,3.19564481494
    ));
#513 = CARTESIAN_POINT('',(-99.81893638548,-58.86099514415,
    3.070368681111));
#514 = CARTESIAN_POINT('',(-99.88164241596,-58.77176907963,
    2.953223536867));
#515 = CARTESIAN_POINT('',(-99.9539402312,-58.66650571256,2.847934510048
    ));
#516 = CARTESIAN_POINT('',(-100.0346109611,-58.54547451084,
    2.758435917044));
#517 = CARTESIAN_POINT('',(-100.1219560834,-58.40952006704,
    2.688911910809));
#518 = CARTESIAN_POINT('',(-100.3047701029,-58.11308634372,2.59952830896
    ));
#519 = CARTESIAN_POINT('',(-100.397984277,-57.95638094458,2.580208994288
    ));
#520 = CARTESIAN_POINT('',(-100.4895863385,-57.79568955787,
    2.589164669342));
#521 = CARTESIAN_POINT('',(-100.5757625337,-57.63728264496,2.62650198684
    ));
#522 = CARTESIAN_POINT('',(-100.6537284671,-57.48762740159,
    2.689470555176));
#523 = CARTESIAN_POINT('',(-100.7217882352,-57.35229227627,
    2.772528033722));
#524 = CARTESIAN_POINT('',(-100.8534162172,-57.08322419468,
    2.989643487322));
#525 = CARTESIAN_POINT('',(-100.9121185434,-56.95693158474,3.13500034193
    ));
#526 = CARTESIAN_POINT('',(-100.9569474063,-56.8566629827,3.295547751763
    ));
#527 = CARTESIAN_POINT('',(-100.9894603927,-56.78213381761,
    3.465931230152));
#528 = CARTESIAN_POINT('',(-101.0107157184,-56.73277722691,
    3.642159075089));
#529 = CARTESIAN_POINT('',(-101.0213371226,-56.70811542794,
    3.821105086735));
#530 = CARTESIAN_POINT('',(-101.0213371226,-56.70811542794,4.));
#531 = CYLINDRICAL_SURFACE('',#532,12.);
#532 = AXIS2_PLACEMENT_3D('',#533,#534,#535);
#533 = CARTESIAN_POINT('',(-90.,-51.96152422706,0.));
#534 = DIRECTION('',(0.,0.,1.));
#535 = DIRECTION('',(1.,0.,0.));
#536 = ADVANCED_FACE('',(#537),#543,.F.);
#537 = FACE_BOUND('',#538,.F.);
#538 = EDGE_LOOP('',(#539,#540,#541,#542));
#539 = ORIENTED_EDGE('',*,*,#98,.F.);
#540 = ORIENTED_EDGE('',*,*,#473,.T.);
#541 = ORIENTED_EDGE('',*,*,#292,.T.);
#542 = ORIENTED_EDGE('',*,*,#386,.F.);
#543 = PLANE('',#544);
#544 = AXIS2_PLACEMENT_3D('',#545,#546,#547);
#545 = CARTESIAN_POINT('',(-90.,-58.96152422706,0.));
#546 = DIRECTION('',(3.947459643112E-16,1.,0.));
#547 = DIRECTION('',(0.,0.,1.));
#548 = ADVANCED_FACE('',(#549),#568,.F.);
#549 = FACE_BOUND('',#550,.F.);
#550 = EDGE_LOOP('',(#551,#560,#566,#567));
#551 = ORIENTED_EDGE('',*,*,#552,.F.);
#552 = EDGE_CURVE('',#553,#553,#555,.T.);
#553 = VERTEX_POINT('',#554);
#554 = CARTESIAN_POINT('',(94.1,-51.96152422706,0.6));
#555 = CIRCLE('',#556,4.1);
#556 = AXIS2_PLACEMENT_3D('',#557,#558,#559);
#557 = CARTESIAN_POINT('',(90.,-51.96152422706,0.6));
#558 = DIRECTION('',(0.,0.,1.));
#559 = DIRECTION('',(1.,0.,0.));
#560 = ORIENTED_EDGE('',*,*,#561,.F.);
#561 = EDGE_CURVE('',#124,#553,#562,.T.);
#562 = LINE('',#563,#564);
#563 = CARTESIAN_POINT('',(94.7,-51.96152422706,0.));
#564 = VECTOR('',#565,1.);
#565 = DIRECTION('',(-0.707106781187,1.731912112471E-16,0.707106781187)
  );
#566 = ORIENTED_EDGE('',*,*,#123,.T.);
#567 = ORIENTED_EDGE('',*,*,#561,.T.);
#568 = CONICAL_SURFACE('',#569,4.7,0.785398163397);
#569 = AXIS2_PLACEMENT_3D('',#570,#571,#572);
#570 = CARTESIAN_POINT('',(90.,-51.96152422706,0.));
#571 = DIRECTION('',(-0.,-0.,-1.));
#572 = DIRECTION('',(1.,0.,0.));
#573 = ADVANCED_FACE('',(#574),#593,.F.);
#574 = FACE_BOUND('',#575,.F.);
#575 = EDGE_LOOP('',(#576,#585,#591,#592));
#576 = ORIENTED_EDGE('',*,*,#577,.F.);
#577 = EDGE_CURVE('',#578,#578,#580,.T.);
#578 = VERTEX_POINT('',#579);
#579 = CARTESIAN_POINT('',(-85.9,-51.96152422706,0.6));
#580 = CIRCLE('',#581,4.1);
#581 = AXIS2_PLACEMENT_3D('',#582,#583,#584);
#582 = CARTESIAN_POINT('',(-90.,-51.96152422706,0.6));
#583 = DIRECTION('',(0.,0.,1.));
#584 = DIRECTION('',(1.,0.,0.));
#585 = ORIENTED_EDGE('',*,*,#586,.F.);
#586 = EDGE_CURVE('',#135,#578,#587,.T.);
#587 = LINE('',#588,#589);
#588 = CARTESIAN_POINT('',(-85.3,-51.96152422706,0.));
#589 = VECTOR('',#590,1.);
#590 = DIRECTION('',(-0.707106781187,1.731912112471E-16,0.707106781187)
  );
#591 = ORIENTED_EDGE('',*,*,#134,.T.);
#592 = ORIENTED_EDGE('',*,*,#586,.T.);
#593 = CONICAL_SURFACE('',#594,4.7,0.785398163397);
#594 = AXIS2_PLACEMENT_3D('',#595,#596,#597);
#595 = CARTESIAN_POINT('',(-90.,-51.96152422706,0.));
#596 = DIRECTION('',(-0.,-0.,-1.));
#597 = DIRECTION('',(1.,0.,0.));
#598 = ADVANCED_FACE('',(#599),#615,.T.);
#599 = FACE_BOUND('',#600,.T.);
#600 = EDGE_LOOP('',(#601,#602,#608,#609));
#601 = ORIENTED_EDGE('',*,*,#145,.F.);
#602 = ORIENTED_EDGE('',*,*,#603,.T.);
#603 = EDGE_CURVE('',#146,#332,#604,.T.);
#604 = LINE('',#605,#606);
#605 = CARTESIAN_POINT('',(77.875644347018,-44.96152422706,0.));
#606 = VECTOR('',#607,1.);
#607 = DIRECTION('',(0.,0.,1.));
#608 = ORIENTED_EDGE('',*,*,#331,.T.);
#609 = ORIENTED_EDGE('',*,*,#610,.T.);
#610 = EDGE_CURVE('',#334,#148,#611,.T.);
#611 = LINE('',#612,#613);
#612 = CARTESIAN_POINT('',(-1.199040866595E-14,89.923048454133,0.));
#613 = VECTOR('',#614,1.);
#614 = DIRECTION('',(0.,0.,-1.));
#615 = PLANE('',#616);
#616 = AXIS2_PLACEMENT_3D('',#617,#618,#619);
#617 = CARTESIAN_POINT('',(83.937822173509,-55.46152422706,0.));
#618 = DIRECTION('',(-0.866025403784,-0.5,0.));
#619 = DIRECTION('',(0.,0.,1.));
#620 = ADVANCED_FACE('',(#621),#632,.T.);
#621 = FACE_BOUND('',#622,.T.);
#622 = EDGE_LOOP('',(#623,#624,#630,#631));
#623 = ORIENTED_EDGE('',*,*,#163,.F.);
#624 = ORIENTED_EDGE('',*,*,#625,.T.);
#625 = EDGE_CURVE('',#156,#342,#626,.T.);
#626 = LINE('',#627,#628);
#627 = CARTESIAN_POINT('',(-77.87564434701,-44.96152422706,0.));
#628 = VECTOR('',#629,1.);
#629 = DIRECTION('',(0.,0.,1.));
#630 = ORIENTED_EDGE('',*,*,#341,.T.);
#631 = ORIENTED_EDGE('',*,*,#603,.F.);
#632 = PLANE('',#633);
#633 = AXIS2_PLACEMENT_3D('',#634,#635,#636);
#634 = CARTESIAN_POINT('',(-90.,-44.96152422706,0.));
#635 = DIRECTION('',(3.947459643112E-16,1.,0.));
#636 = DIRECTION('',(0.,0.,1.));
#637 = ADVANCED_FACE('',(#638),#644,.T.);
#638 = FACE_BOUND('',#639,.T.);
#639 = EDGE_LOOP('',(#640,#641,#642,#643));
#640 = ORIENTED_EDGE('',*,*,#155,.F.);
#641 = ORIENTED_EDGE('',*,*,#610,.F.);
#642 = ORIENTED_EDGE('',*,*,#349,.T.);
#643 = ORIENTED_EDGE('',*,*,#625,.F.);
#644 = PLANE('',#645);
#645 = AXIS2_PLACEMENT_3D('',#646,#647,#648);
#646 = CARTESIAN_POINT('',(6.062177826491,100.42304845413,0.));
#647 = DIRECTION('',(0.866025403784,-0.5,0.));
#648 = DIRECTION('',(0.,0.,1.));
#649 = ADVANCED_FACE('',(#650),#669,.F.);
#650 = FACE_BOUND('',#651,.F.);
#651 = EDGE_LOOP('',(#652,#661,#667,#668));
#652 = ORIENTED_EDGE('',*,*,#653,.F.);
#653 = EDGE_CURVE('',#654,#654,#656,.T.);
#654 = VERTEX_POINT('',#655);
#655 = CARTESIAN_POINT('',(4.1,103.92304845413,0.6));
#656 = CIRCLE('',#657,4.1);
#657 = AXIS2_PLACEMENT_3D('',#658,#659,#660);
#658 = CARTESIAN_POINT('',(6.363451432349E-15,103.92304845413,0.6));
#659 = DIRECTION('',(0.,0.,1.));
#660 = DIRECTION('',(1.,0.,0.));
#661 = ORIENTED_EDGE('',*,*,#662,.F.);
#662 = EDGE_CURVE('',#172,#654,#663,.T.);
#663 = LINE('',#664,#665);
#664 = CARTESIAN_POINT('',(4.7,103.92304845413,0.));
#665 = VECTOR('',#666,1.);
#666 = DIRECTION('',(-0.707106781187,1.731912112471E-16,0.707106781187)
  );
#667 = ORIENTED_EDGE('',*,*,#171,.T.);
#668 = ORIENTED_EDGE('',*,*,#662,.T.);
#669 = CONICAL_SURFACE('',#670,4.7,0.785398163397);
#670 = AXIS2_PLACEMENT_3D('',#671,#672,#673);
#671 = CARTESIAN_POINT('',(6.363451432349E-15,103.92304845413,0.));
#672 = DIRECTION('',(-0.,-0.,-1.));
#673 = DIRECTION('',(1.,0.,0.));
#674 = ADVANCED_FACE('',(#675),#788,.F.);
#675 = FACE_BOUND('',#676,.F.);
#676 = EDGE_LOOP('',(#677,#685,#786,#787));
#677 = ORIENTED_EDGE('',*,*,#678,.T.);
#678 = EDGE_CURVE('',#218,#679,#681,.T.);
#679 = VERTEX_POINT('',#680);
#680 = CARTESIAN_POINT('',(-1.4,107.77661822773,4.));
#681 = LINE('',#682,#683);
#682 = CARTESIAN_POINT('',(-1.4,116.92304845413,4.));
#683 = VECTOR('',#684,1.);
#684 = DIRECTION('',(-6.123233995737E-17,-1.,0.));
#685 = ORIENTED_EDGE('',*,*,#686,.F.);
#686 = EDGE_CURVE('',#679,#679,#687,.T.);
#687 = B_SPLINE_CURVE_WITH_KNOTS('',7,(#688,#689,#690,#691,#692,#693,
    #694,#695,#696,#697,#698,#699,#700,#701,#702,#703,#704,#705,#706,
    #707,#708,#709,#710,#711,#712,#713,#714,#715,#716,#717,#718,#719,
    #720,#721,#722,#723,#724,#725,#726,#727,#728,#729,#730,#731,#732,
    #733,#734,#735,#736,#737,#738,#739,#740,#741,#742,#743,#744,#745,
    #746,#747,#748,#749,#750,#751,#752,#753,#754,#755,#756,#757,#758,
    #759,#760,#761,#762,#763,#764,#765,#766,#767,#768,#769,#770,#771,
    #772,#773,#774,#775,#776,#777,#778,#779,#780,#781,#782,#783,#784,
    #785),.UNSPECIFIED.,.T.,.F.,(8,6,6,6,6,6,6,6,6,6,6,6,6,6,6,6,8),(0.,
    0.139041661959,0.174460017396,0.219335778528,0.280768859766,
    0.324795143397,0.360584876019,0.409417707033,0.5001697497,
    0.571911133465,0.613051259831,0.674646717873,0.719483767266,
    0.780863853718,0.824852158479,0.86061101747,1.),.UNSPECIFIED.);
#688 = CARTESIAN_POINT('',(-1.4,107.77661822773,4.));
#689 = CARTESIAN_POINT('',(-1.4,107.77661822773,3.841684192262));
#690 = CARTESIAN_POINT('',(-1.379113690292,107.78420623398,
    3.683700568438));
#691 = CARTESIAN_POINT('',(-1.337496863063,107.79932546184,
    3.528134539962));
#692 = CARTESIAN_POINT('',(-1.275001612892,107.82122325895,
    3.377168073514));
#693 = CARTESIAN_POINT('',(-1.19133333415,107.84842178019,3.23333828232)
  );
#694 = CARTESIAN_POINT('',(-1.086195391696,107.87869374435,
    3.099778208344));
#695 = CARTESIAN_POINT('',(-0.927376121732,107.91692794563,
    2.950269350642));
#696 = CARTESIAN_POINT('',(-0.893729614116,107.92470609844,
    2.920839517767));
#697 = CARTESIAN_POINT('',(-0.858687112111,107.93245062092,
    2.892410809629));
#698 = CARTESIAN_POINT('',(-0.822259660867,107.94010899707,
    2.865064103321));
#699 = CARTESIAN_POINT('',(-0.784462092875,107.94762631958,
    2.838883199098));
#700 = CARTESIAN_POINT('',(-0.745313266116,107.95494582565,2.81395497907
    ));
#701 = CARTESIAN_POINT('',(-0.653551183494,107.97095916357,
    2.760486378103));
#702 = CARTESIAN_POINT('',(-0.600081651191,107.97950726236,
    2.732728504994));
#703 = CARTESIAN_POINT('',(-0.544564049504,107.98751704491,
    2.707343406906));
#704 = CARTESIAN_POINT('',(-0.487154385945,107.99485522692,
    2.684556116015));
#705 = CARTESIAN_POINT('',(-0.428027021296,108.00139668495,
    2.664570262406));
#706 = CARTESIAN_POINT('',(-0.367373359567,108.00702921727,
    2.647569100136));
#707 = CARTESIAN_POINT('',(-0.220562280317,108.01799533638,
    2.614752935941));
#708 = CARTESIAN_POINT('',(-0.133323283163,108.02244644722,
    2.601705743226));
#709 = CARTESIAN_POINT('',(-4.460724349007E-02,108.02474571463,
    2.595062636975));
#710 = CARTESIAN_POINT('',(4.460724349046E-02,108.02474571463,
    2.595062636975));
#711 = CARTESIAN_POINT('',(0.133323283163,108.02244644722,2.601705743226
    ));
#712 = CARTESIAN_POINT('',(0.220562280316,108.01799533638,2.614752935941
    ));
#713 = CARTESIAN_POINT('',(0.366200242582,108.00711684377,2.647306877422
    ));
#714 = CARTESIAN_POINT('',(0.425732526971,108.00160939784,2.663928244419
    ));
#715 = CARTESIAN_POINT('',(0.483800583685,107.99522516788,2.683426053835
    ));
#716 = CARTESIAN_POINT('',(0.540222152852,107.98806987582,2.705627393099
    ));
#717 = CARTESIAN_POINT('',(0.594830760948,107.98026141707,2.730340086738
    ));
#718 = CARTESIAN_POINT('',(0.647476959592,107.97192551302,2.757351765589
    ));
#719 = CARTESIAN_POINT('',(0.739124657031,107.95609122108,2.810066274211
    ));
#720 = CARTESIAN_POINT('',(0.778867496319,107.94872247369,2.835086467539
    ));
#721 = CARTESIAN_POINT('',(0.81723330381,107.9411452157,2.861396109382)
  );
#722 = CARTESIAN_POINT('',(0.854201819222,107.93341824183,2.888905096007
    ));
#723 = CARTESIAN_POINT('',(0.889757050478,107.92559846825,2.917526455945
    ));
#724 = CARTESIAN_POINT('',(0.92388702382,107.91774035383,2.947176179353)
  );
#725 = CARTESIAN_POINT('',(1.001195858019,107.89919126973,3.019520542442
    ));
#726 = CARTESIAN_POINT('',(1.043148935454,107.88850931185,3.063040005296
    ));
#727 = CARTESIAN_POINT('',(1.082446378722,107.8779738693,3.108151911028)
  );
#728 = CARTESIAN_POINT('',(1.11909586748,107.86769913473,3.154691899894)
  );
#729 = CARTESIAN_POINT('',(1.153108079467,107.85778873735,3.202510131411
    ));
#730 = CARTESIAN_POINT('',(1.184495621449,107.8483354084,3.251470638438)
  );
#731 = CARTESIAN_POINT('',(1.266750561831,107.82285325098,3.394334728452
    ));
#732 = CARTESIAN_POINT('',(1.311237584769,107.80813766105,3.490787179038
    ));
#733 = CARTESIAN_POINT('',(1.346767070132,107.7958119415,3.589969201933)
  );
#734 = CARTESIAN_POINT('',(1.373383261868,107.78628803776,3.691139629378
    ));
#735 = CARTESIAN_POINT('',(1.391122572298,107.77984340512,3.793624403336
    ));
#736 = CARTESIAN_POINT('',(1.4,107.77661822773,3.896787023939));
#737 = CARTESIAN_POINT('',(1.4,107.77661822773,4.081592011678));
#738 = CARTESIAN_POINT('',(1.394452197925,107.77863359254,4.163167343871
    ));
#739 = CARTESIAN_POINT('',(1.383361013769,107.78266328583,4.244408251856
    ));
#740 = CARTESIAN_POINT('',(1.366721264788,107.78865155372,4.324994302532
    ));
#741 = CARTESIAN_POINT('',(1.344521470405,107.79648883096,4.404593727869
    ));
#742 = CARTESIAN_POINT('',(1.316747157113,107.80601264699,4.482854778365
    ));
#743 = CARTESIAN_POINT('',(1.264252140741,107.82331412706,4.603290289201
    ));
#744 = CARTESIAN_POINT('',(1.243280648984,107.83010439839,4.646622241059
    ));
#745 = CARTESIAN_POINT('',(1.220463493225,107.83734014065,4.689327586434
    ));
#746 = CARTESIAN_POINT('',(1.195793828107,107.84497672149,4.731335862813
    ));
#747 = CARTESIAN_POINT('',(1.169264470892,107.85296414197,4.772571247658
    ));
#748 = CARTESIAN_POINT('',(1.140868214541,107.86124709687,4.812952315243
    ));
#749 = CARTESIAN_POINT('',(1.065277447341,107.88251818735,4.911441022144
    ));
#750 = CARTESIAN_POINT('',(1.015728661873,107.89580570671,4.968415938415
    ));
#751 = CARTESIAN_POINT('',(0.961938465451,107.90942082437,5.022991562197
    ));
#752 = CARTESIAN_POINT('',(0.903912035265,107.92312473673,5.07481086379)
  );
#753 = CARTESIAN_POINT('',(0.841677413507,107.93665178382,5.123482413401
    ));
#754 = CARTESIAN_POINT('',(0.775289876233,107.94971462804,5.168578030656
    ));
#755 = CARTESIAN_POINT('',(0.653551183494,107.97095916357,5.239513621897
    ));
#756 = CARTESIAN_POINT('',(0.600081651191,107.97950726236,5.267271495006
    ));
#757 = CARTESIAN_POINT('',(0.544564049504,107.98751704491,5.292656593094
    ));
#758 = CARTESIAN_POINT('',(0.487154385945,107.99485522692,5.315443883985
    ));
#759 = CARTESIAN_POINT('',(0.428027021296,108.00139668495,5.335429737594
    ));
#760 = CARTESIAN_POINT('',(0.367373359567,108.00702921727,5.352430899864
    ));
#761 = CARTESIAN_POINT('',(0.220562280316,108.01799533638,5.385247064059
    ));
#762 = CARTESIAN_POINT('',(0.133323283162,108.02244644722,5.398294256774
    ));
#763 = CARTESIAN_POINT('',(4.460724349032E-02,108.02474571463,
    5.404937363025));
#764 = CARTESIAN_POINT('',(-4.460724348993E-02,108.02474571463,
    5.404937363025));
#765 = CARTESIAN_POINT('',(-0.133323283163,108.02244644722,
    5.398294256774));
#766 = CARTESIAN_POINT('',(-0.220562280316,108.01799533638,
    5.385247064059));
#767 = CARTESIAN_POINT('',(-0.366200242683,108.00711684376,
    5.352693122555));
#768 = CARTESIAN_POINT('',(-0.425732526981,108.00160939783,
    5.336071755569));
#769 = CARTESIAN_POINT('',(-0.483800583611,107.99522516789,
    5.316573946185));
#770 = CARTESIAN_POINT('',(-0.540222152782,107.98806987583,
    5.294372606935));
#771 = CARTESIAN_POINT('',(-0.594830760956,107.98026141708,
    5.269659913268));
#772 = CARTESIAN_POINT('',(-0.647476959666,107.97192551301,
    5.242648234368));
#773 = CARTESIAN_POINT('',(-0.739124657031,107.95609122108,
    5.189933725789));
#774 = CARTESIAN_POINT('',(-0.778867496319,107.94872247369,
    5.164913532461));
#775 = CARTESIAN_POINT('',(-0.81723330381,107.9411452157,5.138603890618)
  );
#776 = CARTESIAN_POINT('',(-0.854201819222,107.93341824183,
    5.111094903993));
#777 = CARTESIAN_POINT('',(-0.889757050478,107.92559846825,
    5.082473544055));
#778 = CARTESIAN_POINT('',(-0.92388702382,107.91774035383,5.052823820647
    ));
#779 = CARTESIAN_POINT('',(-1.084035399027,107.87931517629,
    4.902959548029));
#780 = CARTESIAN_POINT('',(-1.189901929004,107.84888696712,
    4.769117994818));
#781 = CARTESIAN_POINT('',(-1.274146438753,107.82152282945,
    4.624894065373));
#782 = CARTESIAN_POINT('',(-1.337069438991,107.79948074501,
    4.473459526935));
#783 = CARTESIAN_POINT('',(-1.378970339439,107.78425831294,
    4.317379707708));
#784 = CARTESIAN_POINT('',(-1.4,107.77661822773,4.158858188146));
#785 = CARTESIAN_POINT('',(-1.4,107.77661822773,4.));
#786 = ORIENTED_EDGE('',*,*,#678,.F.);
#787 = ORIENTED_EDGE('',*,*,#217,.T.);
#788 = CYLINDRICAL_SURFACE('',#789,1.4);
#789 = AXIS2_PLACEMENT_3D('',#790,#791,#792);
#790 = CARTESIAN_POINT('',(7.159471851795E-15,116.92304845413,4.));
#791 = DIRECTION('',(-6.123233995737E-17,-1.,0.));
#792 = DIRECTION('',(-1.,6.123233995737E-17,0.));
#793 = ADVANCED_FACE('',(#794),#813,.F.);
#794 = FACE_BOUND('',#795,.F.);
#795 = EDGE_LOOP('',(#796,#797,#805,#812));
#796 = ORIENTED_EDGE('',*,*,#320,.F.);
#797 = ORIENTED_EDGE('',*,*,#798,.F.);
#798 = EDGE_CURVE('',#799,#321,#801,.T.);
#799 = VERTEX_POINT('',#800);
#800 = CARTESIAN_POINT('',(-85.9,-51.96152422706,7.4));
#801 = LINE('',#802,#803);
#802 = CARTESIAN_POINT('',(-85.9,-51.96152422706,7.4));
#803 = VECTOR('',#804,1.);
#804 = DIRECTION('',(0.707106781187,-1.731912112471E-16,0.707106781187)
  );
#805 = ORIENTED_EDGE('',*,*,#806,.T.);
#806 = EDGE_CURVE('',#799,#799,#807,.T.);
#807 = CIRCLE('',#808,4.1);
#808 = AXIS2_PLACEMENT_3D('',#809,#810,#811);
#809 = CARTESIAN_POINT('',(-90.,-51.96152422706,7.4));
#810 = DIRECTION('',(0.,0.,1.));
#811 = DIRECTION('',(1.,0.,0.));
#812 = ORIENTED_EDGE('',*,*,#798,.T.);
#813 = CONICAL_SURFACE('',#814,4.1,0.785398163397);
#814 = AXIS2_PLACEMENT_3D('',#815,#816,#817);
#815 = CARTESIAN_POINT('',(-90.,-51.96152422706,7.4));
#816 = DIRECTION('',(0.,0.,1.));
#817 = DIRECTION('',(1.,0.,0.));
#818 = ADVANCED_FACE('',(#819),#838,.F.);
#819 = FACE_BOUND('',#820,.F.);
#820 = EDGE_LOOP('',(#821,#822,#830,#837));
#821 = ORIENTED_EDGE('',*,*,#357,.F.);
#822 = ORIENTED_EDGE('',*,*,#823,.F.);
#823 = EDGE_CURVE('',#824,#358,#826,.T.);
#824 = VERTEX_POINT('',#825);
#825 = CARTESIAN_POINT('',(94.1,-51.96152422706,7.4));
#826 = LINE('',#827,#828);
#827 = CARTESIAN_POINT('',(94.1,-51.96152422706,7.4));
#828 = VECTOR('',#829,1.);
#829 = DIRECTION('',(0.707106781187,-1.731912112471E-16,0.707106781187)
  );
#830 = ORIENTED_EDGE('',*,*,#831,.T.);
#831 = EDGE_CURVE('',#824,#824,#832,.T.);
#832 = CIRCLE('',#833,4.1);
#833 = AXIS2_PLACEMENT_3D('',#834,#835,#836);
#834 = CARTESIAN_POINT('',(90.,-51.96152422706,7.4));
#835 = DIRECTION('',(0.,0.,1.));
#836 = DIRECTION('',(1.,0.,0.));
#837 = ORIENTED_EDGE('',*,*,#823,.T.);
#838 = CONICAL_SURFACE('',#839,4.1,0.785398163397);
#839 = AXIS2_PLACEMENT_3D('',#840,#841,#842);
#840 = CARTESIAN_POINT('',(90.,-51.96152422706,7.4));
#841 = DIRECTION('',(0.,0.,1.));
#842 = DIRECTION('',(1.,0.,0.));
#843 = ADVANCED_FACE('',(#844),#863,.F.);
#844 = FACE_BOUND('',#845,.F.);
#845 = EDGE_LOOP('',(#846,#847,#855,#862));
#846 = ORIENTED_EDGE('',*,*,#368,.F.);
#847 = ORIENTED_EDGE('',*,*,#848,.F.);
#848 = EDGE_CURVE('',#849,#369,#851,.T.);
#849 = VERTEX_POINT('',#850);
#850 = CARTESIAN_POINT('',(4.1,103.92304845413,7.4));
#851 = LINE('',#852,#853);
#852 = CARTESIAN_POINT('',(4.1,103.92304845413,7.4));
#853 = VECTOR('',#854,1.);
#854 = DIRECTION('',(0.707106781187,-1.731912112471E-16,0.707106781187)
  );
#855 = ORIENTED_EDGE('',*,*,#856,.T.);
#856 = EDGE_CURVE('',#849,#849,#857,.T.);
#857 = CIRCLE('',#858,4.1);
#858 = AXIS2_PLACEMENT_3D('',#859,#860,#861);
#859 = CARTESIAN_POINT('',(6.363451432349E-15,103.92304845413,7.4));
#860 = DIRECTION('',(0.,0.,1.));
#861 = DIRECTION('',(1.,0.,0.));
#862 = ORIENTED_EDGE('',*,*,#848,.T.);
#863 = CONICAL_SURFACE('',#864,4.1,0.785398163397);
#864 = AXIS2_PLACEMENT_3D('',#865,#866,#867);
#865 = CARTESIAN_POINT('',(6.363451432349E-15,103.92304845413,7.4));
#866 = DIRECTION('',(0.,0.,1.));
#867 = DIRECTION('',(1.,0.,0.));
#868 = ADVANCED_FACE('',(#869),#982,.F.);
#869 = FACE_BOUND('',#870,.F.);
#870 = EDGE_LOOP('',(#871,#879,#980,#981));
#871 = ORIENTED_EDGE('',*,*,#872,.T.);
#872 = EDGE_CURVE('',#399,#873,#875,.T.);
#873 = VERTEX_POINT('',#874);
#874 = CARTESIAN_POINT('',(92.637289319193,-55.10074467916,4.));
#875 = LINE('',#876,#877);
#876 = CARTESIAN_POINT('',(100.55833024919,-59.67395979236,4.));
#877 = VECTOR('',#878,1.);
#878 = DIRECTION('',(-0.866025403784,0.5,1.232595164408E-32));
#879 = ORIENTED_EDGE('',*,*,#880,.F.);
#880 = EDGE_CURVE('',#873,#873,#881,.T.);
#881 = B_SPLINE_CURVE_WITH_KNOTS('',7,(#882,#883,#884,#885,#886,#887,
    #888,#889,#890,#891,#892,#893,#894,#895,#896,#897,#898,#899,#900,
    #901,#902,#903,#904,#905,#906,#907,#908,#909,#910,#911,#912,#913,
    #914,#915,#916,#917,#918,#919,#920,#921,#922,#923,#924,#925,#926,
    #927,#928,#929,#930,#931,#932,#933,#934,#935,#936,#937,#938,#939,
    #940,#941,#942,#943,#944,#945,#946,#947,#948,#949,#950,#951,#952,
    #953,#954,#955,#956,#957,#958,#959,#960,#961,#962,#963,#964,#965,
    #966,#967,#968,#969,#970,#971,#972,#973,#974,#975,#976,#977,#978,
    #979),.UNSPECIFIED.,.T.,.F.,(8,6,6,6,6,6,6,6,6,6,6,6,6,6,6,6,8),(0.,
    0.139041662092,0.174460017564,0.21933577873,0.280768860001,
    0.324795143656,0.360584876297,0.409417707337,0.500169750053,
    0.571911133857,0.613051260245,0.67464671832,0.719483767738,
    0.780863854223,0.824852158935,0.860611017832,1.),.UNSPECIFIED.);
#882 = CARTESIAN_POINT('',(92.637289319193,-55.10074467916,4.));
#883 = CARTESIAN_POINT('',(92.637289319193,-55.10074467916,
    4.158315807738));
#884 = CARTESIAN_POINT('',(92.654303880226,-55.08645060749,
    4.316299431562));
#885 = CARTESIAN_POINT('',(92.688205929253,-55.05796899181,
    4.471865460039));
#886 = CARTESIAN_POINT('',(92.738417602926,-55.01479541611,
    4.622831926486));
#887 = CARTESIAN_POINT('',(92.803806352634,-54.95593582184,
    4.766661717681));
#888 = CARTESIAN_POINT('',(92.882591613841,-54.88001967485,
    4.900221791656));
#889 = CARTESIAN_POINT('',(92.995113038431,-54.7615952531,5.049730649358
    ));
#890 = CARTESIAN_POINT('',(93.018672370161,-54.73634559916,
    5.079160482233));
#891 = CARTESIAN_POINT('',(93.042900574377,-54.70987016345,
    5.107589190371));
#892 = CARTESIAN_POINT('',(93.067746648297,-54.68215225335,
    5.134935896679));
#893 = CARTESIAN_POINT('',(93.093155624555,-54.65317726052,
    5.161116800902));
#894 = CARTESIAN_POINT('',(93.119068916133,-54.62293313506,5.18604502093
    ));
#895 = CARTESIAN_POINT('',(93.178817914876,-54.55147150937,
    5.239513621891));
#896 = CARTESIAN_POINT('',(93.212955551736,-54.50943958545,
    5.267271495007));
#897 = CARTESIAN_POINT('',(93.247651027753,-54.4653648233,5.292656593099
    ));
#898 = CARTESIAN_POINT('',(93.282710911576,-54.41931568724,
    5.315443883988));
#899 = CARTESIAN_POINT('',(93.317939662722,-54.37138061642,
    5.335429737592));
#900 = CARTESIAN_POINT('',(93.35314440966,-54.32166927071,5.352430899861
    ));
#901 = CARTESIAN_POINT('',(93.436046887016,-54.20001020606,
    5.385247064059));
#902 = CARTESIAN_POINT('',(93.48352116066,-54.12668457374,5.398294256774
    ));
#903 = CARTESIAN_POINT('',(93.529870404482,-54.05100386337,
    5.404937363024));
#904 = CARTESIAN_POINT('',(93.574477647972,-53.97374185126,
    5.404937363025));
#905 = CARTESIAN_POINT('',(93.616844443822,-53.89576187347,
    5.398294256774));
#906 = CARTESIAN_POINT('',(93.656609167332,-53.81798513032,
    5.385247064059));
#907 = CARTESIAN_POINT('',(93.720007097515,-53.68641970894,
    5.352693122578));
#908 = CARTESIAN_POINT('',(93.74500365162,-53.63210951534,5.336071755581
    ));
#909 = CARTESIAN_POINT('',(93.768508774652,-53.5786289881,5.316573946165
    ));
#910 = CARTESIAN_POINT('',(93.790522894537,-53.52618882985,
    5.294372606901));
#911 = CARTESIAN_POINT('',(93.811064874949,-53.4749921586,5.269659913262
    ));
#912 = CARTESIAN_POINT('',(93.830168869595,-53.42523126114,
    5.242648234411));
#913 = CARTESIAN_POINT('',(93.862279819242,-53.33794488098,
    5.189933725789));
#914 = CARTESIAN_POINT('',(93.875769716455,-53.29984219885,
    5.164913532461));
#915 = CARTESIAN_POINT('',(93.888390522293,-53.26282780593,
    5.138603890618));
#916 = CARTESIAN_POINT('',(93.900183024329,-53.22694864551,
    5.111094903993));
#917 = CARTESIAN_POINT('',(93.911188517384,-53.19224702521,
    5.082473544055));
#918 = CARTESIAN_POINT('',(93.921448177341,-53.15876054406,
    5.052823820647));
#919 = CARTESIAN_POINT('',(93.944038616396,-53.08253458766,
    4.980479457558));
#920 = CARTESIAN_POINT('',(93.955764308225,-53.04086117789,
    4.936959994704));
#921 = CARTESIAN_POINT('',(93.966289068969,-53.00156087244,
    4.891848088972));
#922 = CARTESIAN_POINT('',(93.975715632195,-52.96468411685,
    4.845308100106));
#923 = CARTESIAN_POINT('',(93.984139082296,-52.93027347854,
    4.797489868589));
#924 = CARTESIAN_POINT('',(93.991646030272,-52.89836440535,
    4.748529361562));
#925 = CARTESIAN_POINT('',(94.010705304788,-52.81438845868,
    4.605665271548));
#926 = CARTESIAN_POINT('',(94.020204741551,-52.76850377172,
    4.509212820962));
#927 = CARTESIAN_POINT('',(94.027295097975,-52.73157147503,
    4.410030798067));
#928 = CARTESIAN_POINT('',(94.032355251261,-52.70375922497,
    4.308860370622));
#929 = CARTESIAN_POINT('',(94.035643690892,-52.68517421517,
    4.206375596664));
#930 = CARTESIAN_POINT('',(94.037289319193,-52.67587354856,
    4.103212976061));
#931 = CARTESIAN_POINT('',(94.037289319193,-52.67587354856,
    3.918407988322));
#932 = CARTESIAN_POINT('',(94.036260775283,-52.6816857685,3.836832656129
    ));
#933 = CARTESIAN_POINT('',(94.034204999962,-52.69330586238,
    3.755591748144));
#934 = CARTESIAN_POINT('',(94.031071117592,-52.71071044166,
    3.675005697468));
#935 = CARTESIAN_POINT('',(94.026758501581,-52.73385466617,
    3.595406272131));
#936 = CARTESIAN_POINT('',(94.021119211563,-52.76266983507,
    3.517145221635));
#937 = CARTESIAN_POINT('',(94.009855224638,-52.81678259286,
    3.396709710799));
#938 = CARTESIAN_POINT('',(94.005250026229,-52.83833957314,
    3.353377758941));
#939 = CARTESIAN_POINT('',(94.000107784965,-52.8617176808,3.310672413566
    ));
#940 = CARTESIAN_POINT('',(93.994386425412,-52.88690052791,
    3.268664137187));
#941 = CARTESIAN_POINT('',(93.988039055849,-52.91386933545,
    3.227428752342));
#942 = CARTESIAN_POINT('',(93.981014177033,-52.94260269227,
    3.187047684757));
#943 = CARTESIAN_POINT('',(93.96164009816,-53.0187017622,3.088558977856)
  );
#944 = CARTESIAN_POINT('',(93.948373034737,-53.06825602882,
    3.031584061585));
#945 = CARTESIAN_POINT('',(93.933268974303,-53.12164726423,
    2.977008437803));
#946 = CARTESIAN_POINT('',(93.916123695439,-53.17875158304,2.92518913621
    ));
#947 = CARTESIAN_POINT('',(93.896721150979,-53.23941187002,
    2.876517586599));
#948 = CARTESIAN_POINT('',(93.874840137284,-53.3034365859,2.831421969344
    ));
#949 = CARTESIAN_POINT('',(93.832369098377,-53.41948765421,
    2.760486378103));
#950 = CARTESIAN_POINT('',(93.813037202927,-53.4700676769,2.732728504994
    ));
#951 = CARTESIAN_POINT('',(93.79221507725,-53.52215222159,2.707343406906
    ));
#952 = CARTESIAN_POINT('',(93.769865297515,-53.57553953967,
    2.684556116015));
#953 = CARTESIAN_POINT('',(93.745966684019,-53.63001606852,
    2.664570262406));
#954 = CARTESIAN_POINT('',(93.720517769235,-53.68535994658,
    2.647569100136));
#955 = CARTESIAN_POINT('',(93.656609167332,-53.81798513032,2.61475293594
    ));
#956 = CARTESIAN_POINT('',(93.616844443822,-53.89576187347,
    2.601705743226));
#957 = CARTESIAN_POINT('',(93.574477647972,-53.97374185126,
    2.595062636976));
#958 = CARTESIAN_POINT('',(93.529870404482,-54.05100386337,
    2.595062636976));
#959 = CARTESIAN_POINT('',(93.48352116066,-54.12668457374,2.601705743225
    ));
#960 = CARTESIAN_POINT('',(93.436046887016,-54.20001020606,2.61475293594
    ));
#961 = CARTESIAN_POINT('',(93.353806854933,-54.32069713483,
    2.647306877422));
#962 = CARTESIAN_POINT('',(93.319271124649,-54.36949988249,
    2.663928244419));
#963 = CARTESIAN_POINT('',(93.284708190966,-54.41659617978,
    2.683426053835));
#964 = CARTESIAN_POINT('',(93.250300741685,-54.46188104596,
    2.705627393099));
#965 = CARTESIAN_POINT('',(93.216234114001,-54.50526925847,
    2.730340086738));
#966 = CARTESIAN_POINT('',(93.182691910004,-54.54669425188,
    2.757351765589));
#967 = CARTESIAN_POINT('',(93.123155162211,-54.61814634009,
    2.810066274211));
#968 = CARTESIAN_POINT('',(93.096902220136,-54.64888027484,
    2.835086467539));
#969 = CARTESIAN_POINT('',(93.071157218482,-54.67831740977,
    2.861396109382));
#970 = CARTESIAN_POINT('',(93.045981205107,-54.70646959632,
    2.888905096007));
#971 = CARTESIAN_POINT('',(93.021431466906,-54.73335144303,
    2.917526455945));
#972 = CARTESIAN_POINT('',(92.997561153522,-54.75897980977,
    2.947176179353));
#973 = CARTESIAN_POINT('',(92.884209786022,-54.8784597823,3.097040451971
    ));
#974 = CARTESIAN_POINT('',(92.804924918906,-54.95492878209,
    3.230882005182));
#975 = CARTESIAN_POINT('',(92.739104625659,-55.01420459883,
    3.375105934627));
#976 = CARTESIAN_POINT('',(92.68855412046,-55.05767647329,3.526540473065
    ));
#977 = CARTESIAN_POINT('',(92.654420657354,-55.08635250149,
    3.682620292292));
#978 = CARTESIAN_POINT('',(92.637289319193,-55.10074467916,
    3.841141811854));
#979 = CARTESIAN_POINT('',(92.637289319193,-55.10074467916,4.));
#980 = ORIENTED_EDGE('',*,*,#872,.F.);
#981 = ORIENTED_EDGE('',*,*,#398,.T.);
#982 = CYLINDRICAL_SURFACE('',#983,1.4);
#983 = AXIS2_PLACEMENT_3D('',#984,#985,#986);
#984 = CARTESIAN_POINT('',(101.25833024919,-58.46152422706,4.));
#985 = DIRECTION('',(-0.866025403784,0.5,0.));
#986 = DIRECTION('',(-0.5,-0.866025403784,0.));
#987 = ADVANCED_FACE('',(#988),#1101,.F.);
#988 = FACE_BOUND('',#989,.F.);
#989 = EDGE_LOOP('',(#990,#998,#1099,#1100));
#990 = ORIENTED_EDGE('',*,*,#991,.T.);
#991 = EDGE_CURVE('',#484,#992,#994,.T.);
#992 = VERTEX_POINT('',#993);
#993 = CARTESIAN_POINT('',(-94.03728931919,-52.67587354856,4.));
#994 = LINE('',#995,#996);
#995 = CARTESIAN_POINT('',(-101.9583302491,-57.24908866176,4.));
#996 = VECTOR('',#997,1.);
#997 = DIRECTION('',(0.866025403784,0.5,0.));
#998 = ORIENTED_EDGE('',*,*,#999,.F.);
#999 = EDGE_CURVE('',#992,#992,#1000,.T.);
#1000 = B_SPLINE_CURVE_WITH_KNOTS('',7,(#1001,#1002,#1003,#1004,#1005,
    #1006,#1007,#1008,#1009,#1010,#1011,#1012,#1013,#1014,#1015,#1016,
    #1017,#1018,#1019,#1020,#1021,#1022,#1023,#1024,#1025,#1026,#1027,
    #1028,#1029,#1030,#1031,#1032,#1033,#1034,#1035,#1036,#1037,#1038,
    #1039,#1040,#1041,#1042,#1043,#1044,#1045,#1046,#1047,#1048,#1049,
    #1050,#1051,#1052,#1053,#1054,#1055,#1056,#1057,#1058,#1059,#1060,
    #1061,#1062,#1063,#1064,#1065,#1066,#1067,#1068,#1069,#1070,#1071,
    #1072,#1073,#1074,#1075,#1076,#1077,#1078,#1079,#1080,#1081,#1082,
    #1083,#1084,#1085,#1086,#1087,#1088,#1089,#1090,#1091,#1092,#1093,
    #1094,#1095,#1096,#1097,#1098),.UNSPECIFIED.,.T.,.F.,(8,6,6,6,6,6,6,
    6,6,6,6,6,6,6,6,6,8),(0.,0.139041662094,0.174460017566,
    0.219335778733,0.280768860004,0.324795143659,0.360584876301,
    0.409417707342,0.500169750049,0.571911133853,0.613051260242,
    0.674646718317,0.719483767735,0.78086385422,0.824852158933,
    0.860611017831,1.),.UNSPECIFIED.);
#1001 = CARTESIAN_POINT('',(-94.03728931919,-52.67587354856,4.));
#1002 = CARTESIAN_POINT('',(-94.03728931919,-52.67587354856,
    4.158315807738));
#1003 = CARTESIAN_POINT('',(-94.03341757051,-52.69775562649,
    4.316299431562));
#1004 = CARTESIAN_POINT('',(-94.02570279231,-52.74135647002,
    4.471865460038));
#1005 = CARTESIAN_POINT('',(-94.01341921581,-52.80642784285,
    4.622831926487));
#1006 = CARTESIAN_POINT('',(-93.99513968678,-52.89248595834,
    4.76666171768));
#1007 = CARTESIAN_POINT('',(-93.96878700553,-52.99867406949,
    4.900221791656));
#1008 = CARTESIAN_POINT('',(-93.92248916016,-53.15533269253,
    5.049730649358));
#1009 = CARTESIAN_POINT('',(-93.91240198427,-53.18836049928,
    5.079160482233));
#1010 = CARTESIAN_POINT('',(-93.90158768648,-53.22258045747,
    5.107589190371));
#1011 = CARTESIAN_POINT('',(-93.89000630916,-53.25795674372,
    5.134935896679));
#1012 = CARTESIAN_POINT('',(-93.87761771743,-53.29444905905,
    5.161116800902));
#1013 = CARTESIAN_POINT('',(-93.86438218225,-53.33201269059,
    5.18604502093));
#1014 = CARTESIAN_POINT('',(-93.83236909838,-53.41948765419,
    5.239513621891));
#1015 = CARTESIAN_POINT('',(-93.81303720292,-53.4700676769,
    5.267271495007));
#1016 = CARTESIAN_POINT('',(-93.79221507724,-53.5221522216,
    5.292656593099));
#1017 = CARTESIAN_POINT('',(-93.76986529751,-53.57553953968,
    5.315443883988));
#1018 = CARTESIAN_POINT('',(-93.74596668401,-53.63001606852,
    5.335429737592));
#1019 = CARTESIAN_POINT('',(-93.72051776924,-53.68535994656,
    5.352430899861));
#1020 = CARTESIAN_POINT('',(-93.65660916733,-53.81798513031,
    5.385247064059));
#1021 = CARTESIAN_POINT('',(-93.61684444382,-53.89576187347,
    5.398294256774));
#1022 = CARTESIAN_POINT('',(-93.57447764797,-53.97374185126,
    5.404937363025));
#1023 = CARTESIAN_POINT('',(-93.52987040448,-54.05100386337,
    5.404937363025));
#1024 = CARTESIAN_POINT('',(-93.48352116066,-54.12668457374,
    5.398294256774));
#1025 = CARTESIAN_POINT('',(-93.43604688701,-54.20001020606,
    5.385247064059));
#1026 = CARTESIAN_POINT('',(-93.35380685493,-54.32069713483,
    5.352693122578));
#1027 = CARTESIAN_POINT('',(-93.31927112464,-54.36949988249,
    5.336071755581));
#1028 = CARTESIAN_POINT('',(-93.28470819096,-54.41659617978,
    5.316573946165));
#1029 = CARTESIAN_POINT('',(-93.25030074168,-54.46188104596,
    5.294372606901));
#1030 = CARTESIAN_POINT('',(-93.216234114,-54.50526925847,5.269659913262
    ));
#1031 = CARTESIAN_POINT('',(-93.18269191,-54.54669425188,5.242648234411)
  );
#1032 = CARTESIAN_POINT('',(-93.12315516221,-54.61814634009,
    5.189933725789));
#1033 = CARTESIAN_POINT('',(-93.09690222013,-54.64888027484,
    5.164913532461));
#1034 = CARTESIAN_POINT('',(-93.07115721848,-54.67831740977,
    5.138603890618));
#1035 = CARTESIAN_POINT('',(-93.0459812051,-54.70646959632,
    5.111094903993));
#1036 = CARTESIAN_POINT('',(-93.0214314669,-54.73335144303,
    5.082473544055));
#1037 = CARTESIAN_POINT('',(-92.99756115352,-54.75897980977,
    5.052823820647));
#1038 = CARTESIAN_POINT('',(-92.94284275837,-54.81665668207,
    4.980479457558));
#1039 = CARTESIAN_POINT('',(-92.91261537277,-54.84764813396,
    4.936959994704));
#1040 = CARTESIAN_POINT('',(-92.88384269024,-54.87641299685,
    4.891848088972));
#1041 = CARTESIAN_POINT('',(-92.85661976471,-54.90301501787,
    4.845308100106));
#1042 = CARTESIAN_POINT('',(-92.83103100282,-54.9275152588,
    4.797489868589));
#1043 = CARTESIAN_POINT('',(-92.80715040882,-54.94997100305,
    4.748529361562));
#1044 = CARTESIAN_POINT('',(-92.74395474296,-55.00846479229,
    4.605665271558));
#1045 = CARTESIAN_POINT('',(-92.70896715677,-55.03963388934,
    4.509212820953));
#1046 = CARTESIAN_POINT('',(-92.68052802784,-55.06424046646,
    4.410030798058));
#1047 = CARTESIAN_POINT('',(-92.65897198939,-55.08252881278,
    4.308860370629));
#1048 = CARTESIAN_POINT('',(-92.64452111859,-55.09466918994,
    4.206375596676));
#1049 = CARTESIAN_POINT('',(-92.63728931919,-55.10074467916,
    4.10321297605));
#1050 = CARTESIAN_POINT('',(-92.63728931919,-55.10074467916,
    3.918407988322));
#1051 = CARTESIAN_POINT('',(-92.64180857735,-55.09694782403,
    3.836832656129));
#1052 = CARTESIAN_POINT('',(-92.65084398619,-55.08935742344,
    3.755591748144));
#1053 = CARTESIAN_POINT('',(-92.6643498528,-55.07794111206,
    3.675005697468));
#1054 = CARTESIAN_POINT('',(-92.68223703117,-55.06263416478,
    3.595406272131));
#1055 = CARTESIAN_POINT('',(-92.70437205445,-55.04334281192,
    3.517145221635));
#1056 = CARTESIAN_POINT('',(-92.74560308389,-55.0065315342,
    3.396709710799));
#1057 = CARTESIAN_POINT('',(-92.76196937724,-54.99176482525,
    3.353377758941));
#1058 = CARTESIAN_POINT('',(-92.77964429174,-54.97562245985,
    3.310672413567));
#1059 = CARTESIAN_POINT('',(-92.7985925973,-54.95807619357,
    3.268664137187));
#1060 = CARTESIAN_POINT('',(-92.81877458495,-54.93909480652,
    3.227428752342));
#1061 = CARTESIAN_POINT('',(-92.84014596249,-54.91864440459,
    3.187047684757));
#1062 = CARTESIAN_POINT('',(-92.89636265081,-54.86381642515,
    3.088558977856));
#1063 = CARTESIAN_POINT('',(-92.93264437286,-54.82754967788,
    3.031584061585));
#1064 = CARTESIAN_POINT('',(-92.97133050885,-54.78777356014,
    2.977008437803));
#1065 = CARTESIAN_POINT('',(-93.01221166017,-54.74437315369,
    2.92518913621));
#1066 = CARTESIAN_POINT('',(-93.05504373747,-54.6972399138,
    2.876517586599));
#1067 = CARTESIAN_POINT('',(-93.09955026105,-54.64627804213,
    2.831421969344));
#1068 = CARTESIAN_POINT('',(-93.17881791488,-54.55147150936,
    2.760486378103));
#1069 = CARTESIAN_POINT('',(-93.21295555173,-54.50943958545,
    2.732728504994));
#1070 = CARTESIAN_POINT('',(-93.24765102774,-54.46536482331,
    2.707343406906));
#1071 = CARTESIAN_POINT('',(-93.28271091157,-54.41931568725,
    2.684556116015));
#1072 = CARTESIAN_POINT('',(-93.31793966272,-54.37138061642,
    2.664570262406));
#1073 = CARTESIAN_POINT('',(-93.35314440966,-54.32166927069,
    2.647569100136));
#1074 = CARTESIAN_POINT('',(-93.43604688701,-54.20001020606,
    2.61475293594));
#1075 = CARTESIAN_POINT('',(-93.48352116066,-54.12668457374,
    2.601705743226));
#1076 = CARTESIAN_POINT('',(-93.52987040448,-54.05100386337,
    2.595062636976));
#1077 = CARTESIAN_POINT('',(-93.57447764797,-53.97374185126,
    2.595062636975));
#1078 = CARTESIAN_POINT('',(-93.61684444382,-53.89576187347,
    2.601705743225));
#1079 = CARTESIAN_POINT('',(-93.65660916733,-53.81798513032,
    2.614752935941));
#1080 = CARTESIAN_POINT('',(-93.72000709751,-53.68641970894,
    2.647306877422));
#1081 = CARTESIAN_POINT('',(-93.74500365162,-53.63210951534,
    2.663928244419));
#1082 = CARTESIAN_POINT('',(-93.76850877465,-53.5786289881,
    2.683426053835));
#1083 = CARTESIAN_POINT('',(-93.79052289453,-53.52618882985,
    2.705627393099));
#1084 = CARTESIAN_POINT('',(-93.81106487494,-53.4749921586,
    2.730340086738));
#1085 = CARTESIAN_POINT('',(-93.83016886959,-53.42523126114,
    2.757351765589));
#1086 = CARTESIAN_POINT('',(-93.86227981924,-53.33794488098,
    2.810066274211));
#1087 = CARTESIAN_POINT('',(-93.87576971645,-53.29984219885,
    2.835086467539));
#1088 = CARTESIAN_POINT('',(-93.88839052229,-53.26282780593,
    2.861396109382));
#1089 = CARTESIAN_POINT('',(-93.90018302432,-53.22694864551,
    2.888905096007));
#1090 = CARTESIAN_POINT('',(-93.91118851738,-53.19224702521,
    2.917526455945));
#1091 = CARTESIAN_POINT('',(-93.92144817734,-53.15876054406,
    2.947176179353));
#1092 = CARTESIAN_POINT('',(-93.96824518504,-53.00085539398,
    3.097040451971));
#1093 = CARTESIAN_POINT('',(-93.99482684791,-52.89395818503,
    3.230882005182));
#1094 = CARTESIAN_POINT('',(-94.01325106441,-52.80731823062,
    3.375105934627));
#1095 = CARTESIAN_POINT('',(-94.02562355945,-52.74180427171,
    3.526540473065));
#1096 = CARTESIAN_POINT('',(-94.03339099679,-52.69790581145,
    3.682620292292));
#1097 = CARTESIAN_POINT('',(-94.03728931919,-52.67587354856,
    3.841141811854));
#1098 = CARTESIAN_POINT('',(-94.03728931919,-52.67587354856,4.));
#1099 = ORIENTED_EDGE('',*,*,#991,.F.);
#1100 = ORIENTED_EDGE('',*,*,#483,.T.);
#1101 = CYLINDRICAL_SURFACE('',#1102,1.4);
#1102 = AXIS2_PLACEMENT_3D('',#1103,#1104,#1105);
#1103 = CARTESIAN_POINT('',(-101.2583302491,-58.46152422706,4.));
#1104 = DIRECTION('',(0.866025403784,0.5,0.));
#1105 = DIRECTION('',(-0.5,0.866025403784,0.));
#1106 = ADVANCED_FACE('',(#1107,#1118),#1121,.F.);
#1107 = FACE_BOUND('',#1108,.F.);
#1108 = EDGE_LOOP('',(#1109,#1115,#1116,#1117));
#1109 = ORIENTED_EDGE('',*,*,#1110,.T.);
#1110 = EDGE_CURVE('',#553,#824,#1111,.T.);
#1111 = LINE('',#1112,#1113);
#1112 = CARTESIAN_POINT('',(94.1,-51.96152422706,-1.));
#1113 = VECTOR('',#1114,1.);
#1114 = DIRECTION('',(0.,0.,1.));
#1115 = ORIENTED_EDGE('',*,*,#831,.F.);
#1116 = ORIENTED_EDGE('',*,*,#1110,.F.);
#1117 = ORIENTED_EDGE('',*,*,#552,.T.);
#1118 = FACE_BOUND('',#1119,.F.);
#1119 = EDGE_LOOP('',(#1120));
#1120 = ORIENTED_EDGE('',*,*,#880,.T.);
#1121 = CYLINDRICAL_SURFACE('',#1122,4.1);
#1122 = AXIS2_PLACEMENT_3D('',#1123,#1124,#1125);
#1123 = CARTESIAN_POINT('',(90.,-51.96152422706,-1.));
#1124 = DIRECTION('',(0.,0.,1.));
#1125 = DIRECTION('',(1.,0.,0.));
#1126 = ADVANCED_FACE('',(#1127,#1138),#1141,.F.);
#1127 = FACE_BOUND('',#1128,.F.);
#1128 = EDGE_LOOP('',(#1129,#1135,#1136,#1137));
#1129 = ORIENTED_EDGE('',*,*,#1130,.T.);
#1130 = EDGE_CURVE('',#578,#799,#1131,.T.);
#1131 = LINE('',#1132,#1133);
#1132 = CARTESIAN_POINT('',(-85.9,-51.96152422706,-1.));
#1133 = VECTOR('',#1134,1.);
#1134 = DIRECTION('',(0.,0.,1.));
#1135 = ORIENTED_EDGE('',*,*,#806,.F.);
#1136 = ORIENTED_EDGE('',*,*,#1130,.F.);
#1137 = ORIENTED_EDGE('',*,*,#577,.T.);
#1138 = FACE_BOUND('',#1139,.F.);
#1139 = EDGE_LOOP('',(#1140));
#1140 = ORIENTED_EDGE('',*,*,#999,.T.);
#1141 = CYLINDRICAL_SURFACE('',#1142,4.1);
#1142 = AXIS2_PLACEMENT_3D('',#1143,#1144,#1145);
#1143 = CARTESIAN_POINT('',(-90.,-51.96152422706,-1.));
#1144 = DIRECTION('',(0.,0.,1.));
#1145 = DIRECTION('',(1.,0.,0.));
#1146 = ADVANCED_FACE('',(#1147,#1158),#1161,.F.);
#1147 = FACE_BOUND('',#1148,.F.);
#1148 = EDGE_LOOP('',(#1149,#1155,#1156,#1157));
#1149 = ORIENTED_EDGE('',*,*,#1150,.T.);
#1150 = EDGE_CURVE('',#654,#849,#1151,.T.);
#1151 = LINE('',#1152,#1153);
#1152 = CARTESIAN_POINT('',(4.1,103.92304845413,-1.));
#1153 = VECTOR('',#1154,1.);
#1154 = DIRECTION('',(0.,0.,1.));
#1155 = ORIENTED_EDGE('',*,*,#856,.F.);
#1156 = ORIENTED_EDGE('',*,*,#1150,.F.);
#1157 = ORIENTED_EDGE('',*,*,#653,.T.);
#1158 = FACE_BOUND('',#1159,.F.);
#1159 = EDGE_LOOP('',(#1160));
#1160 = ORIENTED_EDGE('',*,*,#686,.T.);
#1161 = CYLINDRICAL_SURFACE('',#1162,4.1);
#1162 = AXIS2_PLACEMENT_3D('',#1163,#1164,#1165);
#1163 = CARTESIAN_POINT('',(6.363451432349E-15,103.92304845413,-1.));
#1164 = DIRECTION('',(0.,0.,1.));
#1165 = DIRECTION('',(1.,0.,0.));
#1166 = ( GEOMETRIC_REPRESENTATION_CONTEXT(3) 
GLOBAL_UNCERTAINTY_ASSIGNED_CONTEXT((#1170)) 
GLOBAL_UNIT_ASSIGNED_CONTEXT((#1167,#1168,#1169)) REPRESENTATION_CONTEXT
('Context #1','3D Context with UNIT and UNCERTAINTY') );
#1167 = ( LENGTH_UNIT() NAMED_UNIT(*) SI_UNIT(.MILLI.,.METRE.) );
#1168 = ( NAMED_UNIT(*) PLANE_ANGLE_UNIT() SI_UNIT($,.RADIAN.) );
#1169 = ( NAMED_UNIT(*) SI_UNIT($,.STERADIAN.) SOLID_ANGLE_UNIT() );
#1170 = UNCERTAINTY_MEASURE_WITH_UNIT(LENGTH_MEASURE(1.E-07),#1167,
  'distance_accuracy_value','confusion accuracy');
#1171 = PRODUCT_RELATED_PRODUCT_CATEGORY('part',$,(#7));
ENDSEC;
END-ISO-10303-21;
