ISO-10303-21;
HEADER;
FILE_DESCRIPTION(('FreeCAD Model'),'2;1');
FILE_NAME('Open CASCADE Shape Model','2026-08-12T21:09:50',('FreeCAD'),(
    'FreeCAD'),'Open CASCADE STEP processor 7.8','FreeCAD','Unknown');
FILE_SCHEMA(('AUTOMOTIVE_DESIGN { 1 0 10303 214 1 1 1 1 }'));
ENDSEC;
DATA;
#1 = APPLICATION_PROTOCOL_DEFINITION('international standard',
  'automotive_design',2000,#2);
#2 = APPLICATION_CONTEXT(
  'core data for automotive mechanical design processes');
#3 = SHAPE_DEFINITION_REPRESENTATION(#4,#10);
#4 = PRODUCT_DEFINITION_SHAPE('','',#5);
#5 = PRODUCT_DEFINITION('design','',#6,#9);
#6 = PRODUCT_DEFINITION_FORMATION('','',#7);
#7 = PRODUCT('Open CASCADE STEP translator 7.8 2',
  'Open CASCADE STEP translator 7.8 2','',(#8));
#8 = PRODUCT_CONTEXT('',#2,'mechanical');
#9 = PRODUCT_DEFINITION_CONTEXT('part definition',#2,'design');
#10 = ADVANCED_BREP_SHAPE_REPRESENTATION('',(#11,#15),#2251);
#11 = AXIS2_PLACEMENT_3D('',#12,#13,#14);
#12 = CARTESIAN_POINT('',(0.,0.,0.));
#13 = DIRECTION('',(0.,0.,1.));
#14 = DIRECTION('',(1.,0.,-0.));
#15 = MANIFOLD_SOLID_BREP('',#16);
#16 = CLOSED_SHELL('',(#17,#57,#242,#289,#320,#360,#384,#408,#432,#465,
    #490,#515,#562,#586,#610,#634,#674,#691,#722,#753,#793,#833,#917,
    #957,#969,#989,#1009,#1026,#1061,#1085,#1109,#1133,#1157,#1182,#1207
    ,#1232,#1257,#1269,#1281,#1380,#1411,#1435,#1466,#1490,#1507,#1538,
    #1601,#1687,#1718,#1749,#1780,#1802,#1826,#1882,#1899,#1916,#1933,
    #1950,#1967,#1979,#2004,#2029,#2053,#2077,#2101,#2125,#2151,#2183,
    #2201,#2219,#2235));
#17 = ADVANCED_FACE('',(#18),#52,.T.);
#18 = FACE_BOUND('',#19,.T.);
#19 = EDGE_LOOP('',(#20,#30,#38,#46));
#20 = ORIENTED_EDGE('',*,*,#21,.F.);
#21 = EDGE_CURVE('',#22,#24,#26,.T.);
#22 = VERTEX_POINT('',#23);
#23 = CARTESIAN_POINT('',(-15.,-30.,4.));
#24 = VERTEX_POINT('',#25);
#25 = CARTESIAN_POINT('',(15.,-30.,4.));
#26 = LINE('',#27,#28);
#27 = CARTESIAN_POINT('',(-15.,-30.,4.));
#28 = VECTOR('',#29,1.);
#29 = DIRECTION('',(1.,0.,0.));
#30 = ORIENTED_EDGE('',*,*,#31,.T.);
#31 = EDGE_CURVE('',#22,#32,#34,.T.);
#32 = VERTEX_POINT('',#33);
#33 = CARTESIAN_POINT('',(-15.,-24.,4.));
#34 = LINE('',#35,#36);
#35 = CARTESIAN_POINT('',(-15.,-30.,4.));
#36 = VECTOR('',#37,1.);
#37 = DIRECTION('',(0.,1.,0.));
#38 = ORIENTED_EDGE('',*,*,#39,.T.);
#39 = EDGE_CURVE('',#32,#40,#42,.T.);
#40 = VERTEX_POINT('',#41);
#41 = CARTESIAN_POINT('',(15.,-24.,4.));
#42 = LINE('',#43,#44);
#43 = CARTESIAN_POINT('',(-15.,-24.,4.));
#44 = VECTOR('',#45,1.);
#45 = DIRECTION('',(1.,0.,0.));
#46 = ORIENTED_EDGE('',*,*,#47,.F.);
#47 = EDGE_CURVE('',#24,#40,#48,.T.);
#48 = LINE('',#49,#50);
#49 = CARTESIAN_POINT('',(15.,-30.,4.));
#50 = VECTOR('',#51,1.);
#51 = DIRECTION('',(0.,1.,0.));
#52 = PLANE('',#53);
#53 = AXIS2_PLACEMENT_3D('',#54,#55,#56);
#54 = CARTESIAN_POINT('',(-15.,-30.,4.));
#55 = DIRECTION('',(0.,0.,-1.));
#56 = DIRECTION('',(1.,0.,0.));
#57 = ADVANCED_FACE('',(#58,#115,#165,#176,#187),#237,.T.);
#58 = FACE_BOUND('',#59,.T.);
#59 = EDGE_LOOP('',(#60,#61,#69,#77,#85,#93,#101,#109));
#60 = ORIENTED_EDGE('',*,*,#21,.T.);
#61 = ORIENTED_EDGE('',*,*,#62,.T.);
#62 = EDGE_CURVE('',#24,#63,#65,.T.);
#63 = VERTEX_POINT('',#64);
#64 = CARTESIAN_POINT('',(19.,-30.,8.));
#65 = LINE('',#66,#67);
#66 = CARTESIAN_POINT('',(15.,-30.,4.));
#67 = VECTOR('',#68,1.);
#68 = DIRECTION('',(0.707106781187,0.,0.707106781187));
#69 = ORIENTED_EDGE('',*,*,#70,.T.);
#70 = EDGE_CURVE('',#63,#71,#73,.T.);
#71 = VERTEX_POINT('',#72);
#72 = CARTESIAN_POINT('',(19.,-30.,76.));
#73 = LINE('',#74,#75);
#74 = CARTESIAN_POINT('',(19.,-30.,8.));
#75 = VECTOR('',#76,1.);
#76 = DIRECTION('',(0.,0.,1.));
#77 = ORIENTED_EDGE('',*,*,#78,.T.);
#78 = EDGE_CURVE('',#71,#79,#81,.T.);
#79 = VERTEX_POINT('',#80);
#80 = CARTESIAN_POINT('',(15.,-30.,80.));
#81 = LINE('',#82,#83);
#82 = CARTESIAN_POINT('',(19.,-30.,76.));
#83 = VECTOR('',#84,1.);
#84 = DIRECTION('',(-0.707106781187,0.,0.707106781187));
#85 = ORIENTED_EDGE('',*,*,#86,.T.);
#86 = EDGE_CURVE('',#79,#87,#89,.T.);
#87 = VERTEX_POINT('',#88);
#88 = CARTESIAN_POINT('',(-15.,-30.,80.));
#89 = LINE('',#90,#91);
#90 = CARTESIAN_POINT('',(15.,-30.,80.));
#91 = VECTOR('',#92,1.);
#92 = DIRECTION('',(-1.,0.,0.));
#93 = ORIENTED_EDGE('',*,*,#94,.T.);
#94 = EDGE_CURVE('',#87,#95,#97,.T.);
#95 = VERTEX_POINT('',#96);
#96 = CARTESIAN_POINT('',(-19.,-30.,76.));
#97 = LINE('',#98,#99);
#98 = CARTESIAN_POINT('',(-15.,-30.,80.));
#99 = VECTOR('',#100,1.);
#100 = DIRECTION('',(-0.707106781187,0.,-0.707106781187));
#101 = ORIENTED_EDGE('',*,*,#102,.T.);
#102 = EDGE_CURVE('',#95,#103,#105,.T.);
#103 = VERTEX_POINT('',#104);
#104 = CARTESIAN_POINT('',(-19.,-30.,8.));
#105 = LINE('',#106,#107);
#106 = CARTESIAN_POINT('',(-19.,-30.,76.));
#107 = VECTOR('',#108,1.);
#108 = DIRECTION('',(0.,0.,-1.));
#109 = ORIENTED_EDGE('',*,*,#110,.T.);
#110 = EDGE_CURVE('',#103,#22,#111,.T.);
#111 = LINE('',#112,#113);
#112 = CARTESIAN_POINT('',(-19.,-30.,8.));
#113 = VECTOR('',#114,1.);
#114 = DIRECTION('',(0.707106781187,0.,-0.707106781187));
#115 = FACE_BOUND('',#116,.T.);
#116 = EDGE_LOOP('',(#117,#127,#135,#143,#151,#159));
#117 = ORIENTED_EDGE('',*,*,#118,.F.);
#118 = EDGE_CURVE('',#119,#121,#123,.T.);
#119 = VERTEX_POINT('',#120);
#120 = CARTESIAN_POINT('',(-12.,-30.,21.));
#121 = VERTEX_POINT('',#122);
#122 = CARTESIAN_POINT('',(-7.25,-30.,25.75));
#123 = LINE('',#124,#125);
#124 = CARTESIAN_POINT('',(-3.75,-30.,29.25));
#125 = VECTOR('',#126,1.);
#126 = DIRECTION('',(0.707106781187,0.,0.707106781187));
#127 = ORIENTED_EDGE('',*,*,#128,.F.);
#128 = EDGE_CURVE('',#129,#119,#131,.T.);
#129 = VERTEX_POINT('',#130);
#130 = CARTESIAN_POINT('',(-16.75,-30.,25.75));
#131 = LINE('',#132,#133);
#132 = CARTESIAN_POINT('',(-16.625,-30.,25.625));
#133 = VECTOR('',#134,1.);
#134 = DIRECTION('',(0.707106781187,0.,-0.707106781187));
#135 = ORIENTED_EDGE('',*,*,#136,.F.);
#136 = EDGE_CURVE('',#137,#129,#139,.T.);
#137 = VERTEX_POINT('',#138);
#138 = CARTESIAN_POINT('',(-16.75,-30.,58.25));
#139 = LINE('',#140,#141);
#140 = CARTESIAN_POINT('',(-16.75,-30.,50.125));
#141 = VECTOR('',#142,1.);
#142 = DIRECTION('',(0.,0.,-1.));
#143 = ORIENTED_EDGE('',*,*,#144,.F.);
#144 = EDGE_CURVE('',#145,#137,#147,.T.);
#145 = VERTEX_POINT('',#146);
#146 = CARTESIAN_POINT('',(-12.,-30.,63.));
#147 = LINE('',#148,#149);
#148 = CARTESIAN_POINT('',(-14.25,-30.,60.75));
#149 = VECTOR('',#150,1.);
#150 = DIRECTION('',(-0.707106781187,0.,-0.707106781187));
#151 = ORIENTED_EDGE('',*,*,#152,.F.);
#152 = EDGE_CURVE('',#153,#145,#155,.T.);
#153 = VERTEX_POINT('',#154);
#154 = CARTESIAN_POINT('',(-7.25,-30.,58.25));
#155 = LINE('',#156,#157);
#156 = CARTESIAN_POINT('',(-1.375,-30.,52.375));
#157 = VECTOR('',#158,1.);
#158 = DIRECTION('',(-0.707106781187,0.,0.707106781187));
#159 = ORIENTED_EDGE('',*,*,#160,.F.);
#160 = EDGE_CURVE('',#121,#153,#161,.T.);
#161 = LINE('',#162,#163);
#162 = CARTESIAN_POINT('',(-7.25,-30.,33.875));
#163 = VECTOR('',#164,1.);
#164 = DIRECTION('',(0.,0.,1.));
#165 = FACE_BOUND('',#166,.T.);
#166 = EDGE_LOOP('',(#167));
#167 = ORIENTED_EDGE('',*,*,#168,.T.);
#168 = EDGE_CURVE('',#169,#169,#171,.T.);
#169 = VERTEX_POINT('',#170);
#170 = CARTESIAN_POINT('',(-6.490628035481E-16,-30.,61.3125));
#171 = CIRCLE('',#172,2.65);
#172 = AXIS2_PLACEMENT_3D('',#173,#174,#175);
#173 = CARTESIAN_POINT('',(0.,-30.,58.6625));
#174 = DIRECTION('',(0.,1.,0.));
#175 = DIRECTION('',(0.,0.,1.));
#176 = FACE_BOUND('',#177,.T.);
#177 = EDGE_LOOP('',(#178));
#178 = ORIENTED_EDGE('',*,*,#179,.T.);
#179 = EDGE_CURVE('',#180,#180,#182,.T.);
#180 = VERTEX_POINT('',#181);
#181 = CARTESIAN_POINT('',(-6.490628035481E-16,-30.,27.9875));
#182 = CIRCLE('',#183,2.65);
#183 = AXIS2_PLACEMENT_3D('',#184,#185,#186);
#184 = CARTESIAN_POINT('',(0.,-30.,25.3375));
#185 = DIRECTION('',(0.,1.,0.));
#186 = DIRECTION('',(0.,0.,1.));
#187 = FACE_BOUND('',#188,.T.);
#188 = EDGE_LOOP('',(#189,#199,#207,#215,#223,#231));
#189 = ORIENTED_EDGE('',*,*,#190,.F.);
#190 = EDGE_CURVE('',#191,#193,#195,.T.);
#191 = VERTEX_POINT('',#192);
#192 = CARTESIAN_POINT('',(12.,-30.,21.));
#193 = VERTEX_POINT('',#194);
#194 = CARTESIAN_POINT('',(16.75,-30.,25.75));
#195 = LINE('',#196,#197);
#196 = CARTESIAN_POINT('',(14.25,-30.,23.25));
#197 = VECTOR('',#198,1.);
#198 = DIRECTION('',(0.707106781187,0.,0.707106781187));
#199 = ORIENTED_EDGE('',*,*,#200,.F.);
#200 = EDGE_CURVE('',#201,#191,#203,.T.);
#201 = VERTEX_POINT('',#202);
#202 = CARTESIAN_POINT('',(7.25,-30.,25.75));
#203 = LINE('',#204,#205);
#204 = CARTESIAN_POINT('',(1.375,-30.,31.625));
#205 = VECTOR('',#206,1.);
#206 = DIRECTION('',(0.707106781187,0.,-0.707106781187));
#207 = ORIENTED_EDGE('',*,*,#208,.F.);
#208 = EDGE_CURVE('',#209,#201,#211,.T.);
#209 = VERTEX_POINT('',#210);
#210 = CARTESIAN_POINT('',(7.25,-30.,58.25));
#211 = LINE('',#212,#213);
#212 = CARTESIAN_POINT('',(7.25,-30.,50.125));
#213 = VECTOR('',#214,1.);
#214 = DIRECTION('',(0.,0.,-1.));
#215 = ORIENTED_EDGE('',*,*,#216,.F.);
#216 = EDGE_CURVE('',#217,#209,#219,.T.);
#217 = VERTEX_POINT('',#218);
#218 = CARTESIAN_POINT('',(12.,-30.,63.));
#219 = LINE('',#220,#221);
#220 = CARTESIAN_POINT('',(3.75,-30.,54.75));
#221 = VECTOR('',#222,1.);
#222 = DIRECTION('',(-0.707106781187,0.,-0.707106781187));
#223 = ORIENTED_EDGE('',*,*,#224,.F.);
#224 = EDGE_CURVE('',#225,#217,#227,.T.);
#225 = VERTEX_POINT('',#226);
#226 = CARTESIAN_POINT('',(16.75,-30.,58.25));
#227 = LINE('',#228,#229);
#228 = CARTESIAN_POINT('',(16.625,-30.,58.375));
#229 = VECTOR('',#230,1.);
#230 = DIRECTION('',(-0.707106781187,0.,0.707106781187));
#231 = ORIENTED_EDGE('',*,*,#232,.F.);
#232 = EDGE_CURVE('',#193,#225,#233,.T.);
#233 = LINE('',#234,#235);
#234 = CARTESIAN_POINT('',(16.75,-30.,33.875));
#235 = VECTOR('',#236,1.);
#236 = DIRECTION('',(0.,0.,1.));
#237 = PLANE('',#238);
#238 = AXIS2_PLACEMENT_3D('',#239,#240,#241);
#239 = CARTESIAN_POINT('',(-6.175031551311E-16,-30.,42.));
#240 = DIRECTION('',(-0.,-1.,-0.));
#241 = DIRECTION('',(0.,0.,-1.));
#242 = ADVANCED_FACE('',(#243),#284,.F.);
#243 = FACE_BOUND('',#244,.F.);
#244 = EDGE_LOOP('',(#245,#255,#261,#262,#270,#278));
#245 = ORIENTED_EDGE('',*,*,#246,.T.);
#246 = EDGE_CURVE('',#247,#249,#251,.T.);
#247 = VERTEX_POINT('',#248);
#248 = CARTESIAN_POINT('',(-16.,-24.,0.));
#249 = VERTEX_POINT('',#250);
#250 = CARTESIAN_POINT('',(-16.,-24.,4.));
#251 = LINE('',#252,#253);
#252 = CARTESIAN_POINT('',(-16.,-24.,0.));
#253 = VECTOR('',#254,1.);
#254 = DIRECTION('',(0.,0.,1.));
#255 = ORIENTED_EDGE('',*,*,#256,.T.);
#256 = EDGE_CURVE('',#249,#32,#257,.T.);
#257 = LINE('',#258,#259);
#258 = CARTESIAN_POINT('',(-16.,-24.,4.));
#259 = VECTOR('',#260,1.);
#260 = DIRECTION('',(1.,0.,0.));
#261 = ORIENTED_EDGE('',*,*,#39,.T.);
#262 = ORIENTED_EDGE('',*,*,#263,.T.);
#263 = EDGE_CURVE('',#40,#264,#266,.T.);
#264 = VERTEX_POINT('',#265);
#265 = CARTESIAN_POINT('',(16.,-24.,4.));
#266 = LINE('',#267,#268);
#267 = CARTESIAN_POINT('',(-16.,-24.,4.));
#268 = VECTOR('',#269,1.);
#269 = DIRECTION('',(1.,0.,0.));
#270 = ORIENTED_EDGE('',*,*,#271,.F.);
#271 = EDGE_CURVE('',#272,#264,#274,.T.);
#272 = VERTEX_POINT('',#273);
#273 = CARTESIAN_POINT('',(16.,-24.,0.));
#274 = LINE('',#275,#276);
#275 = CARTESIAN_POINT('',(16.,-24.,0.));
#276 = VECTOR('',#277,1.);
#277 = DIRECTION('',(0.,0.,1.));
#278 = ORIENTED_EDGE('',*,*,#279,.F.);
#279 = EDGE_CURVE('',#247,#272,#280,.T.);
#280 = LINE('',#281,#282);
#281 = CARTESIAN_POINT('',(-16.,-24.,0.));
#282 = VECTOR('',#283,1.);
#283 = DIRECTION('',(1.,0.,0.));
#284 = PLANE('',#285);
#285 = AXIS2_PLACEMENT_3D('',#286,#287,#288);
#286 = CARTESIAN_POINT('',(-16.,-24.,0.));
#287 = DIRECTION('',(0.,1.,0.));
#288 = DIRECTION('',(1.,0.,0.));
#289 = ADVANCED_FACE('',(#290),#315,.F.);
#290 = FACE_BOUND('',#291,.F.);
#291 = EDGE_LOOP('',(#292,#293,#301,#309));
#292 = ORIENTED_EDGE('',*,*,#118,.F.);
#293 = ORIENTED_EDGE('',*,*,#294,.T.);
#294 = EDGE_CURVE('',#119,#295,#297,.T.);
#295 = VERTEX_POINT('',#296);
#296 = CARTESIAN_POINT('',(-12.,-23.7,21.));
#297 = LINE('',#298,#299);
#298 = CARTESIAN_POINT('',(-12.,-30.35,21.));
#299 = VECTOR('',#300,1.);
#300 = DIRECTION('',(0.,1.,0.));
#301 = ORIENTED_EDGE('',*,*,#302,.T.);
#302 = EDGE_CURVE('',#295,#303,#305,.T.);
#303 = VERTEX_POINT('',#304);
#304 = CARTESIAN_POINT('',(-7.25,-23.7,25.75));
#305 = LINE('',#306,#307);
#306 = CARTESIAN_POINT('',(-3.75,-23.7,29.25));
#307 = VECTOR('',#308,1.);
#308 = DIRECTION('',(0.707106781187,0.,0.707106781187));
#309 = ORIENTED_EDGE('',*,*,#310,.F.);
#310 = EDGE_CURVE('',#121,#303,#311,.T.);
#311 = LINE('',#312,#313);
#312 = CARTESIAN_POINT('',(-7.25,-30.35,25.75));
#313 = VECTOR('',#314,1.);
#314 = DIRECTION('',(0.,1.,0.));
#315 = PLANE('',#316);
#316 = AXIS2_PLACEMENT_3D('',#317,#318,#319);
#317 = CARTESIAN_POINT('',(-12.,-30.35,21.));
#318 = DIRECTION('',(0.707106781187,0.,-0.707106781187));
#319 = DIRECTION('',(0.707106781187,0.,0.707106781187));
#320 = ADVANCED_FACE('',(#321),#355,.F.);
#321 = FACE_BOUND('',#322,.F.);
#322 = EDGE_LOOP('',(#323,#324,#332,#340,#348,#354));
#323 = ORIENTED_EDGE('',*,*,#128,.F.);
#324 = ORIENTED_EDGE('',*,*,#325,.T.);
#325 = EDGE_CURVE('',#129,#326,#328,.T.);
#326 = VERTEX_POINT('',#327);
#327 = CARTESIAN_POINT('',(-16.75,-24.,25.75));
#328 = LINE('',#329,#330);
#329 = CARTESIAN_POINT('',(-16.75,-30.35,25.75));
#330 = VECTOR('',#331,1.);
#331 = DIRECTION('',(0.,1.,0.));
#332 = ORIENTED_EDGE('',*,*,#333,.F.);
#333 = EDGE_CURVE('',#334,#326,#336,.T.);
#334 = VERTEX_POINT('',#335);
#335 = CARTESIAN_POINT('',(-13.34470046082,-24.,22.344700460829));
#336 = LINE('',#337,#338);
#337 = CARTESIAN_POINT('',(-16.625,-24.,25.625));
#338 = VECTOR('',#339,1.);
#339 = DIRECTION('',(-0.707106781187,0.,0.707106781187));
#340 = ORIENTED_EDGE('',*,*,#341,.F.);
#341 = EDGE_CURVE('',#342,#334,#344,.T.);
#342 = VERTEX_POINT('',#343);
#343 = CARTESIAN_POINT('',(-13.26175115207,-23.7,22.261751152074));
#344 = LINE('',#345,#346);
#345 = CARTESIAN_POINT('',(-12.33243566836,-20.33897566726,
    21.332435668367));
#346 = VECTOR('',#347,1.);
#347 = DIRECTION('',(-0.257510729614,-0.931330472103,0.257510729614));
#348 = ORIENTED_EDGE('',*,*,#349,.T.);
#349 = EDGE_CURVE('',#342,#295,#350,.T.);
#350 = LINE('',#351,#352);
#351 = CARTESIAN_POINT('',(-16.625,-23.7,25.625));
#352 = VECTOR('',#353,1.);
#353 = DIRECTION('',(0.707106781187,0.,-0.707106781187));
#354 = ORIENTED_EDGE('',*,*,#294,.F.);
#355 = PLANE('',#356);
#356 = AXIS2_PLACEMENT_3D('',#357,#358,#359);
#357 = CARTESIAN_POINT('',(-16.75,-30.35,25.75));
#358 = DIRECTION('',(-0.707106781187,0.,-0.707106781187));
#359 = DIRECTION('',(0.707106781187,0.,-0.707106781187));
#360 = ADVANCED_FACE('',(#361),#379,.F.);
#361 = FACE_BOUND('',#362,.F.);
#362 = EDGE_LOOP('',(#363,#364,#365,#373));
#363 = ORIENTED_EDGE('',*,*,#160,.F.);
#364 = ORIENTED_EDGE('',*,*,#310,.T.);
#365 = ORIENTED_EDGE('',*,*,#366,.T.);
#366 = EDGE_CURVE('',#303,#367,#369,.T.);
#367 = VERTEX_POINT('',#368);
#368 = CARTESIAN_POINT('',(-7.25,-23.7,58.25));
#369 = LINE('',#370,#371);
#370 = CARTESIAN_POINT('',(-7.25,-23.7,33.875));
#371 = VECTOR('',#372,1.);
#372 = DIRECTION('',(0.,0.,1.));
#373 = ORIENTED_EDGE('',*,*,#374,.F.);
#374 = EDGE_CURVE('',#153,#367,#375,.T.);
#375 = LINE('',#376,#377);
#376 = CARTESIAN_POINT('',(-7.25,-30.35,58.25));
#377 = VECTOR('',#378,1.);
#378 = DIRECTION('',(0.,1.,0.));
#379 = PLANE('',#380);
#380 = AXIS2_PLACEMENT_3D('',#381,#382,#383);
#381 = CARTESIAN_POINT('',(-7.25,-30.35,25.75));
#382 = DIRECTION('',(1.,0.,0.));
#383 = DIRECTION('',(0.,0.,1.));
#384 = ADVANCED_FACE('',(#385),#403,.F.);
#385 = FACE_BOUND('',#386,.F.);
#386 = EDGE_LOOP('',(#387,#388,#396,#402));
#387 = ORIENTED_EDGE('',*,*,#136,.F.);
#388 = ORIENTED_EDGE('',*,*,#389,.T.);
#389 = EDGE_CURVE('',#137,#390,#392,.T.);
#390 = VERTEX_POINT('',#391);
#391 = CARTESIAN_POINT('',(-16.75,-24.,58.25));
#392 = LINE('',#393,#394);
#393 = CARTESIAN_POINT('',(-16.75,-30.35,58.25));
#394 = VECTOR('',#395,1.);
#395 = DIRECTION('',(0.,1.,0.));
#396 = ORIENTED_EDGE('',*,*,#397,.F.);
#397 = EDGE_CURVE('',#326,#390,#398,.T.);
#398 = LINE('',#399,#400);
#399 = CARTESIAN_POINT('',(-16.75,-24.,50.125));
#400 = VECTOR('',#401,1.);
#401 = DIRECTION('',(0.,0.,1.));
#402 = ORIENTED_EDGE('',*,*,#325,.F.);
#403 = PLANE('',#404);
#404 = AXIS2_PLACEMENT_3D('',#405,#406,#407);
#405 = CARTESIAN_POINT('',(-16.75,-30.35,58.25));
#406 = DIRECTION('',(-1.,0.,0.));
#407 = DIRECTION('',(0.,0.,-1.));
#408 = ADVANCED_FACE('',(#409),#427,.F.);
#409 = FACE_BOUND('',#410,.F.);
#410 = EDGE_LOOP('',(#411,#412,#413,#421));
#411 = ORIENTED_EDGE('',*,*,#152,.F.);
#412 = ORIENTED_EDGE('',*,*,#374,.T.);
#413 = ORIENTED_EDGE('',*,*,#414,.T.);
#414 = EDGE_CURVE('',#367,#415,#417,.T.);
#415 = VERTEX_POINT('',#416);
#416 = CARTESIAN_POINT('',(-12.,-23.7,63.));
#417 = LINE('',#418,#419);
#418 = CARTESIAN_POINT('',(-1.375,-23.7,52.375));
#419 = VECTOR('',#420,1.);
#420 = DIRECTION('',(-0.707106781187,0.,0.707106781187));
#421 = ORIENTED_EDGE('',*,*,#422,.F.);
#422 = EDGE_CURVE('',#145,#415,#423,.T.);
#423 = LINE('',#424,#425);
#424 = CARTESIAN_POINT('',(-12.,-30.35,63.));
#425 = VECTOR('',#426,1.);
#426 = DIRECTION('',(0.,1.,0.));
#427 = PLANE('',#428);
#428 = AXIS2_PLACEMENT_3D('',#429,#430,#431);
#429 = CARTESIAN_POINT('',(-7.25,-30.35,58.25));
#430 = DIRECTION('',(0.707106781187,0.,0.707106781187));
#431 = DIRECTION('',(-0.707106781187,0.,0.707106781187));
#432 = ADVANCED_FACE('',(#433),#460,.F.);
#433 = FACE_BOUND('',#434,.F.);
#434 = EDGE_LOOP('',(#435,#436,#437,#445,#453,#459));
#435 = ORIENTED_EDGE('',*,*,#144,.F.);
#436 = ORIENTED_EDGE('',*,*,#422,.T.);
#437 = ORIENTED_EDGE('',*,*,#438,.T.);
#438 = EDGE_CURVE('',#415,#439,#441,.T.);
#439 = VERTEX_POINT('',#440);
#440 = CARTESIAN_POINT('',(-13.26175115207,-23.7,61.738248847926));
#441 = LINE('',#442,#443);
#442 = CARTESIAN_POINT('',(-14.25,-23.7,60.75));
#443 = VECTOR('',#444,1.);
#444 = DIRECTION('',(-0.707106781187,0.,-0.707106781187));
#445 = ORIENTED_EDGE('',*,*,#446,.F.);
#446 = EDGE_CURVE('',#447,#439,#449,.T.);
#447 = VERTEX_POINT('',#448);
#448 = CARTESIAN_POINT('',(-13.34470046082,-24.,61.655299539171));
#449 = LINE('',#450,#451);
#450 = CARTESIAN_POINT('',(-14.57045810385,-28.43315680893,
    60.429541896148));
#451 = VECTOR('',#452,1.);
#452 = DIRECTION('',(0.257510729614,0.931330472103,0.257510729614));
#453 = ORIENTED_EDGE('',*,*,#454,.F.);
#454 = EDGE_CURVE('',#390,#447,#455,.T.);
#455 = LINE('',#456,#457);
#456 = CARTESIAN_POINT('',(-14.25,-24.,60.75));
#457 = VECTOR('',#458,1.);
#458 = DIRECTION('',(0.707106781187,0.,0.707106781187));
#459 = ORIENTED_EDGE('',*,*,#389,.F.);
#460 = PLANE('',#461);
#461 = AXIS2_PLACEMENT_3D('',#462,#463,#464);
#462 = CARTESIAN_POINT('',(-12.,-30.35,63.));
#463 = DIRECTION('',(-0.707106781187,0.,0.707106781187));
#464 = DIRECTION('',(-0.707106781187,0.,-0.707106781187));
#465 = ADVANCED_FACE('',(#466),#485,.F.);
#466 = FACE_BOUND('',#467,.F.);
#467 = EDGE_LOOP('',(#468,#477,#483,#484));
#468 = ORIENTED_EDGE('',*,*,#469,.F.);
#469 = EDGE_CURVE('',#470,#470,#472,.T.);
#470 = VERTEX_POINT('',#471);
#471 = CARTESIAN_POINT('',(-6.490628035481E-16,-28.,61.3125));
#472 = CIRCLE('',#473,2.65);
#473 = AXIS2_PLACEMENT_3D('',#474,#475,#476);
#474 = CARTESIAN_POINT('',(0.,-28.,58.6625));
#475 = DIRECTION('',(0.,1.,0.));
#476 = DIRECTION('',(0.,0.,1.));
#477 = ORIENTED_EDGE('',*,*,#478,.F.);
#478 = EDGE_CURVE('',#169,#470,#479,.T.);
#479 = LINE('',#480,#481);
#480 = CARTESIAN_POINT('',(-6.490628035481E-16,-30.5,61.3125));
#481 = VECTOR('',#482,1.);
#482 = DIRECTION('',(0.,1.,0.));
#483 = ORIENTED_EDGE('',*,*,#168,.T.);
#484 = ORIENTED_EDGE('',*,*,#478,.T.);
#485 = CYLINDRICAL_SURFACE('',#486,2.65);
#486 = AXIS2_PLACEMENT_3D('',#487,#488,#489);
#487 = CARTESIAN_POINT('',(0.,-30.5,58.6625));
#488 = DIRECTION('',(0.,1.,0.));
#489 = DIRECTION('',(0.,0.,1.));
#490 = ADVANCED_FACE('',(#491),#510,.F.);
#491 = FACE_BOUND('',#492,.F.);
#492 = EDGE_LOOP('',(#493,#502,#508,#509));
#493 = ORIENTED_EDGE('',*,*,#494,.F.);
#494 = EDGE_CURVE('',#495,#495,#497,.T.);
#495 = VERTEX_POINT('',#496);
#496 = CARTESIAN_POINT('',(-6.490628035481E-16,-28.,27.9875));
#497 = CIRCLE('',#498,2.65);
#498 = AXIS2_PLACEMENT_3D('',#499,#500,#501);
#499 = CARTESIAN_POINT('',(0.,-28.,25.3375));
#500 = DIRECTION('',(0.,1.,0.));
#501 = DIRECTION('',(0.,0.,1.));
#502 = ORIENTED_EDGE('',*,*,#503,.F.);
#503 = EDGE_CURVE('',#180,#495,#504,.T.);
#504 = LINE('',#505,#506);
#505 = CARTESIAN_POINT('',(-6.490628035481E-16,-30.5,27.9875));
#506 = VECTOR('',#507,1.);
#507 = DIRECTION('',(0.,1.,0.));
#508 = ORIENTED_EDGE('',*,*,#179,.T.);
#509 = ORIENTED_EDGE('',*,*,#503,.T.);
#510 = CYLINDRICAL_SURFACE('',#511,2.65);
#511 = AXIS2_PLACEMENT_3D('',#512,#513,#514);
#512 = CARTESIAN_POINT('',(0.,-30.5,25.3375));
#513 = DIRECTION('',(0.,1.,0.));
#514 = DIRECTION('',(0.,0.,1.));
#515 = ADVANCED_FACE('',(#516),#557,.F.);
#516 = FACE_BOUND('',#517,.F.);
#517 = EDGE_LOOP('',(#518,#519,#527,#535,#543,#551));
#518 = ORIENTED_EDGE('',*,*,#190,.F.);
#519 = ORIENTED_EDGE('',*,*,#520,.T.);
#520 = EDGE_CURVE('',#191,#521,#523,.T.);
#521 = VERTEX_POINT('',#522);
#522 = CARTESIAN_POINT('',(12.,-23.7,21.));
#523 = LINE('',#524,#525);
#524 = CARTESIAN_POINT('',(12.,-30.35,21.));
#525 = VECTOR('',#526,1.);
#526 = DIRECTION('',(0.,1.,0.));
#527 = ORIENTED_EDGE('',*,*,#528,.T.);
#528 = EDGE_CURVE('',#521,#529,#531,.T.);
#529 = VERTEX_POINT('',#530);
#530 = CARTESIAN_POINT('',(13.261751152074,-23.7,22.261751152074));
#531 = LINE('',#532,#533);
#532 = CARTESIAN_POINT('',(14.25,-23.7,23.25));
#533 = VECTOR('',#534,1.);
#534 = DIRECTION('',(0.707106781187,0.,0.707106781187));
#535 = ORIENTED_EDGE('',*,*,#536,.F.);
#536 = EDGE_CURVE('',#537,#529,#539,.T.);
#537 = VERTEX_POINT('',#538);
#538 = CARTESIAN_POINT('',(13.344700460829,-24.,22.344700460829));
#539 = LINE('',#540,#541);
#540 = CARTESIAN_POINT('',(13.417987069204,-24.26505323362,
    22.417987069204));
#541 = VECTOR('',#542,1.);
#542 = DIRECTION('',(-0.257510729614,0.931330472103,-0.257510729614));
#543 = ORIENTED_EDGE('',*,*,#544,.F.);
#544 = EDGE_CURVE('',#545,#537,#547,.T.);
#545 = VERTEX_POINT('',#546);
#546 = CARTESIAN_POINT('',(16.75,-24.,25.75));
#547 = LINE('',#548,#549);
#548 = CARTESIAN_POINT('',(14.25,-24.,23.25));
#549 = VECTOR('',#550,1.);
#550 = DIRECTION('',(-0.707106781187,0.,-0.707106781187));
#551 = ORIENTED_EDGE('',*,*,#552,.F.);
#552 = EDGE_CURVE('',#193,#545,#553,.T.);
#553 = LINE('',#554,#555);
#554 = CARTESIAN_POINT('',(16.75,-30.35,25.75));
#555 = VECTOR('',#556,1.);
#556 = DIRECTION('',(0.,1.,0.));
#557 = PLANE('',#558);
#558 = AXIS2_PLACEMENT_3D('',#559,#560,#561);
#559 = CARTESIAN_POINT('',(12.,-30.35,21.));
#560 = DIRECTION('',(0.707106781187,0.,-0.707106781187));
#561 = DIRECTION('',(0.707106781187,0.,0.707106781187));
#562 = ADVANCED_FACE('',(#563),#581,.F.);
#563 = FACE_BOUND('',#564,.F.);
#564 = EDGE_LOOP('',(#565,#566,#574,#580));
#565 = ORIENTED_EDGE('',*,*,#200,.F.);
#566 = ORIENTED_EDGE('',*,*,#567,.T.);
#567 = EDGE_CURVE('',#201,#568,#570,.T.);
#568 = VERTEX_POINT('',#569);
#569 = CARTESIAN_POINT('',(7.25,-23.7,25.75));
#570 = LINE('',#571,#572);
#571 = CARTESIAN_POINT('',(7.25,-30.35,25.75));
#572 = VECTOR('',#573,1.);
#573 = DIRECTION('',(0.,1.,0.));
#574 = ORIENTED_EDGE('',*,*,#575,.T.);
#575 = EDGE_CURVE('',#568,#521,#576,.T.);
#576 = LINE('',#577,#578);
#577 = CARTESIAN_POINT('',(1.375,-23.7,31.625));
#578 = VECTOR('',#579,1.);
#579 = DIRECTION('',(0.707106781187,0.,-0.707106781187));
#580 = ORIENTED_EDGE('',*,*,#520,.F.);
#581 = PLANE('',#582);
#582 = AXIS2_PLACEMENT_3D('',#583,#584,#585);
#583 = CARTESIAN_POINT('',(7.25,-30.35,25.75));
#584 = DIRECTION('',(-0.707106781187,0.,-0.707106781187));
#585 = DIRECTION('',(0.707106781187,0.,-0.707106781187));
#586 = ADVANCED_FACE('',(#587),#605,.F.);
#587 = FACE_BOUND('',#588,.F.);
#588 = EDGE_LOOP('',(#589,#590,#591,#599));
#589 = ORIENTED_EDGE('',*,*,#232,.F.);
#590 = ORIENTED_EDGE('',*,*,#552,.T.);
#591 = ORIENTED_EDGE('',*,*,#592,.F.);
#592 = EDGE_CURVE('',#593,#545,#595,.T.);
#593 = VERTEX_POINT('',#594);
#594 = CARTESIAN_POINT('',(16.75,-24.,58.25));
#595 = LINE('',#596,#597);
#596 = CARTESIAN_POINT('',(16.75,-24.,33.875));
#597 = VECTOR('',#598,1.);
#598 = DIRECTION('',(0.,0.,-1.));
#599 = ORIENTED_EDGE('',*,*,#600,.F.);
#600 = EDGE_CURVE('',#225,#593,#601,.T.);
#601 = LINE('',#602,#603);
#602 = CARTESIAN_POINT('',(16.75,-30.35,58.25));
#603 = VECTOR('',#604,1.);
#604 = DIRECTION('',(0.,1.,0.));
#605 = PLANE('',#606);
#606 = AXIS2_PLACEMENT_3D('',#607,#608,#609);
#607 = CARTESIAN_POINT('',(16.75,-30.35,25.75));
#608 = DIRECTION('',(1.,0.,0.));
#609 = DIRECTION('',(0.,0.,1.));
#610 = ADVANCED_FACE('',(#611),#629,.F.);
#611 = FACE_BOUND('',#612,.F.);
#612 = EDGE_LOOP('',(#613,#614,#622,#628));
#613 = ORIENTED_EDGE('',*,*,#208,.F.);
#614 = ORIENTED_EDGE('',*,*,#615,.T.);
#615 = EDGE_CURVE('',#209,#616,#618,.T.);
#616 = VERTEX_POINT('',#617);
#617 = CARTESIAN_POINT('',(7.25,-23.7,58.25));
#618 = LINE('',#619,#620);
#619 = CARTESIAN_POINT('',(7.25,-30.35,58.25));
#620 = VECTOR('',#621,1.);
#621 = DIRECTION('',(0.,1.,0.));
#622 = ORIENTED_EDGE('',*,*,#623,.T.);
#623 = EDGE_CURVE('',#616,#568,#624,.T.);
#624 = LINE('',#625,#626);
#625 = CARTESIAN_POINT('',(7.25,-23.7,50.125));
#626 = VECTOR('',#627,1.);
#627 = DIRECTION('',(0.,0.,-1.));
#628 = ORIENTED_EDGE('',*,*,#567,.F.);
#629 = PLANE('',#630);
#630 = AXIS2_PLACEMENT_3D('',#631,#632,#633);
#631 = CARTESIAN_POINT('',(7.25,-30.35,58.25));
#632 = DIRECTION('',(-1.,0.,0.));
#633 = DIRECTION('',(0.,0.,-1.));
#634 = ADVANCED_FACE('',(#635),#669,.F.);
#635 = FACE_BOUND('',#636,.F.);
#636 = EDGE_LOOP('',(#637,#638,#639,#647,#655,#663));
#637 = ORIENTED_EDGE('',*,*,#224,.F.);
#638 = ORIENTED_EDGE('',*,*,#600,.T.);
#639 = ORIENTED_EDGE('',*,*,#640,.F.);
#640 = EDGE_CURVE('',#641,#593,#643,.T.);
#641 = VERTEX_POINT('',#642);
#642 = CARTESIAN_POINT('',(13.344700460829,-24.,61.65529953917));
#643 = LINE('',#644,#645);
#644 = CARTESIAN_POINT('',(16.625,-24.,58.375));
#645 = VECTOR('',#646,1.);
#646 = DIRECTION('',(0.707106781187,0.,-0.707106781187));
#647 = ORIENTED_EDGE('',*,*,#648,.F.);
#648 = EDGE_CURVE('',#649,#641,#651,.T.);
#649 = VERTEX_POINT('',#650);
#650 = CARTESIAN_POINT('',(13.261751152074,-23.7,61.738248847926));
#651 = LINE('',#652,#653);
#652 = CARTESIAN_POINT('',(16.285971375417,-34.63759647442,
    58.714028624583));
#653 = VECTOR('',#654,1.);
#654 = DIRECTION('',(0.257510729614,-0.931330472103,-0.257510729614));
#655 = ORIENTED_EDGE('',*,*,#656,.T.);
#656 = EDGE_CURVE('',#649,#657,#659,.T.);
#657 = VERTEX_POINT('',#658);
#658 = CARTESIAN_POINT('',(12.,-23.7,63.));
#659 = LINE('',#660,#661);
#660 = CARTESIAN_POINT('',(16.625,-23.7,58.375));
#661 = VECTOR('',#662,1.);
#662 = DIRECTION('',(-0.707106781187,0.,0.707106781187));
#663 = ORIENTED_EDGE('',*,*,#664,.F.);
#664 = EDGE_CURVE('',#217,#657,#665,.T.);
#665 = LINE('',#666,#667);
#666 = CARTESIAN_POINT('',(12.,-30.35,63.));
#667 = VECTOR('',#668,1.);
#668 = DIRECTION('',(0.,1.,0.));
#669 = PLANE('',#670);
#670 = AXIS2_PLACEMENT_3D('',#671,#672,#673);
#671 = CARTESIAN_POINT('',(16.75,-30.35,58.25));
#672 = DIRECTION('',(0.707106781187,0.,0.707106781187));
#673 = DIRECTION('',(-0.707106781187,0.,0.707106781187));
#674 = ADVANCED_FACE('',(#675),#686,.F.);
#675 = FACE_BOUND('',#676,.F.);
#676 = EDGE_LOOP('',(#677,#678,#679,#685));
#677 = ORIENTED_EDGE('',*,*,#216,.F.);
#678 = ORIENTED_EDGE('',*,*,#664,.T.);
#679 = ORIENTED_EDGE('',*,*,#680,.T.);
#680 = EDGE_CURVE('',#657,#616,#681,.T.);
#681 = LINE('',#682,#683);
#682 = CARTESIAN_POINT('',(3.75,-23.7,54.75));
#683 = VECTOR('',#684,1.);
#684 = DIRECTION('',(-0.707106781187,0.,-0.707106781187));
#685 = ORIENTED_EDGE('',*,*,#615,.F.);
#686 = PLANE('',#687);
#687 = AXIS2_PLACEMENT_3D('',#688,#689,#690);
#688 = CARTESIAN_POINT('',(12.,-30.35,63.));
#689 = DIRECTION('',(-0.707106781187,0.,0.707106781187));
#690 = DIRECTION('',(-0.707106781187,0.,-0.707106781187));
#691 = ADVANCED_FACE('',(#692),#717,.F.);
#692 = FACE_BOUND('',#693,.F.);
#693 = EDGE_LOOP('',(#694,#704,#710,#711));
#694 = ORIENTED_EDGE('',*,*,#695,.T.);
#695 = EDGE_CURVE('',#696,#698,#700,.T.);
#696 = VERTEX_POINT('',#697);
#697 = CARTESIAN_POINT('',(-19.,-21.,0.));
#698 = VERTEX_POINT('',#699);
#699 = CARTESIAN_POINT('',(-19.,-21.,4.));
#700 = LINE('',#701,#702);
#701 = CARTESIAN_POINT('',(-19.,-21.,0.));
#702 = VECTOR('',#703,1.);
#703 = DIRECTION('',(0.,0.,1.));
#704 = ORIENTED_EDGE('',*,*,#705,.T.);
#705 = EDGE_CURVE('',#698,#249,#706,.T.);
#706 = LINE('',#707,#708);
#707 = CARTESIAN_POINT('',(-19.,-21.,4.));
#708 = VECTOR('',#709,1.);
#709 = DIRECTION('',(0.707106781187,-0.707106781187,0.));
#710 = ORIENTED_EDGE('',*,*,#246,.F.);
#711 = ORIENTED_EDGE('',*,*,#712,.F.);
#712 = EDGE_CURVE('',#696,#247,#713,.T.);
#713 = LINE('',#714,#715);
#714 = CARTESIAN_POINT('',(-19.,-21.,0.));
#715 = VECTOR('',#716,1.);
#716 = DIRECTION('',(0.707106781187,-0.707106781187,0.));
#717 = PLANE('',#718);
#718 = AXIS2_PLACEMENT_3D('',#719,#720,#721);
#719 = CARTESIAN_POINT('',(-19.,-21.,0.));
#720 = DIRECTION('',(0.707106781187,0.707106781187,0.));
#721 = DIRECTION('',(0.707106781187,-0.707106781187,0.));
#722 = ADVANCED_FACE('',(#723),#748,.F.);
#723 = FACE_BOUND('',#724,.F.);
#724 = EDGE_LOOP('',(#725,#726,#734,#742));
#725 = ORIENTED_EDGE('',*,*,#271,.T.);
#726 = ORIENTED_EDGE('',*,*,#727,.T.);
#727 = EDGE_CURVE('',#264,#728,#730,.T.);
#728 = VERTEX_POINT('',#729);
#729 = CARTESIAN_POINT('',(19.,-21.,4.));
#730 = LINE('',#731,#732);
#731 = CARTESIAN_POINT('',(16.,-24.,4.));
#732 = VECTOR('',#733,1.);
#733 = DIRECTION('',(0.707106781187,0.707106781187,0.));
#734 = ORIENTED_EDGE('',*,*,#735,.F.);
#735 = EDGE_CURVE('',#736,#728,#738,.T.);
#736 = VERTEX_POINT('',#737);
#737 = CARTESIAN_POINT('',(19.,-21.,0.));
#738 = LINE('',#739,#740);
#739 = CARTESIAN_POINT('',(19.,-21.,0.));
#740 = VECTOR('',#741,1.);
#741 = DIRECTION('',(0.,0.,1.));
#742 = ORIENTED_EDGE('',*,*,#743,.F.);
#743 = EDGE_CURVE('',#272,#736,#744,.T.);
#744 = LINE('',#745,#746);
#745 = CARTESIAN_POINT('',(16.,-24.,0.));
#746 = VECTOR('',#747,1.);
#747 = DIRECTION('',(0.707106781187,0.707106781187,0.));
#748 = PLANE('',#749);
#749 = AXIS2_PLACEMENT_3D('',#750,#751,#752);
#750 = CARTESIAN_POINT('',(16.,-24.,0.));
#751 = DIRECTION('',(-0.707106781187,0.707106781187,0.));
#752 = DIRECTION('',(0.707106781187,0.707106781187,0.));
#753 = ADVANCED_FACE('',(#754),#788,.T.);
#754 = FACE_BOUND('',#755,.T.);
#755 = EDGE_LOOP('',(#756,#764,#765,#766,#774,#782));
#756 = ORIENTED_EDGE('',*,*,#757,.T.);
#757 = EDGE_CURVE('',#758,#698,#760,.T.);
#758 = VERTEX_POINT('',#759);
#759 = CARTESIAN_POINT('',(-19.,-16.5,4.));
#760 = LINE('',#761,#762);
#761 = CARTESIAN_POINT('',(-19.,-16.5,4.));
#762 = VECTOR('',#763,1.);
#763 = DIRECTION('',(0.,-1.,0.));
#764 = ORIENTED_EDGE('',*,*,#705,.T.);
#765 = ORIENTED_EDGE('',*,*,#256,.T.);
#766 = ORIENTED_EDGE('',*,*,#767,.T.);
#767 = EDGE_CURVE('',#32,#768,#770,.T.);
#768 = VERTEX_POINT('',#769);
#769 = CARTESIAN_POINT('',(-15.,-13.5,4.));
#770 = LINE('',#771,#772);
#771 = CARTESIAN_POINT('',(-15.,-30.,4.));
#772 = VECTOR('',#773,1.);
#773 = DIRECTION('',(0.,1.,0.));
#774 = ORIENTED_EDGE('',*,*,#775,.T.);
#775 = EDGE_CURVE('',#768,#776,#778,.T.);
#776 = VERTEX_POINT('',#777);
#777 = CARTESIAN_POINT('',(-16.,-13.5,4.));
#778 = LINE('',#779,#780);
#779 = CARTESIAN_POINT('',(16.,-13.5,4.));
#780 = VECTOR('',#781,1.);
#781 = DIRECTION('',(-1.,0.,0.));
#782 = ORIENTED_EDGE('',*,*,#783,.T.);
#783 = EDGE_CURVE('',#776,#758,#784,.T.);
#784 = LINE('',#785,#786);
#785 = CARTESIAN_POINT('',(-16.,-13.5,4.));
#786 = VECTOR('',#787,1.);
#787 = DIRECTION('',(-0.707106781187,-0.707106781187,0.));
#788 = PLANE('',#789);
#789 = AXIS2_PLACEMENT_3D('',#790,#791,#792);
#790 = CARTESIAN_POINT('',(3.948751202916E-16,-18.75,4.));
#791 = DIRECTION('',(0.,0.,1.));
#792 = DIRECTION('',(1.,0.,0.));
#793 = ADVANCED_FACE('',(#794),#828,.T.);
#794 = FACE_BOUND('',#795,.T.);
#795 = EDGE_LOOP('',(#796,#804,#805,#806,#814,#822));
#796 = ORIENTED_EDGE('',*,*,#797,.F.);
#797 = EDGE_CURVE('',#40,#798,#800,.T.);
#798 = VERTEX_POINT('',#799);
#799 = CARTESIAN_POINT('',(15.,-13.5,4.));
#800 = LINE('',#801,#802);
#801 = CARTESIAN_POINT('',(15.,-24.,4.));
#802 = VECTOR('',#803,1.);
#803 = DIRECTION('',(0.,1.,0.));
#804 = ORIENTED_EDGE('',*,*,#263,.T.);
#805 = ORIENTED_EDGE('',*,*,#727,.T.);
#806 = ORIENTED_EDGE('',*,*,#807,.T.);
#807 = EDGE_CURVE('',#728,#808,#810,.T.);
#808 = VERTEX_POINT('',#809);
#809 = CARTESIAN_POINT('',(19.,-16.5,4.));
#810 = LINE('',#811,#812);
#811 = CARTESIAN_POINT('',(19.,-21.,4.));
#812 = VECTOR('',#813,1.);
#813 = DIRECTION('',(0.,1.,0.));
#814 = ORIENTED_EDGE('',*,*,#815,.T.);
#815 = EDGE_CURVE('',#808,#816,#818,.T.);
#816 = VERTEX_POINT('',#817);
#817 = CARTESIAN_POINT('',(16.,-13.5,4.));
#818 = LINE('',#819,#820);
#819 = CARTESIAN_POINT('',(19.,-16.5,4.));
#820 = VECTOR('',#821,1.);
#821 = DIRECTION('',(-0.707106781187,0.707106781187,0.));
#822 = ORIENTED_EDGE('',*,*,#823,.T.);
#823 = EDGE_CURVE('',#816,#798,#824,.T.);
#824 = LINE('',#825,#826);
#825 = CARTESIAN_POINT('',(16.,-13.5,4.));
#826 = VECTOR('',#827,1.);
#827 = DIRECTION('',(-1.,0.,0.));
#828 = PLANE('',#829);
#829 = AXIS2_PLACEMENT_3D('',#830,#831,#832);
#830 = CARTESIAN_POINT('',(3.948751202916E-16,-18.75,4.));
#831 = DIRECTION('',(0.,0.,1.));
#832 = DIRECTION('',(1.,0.,0.));
#833 = ADVANCED_FACE('',(#834,#890,#901),#912,.F.);
#834 = FACE_BOUND('',#835,.F.);
#835 = EDGE_LOOP('',(#836,#844,#852,#858,#859,#860,#861,#862,#863,#871,
    #879,#885,#886,#887,#888,#889));
#836 = ORIENTED_EDGE('',*,*,#837,.F.);
#837 = EDGE_CURVE('',#838,#342,#840,.T.);
#838 = VERTEX_POINT('',#839);
#839 = CARTESIAN_POINT('',(-13.26175115207,-23.7,4.));
#840 = LINE('',#841,#842);
#841 = CARTESIAN_POINT('',(-13.26175115207,-23.7,22.75));
#842 = VECTOR('',#843,1.);
#843 = DIRECTION('',(0.,0.,1.));
#844 = ORIENTED_EDGE('',*,*,#845,.T.);
#845 = EDGE_CURVE('',#838,#846,#848,.T.);
#846 = VERTEX_POINT('',#847);
#847 = CARTESIAN_POINT('',(13.261751152074,-23.7,4.));
#848 = LINE('',#849,#850);
#849 = CARTESIAN_POINT('',(-15.,-23.7,4.));
#850 = VECTOR('',#851,1.);
#851 = DIRECTION('',(1.,0.,0.));
#852 = ORIENTED_EDGE('',*,*,#853,.F.);
#853 = EDGE_CURVE('',#529,#846,#854,.T.);
#854 = LINE('',#855,#856);
#855 = CARTESIAN_POINT('',(13.261751152074,-23.7,22.75));
#856 = VECTOR('',#857,1.);
#857 = DIRECTION('',(0.,0.,-1.));
#858 = ORIENTED_EDGE('',*,*,#528,.F.);
#859 = ORIENTED_EDGE('',*,*,#575,.F.);
#860 = ORIENTED_EDGE('',*,*,#623,.F.);
#861 = ORIENTED_EDGE('',*,*,#680,.F.);
#862 = ORIENTED_EDGE('',*,*,#656,.F.);
#863 = ORIENTED_EDGE('',*,*,#864,.F.);
#864 = EDGE_CURVE('',#865,#649,#867,.T.);
#865 = VERTEX_POINT('',#866);
#866 = CARTESIAN_POINT('',(13.261751152074,-23.7,80.));
#867 = LINE('',#868,#869);
#868 = CARTESIAN_POINT('',(13.261751152074,-23.7,22.75));
#869 = VECTOR('',#870,1.);
#870 = DIRECTION('',(0.,0.,-1.));
#871 = ORIENTED_EDGE('',*,*,#872,.T.);
#872 = EDGE_CURVE('',#865,#873,#875,.T.);
#873 = VERTEX_POINT('',#874);
#874 = CARTESIAN_POINT('',(-13.26175115207,-23.7,80.));
#875 = LINE('',#876,#877);
#876 = CARTESIAN_POINT('',(15.,-23.7,80.));
#877 = VECTOR('',#878,1.);
#878 = DIRECTION('',(-1.,0.,0.));
#879 = ORIENTED_EDGE('',*,*,#880,.F.);
#880 = EDGE_CURVE('',#439,#873,#881,.T.);
#881 = LINE('',#882,#883);
#882 = CARTESIAN_POINT('',(-13.26175115207,-23.7,22.75));
#883 = VECTOR('',#884,1.);
#884 = DIRECTION('',(0.,0.,1.));
#885 = ORIENTED_EDGE('',*,*,#438,.F.);
#886 = ORIENTED_EDGE('',*,*,#414,.F.);
#887 = ORIENTED_EDGE('',*,*,#366,.F.);
#888 = ORIENTED_EDGE('',*,*,#302,.F.);
#889 = ORIENTED_EDGE('',*,*,#349,.F.);
#890 = FACE_BOUND('',#891,.F.);
#891 = EDGE_LOOP('',(#892));
#892 = ORIENTED_EDGE('',*,*,#893,.T.);
#893 = EDGE_CURVE('',#894,#894,#896,.T.);
#894 = VERTEX_POINT('',#895);
#895 = CARTESIAN_POINT('',(-6.490628035481E-16,-23.7,61.3125));
#896 = CIRCLE('',#897,2.65);
#897 = AXIS2_PLACEMENT_3D('',#898,#899,#900);
#898 = CARTESIAN_POINT('',(0.,-23.7,58.6625));
#899 = DIRECTION('',(0.,1.,0.));
#900 = DIRECTION('',(0.,0.,1.));
#901 = FACE_BOUND('',#902,.F.);
#902 = EDGE_LOOP('',(#903));
#903 = ORIENTED_EDGE('',*,*,#904,.T.);
#904 = EDGE_CURVE('',#905,#905,#907,.T.);
#905 = VERTEX_POINT('',#906);
#906 = CARTESIAN_POINT('',(-6.490628035481E-16,-23.7,27.9875));
#907 = CIRCLE('',#908,2.65);
#908 = AXIS2_PLACEMENT_3D('',#909,#910,#911);
#909 = CARTESIAN_POINT('',(0.,-23.7,25.3375));
#910 = DIRECTION('',(0.,1.,0.));
#911 = DIRECTION('',(0.,0.,1.));
#912 = PLANE('',#913);
#913 = AXIS2_PLACEMENT_3D('',#914,#915,#916);
#914 = CARTESIAN_POINT('',(-6.175031551311E-16,-23.7,42.));
#915 = DIRECTION('',(-0.,-1.,-0.));
#916 = DIRECTION('',(0.,0.,-1.));
#917 = ADVANCED_FACE('',(#918),#952,.T.);
#918 = FACE_BOUND('',#919,.T.);
#919 = EDGE_LOOP('',(#920,#928,#936,#942,#943,#944,#950,#951));
#920 = ORIENTED_EDGE('',*,*,#921,.F.);
#921 = EDGE_CURVE('',#922,#838,#924,.T.);
#922 = VERTEX_POINT('',#923);
#923 = CARTESIAN_POINT('',(-10.44147465437,-13.5,4.));
#924 = LINE('',#925,#926);
#925 = CARTESIAN_POINT('',(-11.93113101461,-18.88759050287,4.));
#926 = VECTOR('',#927,1.);
#927 = DIRECTION('',(-0.266498266647,-0.963835397708,-0.));
#928 = ORIENTED_EDGE('',*,*,#929,.T.);
#929 = EDGE_CURVE('',#922,#930,#932,.T.);
#930 = VERTEX_POINT('',#931);
#931 = CARTESIAN_POINT('',(-10.44147465437,-13.5,80.));
#932 = LINE('',#933,#934);
#933 = CARTESIAN_POINT('',(-10.44147465437,-13.5,22.75));
#934 = VECTOR('',#935,1.);
#935 = DIRECTION('',(0.,0.,1.));
#936 = ORIENTED_EDGE('',*,*,#937,.F.);
#937 = EDGE_CURVE('',#873,#930,#938,.T.);
#938 = LINE('',#939,#940);
#939 = CARTESIAN_POINT('',(-10.86581112272,-15.03468356053,80.));
#940 = VECTOR('',#941,1.);
#941 = DIRECTION('',(0.266498266647,0.963835397708,0.));
#942 = ORIENTED_EDGE('',*,*,#880,.F.);
#943 = ORIENTED_EDGE('',*,*,#446,.F.);
#944 = ORIENTED_EDGE('',*,*,#945,.F.);
#945 = EDGE_CURVE('',#334,#447,#946,.T.);
#946 = LINE('',#947,#948);
#947 = CARTESIAN_POINT('',(-13.34470046082,-24.,22.75));
#948 = VECTOR('',#949,1.);
#949 = DIRECTION('',(0.,0.,1.));
#950 = ORIENTED_EDGE('',*,*,#341,.F.);
#951 = ORIENTED_EDGE('',*,*,#837,.F.);
#952 = PLANE('',#953);
#953 = AXIS2_PLACEMENT_3D('',#954,#955,#956);
#954 = CARTESIAN_POINT('',(-10.4,-13.35,3.5));
#955 = DIRECTION('',(0.963835397708,-0.266498266647,0.));
#956 = DIRECTION('',(-0.266498266647,-0.963835397708,0.));
#957 = ADVANCED_FACE('',(#958),#964,.T.);
#958 = FACE_BOUND('',#959,.T.);
#959 = EDGE_LOOP('',(#960,#961,#962,#963));
#960 = ORIENTED_EDGE('',*,*,#333,.F.);
#961 = ORIENTED_EDGE('',*,*,#945,.T.);
#962 = ORIENTED_EDGE('',*,*,#454,.F.);
#963 = ORIENTED_EDGE('',*,*,#397,.F.);
#964 = PLANE('',#965);
#965 = AXIS2_PLACEMENT_3D('',#966,#967,#968);
#966 = CARTESIAN_POINT('',(-6.175031551311E-16,-24.,42.));
#967 = DIRECTION('',(-0.,-1.,-0.));
#968 = DIRECTION('',(0.,0.,-1.));
#969 = ADVANCED_FACE('',(#970,#981),#984,.F.);
#970 = FACE_BOUND('',#971,.F.);
#971 = EDGE_LOOP('',(#972));
#972 = ORIENTED_EDGE('',*,*,#973,.T.);
#973 = EDGE_CURVE('',#974,#974,#976,.T.);
#974 = VERTEX_POINT('',#975);
#975 = CARTESIAN_POINT('',(-1.126675055216E-15,-28.,54.0625));
#976 = CIRCLE('',#977,4.6);
#977 = AXIS2_PLACEMENT_3D('',#978,#979,#980);
#978 = CARTESIAN_POINT('',(0.,-28.,58.6625));
#979 = DIRECTION('',(0.,-1.,0.));
#980 = DIRECTION('',(0.,0.,-1.));
#981 = FACE_BOUND('',#982,.F.);
#982 = EDGE_LOOP('',(#983));
#983 = ORIENTED_EDGE('',*,*,#469,.T.);
#984 = PLANE('',#985);
#985 = AXIS2_PLACEMENT_3D('',#986,#987,#988);
#986 = CARTESIAN_POINT('',(0.,-28.,58.6625));
#987 = DIRECTION('',(0.,-1.,0.));
#988 = DIRECTION('',(0.,0.,-1.));
#989 = ADVANCED_FACE('',(#990,#1001),#1004,.F.);
#990 = FACE_BOUND('',#991,.F.);
#991 = EDGE_LOOP('',(#992));
#992 = ORIENTED_EDGE('',*,*,#993,.T.);
#993 = EDGE_CURVE('',#994,#994,#996,.T.);
#994 = VERTEX_POINT('',#995);
#995 = CARTESIAN_POINT('',(-1.126675055216E-15,-28.,20.7375));
#996 = CIRCLE('',#997,4.6);
#997 = AXIS2_PLACEMENT_3D('',#998,#999,#1000);
#998 = CARTESIAN_POINT('',(0.,-28.,25.3375));
#999 = DIRECTION('',(0.,-1.,0.));
#1000 = DIRECTION('',(0.,0.,-1.));
#1001 = FACE_BOUND('',#1002,.F.);
#1002 = EDGE_LOOP('',(#1003));
#1003 = ORIENTED_EDGE('',*,*,#494,.T.);
#1004 = PLANE('',#1005);
#1005 = AXIS2_PLACEMENT_3D('',#1006,#1007,#1008);
#1006 = CARTESIAN_POINT('',(0.,-28.,25.3375));
#1007 = DIRECTION('',(0.,-1.,0.));
#1008 = DIRECTION('',(0.,0.,-1.));
#1009 = ADVANCED_FACE('',(#1010),#1021,.T.);
#1010 = FACE_BOUND('',#1011,.T.);
#1011 = EDGE_LOOP('',(#1012,#1013,#1019,#1020));
#1012 = ORIENTED_EDGE('',*,*,#640,.F.);
#1013 = ORIENTED_EDGE('',*,*,#1014,.T.);
#1014 = EDGE_CURVE('',#641,#537,#1015,.T.);
#1015 = LINE('',#1016,#1017);
#1016 = CARTESIAN_POINT('',(13.344700460829,-24.,22.75));
#1017 = VECTOR('',#1018,1.);
#1018 = DIRECTION('',(0.,0.,-1.));
#1019 = ORIENTED_EDGE('',*,*,#544,.F.);
#1020 = ORIENTED_EDGE('',*,*,#592,.F.);
#1021 = PLANE('',#1022);
#1022 = AXIS2_PLACEMENT_3D('',#1023,#1024,#1025);
#1023 = CARTESIAN_POINT('',(-6.175031551311E-16,-24.,42.));
#1024 = DIRECTION('',(-0.,-1.,-0.));
#1025 = DIRECTION('',(0.,0.,-1.));
#1026 = ADVANCED_FACE('',(#1027),#1056,.T.);
#1027 = FACE_BOUND('',#1028,.T.);
#1028 = EDGE_LOOP('',(#1029,#1037,#1038,#1039,#1040,#1041,#1042,#1050));
#1029 = ORIENTED_EDGE('',*,*,#1030,.F.);
#1030 = EDGE_CURVE('',#846,#1031,#1033,.T.);
#1031 = VERTEX_POINT('',#1032);
#1032 = CARTESIAN_POINT('',(10.441474654378,-13.5,4.));
#1033 = LINE('',#1034,#1035);
#1034 = CARTESIAN_POINT('',(12.365811122729,-20.45968356053,4.));
#1035 = VECTOR('',#1036,1.);
#1036 = DIRECTION('',(-0.266498266647,0.963835397708,0.));
#1037 = ORIENTED_EDGE('',*,*,#853,.F.);
#1038 = ORIENTED_EDGE('',*,*,#536,.F.);
#1039 = ORIENTED_EDGE('',*,*,#1014,.F.);
#1040 = ORIENTED_EDGE('',*,*,#648,.F.);
#1041 = ORIENTED_EDGE('',*,*,#864,.F.);
#1042 = ORIENTED_EDGE('',*,*,#1043,.F.);
#1043 = EDGE_CURVE('',#1044,#865,#1046,.T.);
#1044 = VERTEX_POINT('',#1045);
#1045 = CARTESIAN_POINT('',(10.441474654378,-13.5,80.));
#1046 = LINE('',#1047,#1048);
#1047 = CARTESIAN_POINT('',(13.431131014619,-24.31259050287,80.));
#1048 = VECTOR('',#1049,1.);
#1049 = DIRECTION('',(0.266498266647,-0.963835397708,0.));
#1050 = ORIENTED_EDGE('',*,*,#1051,.T.);
#1051 = EDGE_CURVE('',#1044,#1031,#1052,.T.);
#1052 = LINE('',#1053,#1054);
#1053 = CARTESIAN_POINT('',(10.441474654378,-13.5,22.75));
#1054 = VECTOR('',#1055,1.);
#1055 = DIRECTION('',(0.,0.,-1.));
#1056 = PLANE('',#1057);
#1057 = AXIS2_PLACEMENT_3D('',#1058,#1059,#1060);
#1058 = CARTESIAN_POINT('',(13.4,-24.2,3.5));
#1059 = DIRECTION('',(-0.963835397708,-0.266498266647,0.));
#1060 = DIRECTION('',(-0.266498266647,0.963835397708,0.));
#1061 = ADVANCED_FACE('',(#1062),#1080,.F.);
#1062 = FACE_BOUND('',#1063,.F.);
#1063 = EDGE_LOOP('',(#1064,#1072,#1073,#1074));
#1064 = ORIENTED_EDGE('',*,*,#1065,.T.);
#1065 = EDGE_CURVE('',#1066,#758,#1068,.T.);
#1066 = VERTEX_POINT('',#1067);
#1067 = CARTESIAN_POINT('',(-19.,-16.5,0.));
#1068 = LINE('',#1069,#1070);
#1069 = CARTESIAN_POINT('',(-19.,-16.5,0.));
#1070 = VECTOR('',#1071,1.);
#1071 = DIRECTION('',(0.,0.,1.));
#1072 = ORIENTED_EDGE('',*,*,#757,.T.);
#1073 = ORIENTED_EDGE('',*,*,#695,.F.);
#1074 = ORIENTED_EDGE('',*,*,#1075,.F.);
#1075 = EDGE_CURVE('',#1066,#696,#1076,.T.);
#1076 = LINE('',#1077,#1078);
#1077 = CARTESIAN_POINT('',(-19.,-16.5,0.));
#1078 = VECTOR('',#1079,1.);
#1079 = DIRECTION('',(0.,-1.,0.));
#1080 = PLANE('',#1081);
#1081 = AXIS2_PLACEMENT_3D('',#1082,#1083,#1084);
#1082 = CARTESIAN_POINT('',(-19.,-16.5,0.));
#1083 = DIRECTION('',(1.,0.,0.));
#1084 = DIRECTION('',(0.,-1.,0.));
#1085 = ADVANCED_FACE('',(#1086),#1104,.F.);
#1086 = FACE_BOUND('',#1087,.F.);
#1087 = EDGE_LOOP('',(#1088,#1089,#1090,#1098));
#1088 = ORIENTED_EDGE('',*,*,#735,.T.);
#1089 = ORIENTED_EDGE('',*,*,#807,.T.);
#1090 = ORIENTED_EDGE('',*,*,#1091,.F.);
#1091 = EDGE_CURVE('',#1092,#808,#1094,.T.);
#1092 = VERTEX_POINT('',#1093);
#1093 = CARTESIAN_POINT('',(19.,-16.5,0.));
#1094 = LINE('',#1095,#1096);
#1095 = CARTESIAN_POINT('',(19.,-16.5,0.));
#1096 = VECTOR('',#1097,1.);
#1097 = DIRECTION('',(0.,0.,1.));
#1098 = ORIENTED_EDGE('',*,*,#1099,.F.);
#1099 = EDGE_CURVE('',#736,#1092,#1100,.T.);
#1100 = LINE('',#1101,#1102);
#1101 = CARTESIAN_POINT('',(19.,-21.,0.));
#1102 = VECTOR('',#1103,1.);
#1103 = DIRECTION('',(0.,1.,0.));
#1104 = PLANE('',#1105);
#1105 = AXIS2_PLACEMENT_3D('',#1106,#1107,#1108);
#1106 = CARTESIAN_POINT('',(19.,-21.,0.));
#1107 = DIRECTION('',(-1.,0.,0.));
#1108 = DIRECTION('',(0.,1.,0.));
#1109 = ADVANCED_FACE('',(#1110),#1128,.F.);
#1110 = FACE_BOUND('',#1111,.F.);
#1111 = EDGE_LOOP('',(#1112,#1120,#1121,#1122));
#1112 = ORIENTED_EDGE('',*,*,#1113,.T.);
#1113 = EDGE_CURVE('',#1114,#776,#1116,.T.);
#1114 = VERTEX_POINT('',#1115);
#1115 = CARTESIAN_POINT('',(-16.,-13.5,0.));
#1116 = LINE('',#1117,#1118);
#1117 = CARTESIAN_POINT('',(-16.,-13.5,0.));
#1118 = VECTOR('',#1119,1.);
#1119 = DIRECTION('',(0.,0.,1.));
#1120 = ORIENTED_EDGE('',*,*,#783,.T.);
#1121 = ORIENTED_EDGE('',*,*,#1065,.F.);
#1122 = ORIENTED_EDGE('',*,*,#1123,.F.);
#1123 = EDGE_CURVE('',#1114,#1066,#1124,.T.);
#1124 = LINE('',#1125,#1126);
#1125 = CARTESIAN_POINT('',(-16.,-13.5,0.));
#1126 = VECTOR('',#1127,1.);
#1127 = DIRECTION('',(-0.707106781187,-0.707106781187,0.));
#1128 = PLANE('',#1129);
#1129 = AXIS2_PLACEMENT_3D('',#1130,#1131,#1132);
#1130 = CARTESIAN_POINT('',(-16.,-13.5,0.));
#1131 = DIRECTION('',(0.707106781187,-0.707106781187,0.));
#1132 = DIRECTION('',(-0.707106781187,-0.707106781187,0.));
#1133 = ADVANCED_FACE('',(#1134),#1152,.F.);
#1134 = FACE_BOUND('',#1135,.F.);
#1135 = EDGE_LOOP('',(#1136,#1137,#1138,#1146));
#1136 = ORIENTED_EDGE('',*,*,#1091,.T.);
#1137 = ORIENTED_EDGE('',*,*,#815,.T.);
#1138 = ORIENTED_EDGE('',*,*,#1139,.F.);
#1139 = EDGE_CURVE('',#1140,#816,#1142,.T.);
#1140 = VERTEX_POINT('',#1141);
#1141 = CARTESIAN_POINT('',(16.,-13.5,0.));
#1142 = LINE('',#1143,#1144);
#1143 = CARTESIAN_POINT('',(16.,-13.5,0.));
#1144 = VECTOR('',#1145,1.);
#1145 = DIRECTION('',(0.,0.,1.));
#1146 = ORIENTED_EDGE('',*,*,#1147,.F.);
#1147 = EDGE_CURVE('',#1092,#1140,#1148,.T.);
#1148 = LINE('',#1149,#1150);
#1149 = CARTESIAN_POINT('',(19.,-16.5,0.));
#1150 = VECTOR('',#1151,1.);
#1151 = DIRECTION('',(-0.707106781187,0.707106781187,0.));
#1152 = PLANE('',#1153);
#1153 = AXIS2_PLACEMENT_3D('',#1154,#1155,#1156);
#1154 = CARTESIAN_POINT('',(19.,-16.5,0.));
#1155 = DIRECTION('',(-0.707106781187,-0.707106781187,0.));
#1156 = DIRECTION('',(-0.707106781187,0.707106781187,0.));
#1157 = ADVANCED_FACE('',(#1158),#1177,.F.);
#1158 = FACE_BOUND('',#1159,.F.);
#1159 = EDGE_LOOP('',(#1160,#1168,#1169,#1170));
#1160 = ORIENTED_EDGE('',*,*,#1161,.T.);
#1161 = EDGE_CURVE('',#1162,#894,#1164,.T.);
#1162 = VERTEX_POINT('',#1163);
#1163 = CARTESIAN_POINT('',(-6.490628035481E-16,-23.8,61.3125));
#1164 = LINE('',#1165,#1166);
#1165 = CARTESIAN_POINT('',(-6.490628035481E-16,-30.5,61.3125));
#1166 = VECTOR('',#1167,1.);
#1167 = DIRECTION('',(0.,1.,0.));
#1168 = ORIENTED_EDGE('',*,*,#893,.F.);
#1169 = ORIENTED_EDGE('',*,*,#1161,.F.);
#1170 = ORIENTED_EDGE('',*,*,#1171,.T.);
#1171 = EDGE_CURVE('',#1162,#1162,#1172,.T.);
#1172 = CIRCLE('',#1173,2.65);
#1173 = AXIS2_PLACEMENT_3D('',#1174,#1175,#1176);
#1174 = CARTESIAN_POINT('',(0.,-23.8,58.6625));
#1175 = DIRECTION('',(0.,1.,0.));
#1176 = DIRECTION('',(0.,0.,1.));
#1177 = CYLINDRICAL_SURFACE('',#1178,2.65);
#1178 = AXIS2_PLACEMENT_3D('',#1179,#1180,#1181);
#1179 = CARTESIAN_POINT('',(0.,-30.5,58.6625));
#1180 = DIRECTION('',(0.,1.,0.));
#1181 = DIRECTION('',(0.,0.,1.));
#1182 = ADVANCED_FACE('',(#1183),#1202,.F.);
#1183 = FACE_BOUND('',#1184,.F.);
#1184 = EDGE_LOOP('',(#1185,#1193,#1194,#1195));
#1185 = ORIENTED_EDGE('',*,*,#1186,.T.);
#1186 = EDGE_CURVE('',#1187,#905,#1189,.T.);
#1187 = VERTEX_POINT('',#1188);
#1188 = CARTESIAN_POINT('',(-6.490628035481E-16,-23.8,27.9875));
#1189 = LINE('',#1190,#1191);
#1190 = CARTESIAN_POINT('',(-6.490628035481E-16,-30.5,27.9875));
#1191 = VECTOR('',#1192,1.);
#1192 = DIRECTION('',(0.,1.,0.));
#1193 = ORIENTED_EDGE('',*,*,#904,.F.);
#1194 = ORIENTED_EDGE('',*,*,#1186,.F.);
#1195 = ORIENTED_EDGE('',*,*,#1196,.T.);
#1196 = EDGE_CURVE('',#1187,#1187,#1197,.T.);
#1197 = CIRCLE('',#1198,2.65);
#1198 = AXIS2_PLACEMENT_3D('',#1199,#1200,#1201);
#1199 = CARTESIAN_POINT('',(0.,-23.8,25.3375));
#1200 = DIRECTION('',(0.,1.,0.));
#1201 = DIRECTION('',(0.,0.,1.));
#1202 = CYLINDRICAL_SURFACE('',#1203,2.65);
#1203 = AXIS2_PLACEMENT_3D('',#1204,#1205,#1206);
#1204 = CARTESIAN_POINT('',(0.,-30.5,25.3375));
#1205 = DIRECTION('',(0.,1.,0.));
#1206 = DIRECTION('',(0.,0.,1.));
#1207 = ADVANCED_FACE('',(#1208),#1227,.F.);
#1208 = FACE_BOUND('',#1209,.F.);
#1209 = EDGE_LOOP('',(#1210,#1211,#1219,#1226));
#1210 = ORIENTED_EDGE('',*,*,#973,.F.);
#1211 = ORIENTED_EDGE('',*,*,#1212,.F.);
#1212 = EDGE_CURVE('',#1213,#974,#1215,.T.);
#1213 = VERTEX_POINT('',#1214);
#1214 = CARTESIAN_POINT('',(-1.126675055216E-15,-23.8,54.0625));
#1215 = LINE('',#1216,#1217);
#1216 = CARTESIAN_POINT('',(-1.126675055216E-15,-23.8,54.0625));
#1217 = VECTOR('',#1218,1.);
#1218 = DIRECTION('',(0.,-1.,0.));
#1219 = ORIENTED_EDGE('',*,*,#1220,.T.);
#1220 = EDGE_CURVE('',#1213,#1213,#1221,.T.);
#1221 = CIRCLE('',#1222,4.6);
#1222 = AXIS2_PLACEMENT_3D('',#1223,#1224,#1225);
#1223 = CARTESIAN_POINT('',(0.,-23.8,58.6625));
#1224 = DIRECTION('',(0.,-1.,0.));
#1225 = DIRECTION('',(0.,0.,-1.));
#1226 = ORIENTED_EDGE('',*,*,#1212,.T.);
#1227 = CYLINDRICAL_SURFACE('',#1228,4.6);
#1228 = AXIS2_PLACEMENT_3D('',#1229,#1230,#1231);
#1229 = CARTESIAN_POINT('',(0.,-23.8,58.6625));
#1230 = DIRECTION('',(0.,-1.,0.));
#1231 = DIRECTION('',(0.,0.,-1.));
#1232 = ADVANCED_FACE('',(#1233),#1252,.F.);
#1233 = FACE_BOUND('',#1234,.F.);
#1234 = EDGE_LOOP('',(#1235,#1236,#1244,#1251));
#1235 = ORIENTED_EDGE('',*,*,#993,.F.);
#1236 = ORIENTED_EDGE('',*,*,#1237,.F.);
#1237 = EDGE_CURVE('',#1238,#994,#1240,.T.);
#1238 = VERTEX_POINT('',#1239);
#1239 = CARTESIAN_POINT('',(-1.126675055216E-15,-23.8,20.7375));
#1240 = LINE('',#1241,#1242);
#1241 = CARTESIAN_POINT('',(-1.126675055216E-15,-23.8,20.7375));
#1242 = VECTOR('',#1243,1.);
#1243 = DIRECTION('',(0.,-1.,0.));
#1244 = ORIENTED_EDGE('',*,*,#1245,.T.);
#1245 = EDGE_CURVE('',#1238,#1238,#1246,.T.);
#1246 = CIRCLE('',#1247,4.6);
#1247 = AXIS2_PLACEMENT_3D('',#1248,#1249,#1250);
#1248 = CARTESIAN_POINT('',(0.,-23.8,25.3375));
#1249 = DIRECTION('',(0.,-1.,0.));
#1250 = DIRECTION('',(0.,0.,-1.));
#1251 = ORIENTED_EDGE('',*,*,#1237,.T.);
#1252 = CYLINDRICAL_SURFACE('',#1253,4.6);
#1253 = AXIS2_PLACEMENT_3D('',#1254,#1255,#1256);
#1254 = CARTESIAN_POINT('',(0.,-23.8,25.3375));
#1255 = DIRECTION('',(0.,-1.,0.));
#1256 = DIRECTION('',(0.,0.,-1.));
#1257 = ADVANCED_FACE('',(#1258,#1261),#1264,.T.);
#1258 = FACE_BOUND('',#1259,.T.);
#1259 = EDGE_LOOP('',(#1260));
#1260 = ORIENTED_EDGE('',*,*,#1220,.T.);
#1261 = FACE_BOUND('',#1262,.T.);
#1262 = EDGE_LOOP('',(#1263));
#1263 = ORIENTED_EDGE('',*,*,#1171,.T.);
#1264 = PLANE('',#1265);
#1265 = AXIS2_PLACEMENT_3D('',#1266,#1267,#1268);
#1266 = CARTESIAN_POINT('',(0.,-23.8,58.6625));
#1267 = DIRECTION('',(0.,-1.,0.));
#1268 = DIRECTION('',(0.,0.,-1.));
#1269 = ADVANCED_FACE('',(#1270,#1273),#1276,.T.);
#1270 = FACE_BOUND('',#1271,.T.);
#1271 = EDGE_LOOP('',(#1272));
#1272 = ORIENTED_EDGE('',*,*,#1245,.T.);
#1273 = FACE_BOUND('',#1274,.T.);
#1274 = EDGE_LOOP('',(#1275));
#1275 = ORIENTED_EDGE('',*,*,#1196,.T.);
#1276 = PLANE('',#1277);
#1277 = AXIS2_PLACEMENT_3D('',#1278,#1279,#1280);
#1278 = CARTESIAN_POINT('',(0.,-23.8,25.3375));
#1279 = DIRECTION('',(0.,-1.,0.));
#1280 = DIRECTION('',(0.,0.,-1.));
#1281 = ADVANCED_FACE('',(#1282,#1341),#1375,.T.);
#1282 = FACE_BOUND('',#1283,.T.);
#1283 = EDGE_LOOP('',(#1284,#1285,#1286,#1287,#1295,#1303,#1311,#1319,
    #1327,#1335));
#1284 = ORIENTED_EDGE('',*,*,#921,.T.);
#1285 = ORIENTED_EDGE('',*,*,#845,.T.);
#1286 = ORIENTED_EDGE('',*,*,#1030,.T.);
#1287 = ORIENTED_EDGE('',*,*,#1288,.T.);
#1288 = EDGE_CURVE('',#1031,#1289,#1291,.T.);
#1289 = VERTEX_POINT('',#1290);
#1290 = CARTESIAN_POINT('',(7.,-13.5,4.));
#1291 = LINE('',#1292,#1293);
#1292 = CARTESIAN_POINT('',(16.,-13.5,4.));
#1293 = VECTOR('',#1294,1.);
#1294 = DIRECTION('',(-1.,0.,0.));
#1295 = ORIENTED_EDGE('',*,*,#1296,.T.);
#1296 = EDGE_CURVE('',#1289,#1297,#1299,.T.);
#1297 = VERTEX_POINT('',#1298);
#1298 = CARTESIAN_POINT('',(7.,-11.,4.));
#1299 = LINE('',#1300,#1301);
#1300 = CARTESIAN_POINT('',(7.,-13.5,4.));
#1301 = VECTOR('',#1302,1.);
#1302 = DIRECTION('',(0.,1.,0.));
#1303 = ORIENTED_EDGE('',*,*,#1304,.T.);
#1304 = EDGE_CURVE('',#1297,#1305,#1307,.T.);
#1305 = VERTEX_POINT('',#1306);
#1306 = CARTESIAN_POINT('',(5.,-9.,4.));
#1307 = LINE('',#1308,#1309);
#1308 = CARTESIAN_POINT('',(7.,-11.,4.));
#1309 = VECTOR('',#1310,1.);
#1310 = DIRECTION('',(-0.707106781187,0.707106781187,0.));
#1311 = ORIENTED_EDGE('',*,*,#1312,.T.);
#1312 = EDGE_CURVE('',#1305,#1313,#1315,.T.);
#1313 = VERTEX_POINT('',#1314);
#1314 = CARTESIAN_POINT('',(-5.,-9.,4.));
#1315 = LINE('',#1316,#1317);
#1316 = CARTESIAN_POINT('',(5.,-9.,4.));
#1317 = VECTOR('',#1318,1.);
#1318 = DIRECTION('',(-1.,0.,0.));
#1319 = ORIENTED_EDGE('',*,*,#1320,.T.);
#1320 = EDGE_CURVE('',#1313,#1321,#1323,.T.);
#1321 = VERTEX_POINT('',#1322);
#1322 = CARTESIAN_POINT('',(-7.,-11.,4.));
#1323 = LINE('',#1324,#1325);
#1324 = CARTESIAN_POINT('',(-5.,-9.,4.));
#1325 = VECTOR('',#1326,1.);
#1326 = DIRECTION('',(-0.707106781187,-0.707106781187,0.));
#1327 = ORIENTED_EDGE('',*,*,#1328,.T.);
#1328 = EDGE_CURVE('',#1321,#1329,#1331,.T.);
#1329 = VERTEX_POINT('',#1330);
#1330 = CARTESIAN_POINT('',(-7.,-13.5,4.));
#1331 = LINE('',#1332,#1333);
#1332 = CARTESIAN_POINT('',(-7.,-11.,4.));
#1333 = VECTOR('',#1334,1.);
#1334 = DIRECTION('',(0.,-1.,0.));
#1335 = ORIENTED_EDGE('',*,*,#1336,.T.);
#1336 = EDGE_CURVE('',#1329,#922,#1337,.T.);
#1337 = LINE('',#1338,#1339);
#1338 = CARTESIAN_POINT('',(16.,-13.5,4.));
#1339 = VECTOR('',#1340,1.);
#1340 = DIRECTION('',(-1.,0.,0.));
#1341 = FACE_BOUND('',#1342,.T.);
#1342 = EDGE_LOOP('',(#1343,#1353,#1361,#1369));
#1343 = ORIENTED_EDGE('',*,*,#1344,.T.);
#1344 = EDGE_CURVE('',#1345,#1347,#1349,.T.);
#1345 = VERTEX_POINT('',#1346);
#1346 = CARTESIAN_POINT('',(5.,-12.4,4.));
#1347 = VERTEX_POINT('',#1348);
#1348 = CARTESIAN_POINT('',(-5.,-12.4,4.));
#1349 = LINE('',#1350,#1351);
#1350 = CARTESIAN_POINT('',(-2.5,-12.4,4.));
#1351 = VECTOR('',#1352,1.);
#1352 = DIRECTION('',(-1.,0.,0.));
#1353 = ORIENTED_EDGE('',*,*,#1354,.T.);
#1354 = EDGE_CURVE('',#1347,#1355,#1357,.T.);
#1355 = VERTEX_POINT('',#1356);
#1356 = CARTESIAN_POINT('',(-5.,-9.4,4.));
#1357 = LINE('',#1358,#1359);
#1358 = CARTESIAN_POINT('',(-5.,-12.325,4.));
#1359 = VECTOR('',#1360,1.);
#1360 = DIRECTION('',(0.,1.,0.));
#1361 = ORIENTED_EDGE('',*,*,#1362,.F.);
#1362 = EDGE_CURVE('',#1363,#1355,#1365,.T.);
#1363 = VERTEX_POINT('',#1364);
#1364 = CARTESIAN_POINT('',(5.,-9.4,4.));
#1365 = LINE('',#1366,#1367);
#1366 = CARTESIAN_POINT('',(-2.5,-9.4,4.));
#1367 = VECTOR('',#1368,1.);
#1368 = DIRECTION('',(-1.,0.,0.));
#1369 = ORIENTED_EDGE('',*,*,#1370,.F.);
#1370 = EDGE_CURVE('',#1345,#1363,#1371,.T.);
#1371 = LINE('',#1372,#1373);
#1372 = CARTESIAN_POINT('',(5.,-12.325,4.));
#1373 = VECTOR('',#1374,1.);
#1374 = DIRECTION('',(0.,1.,0.));
#1375 = PLANE('',#1376);
#1376 = AXIS2_PLACEMENT_3D('',#1377,#1378,#1379);
#1377 = CARTESIAN_POINT('',(-3.305783655246E-16,-17.58666226999,4.));
#1378 = DIRECTION('',(0.,0.,1.));
#1379 = DIRECTION('',(1.,0.,0.));
#1380 = ADVANCED_FACE('',(#1381),#1406,.F.);
#1381 = FACE_BOUND('',#1382,.F.);
#1382 = EDGE_LOOP('',(#1383,#1391,#1392,#1400));
#1383 = ORIENTED_EDGE('',*,*,#1384,.T.);
#1384 = EDGE_CURVE('',#1385,#1289,#1387,.T.);
#1385 = VERTEX_POINT('',#1386);
#1386 = CARTESIAN_POINT('',(7.,-13.5,0.));
#1387 = LINE('',#1388,#1389);
#1388 = CARTESIAN_POINT('',(7.,-13.5,0.));
#1389 = VECTOR('',#1390,1.);
#1390 = DIRECTION('',(0.,0.,1.));
#1391 = ORIENTED_EDGE('',*,*,#1296,.T.);
#1392 = ORIENTED_EDGE('',*,*,#1393,.F.);
#1393 = EDGE_CURVE('',#1394,#1297,#1396,.T.);
#1394 = VERTEX_POINT('',#1395);
#1395 = CARTESIAN_POINT('',(7.,-11.,0.));
#1396 = LINE('',#1397,#1398);
#1397 = CARTESIAN_POINT('',(7.,-11.,0.));
#1398 = VECTOR('',#1399,1.);
#1399 = DIRECTION('',(0.,0.,1.));
#1400 = ORIENTED_EDGE('',*,*,#1401,.F.);
#1401 = EDGE_CURVE('',#1385,#1394,#1402,.T.);
#1402 = LINE('',#1403,#1404);
#1403 = CARTESIAN_POINT('',(7.,-13.5,0.));
#1404 = VECTOR('',#1405,1.);
#1405 = DIRECTION('',(0.,1.,0.));
#1406 = PLANE('',#1407);
#1407 = AXIS2_PLACEMENT_3D('',#1408,#1409,#1410);
#1408 = CARTESIAN_POINT('',(7.,-13.5,0.));
#1409 = DIRECTION('',(-1.,0.,0.));
#1410 = DIRECTION('',(0.,1.,0.));
#1411 = ADVANCED_FACE('',(#1412),#1430,.F.);
#1412 = FACE_BOUND('',#1413,.F.);
#1413 = EDGE_LOOP('',(#1414,#1415,#1416,#1424));
#1414 = ORIENTED_EDGE('',*,*,#1393,.T.);
#1415 = ORIENTED_EDGE('',*,*,#1304,.T.);
#1416 = ORIENTED_EDGE('',*,*,#1417,.F.);
#1417 = EDGE_CURVE('',#1418,#1305,#1420,.T.);
#1418 = VERTEX_POINT('',#1419);
#1419 = CARTESIAN_POINT('',(5.,-9.,0.));
#1420 = LINE('',#1421,#1422);
#1421 = CARTESIAN_POINT('',(5.,-9.,0.));
#1422 = VECTOR('',#1423,1.);
#1423 = DIRECTION('',(0.,0.,1.));
#1424 = ORIENTED_EDGE('',*,*,#1425,.F.);
#1425 = EDGE_CURVE('',#1394,#1418,#1426,.T.);
#1426 = LINE('',#1427,#1428);
#1427 = CARTESIAN_POINT('',(7.,-11.,0.));
#1428 = VECTOR('',#1429,1.);
#1429 = DIRECTION('',(-0.707106781187,0.707106781187,0.));
#1430 = PLANE('',#1431);
#1431 = AXIS2_PLACEMENT_3D('',#1432,#1433,#1434);
#1432 = CARTESIAN_POINT('',(7.,-11.,0.));
#1433 = DIRECTION('',(-0.707106781187,-0.707106781187,0.));
#1434 = DIRECTION('',(-0.707106781187,0.707106781187,0.));
#1435 = ADVANCED_FACE('',(#1436),#1461,.F.);
#1436 = FACE_BOUND('',#1437,.F.);
#1437 = EDGE_LOOP('',(#1438,#1446,#1447,#1455));
#1438 = ORIENTED_EDGE('',*,*,#1439,.T.);
#1439 = EDGE_CURVE('',#1440,#1321,#1442,.T.);
#1440 = VERTEX_POINT('',#1441);
#1441 = CARTESIAN_POINT('',(-7.,-11.,0.));
#1442 = LINE('',#1443,#1444);
#1443 = CARTESIAN_POINT('',(-7.,-11.,0.));
#1444 = VECTOR('',#1445,1.);
#1445 = DIRECTION('',(0.,0.,1.));
#1446 = ORIENTED_EDGE('',*,*,#1328,.T.);
#1447 = ORIENTED_EDGE('',*,*,#1448,.F.);
#1448 = EDGE_CURVE('',#1449,#1329,#1451,.T.);
#1449 = VERTEX_POINT('',#1450);
#1450 = CARTESIAN_POINT('',(-7.,-13.5,0.));
#1451 = LINE('',#1452,#1453);
#1452 = CARTESIAN_POINT('',(-7.,-13.5,0.));
#1453 = VECTOR('',#1454,1.);
#1454 = DIRECTION('',(0.,0.,1.));
#1455 = ORIENTED_EDGE('',*,*,#1456,.F.);
#1456 = EDGE_CURVE('',#1440,#1449,#1457,.T.);
#1457 = LINE('',#1458,#1459);
#1458 = CARTESIAN_POINT('',(-7.,-11.,0.));
#1459 = VECTOR('',#1460,1.);
#1460 = DIRECTION('',(0.,-1.,0.));
#1461 = PLANE('',#1462);
#1462 = AXIS2_PLACEMENT_3D('',#1463,#1464,#1465);
#1463 = CARTESIAN_POINT('',(-7.,-11.,0.));
#1464 = DIRECTION('',(1.,0.,0.));
#1465 = DIRECTION('',(0.,-1.,0.));
#1466 = ADVANCED_FACE('',(#1467),#1485,.F.);
#1467 = FACE_BOUND('',#1468,.F.);
#1468 = EDGE_LOOP('',(#1469,#1477,#1478,#1479));
#1469 = ORIENTED_EDGE('',*,*,#1470,.T.);
#1470 = EDGE_CURVE('',#1471,#1313,#1473,.T.);
#1471 = VERTEX_POINT('',#1472);
#1472 = CARTESIAN_POINT('',(-5.,-9.,0.));
#1473 = LINE('',#1474,#1475);
#1474 = CARTESIAN_POINT('',(-5.,-9.,0.));
#1475 = VECTOR('',#1476,1.);
#1476 = DIRECTION('',(0.,0.,1.));
#1477 = ORIENTED_EDGE('',*,*,#1320,.T.);
#1478 = ORIENTED_EDGE('',*,*,#1439,.F.);
#1479 = ORIENTED_EDGE('',*,*,#1480,.F.);
#1480 = EDGE_CURVE('',#1471,#1440,#1481,.T.);
#1481 = LINE('',#1482,#1483);
#1482 = CARTESIAN_POINT('',(-5.,-9.,0.));
#1483 = VECTOR('',#1484,1.);
#1484 = DIRECTION('',(-0.707106781187,-0.707106781187,0.));
#1485 = PLANE('',#1486);
#1486 = AXIS2_PLACEMENT_3D('',#1487,#1488,#1489);
#1487 = CARTESIAN_POINT('',(-5.,-9.,0.));
#1488 = DIRECTION('',(0.707106781187,-0.707106781187,0.));
#1489 = DIRECTION('',(-0.707106781187,-0.707106781187,0.));
#1490 = ADVANCED_FACE('',(#1491),#1502,.F.);
#1491 = FACE_BOUND('',#1492,.F.);
#1492 = EDGE_LOOP('',(#1493,#1494,#1495,#1496));
#1493 = ORIENTED_EDGE('',*,*,#1417,.T.);
#1494 = ORIENTED_EDGE('',*,*,#1312,.T.);
#1495 = ORIENTED_EDGE('',*,*,#1470,.F.);
#1496 = ORIENTED_EDGE('',*,*,#1497,.F.);
#1497 = EDGE_CURVE('',#1418,#1471,#1498,.T.);
#1498 = LINE('',#1499,#1500);
#1499 = CARTESIAN_POINT('',(5.,-9.,0.));
#1500 = VECTOR('',#1501,1.);
#1501 = DIRECTION('',(-1.,0.,0.));
#1502 = PLANE('',#1503);
#1503 = AXIS2_PLACEMENT_3D('',#1504,#1505,#1506);
#1504 = CARTESIAN_POINT('',(5.,-9.,0.));
#1505 = DIRECTION('',(0.,-1.,0.));
#1506 = DIRECTION('',(-1.,0.,0.));
#1507 = ADVANCED_FACE('',(#1508),#1533,.T.);
#1508 = FACE_BOUND('',#1509,.T.);
#1509 = EDGE_LOOP('',(#1510,#1518,#1519,#1527));
#1510 = ORIENTED_EDGE('',*,*,#1511,.F.);
#1511 = EDGE_CURVE('',#1363,#1512,#1514,.T.);
#1512 = VERTEX_POINT('',#1513);
#1513 = CARTESIAN_POINT('',(5.,-9.4,72.));
#1514 = LINE('',#1515,#1516);
#1515 = CARTESIAN_POINT('',(5.,-9.4,0.));
#1516 = VECTOR('',#1517,1.);
#1517 = DIRECTION('',(0.,0.,1.));
#1518 = ORIENTED_EDGE('',*,*,#1362,.T.);
#1519 = ORIENTED_EDGE('',*,*,#1520,.T.);
#1520 = EDGE_CURVE('',#1355,#1521,#1523,.T.);
#1521 = VERTEX_POINT('',#1522);
#1522 = CARTESIAN_POINT('',(-5.,-9.4,72.));
#1523 = LINE('',#1524,#1525);
#1524 = CARTESIAN_POINT('',(-5.,-9.4,0.));
#1525 = VECTOR('',#1526,1.);
#1526 = DIRECTION('',(0.,0.,1.));
#1527 = ORIENTED_EDGE('',*,*,#1528,.F.);
#1528 = EDGE_CURVE('',#1512,#1521,#1529,.T.);
#1529 = LINE('',#1530,#1531);
#1530 = CARTESIAN_POINT('',(-5.5,-9.4,72.));
#1531 = VECTOR('',#1532,1.);
#1532 = DIRECTION('',(-1.,0.,0.));
#1533 = PLANE('',#1534);
#1534 = AXIS2_PLACEMENT_3D('',#1535,#1536,#1537);
#1535 = CARTESIAN_POINT('',(-5.,-9.4,0.));
#1536 = DIRECTION('',(0.,1.,0.));
#1537 = DIRECTION('',(0.,0.,1.));
#1538 = ADVANCED_FACE('',(#1539),#1596,.T.);
#1539 = FACE_BOUND('',#1540,.T.);
#1540 = EDGE_LOOP('',(#1541,#1551,#1559,#1567,#1575,#1583,#1589,#1590));
#1541 = ORIENTED_EDGE('',*,*,#1542,.F.);
#1542 = EDGE_CURVE('',#1543,#1545,#1547,.T.);
#1543 = VERTEX_POINT('',#1544);
#1544 = CARTESIAN_POINT('',(-6.,-12.4,72.));
#1545 = VERTEX_POINT('',#1546);
#1546 = CARTESIAN_POINT('',(-5.,-12.4,72.));
#1547 = LINE('',#1548,#1549);
#1548 = CARTESIAN_POINT('',(-6.,-12.4,72.));
#1549 = VECTOR('',#1550,1.);
#1550 = DIRECTION('',(1.,0.,0.));
#1551 = ORIENTED_EDGE('',*,*,#1552,.T.);
#1552 = EDGE_CURVE('',#1543,#1553,#1555,.T.);
#1553 = VERTEX_POINT('',#1554);
#1554 = CARTESIAN_POINT('',(-6.,-5.4,72.));
#1555 = LINE('',#1556,#1557);
#1556 = CARTESIAN_POINT('',(-6.,-12.4,72.));
#1557 = VECTOR('',#1558,1.);
#1558 = DIRECTION('',(0.,1.,0.));
#1559 = ORIENTED_EDGE('',*,*,#1560,.T.);
#1560 = EDGE_CURVE('',#1553,#1561,#1563,.T.);
#1561 = VERTEX_POINT('',#1562);
#1562 = CARTESIAN_POINT('',(6.,-5.4,72.));
#1563 = LINE('',#1564,#1565);
#1564 = CARTESIAN_POINT('',(-6.,-5.4,72.));
#1565 = VECTOR('',#1566,1.);
#1566 = DIRECTION('',(1.,0.,0.));
#1567 = ORIENTED_EDGE('',*,*,#1568,.F.);
#1568 = EDGE_CURVE('',#1569,#1561,#1571,.T.);
#1569 = VERTEX_POINT('',#1570);
#1570 = CARTESIAN_POINT('',(6.,-12.4,72.));
#1571 = LINE('',#1572,#1573);
#1572 = CARTESIAN_POINT('',(6.,-12.4,72.));
#1573 = VECTOR('',#1574,1.);
#1574 = DIRECTION('',(0.,1.,0.));
#1575 = ORIENTED_EDGE('',*,*,#1576,.F.);
#1576 = EDGE_CURVE('',#1577,#1569,#1579,.T.);
#1577 = VERTEX_POINT('',#1578);
#1578 = CARTESIAN_POINT('',(5.,-12.4,72.));
#1579 = LINE('',#1580,#1581);
#1580 = CARTESIAN_POINT('',(-6.,-12.4,72.));
#1581 = VECTOR('',#1582,1.);
#1582 = DIRECTION('',(1.,0.,0.));
#1583 = ORIENTED_EDGE('',*,*,#1584,.T.);
#1584 = EDGE_CURVE('',#1577,#1512,#1585,.T.);
#1585 = LINE('',#1586,#1587);
#1586 = CARTESIAN_POINT('',(5.,-12.4,72.));
#1587 = VECTOR('',#1588,1.);
#1588 = DIRECTION('',(0.,1.,0.));
#1589 = ORIENTED_EDGE('',*,*,#1528,.T.);
#1590 = ORIENTED_EDGE('',*,*,#1591,.F.);
#1591 = EDGE_CURVE('',#1545,#1521,#1592,.T.);
#1592 = LINE('',#1593,#1594);
#1593 = CARTESIAN_POINT('',(-5.,-12.4,72.));
#1594 = VECTOR('',#1595,1.);
#1595 = DIRECTION('',(0.,1.,0.));
#1596 = PLANE('',#1597);
#1597 = AXIS2_PLACEMENT_3D('',#1598,#1599,#1600);
#1598 = CARTESIAN_POINT('',(-6.,-12.4,72.));
#1599 = DIRECTION('',(0.,0.,-1.));
#1600 = DIRECTION('',(1.,0.,0.));
#1601 = ADVANCED_FACE('',(#1602),#1682,.T.);
#1602 = FACE_BOUND('',#1603,.T.);
#1603 = EDGE_LOOP('',(#1604,#1612,#1613,#1621,#1629,#1635,#1636,#1644,
    #1652,#1660,#1668,#1676));
#1604 = ORIENTED_EDGE('',*,*,#1605,.T.);
#1605 = EDGE_CURVE('',#1606,#1543,#1608,.T.);
#1606 = VERTEX_POINT('',#1607);
#1607 = CARTESIAN_POINT('',(-8.,-12.4,74.));
#1608 = LINE('',#1609,#1610);
#1609 = CARTESIAN_POINT('',(-8.,-12.4,74.));
#1610 = VECTOR('',#1611,1.);
#1611 = DIRECTION('',(0.707106781187,0.,-0.707106781187));
#1612 = ORIENTED_EDGE('',*,*,#1542,.T.);
#1613 = ORIENTED_EDGE('',*,*,#1614,.T.);
#1614 = EDGE_CURVE('',#1545,#1615,#1617,.T.);
#1615 = VERTEX_POINT('',#1616);
#1616 = CARTESIAN_POINT('',(-5.,-12.4,73.));
#1617 = LINE('',#1618,#1619);
#1618 = CARTESIAN_POINT('',(-5.,-12.4,0.));
#1619 = VECTOR('',#1620,1.);
#1620 = DIRECTION('',(0.,0.,1.));
#1621 = ORIENTED_EDGE('',*,*,#1622,.T.);
#1622 = EDGE_CURVE('',#1615,#1623,#1625,.T.);
#1623 = VERTEX_POINT('',#1624);
#1624 = CARTESIAN_POINT('',(5.,-12.4,73.));
#1625 = LINE('',#1626,#1627);
#1626 = CARTESIAN_POINT('',(-5.,-12.4,73.));
#1627 = VECTOR('',#1628,1.);
#1628 = DIRECTION('',(1.,0.,0.));
#1629 = ORIENTED_EDGE('',*,*,#1630,.F.);
#1630 = EDGE_CURVE('',#1577,#1623,#1631,.T.);
#1631 = LINE('',#1632,#1633);
#1632 = CARTESIAN_POINT('',(5.,-12.4,0.));
#1633 = VECTOR('',#1634,1.);
#1634 = DIRECTION('',(0.,0.,1.));
#1635 = ORIENTED_EDGE('',*,*,#1576,.T.);
#1636 = ORIENTED_EDGE('',*,*,#1637,.T.);
#1637 = EDGE_CURVE('',#1569,#1638,#1640,.T.);
#1638 = VERTEX_POINT('',#1639);
#1639 = CARTESIAN_POINT('',(8.,-12.4,74.));
#1640 = LINE('',#1641,#1642);
#1641 = CARTESIAN_POINT('',(6.,-12.4,72.));
#1642 = VECTOR('',#1643,1.);
#1643 = DIRECTION('',(0.707106781187,0.,0.707106781187));
#1644 = ORIENTED_EDGE('',*,*,#1645,.T.);
#1645 = EDGE_CURVE('',#1638,#1646,#1648,.T.);
#1646 = VERTEX_POINT('',#1647);
#1647 = CARTESIAN_POINT('',(8.,-12.4,78.));
#1648 = LINE('',#1649,#1650);
#1649 = CARTESIAN_POINT('',(8.,-12.4,74.));
#1650 = VECTOR('',#1651,1.);
#1651 = DIRECTION('',(0.,0.,1.));
#1652 = ORIENTED_EDGE('',*,*,#1653,.T.);
#1653 = EDGE_CURVE('',#1646,#1654,#1656,.T.);
#1654 = VERTEX_POINT('',#1655);
#1655 = CARTESIAN_POINT('',(6.,-12.4,80.));
#1656 = LINE('',#1657,#1658);
#1657 = CARTESIAN_POINT('',(8.,-12.4,78.));
#1658 = VECTOR('',#1659,1.);
#1659 = DIRECTION('',(-0.707106781187,0.,0.707106781187));
#1660 = ORIENTED_EDGE('',*,*,#1661,.T.);
#1661 = EDGE_CURVE('',#1654,#1662,#1664,.T.);
#1662 = VERTEX_POINT('',#1663);
#1663 = CARTESIAN_POINT('',(-6.,-12.4,80.));
#1664 = LINE('',#1665,#1666);
#1665 = CARTESIAN_POINT('',(6.,-12.4,80.));
#1666 = VECTOR('',#1667,1.);
#1667 = DIRECTION('',(-1.,0.,0.));
#1668 = ORIENTED_EDGE('',*,*,#1669,.T.);
#1669 = EDGE_CURVE('',#1662,#1670,#1672,.T.);
#1670 = VERTEX_POINT('',#1671);
#1671 = CARTESIAN_POINT('',(-8.,-12.4,78.));
#1672 = LINE('',#1673,#1674);
#1673 = CARTESIAN_POINT('',(-6.,-12.4,80.));
#1674 = VECTOR('',#1675,1.);
#1675 = DIRECTION('',(-0.707106781187,0.,-0.707106781187));
#1676 = ORIENTED_EDGE('',*,*,#1677,.T.);
#1677 = EDGE_CURVE('',#1670,#1606,#1678,.T.);
#1678 = LINE('',#1679,#1680);
#1679 = CARTESIAN_POINT('',(-8.,-12.4,78.));
#1680 = VECTOR('',#1681,1.);
#1681 = DIRECTION('',(0.,0.,-1.));
#1682 = PLANE('',#1683);
#1683 = AXIS2_PLACEMENT_3D('',#1684,#1685,#1686);
#1684 = CARTESIAN_POINT('',(2.050571171298E-16,-12.4,76.));
#1685 = DIRECTION('',(-0.,-1.,-0.));
#1686 = DIRECTION('',(0.,0.,-1.));
#1687 = ADVANCED_FACE('',(#1688),#1713,.F.);
#1688 = FACE_BOUND('',#1689,.F.);
#1689 = EDGE_LOOP('',(#1690,#1698,#1699,#1707));
#1690 = ORIENTED_EDGE('',*,*,#1691,.F.);
#1691 = EDGE_CURVE('',#1345,#1692,#1694,.T.);
#1692 = VERTEX_POINT('',#1693);
#1693 = CARTESIAN_POINT('',(5.,-12.4,67.5));
#1694 = LINE('',#1695,#1696);
#1695 = CARTESIAN_POINT('',(5.,-12.4,0.));
#1696 = VECTOR('',#1697,1.);
#1697 = DIRECTION('',(0.,0.,1.));
#1698 = ORIENTED_EDGE('',*,*,#1344,.T.);
#1699 = ORIENTED_EDGE('',*,*,#1700,.T.);
#1700 = EDGE_CURVE('',#1347,#1701,#1703,.T.);
#1701 = VERTEX_POINT('',#1702);
#1702 = CARTESIAN_POINT('',(-5.,-12.4,67.5));
#1703 = LINE('',#1704,#1705);
#1704 = CARTESIAN_POINT('',(-5.,-12.4,0.));
#1705 = VECTOR('',#1706,1.);
#1706 = DIRECTION('',(0.,0.,1.));
#1707 = ORIENTED_EDGE('',*,*,#1708,.T.);
#1708 = EDGE_CURVE('',#1701,#1692,#1709,.T.);
#1709 = LINE('',#1710,#1711);
#1710 = CARTESIAN_POINT('',(-5.,-12.4,67.5));
#1711 = VECTOR('',#1712,1.);
#1712 = DIRECTION('',(1.,0.,0.));
#1713 = PLANE('',#1714);
#1714 = AXIS2_PLACEMENT_3D('',#1715,#1716,#1717);
#1715 = CARTESIAN_POINT('',(-5.,-12.4,0.));
#1716 = DIRECTION('',(0.,1.,0.));
#1717 = DIRECTION('',(0.,0.,1.));
#1718 = ADVANCED_FACE('',(#1719),#1744,.T.);
#1719 = FACE_BOUND('',#1720,.T.);
#1720 = EDGE_LOOP('',(#1721,#1722,#1730,#1738));
#1721 = ORIENTED_EDGE('',*,*,#1708,.T.);
#1722 = ORIENTED_EDGE('',*,*,#1723,.T.);
#1723 = EDGE_CURVE('',#1692,#1724,#1726,.T.);
#1724 = VERTEX_POINT('',#1725);
#1725 = CARTESIAN_POINT('',(5.,-15.2,67.5));
#1726 = LINE('',#1727,#1728);
#1727 = CARTESIAN_POINT('',(5.,-12.4,67.5));
#1728 = VECTOR('',#1729,1.);
#1729 = DIRECTION('',(0.,-1.,0.));
#1730 = ORIENTED_EDGE('',*,*,#1731,.F.);
#1731 = EDGE_CURVE('',#1732,#1724,#1734,.T.);
#1732 = VERTEX_POINT('',#1733);
#1733 = CARTESIAN_POINT('',(-5.,-15.2,67.5));
#1734 = LINE('',#1735,#1736);
#1735 = CARTESIAN_POINT('',(-5.,-15.2,67.5));
#1736 = VECTOR('',#1737,1.);
#1737 = DIRECTION('',(1.,0.,0.));
#1738 = ORIENTED_EDGE('',*,*,#1739,.F.);
#1739 = EDGE_CURVE('',#1701,#1732,#1740,.T.);
#1740 = LINE('',#1741,#1742);
#1741 = CARTESIAN_POINT('',(-5.,-12.4,67.5));
#1742 = VECTOR('',#1743,1.);
#1743 = DIRECTION('',(0.,-1.,0.));
#1744 = PLANE('',#1745);
#1745 = AXIS2_PLACEMENT_3D('',#1746,#1747,#1748);
#1746 = CARTESIAN_POINT('',(-5.,-12.4,67.5));
#1747 = DIRECTION('',(0.,0.,-1.));
#1748 = DIRECTION('',(0.,-1.,0.));
#1749 = ADVANCED_FACE('',(#1750),#1775,.T.);
#1750 = FACE_BOUND('',#1751,.T.);
#1751 = EDGE_LOOP('',(#1752,#1753,#1761,#1769));
#1752 = ORIENTED_EDGE('',*,*,#1731,.T.);
#1753 = ORIENTED_EDGE('',*,*,#1754,.T.);
#1754 = EDGE_CURVE('',#1724,#1755,#1757,.T.);
#1755 = VERTEX_POINT('',#1756);
#1756 = CARTESIAN_POINT('',(5.,-15.2,68.5));
#1757 = LINE('',#1758,#1759);
#1758 = CARTESIAN_POINT('',(5.,-15.2,67.5));
#1759 = VECTOR('',#1760,1.);
#1760 = DIRECTION('',(0.,0.,1.));
#1761 = ORIENTED_EDGE('',*,*,#1762,.F.);
#1762 = EDGE_CURVE('',#1763,#1755,#1765,.T.);
#1763 = VERTEX_POINT('',#1764);
#1764 = CARTESIAN_POINT('',(-5.,-15.2,68.5));
#1765 = LINE('',#1766,#1767);
#1766 = CARTESIAN_POINT('',(-5.,-15.2,68.5));
#1767 = VECTOR('',#1768,1.);
#1768 = DIRECTION('',(1.,0.,0.));
#1769 = ORIENTED_EDGE('',*,*,#1770,.F.);
#1770 = EDGE_CURVE('',#1732,#1763,#1771,.T.);
#1771 = LINE('',#1772,#1773);
#1772 = CARTESIAN_POINT('',(-5.,-15.2,67.5));
#1773 = VECTOR('',#1774,1.);
#1774 = DIRECTION('',(0.,0.,1.));
#1775 = PLANE('',#1776);
#1776 = AXIS2_PLACEMENT_3D('',#1777,#1778,#1779);
#1777 = CARTESIAN_POINT('',(-5.,-15.2,67.5));
#1778 = DIRECTION('',(0.,-1.,0.));
#1779 = DIRECTION('',(0.,0.,1.));
#1780 = ADVANCED_FACE('',(#1781),#1797,.T.);
#1781 = FACE_BOUND('',#1782,.T.);
#1782 = EDGE_LOOP('',(#1783,#1784,#1790,#1791));
#1783 = ORIENTED_EDGE('',*,*,#1762,.T.);
#1784 = ORIENTED_EDGE('',*,*,#1785,.T.);
#1785 = EDGE_CURVE('',#1755,#1623,#1786,.T.);
#1786 = LINE('',#1787,#1788);
#1787 = CARTESIAN_POINT('',(5.,-15.2,68.5));
#1788 = VECTOR('',#1789,1.);
#1789 = DIRECTION('',(0.,0.528301886792,0.849056603774));
#1790 = ORIENTED_EDGE('',*,*,#1622,.F.);
#1791 = ORIENTED_EDGE('',*,*,#1792,.F.);
#1792 = EDGE_CURVE('',#1763,#1615,#1793,.T.);
#1793 = LINE('',#1794,#1795);
#1794 = CARTESIAN_POINT('',(-5.,-15.2,68.5));
#1795 = VECTOR('',#1796,1.);
#1796 = DIRECTION('',(0.,0.528301886792,0.849056603774));
#1797 = PLANE('',#1798);
#1798 = AXIS2_PLACEMENT_3D('',#1799,#1800,#1801);
#1799 = CARTESIAN_POINT('',(-5.,-15.2,68.5));
#1800 = DIRECTION('',(0.,-0.849056603774,0.528301886792));
#1801 = DIRECTION('',(0.,0.528301886792,0.849056603774));
#1802 = ADVANCED_FACE('',(#1803),#1821,.T.);
#1803 = FACE_BOUND('',#1804,.T.);
#1804 = EDGE_LOOP('',(#1805,#1806,#1814,#1820));
#1805 = ORIENTED_EDGE('',*,*,#1568,.T.);
#1806 = ORIENTED_EDGE('',*,*,#1807,.T.);
#1807 = EDGE_CURVE('',#1561,#1808,#1810,.T.);
#1808 = VERTEX_POINT('',#1809);
#1809 = CARTESIAN_POINT('',(8.,-5.4,74.));
#1810 = LINE('',#1811,#1812);
#1811 = CARTESIAN_POINT('',(6.,-5.4,72.));
#1812 = VECTOR('',#1813,1.);
#1813 = DIRECTION('',(0.707106781187,0.,0.707106781187));
#1814 = ORIENTED_EDGE('',*,*,#1815,.F.);
#1815 = EDGE_CURVE('',#1638,#1808,#1816,.T.);
#1816 = LINE('',#1817,#1818);
#1817 = CARTESIAN_POINT('',(8.,-12.4,74.));
#1818 = VECTOR('',#1819,1.);
#1819 = DIRECTION('',(0.,1.,0.));
#1820 = ORIENTED_EDGE('',*,*,#1637,.F.);
#1821 = PLANE('',#1822);
#1822 = AXIS2_PLACEMENT_3D('',#1823,#1824,#1825);
#1823 = CARTESIAN_POINT('',(6.,-12.4,72.));
#1824 = DIRECTION('',(0.707106781187,0.,-0.707106781187));
#1825 = DIRECTION('',(0.707106781187,0.,0.707106781187));
#1826 = ADVANCED_FACE('',(#1827),#1877,.F.);
#1827 = FACE_BOUND('',#1828,.F.);
#1828 = EDGE_LOOP('',(#1829,#1830,#1831,#1839,#1847,#1855,#1863,#1871));
#1829 = ORIENTED_EDGE('',*,*,#1560,.T.);
#1830 = ORIENTED_EDGE('',*,*,#1807,.T.);
#1831 = ORIENTED_EDGE('',*,*,#1832,.T.);
#1832 = EDGE_CURVE('',#1808,#1833,#1835,.T.);
#1833 = VERTEX_POINT('',#1834);
#1834 = CARTESIAN_POINT('',(8.,-5.4,78.));
#1835 = LINE('',#1836,#1837);
#1836 = CARTESIAN_POINT('',(8.,-5.4,74.));
#1837 = VECTOR('',#1838,1.);
#1838 = DIRECTION('',(0.,0.,1.));
#1839 = ORIENTED_EDGE('',*,*,#1840,.T.);
#1840 = EDGE_CURVE('',#1833,#1841,#1843,.T.);
#1841 = VERTEX_POINT('',#1842);
#1842 = CARTESIAN_POINT('',(6.,-5.4,80.));
#1843 = LINE('',#1844,#1845);
#1844 = CARTESIAN_POINT('',(8.,-5.4,78.));
#1845 = VECTOR('',#1846,1.);
#1846 = DIRECTION('',(-0.707106781187,0.,0.707106781187));
#1847 = ORIENTED_EDGE('',*,*,#1848,.T.);
#1848 = EDGE_CURVE('',#1841,#1849,#1851,.T.);
#1849 = VERTEX_POINT('',#1850);
#1850 = CARTESIAN_POINT('',(-6.,-5.4,80.));
#1851 = LINE('',#1852,#1853);
#1852 = CARTESIAN_POINT('',(6.,-5.4,80.));
#1853 = VECTOR('',#1854,1.);
#1854 = DIRECTION('',(-1.,0.,0.));
#1855 = ORIENTED_EDGE('',*,*,#1856,.T.);
#1856 = EDGE_CURVE('',#1849,#1857,#1859,.T.);
#1857 = VERTEX_POINT('',#1858);
#1858 = CARTESIAN_POINT('',(-8.,-5.4,78.));
#1859 = LINE('',#1860,#1861);
#1860 = CARTESIAN_POINT('',(-6.,-5.4,80.));
#1861 = VECTOR('',#1862,1.);
#1862 = DIRECTION('',(-0.707106781187,0.,-0.707106781187));
#1863 = ORIENTED_EDGE('',*,*,#1864,.T.);
#1864 = EDGE_CURVE('',#1857,#1865,#1867,.T.);
#1865 = VERTEX_POINT('',#1866);
#1866 = CARTESIAN_POINT('',(-8.,-5.4,74.));
#1867 = LINE('',#1868,#1869);
#1868 = CARTESIAN_POINT('',(-8.,-5.4,78.));
#1869 = VECTOR('',#1870,1.);
#1870 = DIRECTION('',(0.,0.,-1.));
#1871 = ORIENTED_EDGE('',*,*,#1872,.T.);
#1872 = EDGE_CURVE('',#1865,#1553,#1873,.T.);
#1873 = LINE('',#1874,#1875);
#1874 = CARTESIAN_POINT('',(-8.,-5.4,74.));
#1875 = VECTOR('',#1876,1.);
#1876 = DIRECTION('',(0.707106781187,0.,-0.707106781187));
#1877 = PLANE('',#1878);
#1878 = AXIS2_PLACEMENT_3D('',#1879,#1880,#1881);
#1879 = CARTESIAN_POINT('',(2.050571171298E-16,-5.4,76.));
#1880 = DIRECTION('',(-0.,-1.,-0.));
#1881 = DIRECTION('',(0.,0.,-1.));
#1882 = ADVANCED_FACE('',(#1883),#1894,.T.);
#1883 = FACE_BOUND('',#1884,.T.);
#1884 = EDGE_LOOP('',(#1885,#1891,#1892,#1893));
#1885 = ORIENTED_EDGE('',*,*,#1886,.T.);
#1886 = EDGE_CURVE('',#1606,#1865,#1887,.T.);
#1887 = LINE('',#1888,#1889);
#1888 = CARTESIAN_POINT('',(-8.,-12.4,74.));
#1889 = VECTOR('',#1890,1.);
#1890 = DIRECTION('',(0.,1.,0.));
#1891 = ORIENTED_EDGE('',*,*,#1872,.T.);
#1892 = ORIENTED_EDGE('',*,*,#1552,.F.);
#1893 = ORIENTED_EDGE('',*,*,#1605,.F.);
#1894 = PLANE('',#1895);
#1895 = AXIS2_PLACEMENT_3D('',#1896,#1897,#1898);
#1896 = CARTESIAN_POINT('',(-8.,-12.4,74.));
#1897 = DIRECTION('',(-0.707106781187,0.,-0.707106781187));
#1898 = DIRECTION('',(0.707106781187,0.,-0.707106781187));
#1899 = ADVANCED_FACE('',(#1900),#1911,.T.);
#1900 = FACE_BOUND('',#1901,.T.);
#1901 = EDGE_LOOP('',(#1902,#1908,#1909,#1910));
#1902 = ORIENTED_EDGE('',*,*,#1903,.T.);
#1903 = EDGE_CURVE('',#1670,#1857,#1904,.T.);
#1904 = LINE('',#1905,#1906);
#1905 = CARTESIAN_POINT('',(-8.,-12.4,78.));
#1906 = VECTOR('',#1907,1.);
#1907 = DIRECTION('',(0.,1.,0.));
#1908 = ORIENTED_EDGE('',*,*,#1864,.T.);
#1909 = ORIENTED_EDGE('',*,*,#1886,.F.);
#1910 = ORIENTED_EDGE('',*,*,#1677,.F.);
#1911 = PLANE('',#1912);
#1912 = AXIS2_PLACEMENT_3D('',#1913,#1914,#1915);
#1913 = CARTESIAN_POINT('',(-8.,-12.4,78.));
#1914 = DIRECTION('',(-1.,0.,0.));
#1915 = DIRECTION('',(0.,0.,-1.));
#1916 = ADVANCED_FACE('',(#1917),#1928,.T.);
#1917 = FACE_BOUND('',#1918,.T.);
#1918 = EDGE_LOOP('',(#1919,#1925,#1926,#1927));
#1919 = ORIENTED_EDGE('',*,*,#1920,.T.);
#1920 = EDGE_CURVE('',#1662,#1849,#1921,.T.);
#1921 = LINE('',#1922,#1923);
#1922 = CARTESIAN_POINT('',(-6.,-12.4,80.));
#1923 = VECTOR('',#1924,1.);
#1924 = DIRECTION('',(0.,1.,0.));
#1925 = ORIENTED_EDGE('',*,*,#1856,.T.);
#1926 = ORIENTED_EDGE('',*,*,#1903,.F.);
#1927 = ORIENTED_EDGE('',*,*,#1669,.F.);
#1928 = PLANE('',#1929);
#1929 = AXIS2_PLACEMENT_3D('',#1930,#1931,#1932);
#1930 = CARTESIAN_POINT('',(-6.,-12.4,80.));
#1931 = DIRECTION('',(-0.707106781187,0.,0.707106781187));
#1932 = DIRECTION('',(-0.707106781187,0.,-0.707106781187));
#1933 = ADVANCED_FACE('',(#1934),#1945,.T.);
#1934 = FACE_BOUND('',#1935,.T.);
#1935 = EDGE_LOOP('',(#1936,#1942,#1943,#1944));
#1936 = ORIENTED_EDGE('',*,*,#1937,.T.);
#1937 = EDGE_CURVE('',#1654,#1841,#1938,.T.);
#1938 = LINE('',#1939,#1940);
#1939 = CARTESIAN_POINT('',(6.,-12.4,80.));
#1940 = VECTOR('',#1941,1.);
#1941 = DIRECTION('',(0.,1.,0.));
#1942 = ORIENTED_EDGE('',*,*,#1848,.T.);
#1943 = ORIENTED_EDGE('',*,*,#1920,.F.);
#1944 = ORIENTED_EDGE('',*,*,#1661,.F.);
#1945 = PLANE('',#1946);
#1946 = AXIS2_PLACEMENT_3D('',#1947,#1948,#1949);
#1947 = CARTESIAN_POINT('',(6.,-12.4,80.));
#1948 = DIRECTION('',(0.,0.,1.));
#1949 = DIRECTION('',(-1.,0.,0.));
#1950 = ADVANCED_FACE('',(#1951),#1962,.T.);
#1951 = FACE_BOUND('',#1952,.T.);
#1952 = EDGE_LOOP('',(#1953,#1959,#1960,#1961));
#1953 = ORIENTED_EDGE('',*,*,#1954,.T.);
#1954 = EDGE_CURVE('',#1646,#1833,#1955,.T.);
#1955 = LINE('',#1956,#1957);
#1956 = CARTESIAN_POINT('',(8.,-12.4,78.));
#1957 = VECTOR('',#1958,1.);
#1958 = DIRECTION('',(0.,1.,0.));
#1959 = ORIENTED_EDGE('',*,*,#1840,.T.);
#1960 = ORIENTED_EDGE('',*,*,#1937,.F.);
#1961 = ORIENTED_EDGE('',*,*,#1653,.F.);
#1962 = PLANE('',#1963);
#1963 = AXIS2_PLACEMENT_3D('',#1964,#1965,#1966);
#1964 = CARTESIAN_POINT('',(8.,-12.4,78.));
#1965 = DIRECTION('',(0.707106781187,0.,0.707106781187));
#1966 = DIRECTION('',(-0.707106781187,0.,0.707106781187));
#1967 = ADVANCED_FACE('',(#1968),#1974,.T.);
#1968 = FACE_BOUND('',#1969,.T.);
#1969 = EDGE_LOOP('',(#1970,#1971,#1972,#1973));
#1970 = ORIENTED_EDGE('',*,*,#1815,.T.);
#1971 = ORIENTED_EDGE('',*,*,#1832,.T.);
#1972 = ORIENTED_EDGE('',*,*,#1954,.F.);
#1973 = ORIENTED_EDGE('',*,*,#1645,.F.);
#1974 = PLANE('',#1975);
#1975 = AXIS2_PLACEMENT_3D('',#1976,#1977,#1978);
#1976 = CARTESIAN_POINT('',(8.,-12.4,74.));
#1977 = DIRECTION('',(1.,0.,0.));
#1978 = DIRECTION('',(0.,0.,1.));
#1979 = ADVANCED_FACE('',(#1980),#1999,.T.);
#1980 = FACE_BOUND('',#1981,.T.);
#1981 = EDGE_LOOP('',(#1982,#1983,#1984,#1985,#1993));
#1982 = ORIENTED_EDGE('',*,*,#62,.F.);
#1983 = ORIENTED_EDGE('',*,*,#47,.T.);
#1984 = ORIENTED_EDGE('',*,*,#797,.T.);
#1985 = ORIENTED_EDGE('',*,*,#1986,.T.);
#1986 = EDGE_CURVE('',#798,#1987,#1989,.T.);
#1987 = VERTEX_POINT('',#1988);
#1988 = CARTESIAN_POINT('',(19.,-13.5,8.));
#1989 = LINE('',#1990,#1991);
#1990 = CARTESIAN_POINT('',(15.,-13.5,4.));
#1991 = VECTOR('',#1992,1.);
#1992 = DIRECTION('',(0.707106781187,0.,0.707106781187));
#1993 = ORIENTED_EDGE('',*,*,#1994,.F.);
#1994 = EDGE_CURVE('',#63,#1987,#1995,.T.);
#1995 = LINE('',#1996,#1997);
#1996 = CARTESIAN_POINT('',(19.,-24.,8.));
#1997 = VECTOR('',#1998,1.);
#1998 = DIRECTION('',(0.,1.,0.));
#1999 = PLANE('',#2000);
#2000 = AXIS2_PLACEMENT_3D('',#2001,#2002,#2003);
#2001 = CARTESIAN_POINT('',(17.,-21.75,6.));
#2002 = DIRECTION('',(0.707106781187,0.,-0.707106781187));
#2003 = DIRECTION('',(0.707106781187,0.,0.707106781187));
#2004 = ADVANCED_FACE('',(#2005),#2024,.T.);
#2005 = FACE_BOUND('',#2006,.T.);
#2006 = EDGE_LOOP('',(#2007,#2008,#2016,#2022,#2023));
#2007 = ORIENTED_EDGE('',*,*,#110,.F.);
#2008 = ORIENTED_EDGE('',*,*,#2009,.T.);
#2009 = EDGE_CURVE('',#103,#2010,#2012,.T.);
#2010 = VERTEX_POINT('',#2011);
#2011 = CARTESIAN_POINT('',(-19.,-13.5,8.));
#2012 = LINE('',#2013,#2014);
#2013 = CARTESIAN_POINT('',(-19.,-30.,8.));
#2014 = VECTOR('',#2015,1.);
#2015 = DIRECTION('',(0.,1.,0.));
#2016 = ORIENTED_EDGE('',*,*,#2017,.T.);
#2017 = EDGE_CURVE('',#2010,#768,#2018,.T.);
#2018 = LINE('',#2019,#2020);
#2019 = CARTESIAN_POINT('',(-19.,-13.5,8.));
#2020 = VECTOR('',#2021,1.);
#2021 = DIRECTION('',(0.707106781187,0.,-0.707106781187));
#2022 = ORIENTED_EDGE('',*,*,#767,.F.);
#2023 = ORIENTED_EDGE('',*,*,#31,.F.);
#2024 = PLANE('',#2025);
#2025 = AXIS2_PLACEMENT_3D('',#2026,#2027,#2028);
#2026 = CARTESIAN_POINT('',(-17.,-21.75,6.));
#2027 = DIRECTION('',(-0.707106781187,-0.,-0.707106781187));
#2028 = DIRECTION('',(-0.707106781187,0.,0.707106781187));
#2029 = ADVANCED_FACE('',(#2030),#2048,.T.);
#2030 = FACE_BOUND('',#2031,.T.);
#2031 = EDGE_LOOP('',(#2032,#2033,#2041,#2047));
#2032 = ORIENTED_EDGE('',*,*,#102,.F.);
#2033 = ORIENTED_EDGE('',*,*,#2034,.T.);
#2034 = EDGE_CURVE('',#95,#2035,#2037,.T.);
#2035 = VERTEX_POINT('',#2036);
#2036 = CARTESIAN_POINT('',(-19.,-13.5,76.));
#2037 = LINE('',#2038,#2039);
#2038 = CARTESIAN_POINT('',(-19.,-30.,76.));
#2039 = VECTOR('',#2040,1.);
#2040 = DIRECTION('',(0.,1.,0.));
#2041 = ORIENTED_EDGE('',*,*,#2042,.T.);
#2042 = EDGE_CURVE('',#2035,#2010,#2043,.T.);
#2043 = LINE('',#2044,#2045);
#2044 = CARTESIAN_POINT('',(-19.,-13.5,76.));
#2045 = VECTOR('',#2046,1.);
#2046 = DIRECTION('',(0.,0.,-1.));
#2047 = ORIENTED_EDGE('',*,*,#2009,.F.);
#2048 = PLANE('',#2049);
#2049 = AXIS2_PLACEMENT_3D('',#2050,#2051,#2052);
#2050 = CARTESIAN_POINT('',(-19.,-21.75,42.));
#2051 = DIRECTION('',(-1.,-0.,-0.));
#2052 = DIRECTION('',(0.,0.,-1.));
#2053 = ADVANCED_FACE('',(#2054),#2072,.T.);
#2054 = FACE_BOUND('',#2055,.T.);
#2055 = EDGE_LOOP('',(#2056,#2057,#2058,#2066));
#2056 = ORIENTED_EDGE('',*,*,#70,.F.);
#2057 = ORIENTED_EDGE('',*,*,#1994,.T.);
#2058 = ORIENTED_EDGE('',*,*,#2059,.T.);
#2059 = EDGE_CURVE('',#1987,#2060,#2062,.T.);
#2060 = VERTEX_POINT('',#2061);
#2061 = CARTESIAN_POINT('',(19.,-13.5,76.));
#2062 = LINE('',#2063,#2064);
#2063 = CARTESIAN_POINT('',(19.,-13.5,8.));
#2064 = VECTOR('',#2065,1.);
#2065 = DIRECTION('',(0.,0.,1.));
#2066 = ORIENTED_EDGE('',*,*,#2067,.F.);
#2067 = EDGE_CURVE('',#71,#2060,#2068,.T.);
#2068 = LINE('',#2069,#2070);
#2069 = CARTESIAN_POINT('',(19.,-24.,76.));
#2070 = VECTOR('',#2071,1.);
#2071 = DIRECTION('',(0.,1.,0.));
#2072 = PLANE('',#2073);
#2073 = AXIS2_PLACEMENT_3D('',#2074,#2075,#2076);
#2074 = CARTESIAN_POINT('',(19.,-21.75,42.));
#2075 = DIRECTION('',(1.,0.,0.));
#2076 = DIRECTION('',(0.,0.,1.));
#2077 = ADVANCED_FACE('',(#2078),#2096,.T.);
#2078 = FACE_BOUND('',#2079,.T.);
#2079 = EDGE_LOOP('',(#2080,#2081,#2089,#2095));
#2080 = ORIENTED_EDGE('',*,*,#94,.F.);
#2081 = ORIENTED_EDGE('',*,*,#2082,.T.);
#2082 = EDGE_CURVE('',#87,#2083,#2085,.T.);
#2083 = VERTEX_POINT('',#2084);
#2084 = CARTESIAN_POINT('',(-15.,-13.5,80.));
#2085 = LINE('',#2086,#2087);
#2086 = CARTESIAN_POINT('',(-15.,-30.,80.));
#2087 = VECTOR('',#2088,1.);
#2088 = DIRECTION('',(0.,1.,0.));
#2089 = ORIENTED_EDGE('',*,*,#2090,.T.);
#2090 = EDGE_CURVE('',#2083,#2035,#2091,.T.);
#2091 = LINE('',#2092,#2093);
#2092 = CARTESIAN_POINT('',(-15.,-13.5,80.));
#2093 = VECTOR('',#2094,1.);
#2094 = DIRECTION('',(-0.707106781187,0.,-0.707106781187));
#2095 = ORIENTED_EDGE('',*,*,#2034,.F.);
#2096 = PLANE('',#2097);
#2097 = AXIS2_PLACEMENT_3D('',#2098,#2099,#2100);
#2098 = CARTESIAN_POINT('',(-17.,-21.75,78.));
#2099 = DIRECTION('',(-0.707106781187,0.,0.707106781187));
#2100 = DIRECTION('',(-0.707106781187,0.,-0.707106781187));
#2101 = ADVANCED_FACE('',(#2102),#2120,.T.);
#2102 = FACE_BOUND('',#2103,.T.);
#2103 = EDGE_LOOP('',(#2104,#2105,#2106,#2114));
#2104 = ORIENTED_EDGE('',*,*,#78,.F.);
#2105 = ORIENTED_EDGE('',*,*,#2067,.T.);
#2106 = ORIENTED_EDGE('',*,*,#2107,.T.);
#2107 = EDGE_CURVE('',#2060,#2108,#2110,.T.);
#2108 = VERTEX_POINT('',#2109);
#2109 = CARTESIAN_POINT('',(15.,-13.5,80.));
#2110 = LINE('',#2111,#2112);
#2111 = CARTESIAN_POINT('',(19.,-13.5,76.));
#2112 = VECTOR('',#2113,1.);
#2113 = DIRECTION('',(-0.707106781187,0.,0.707106781187));
#2114 = ORIENTED_EDGE('',*,*,#2115,.F.);
#2115 = EDGE_CURVE('',#79,#2108,#2116,.T.);
#2116 = LINE('',#2117,#2118);
#2117 = CARTESIAN_POINT('',(15.,-24.,80.));
#2118 = VECTOR('',#2119,1.);
#2119 = DIRECTION('',(0.,1.,0.));
#2120 = PLANE('',#2121);
#2121 = AXIS2_PLACEMENT_3D('',#2122,#2123,#2124);
#2122 = CARTESIAN_POINT('',(17.,-21.75,78.));
#2123 = DIRECTION('',(0.707106781187,0.,0.707106781187));
#2124 = DIRECTION('',(0.707106781187,0.,-0.707106781187));
#2125 = ADVANCED_FACE('',(#2126),#2146,.T.);
#2126 = FACE_BOUND('',#2127,.T.);
#2127 = EDGE_LOOP('',(#2128,#2129,#2130,#2136,#2137,#2138,#2139,#2145));
#2128 = ORIENTED_EDGE('',*,*,#86,.F.);
#2129 = ORIENTED_EDGE('',*,*,#2115,.T.);
#2130 = ORIENTED_EDGE('',*,*,#2131,.T.);
#2131 = EDGE_CURVE('',#2108,#1044,#2132,.T.);
#2132 = LINE('',#2133,#2134);
#2133 = CARTESIAN_POINT('',(15.,-13.5,80.));
#2134 = VECTOR('',#2135,1.);
#2135 = DIRECTION('',(-1.,0.,0.));
#2136 = ORIENTED_EDGE('',*,*,#1043,.T.);
#2137 = ORIENTED_EDGE('',*,*,#872,.T.);
#2138 = ORIENTED_EDGE('',*,*,#937,.T.);
#2139 = ORIENTED_EDGE('',*,*,#2140,.T.);
#2140 = EDGE_CURVE('',#930,#2083,#2141,.T.);
#2141 = LINE('',#2142,#2143);
#2142 = CARTESIAN_POINT('',(15.,-13.5,80.));
#2143 = VECTOR('',#2144,1.);
#2144 = DIRECTION('',(-1.,0.,0.));
#2145 = ORIENTED_EDGE('',*,*,#2082,.F.);
#2146 = PLANE('',#2147);
#2147 = AXIS2_PLACEMENT_3D('',#2148,#2149,#2150);
#2148 = CARTESIAN_POINT('',(1.186155583236E-15,-23.06324003627,80.));
#2149 = DIRECTION('',(0.,0.,1.));
#2150 = DIRECTION('',(1.,0.,0.));
#2151 = ADVANCED_FACE('',(#2152),#2178,.T.);
#2152 = FACE_BOUND('',#2153,.T.);
#2153 = EDGE_LOOP('',(#2154,#2155,#2156,#2157,#2163,#2164,#2165,#2166,
    #2167,#2168,#2174,#2175,#2176,#2177));
#2154 = ORIENTED_EDGE('',*,*,#712,.F.);
#2155 = ORIENTED_EDGE('',*,*,#1075,.F.);
#2156 = ORIENTED_EDGE('',*,*,#1123,.F.);
#2157 = ORIENTED_EDGE('',*,*,#2158,.F.);
#2158 = EDGE_CURVE('',#1449,#1114,#2159,.T.);
#2159 = LINE('',#2160,#2161);
#2160 = CARTESIAN_POINT('',(16.,-13.5,0.));
#2161 = VECTOR('',#2162,1.);
#2162 = DIRECTION('',(-1.,0.,0.));
#2163 = ORIENTED_EDGE('',*,*,#1456,.F.);
#2164 = ORIENTED_EDGE('',*,*,#1480,.F.);
#2165 = ORIENTED_EDGE('',*,*,#1497,.F.);
#2166 = ORIENTED_EDGE('',*,*,#1425,.F.);
#2167 = ORIENTED_EDGE('',*,*,#1401,.F.);
#2168 = ORIENTED_EDGE('',*,*,#2169,.F.);
#2169 = EDGE_CURVE('',#1140,#1385,#2170,.T.);
#2170 = LINE('',#2171,#2172);
#2171 = CARTESIAN_POINT('',(16.,-13.5,0.));
#2172 = VECTOR('',#2173,1.);
#2173 = DIRECTION('',(-1.,0.,0.));
#2174 = ORIENTED_EDGE('',*,*,#1147,.F.);
#2175 = ORIENTED_EDGE('',*,*,#1099,.F.);
#2176 = ORIENTED_EDGE('',*,*,#743,.F.);
#2177 = ORIENTED_EDGE('',*,*,#279,.F.);
#2178 = PLANE('',#2179);
#2179 = AXIS2_PLACEMENT_3D('',#2180,#2181,#2182);
#2180 = CARTESIAN_POINT('',(-5.882742251301E-16,-17.65302899553,0.));
#2181 = DIRECTION('',(-0.,-0.,-1.));
#2182 = DIRECTION('',(-1.,0.,0.));
#2183 = ADVANCED_FACE('',(#2184),#2196,.T.);
#2184 = FACE_BOUND('',#2185,.T.);
#2185 = EDGE_LOOP('',(#2186,#2187,#2188,#2189,#2190,#2191,#2192,#2193,
    #2194,#2195));
#2186 = ORIENTED_EDGE('',*,*,#2158,.T.);
#2187 = ORIENTED_EDGE('',*,*,#1113,.T.);
#2188 = ORIENTED_EDGE('',*,*,#775,.F.);
#2189 = ORIENTED_EDGE('',*,*,#2017,.F.);
#2190 = ORIENTED_EDGE('',*,*,#2042,.F.);
#2191 = ORIENTED_EDGE('',*,*,#2090,.F.);
#2192 = ORIENTED_EDGE('',*,*,#2140,.F.);
#2193 = ORIENTED_EDGE('',*,*,#929,.F.);
#2194 = ORIENTED_EDGE('',*,*,#1336,.F.);
#2195 = ORIENTED_EDGE('',*,*,#1448,.F.);
#2196 = PLANE('',#2197);
#2197 = AXIS2_PLACEMENT_3D('',#2198,#2199,#2200);
#2198 = CARTESIAN_POINT('',(-14.2123016486,-13.5,38.17485032172));
#2199 = DIRECTION('',(3.050713696276E-16,1.,0.));
#2200 = DIRECTION('',(1.,-3.050713696276E-16,0.));
#2201 = ADVANCED_FACE('',(#2202),#2214,.T.);
#2202 = FACE_BOUND('',#2203,.T.);
#2203 = EDGE_LOOP('',(#2204,#2205,#2206,#2207,#2208,#2209,#2210,#2211,
    #2212,#2213));
#2204 = ORIENTED_EDGE('',*,*,#2169,.T.);
#2205 = ORIENTED_EDGE('',*,*,#1384,.T.);
#2206 = ORIENTED_EDGE('',*,*,#1288,.F.);
#2207 = ORIENTED_EDGE('',*,*,#1051,.F.);
#2208 = ORIENTED_EDGE('',*,*,#2131,.F.);
#2209 = ORIENTED_EDGE('',*,*,#2107,.F.);
#2210 = ORIENTED_EDGE('',*,*,#2059,.F.);
#2211 = ORIENTED_EDGE('',*,*,#1986,.F.);
#2212 = ORIENTED_EDGE('',*,*,#823,.F.);
#2213 = ORIENTED_EDGE('',*,*,#1139,.F.);
#2214 = PLANE('',#2215);
#2215 = AXIS2_PLACEMENT_3D('',#2216,#2217,#2218);
#2216 = CARTESIAN_POINT('',(14.212301648609,-13.5,38.17485032172));
#2217 = DIRECTION('',(-3.050713696276E-16,1.,0.));
#2218 = DIRECTION('',(1.,3.050713696276E-16,0.));
#2219 = ADVANCED_FACE('',(#2220),#2230,.T.);
#2220 = FACE_BOUND('',#2221,.T.);
#2221 = EDGE_LOOP('',(#2222,#2223,#2224,#2225,#2226,#2227,#2228,#2229));
#2222 = ORIENTED_EDGE('',*,*,#1691,.F.);
#2223 = ORIENTED_EDGE('',*,*,#1370,.T.);
#2224 = ORIENTED_EDGE('',*,*,#1511,.T.);
#2225 = ORIENTED_EDGE('',*,*,#1584,.F.);
#2226 = ORIENTED_EDGE('',*,*,#1630,.T.);
#2227 = ORIENTED_EDGE('',*,*,#1785,.F.);
#2228 = ORIENTED_EDGE('',*,*,#1754,.F.);
#2229 = ORIENTED_EDGE('',*,*,#1723,.F.);
#2230 = PLANE('',#2231);
#2231 = AXIS2_PLACEMENT_3D('',#2232,#2233,#2234);
#2232 = CARTESIAN_POINT('',(5.,-11.0527100271,39.20460704607));
#2233 = DIRECTION('',(1.,0.,0.));
#2234 = DIRECTION('',(0.,0.,1.));
#2235 = ADVANCED_FACE('',(#2236),#2246,.T.);
#2236 = FACE_BOUND('',#2237,.T.);
#2237 = EDGE_LOOP('',(#2238,#2239,#2240,#2241,#2242,#2243,#2244,#2245));
#2238 = ORIENTED_EDGE('',*,*,#1700,.T.);
#2239 = ORIENTED_EDGE('',*,*,#1739,.T.);
#2240 = ORIENTED_EDGE('',*,*,#1770,.T.);
#2241 = ORIENTED_EDGE('',*,*,#1792,.T.);
#2242 = ORIENTED_EDGE('',*,*,#1614,.F.);
#2243 = ORIENTED_EDGE('',*,*,#1591,.T.);
#2244 = ORIENTED_EDGE('',*,*,#1520,.F.);
#2245 = ORIENTED_EDGE('',*,*,#1354,.F.);
#2246 = PLANE('',#2247);
#2247 = AXIS2_PLACEMENT_3D('',#2248,#2249,#2250);
#2248 = CARTESIAN_POINT('',(-5.,-11.0527100271,39.20460704607));
#2249 = DIRECTION('',(-1.,-0.,-0.));
#2250 = DIRECTION('',(0.,0.,-1.));
#2251 = ( GEOMETRIC_REPRESENTATION_CONTEXT(3) 
GLOBAL_UNCERTAINTY_ASSIGNED_CONTEXT((#2255)) 
GLOBAL_UNIT_ASSIGNED_CONTEXT((#2252,#2253,#2254)) REPRESENTATION_CONTEXT
('Context #1','3D Context with UNIT and UNCERTAINTY') );
#2252 = ( LENGTH_UNIT() NAMED_UNIT(*) SI_UNIT(.MILLI.,.METRE.) );
#2253 = ( NAMED_UNIT(*) PLANE_ANGLE_UNIT() SI_UNIT($,.RADIAN.) );
#2254 = ( NAMED_UNIT(*) SI_UNIT($,.STERADIAN.) SOLID_ANGLE_UNIT() );
#2255 = UNCERTAINTY_MEASURE_WITH_UNIT(LENGTH_MEASURE(1.E-07),#2252,
  'distance_accuracy_value','confusion accuracy');
#2256 = PRODUCT_RELATED_PRODUCT_CATEGORY('part',$,(#7));
ENDSEC;
END-ISO-10303-21;
