ISO-10303-21;
HEADER;
FILE_DESCRIPTION(('FreeCAD Model'),'2;1');
FILE_NAME('Open CASCADE Shape Model','2026-08-11T21:49:32',('FreeCAD'),(
    'FreeCAD'),'Open CASCADE STEP processor 7.8','FreeCAD','Unknown');
FILE_SCHEMA(('AUTOMOTIVE_DESIGN { 1 0 10303 214 1 1 1 1 }'));
ENDSEC;
DATA;
#1 = APPLICATION_PROTOCOL_DEFINITION('international standard',
  'automotive_design',2000,#2);
#2 = APPLICATION_CONTEXT(
  'core data for automotive mechanical design processes');
#3 = SHAPE_DEFINITION_REPRESENTATION(#4,#10);
#4 = PRODUCT_DEFINITION_SHAPE('','',#5);
#5 = PRODUCT_DEFINITION('design','',#6,#9);
#6 = PRODUCT_DEFINITION_FORMATION('','',#7);
#7 = PRODUCT('Open CASCADE STEP translator 7.8 1',
  'Open CASCADE STEP translator 7.8 1','',(#8));
#8 = PRODUCT_CONTEXT('',#2,'mechanical');
#9 = PRODUCT_DEFINITION_CONTEXT('part definition',#2,'design');
#10 = ADVANCED_BREP_SHAPE_REPRESENTATION('',(#11,#15),#2319);
#11 = AXIS2_PLACEMENT_3D('',#12,#13,#14);
#12 = CARTESIAN_POINT('',(0.,0.,0.));
#13 = DIRECTION('',(0.,0.,1.));
#14 = DIRECTION('',(1.,0.,-0.));
#15 = MANIFOLD_SOLID_BREP('',#16);
#16 = CLOSED_SHELL('',(#17,#57,#90,#121,#160,#199,#230,#261,#299,#628,
    #659,#683,#714,#738,#770,#794,#818,#843,#867,#884,#916,#940,#964,
    #989,#1013,#1030,#1061,#1081,#1106,#1126,#1205,#1236,#1256,#1281,
    #1301,#1380,#1491,#1522,#1553,#1579,#1605,#1631,#1684,#1756,#1842,
    #1873,#1904,#1935,#1957,#1981,#2037,#2054,#2071,#2088,#2105,#2122,
    #2134,#2171,#2208,#2234,#2253,#2272,#2293,#2305));
#17 = ADVANCED_FACE('',(#18),#52,.F.);
#18 = FACE_BOUND('',#19,.F.);
#19 = EDGE_LOOP('',(#20,#30,#38,#46));
#20 = ORIENTED_EDGE('',*,*,#21,.F.);
#21 = EDGE_CURVE('',#22,#24,#26,.T.);
#22 = VERTEX_POINT('',#23);
#23 = CARTESIAN_POINT('',(-6.480258530026,-30.,81.075765957801));
#24 = VERTEX_POINT('',#25);
#25 = CARTESIAN_POINT('',(-13.2,-30.,75.803733495697));
#26 = LINE('',#27,#28);
#27 = CARTESIAN_POINT('',(1.543148296361,-30.,87.37060057821));
#28 = VECTOR('',#29,1.);
#29 = DIRECTION('',(-0.786759768716,0.,-0.617259318544));
#30 = ORIENTED_EDGE('',*,*,#31,.T.);
#31 = EDGE_CURVE('',#22,#32,#34,.T.);
#32 = VERTEX_POINT('',#33);
#33 = CARTESIAN_POINT('',(-6.480258530026,-23.7,81.075765957801));
#34 = LINE('',#35,#36);
#35 = CARTESIAN_POINT('',(-6.480258530026,-30.,81.075765957802));
#36 = VECTOR('',#37,1.);
#37 = DIRECTION('',(0.,1.,0.));
#38 = ORIENTED_EDGE('',*,*,#39,.T.);
#39 = EDGE_CURVE('',#32,#40,#42,.T.);
#40 = VERTEX_POINT('',#41);
#41 = CARTESIAN_POINT('',(-13.2,-23.7,75.803733495697));
#42 = LINE('',#43,#44);
#43 = CARTESIAN_POINT('',(1.543148296361,-23.7,87.37060057821));
#44 = VECTOR('',#45,1.);
#45 = DIRECTION('',(-0.786759768716,0.,-0.617259318544));
#46 = ORIENTED_EDGE('',*,*,#47,.T.);
#47 = EDGE_CURVE('',#40,#24,#48,.T.);
#48 = LINE('',#49,#50);
#49 = CARTESIAN_POINT('',(-13.2,-30.,75.803733495697));
#50 = VECTOR('',#51,1.);
#51 = DIRECTION('',(0.,-1.,0.));
#52 = PLANE('',#53);
#53 = AXIS2_PLACEMENT_3D('',#54,#55,#56);
#54 = CARTESIAN_POINT('',(1.543148296361,-30.,87.37060057821));
#55 = DIRECTION('',(-0.617259318544,0.,0.786759768716));
#56 = DIRECTION('',(-0.786759768716,0.,-0.617259318544));
#57 = ADVANCED_FACE('',(#58),#85,.T.);
#58 = FACE_BOUND('',#59,.T.);
#59 = EDGE_LOOP('',(#60,#69,#77,#84));
#60 = ORIENTED_EDGE('',*,*,#61,.F.);
#61 = EDGE_CURVE('',#62,#32,#64,.T.);
#62 = VERTEX_POINT('',#63);
#63 = CARTESIAN_POINT('',(6.480258530026,-23.7,81.075765957801));
#64 = CIRCLE('',#65,10.5);
#65 = AXIS2_PLACEMENT_3D('',#66,#67,#68);
#66 = CARTESIAN_POINT('',(0.,-23.7,89.3375));
#67 = DIRECTION('',(0.,1.,0.));
#68 = DIRECTION('',(0.,0.,1.));
#69 = ORIENTED_EDGE('',*,*,#70,.F.);
#70 = EDGE_CURVE('',#71,#62,#73,.T.);
#71 = VERTEX_POINT('',#72);
#72 = CARTESIAN_POINT('',(6.480258530026,-30.,81.075765957801));
#73 = LINE('',#74,#75);
#74 = CARTESIAN_POINT('',(6.480258530026,-30.,81.075765957802));
#75 = VECTOR('',#76,1.);
#76 = DIRECTION('',(0.,1.,0.));
#77 = ORIENTED_EDGE('',*,*,#78,.T.);
#78 = EDGE_CURVE('',#71,#22,#79,.T.);
#79 = CIRCLE('',#80,10.5);
#80 = AXIS2_PLACEMENT_3D('',#81,#82,#83);
#81 = CARTESIAN_POINT('',(0.,-30.,89.3375));
#82 = DIRECTION('',(0.,1.,0.));
#83 = DIRECTION('',(0.,0.,1.));
#84 = ORIENTED_EDGE('',*,*,#31,.T.);
#85 = CYLINDRICAL_SURFACE('',#86,10.5);
#86 = AXIS2_PLACEMENT_3D('',#87,#88,#89);
#87 = CARTESIAN_POINT('',(0.,-30.,89.3375));
#88 = DIRECTION('',(0.,1.,0.));
#89 = DIRECTION('',(0.,0.,1.));
#90 = ADVANCED_FACE('',(#91),#116,.F.);
#91 = FACE_BOUND('',#92,.F.);
#92 = EDGE_LOOP('',(#93,#101,#109,#115));
#93 = ORIENTED_EDGE('',*,*,#94,.F.);
#94 = EDGE_CURVE('',#95,#71,#97,.T.);
#95 = VERTEX_POINT('',#96);
#96 = CARTESIAN_POINT('',(13.2,-30.,75.803733495697));
#97 = LINE('',#98,#99);
#98 = CARTESIAN_POINT('',(15.456851703639,-30.,74.03310057821));
#99 = VECTOR('',#100,1.);
#100 = DIRECTION('',(-0.786759768716,0.,0.617259318544));
#101 = ORIENTED_EDGE('',*,*,#102,.F.);
#102 = EDGE_CURVE('',#103,#95,#105,.T.);
#103 = VERTEX_POINT('',#104);
#104 = CARTESIAN_POINT('',(13.2,-23.7,75.803733495697));
#105 = LINE('',#106,#107);
#106 = CARTESIAN_POINT('',(13.2,-30.,75.803733495697));
#107 = VECTOR('',#108,1.);
#108 = DIRECTION('',(0.,-1.,0.));
#109 = ORIENTED_EDGE('',*,*,#110,.T.);
#110 = EDGE_CURVE('',#103,#62,#111,.T.);
#111 = LINE('',#112,#113);
#112 = CARTESIAN_POINT('',(15.456851703639,-23.7,74.03310057821));
#113 = VECTOR('',#114,1.);
#114 = DIRECTION('',(-0.786759768716,0.,0.617259318544));
#115 = ORIENTED_EDGE('',*,*,#70,.F.);
#116 = PLANE('',#117);
#117 = AXIS2_PLACEMENT_3D('',#118,#119,#120);
#118 = CARTESIAN_POINT('',(15.456851703639,-30.,74.03310057821));
#119 = DIRECTION('',(0.617259318544,0.,0.786759768716));
#120 = DIRECTION('',(-0.786759768716,0.,0.617259318544));
#121 = ADVANCED_FACE('',(#122),#155,.T.);
#122 = FACE_BOUND('',#123,.T.);
#123 = EDGE_LOOP('',(#124,#132,#140,#148,#154));
#124 = ORIENTED_EDGE('',*,*,#125,.F.);
#125 = EDGE_CURVE('',#126,#24,#128,.T.);
#126 = VERTEX_POINT('',#127);
#127 = CARTESIAN_POINT('',(-13.2,-30.,68.));
#128 = LINE('',#129,#130);
#129 = CARTESIAN_POINT('',(-13.2,-30.,68.));
#130 = VECTOR('',#131,1.);
#131 = DIRECTION('',(0.,0.,1.));
#132 = ORIENTED_EDGE('',*,*,#133,.T.);
#133 = EDGE_CURVE('',#126,#134,#136,.T.);
#134 = VERTEX_POINT('',#135);
#135 = CARTESIAN_POINT('',(-13.2,-24.,68.));
#136 = LINE('',#137,#138);
#137 = CARTESIAN_POINT('',(-13.2,-30.,68.));
#138 = VECTOR('',#139,1.);
#139 = DIRECTION('',(0.,1.,0.));
#140 = ORIENTED_EDGE('',*,*,#141,.T.);
#141 = EDGE_CURVE('',#134,#142,#144,.T.);
#142 = VERTEX_POINT('',#143);
#143 = CARTESIAN_POINT('',(-13.2,-23.7,68.));
#144 = LINE('',#145,#146);
#145 = CARTESIAN_POINT('',(-13.2,-30.,68.));
#146 = VECTOR('',#147,1.);
#147 = DIRECTION('',(0.,1.,0.));
#148 = ORIENTED_EDGE('',*,*,#149,.T.);
#149 = EDGE_CURVE('',#142,#40,#150,.T.);
#150 = LINE('',#151,#152);
#151 = CARTESIAN_POINT('',(-13.2,-23.7,68.));
#152 = VECTOR('',#153,1.);
#153 = DIRECTION('',(0.,0.,1.));
#154 = ORIENTED_EDGE('',*,*,#47,.T.);
#155 = PLANE('',#156);
#156 = AXIS2_PLACEMENT_3D('',#157,#158,#159);
#157 = CARTESIAN_POINT('',(-13.2,-30.,68.));
#158 = DIRECTION('',(1.,0.,0.));
#159 = DIRECTION('',(0.,0.,1.));
#160 = ADVANCED_FACE('',(#161),#194,.F.);
#161 = FACE_BOUND('',#162,.F.);
#162 = EDGE_LOOP('',(#163,#171,#179,#187,#193));
#163 = ORIENTED_EDGE('',*,*,#164,.F.);
#164 = EDGE_CURVE('',#165,#95,#167,.T.);
#165 = VERTEX_POINT('',#166);
#166 = CARTESIAN_POINT('',(13.2,-30.,68.));
#167 = LINE('',#168,#169);
#168 = CARTESIAN_POINT('',(13.2,-30.,68.));
#169 = VECTOR('',#170,1.);
#170 = DIRECTION('',(0.,0.,1.));
#171 = ORIENTED_EDGE('',*,*,#172,.T.);
#172 = EDGE_CURVE('',#165,#173,#175,.T.);
#173 = VERTEX_POINT('',#174);
#174 = CARTESIAN_POINT('',(13.2,-24.,68.));
#175 = LINE('',#176,#177);
#176 = CARTESIAN_POINT('',(13.2,-30.,68.));
#177 = VECTOR('',#178,1.);
#178 = DIRECTION('',(0.,1.,0.));
#179 = ORIENTED_EDGE('',*,*,#180,.T.);
#180 = EDGE_CURVE('',#173,#181,#183,.T.);
#181 = VERTEX_POINT('',#182);
#182 = CARTESIAN_POINT('',(13.2,-23.7,68.));
#183 = LINE('',#184,#185);
#184 = CARTESIAN_POINT('',(13.2,-30.,68.));
#185 = VECTOR('',#186,1.);
#186 = DIRECTION('',(0.,1.,0.));
#187 = ORIENTED_EDGE('',*,*,#188,.T.);
#188 = EDGE_CURVE('',#181,#103,#189,.T.);
#189 = LINE('',#190,#191);
#190 = CARTESIAN_POINT('',(13.2,-23.7,68.));
#191 = VECTOR('',#192,1.);
#192 = DIRECTION('',(0.,0.,1.));
#193 = ORIENTED_EDGE('',*,*,#102,.T.);
#194 = PLANE('',#195);
#195 = AXIS2_PLACEMENT_3D('',#196,#197,#198);
#196 = CARTESIAN_POINT('',(13.2,-30.,68.));
#197 = DIRECTION('',(1.,0.,0.));
#198 = DIRECTION('',(0.,0.,1.));
#199 = ADVANCED_FACE('',(#200),#225,.F.);
#200 = FACE_BOUND('',#201,.F.);
#201 = EDGE_LOOP('',(#202,#212,#218,#219));
#202 = ORIENTED_EDGE('',*,*,#203,.F.);
#203 = EDGE_CURVE('',#204,#206,#208,.T.);
#204 = VERTEX_POINT('',#205);
#205 = CARTESIAN_POINT('',(-19.,-30.,68.));
#206 = VERTEX_POINT('',#207);
#207 = CARTESIAN_POINT('',(-19.,-24.,68.));
#208 = LINE('',#209,#210);
#209 = CARTESIAN_POINT('',(-19.,-30.,68.));
#210 = VECTOR('',#211,1.);
#211 = DIRECTION('',(0.,1.,0.));
#212 = ORIENTED_EDGE('',*,*,#213,.T.);
#213 = EDGE_CURVE('',#204,#126,#214,.T.);
#214 = LINE('',#215,#216);
#215 = CARTESIAN_POINT('',(-19.,-30.,68.));
#216 = VECTOR('',#217,1.);
#217 = DIRECTION('',(1.,0.,0.));
#218 = ORIENTED_EDGE('',*,*,#133,.T.);
#219 = ORIENTED_EDGE('',*,*,#220,.F.);
#220 = EDGE_CURVE('',#206,#134,#221,.T.);
#221 = LINE('',#222,#223);
#222 = CARTESIAN_POINT('',(-19.,-24.,68.));
#223 = VECTOR('',#224,1.);
#224 = DIRECTION('',(1.,0.,0.));
#225 = PLANE('',#226);
#226 = AXIS2_PLACEMENT_3D('',#227,#228,#229);
#227 = CARTESIAN_POINT('',(-19.,-30.,68.));
#228 = DIRECTION('',(0.,0.,1.));
#229 = DIRECTION('',(1.,0.,0.));
#230 = ADVANCED_FACE('',(#231),#256,.F.);
#231 = FACE_BOUND('',#232,.F.);
#232 = EDGE_LOOP('',(#233,#241,#242,#250));
#233 = ORIENTED_EDGE('',*,*,#234,.F.);
#234 = EDGE_CURVE('',#173,#235,#237,.T.);
#235 = VERTEX_POINT('',#236);
#236 = CARTESIAN_POINT('',(19.,-24.,68.));
#237 = LINE('',#238,#239);
#238 = CARTESIAN_POINT('',(-19.,-24.,68.));
#239 = VECTOR('',#240,1.);
#240 = DIRECTION('',(1.,0.,0.));
#241 = ORIENTED_EDGE('',*,*,#172,.F.);
#242 = ORIENTED_EDGE('',*,*,#243,.T.);
#243 = EDGE_CURVE('',#165,#244,#246,.T.);
#244 = VERTEX_POINT('',#245);
#245 = CARTESIAN_POINT('',(19.,-30.,68.));
#246 = LINE('',#247,#248);
#247 = CARTESIAN_POINT('',(13.2,-30.,68.));
#248 = VECTOR('',#249,1.);
#249 = DIRECTION('',(1.,0.,0.));
#250 = ORIENTED_EDGE('',*,*,#251,.T.);
#251 = EDGE_CURVE('',#244,#235,#252,.T.);
#252 = LINE('',#253,#254);
#253 = CARTESIAN_POINT('',(19.,-30.,68.));
#254 = VECTOR('',#255,1.);
#255 = DIRECTION('',(0.,1.,0.));
#256 = PLANE('',#257);
#257 = AXIS2_PLACEMENT_3D('',#258,#259,#260);
#258 = CARTESIAN_POINT('',(13.2,-30.,68.));
#259 = DIRECTION('',(0.,0.,1.));
#260 = DIRECTION('',(1.,0.,0.));
#261 = ADVANCED_FACE('',(#262),#294,.F.);
#262 = FACE_BOUND('',#263,.F.);
#263 = EDGE_LOOP('',(#264,#274,#280,#281,#287,#288));
#264 = ORIENTED_EDGE('',*,*,#265,.F.);
#265 = EDGE_CURVE('',#266,#268,#270,.T.);
#266 = VERTEX_POINT('',#267);
#267 = CARTESIAN_POINT('',(-19.,-24.,64.));
#268 = VERTEX_POINT('',#269);
#269 = CARTESIAN_POINT('',(19.,-24.,64.));
#270 = LINE('',#271,#272);
#271 = CARTESIAN_POINT('',(-19.,-24.,64.));
#272 = VECTOR('',#273,1.);
#273 = DIRECTION('',(1.,0.,0.));
#274 = ORIENTED_EDGE('',*,*,#275,.T.);
#275 = EDGE_CURVE('',#266,#206,#276,.T.);
#276 = LINE('',#277,#278);
#277 = CARTESIAN_POINT('',(-19.,-24.,64.));
#278 = VECTOR('',#279,1.);
#279 = DIRECTION('',(0.,0.,1.));
#280 = ORIENTED_EDGE('',*,*,#220,.T.);
#281 = ORIENTED_EDGE('',*,*,#282,.T.);
#282 = EDGE_CURVE('',#134,#173,#283,.T.);
#283 = LINE('',#284,#285);
#284 = CARTESIAN_POINT('',(-19.,-24.,68.));
#285 = VECTOR('',#286,1.);
#286 = DIRECTION('',(1.,0.,0.));
#287 = ORIENTED_EDGE('',*,*,#234,.T.);
#288 = ORIENTED_EDGE('',*,*,#289,.F.);
#289 = EDGE_CURVE('',#268,#235,#290,.T.);
#290 = LINE('',#291,#292);
#291 = CARTESIAN_POINT('',(19.,-24.,64.));
#292 = VECTOR('',#293,1.);
#293 = DIRECTION('',(0.,0.,1.));
#294 = PLANE('',#295);
#295 = AXIS2_PLACEMENT_3D('',#296,#297,#298);
#296 = CARTESIAN_POINT('',(-19.,-24.,64.));
#297 = DIRECTION('',(0.,1.,0.));
#298 = DIRECTION('',(0.,0.,1.));
#299 = ADVANCED_FACE('',(#300,#389,#441,#493,#558),#623,.T.);
#300 = FACE_BOUND('',#301,.T.);
#301 = EDGE_LOOP('',(#302,#303,#304,#305,#306,#307,#315,#323,#331,#339,
    #348,#357,#365,#373,#381,#387,#388));
#302 = ORIENTED_EDGE('',*,*,#21,.F.);
#303 = ORIENTED_EDGE('',*,*,#78,.F.);
#304 = ORIENTED_EDGE('',*,*,#94,.F.);
#305 = ORIENTED_EDGE('',*,*,#164,.F.);
#306 = ORIENTED_EDGE('',*,*,#243,.T.);
#307 = ORIENTED_EDGE('',*,*,#308,.T.);
#308 = EDGE_CURVE('',#244,#309,#311,.T.);
#309 = VERTEX_POINT('',#310);
#310 = CARTESIAN_POINT('',(19.,-30.,144.));
#311 = LINE('',#312,#313);
#312 = CARTESIAN_POINT('',(19.,-30.,68.));
#313 = VECTOR('',#314,1.);
#314 = DIRECTION('',(0.,0.,1.));
#315 = ORIENTED_EDGE('',*,*,#316,.F.);
#316 = EDGE_CURVE('',#317,#309,#319,.T.);
#317 = VERTEX_POINT('',#318);
#318 = CARTESIAN_POINT('',(13.2,-30.,144.));
#319 = LINE('',#320,#321);
#320 = CARTESIAN_POINT('',(13.2,-30.,144.));
#321 = VECTOR('',#322,1.);
#322 = DIRECTION('',(1.,0.,0.));
#323 = ORIENTED_EDGE('',*,*,#324,.F.);
#324 = EDGE_CURVE('',#325,#317,#327,.T.);
#325 = VERTEX_POINT('',#326);
#326 = CARTESIAN_POINT('',(13.2,-30.,136.1962665043));
#327 = LINE('',#328,#329);
#328 = CARTESIAN_POINT('',(13.2,-30.,68.));
#329 = VECTOR('',#330,1.);
#330 = DIRECTION('',(0.,0.,1.));
#331 = ORIENTED_EDGE('',*,*,#332,.F.);
#332 = EDGE_CURVE('',#333,#325,#335,.T.);
#333 = VERTEX_POINT('',#334);
#334 = CARTESIAN_POINT('',(6.480258530026,-30.,130.92423404219));
#335 = LINE('',#336,#337);
#336 = CARTESIAN_POINT('',(-1.543148296361,-30.,124.62939942179));
#337 = VECTOR('',#338,1.);
#338 = DIRECTION('',(0.786759768716,0.,0.617259318544));
#339 = ORIENTED_EDGE('',*,*,#340,.F.);
#340 = EDGE_CURVE('',#341,#333,#343,.T.);
#341 = VERTEX_POINT('',#342);
#342 = CARTESIAN_POINT('',(-3.E-15,-30.,133.1625));
#343 = CIRCLE('',#344,10.5);
#344 = AXIS2_PLACEMENT_3D('',#345,#346,#347);
#345 = CARTESIAN_POINT('',(0.,-30.,122.6625));
#346 = DIRECTION('',(0.,1.,0.));
#347 = DIRECTION('',(0.,0.,1.));
#348 = ORIENTED_EDGE('',*,*,#349,.F.);
#349 = EDGE_CURVE('',#350,#341,#352,.T.);
#350 = VERTEX_POINT('',#351);
#351 = CARTESIAN_POINT('',(-6.480258530026,-30.,130.92423404219));
#352 = CIRCLE('',#353,10.5);
#353 = AXIS2_PLACEMENT_3D('',#354,#355,#356);
#354 = CARTESIAN_POINT('',(0.,-30.,122.6625));
#355 = DIRECTION('',(0.,1.,0.));
#356 = DIRECTION('',(0.,0.,1.));
#357 = ORIENTED_EDGE('',*,*,#358,.F.);
#358 = EDGE_CURVE('',#359,#350,#361,.T.);
#359 = VERTEX_POINT('',#360);
#360 = CARTESIAN_POINT('',(-13.2,-30.,136.1962665043));
#361 = LINE('',#362,#363);
#362 = CARTESIAN_POINT('',(-15.45685170363,-30.,137.96689942179));
#363 = VECTOR('',#364,1.);
#364 = DIRECTION('',(0.786759768716,0.,-0.617259318544));
#365 = ORIENTED_EDGE('',*,*,#366,.T.);
#366 = EDGE_CURVE('',#359,#367,#369,.T.);
#367 = VERTEX_POINT('',#368);
#368 = CARTESIAN_POINT('',(-13.2,-30.,144.));
#369 = LINE('',#370,#371);
#370 = CARTESIAN_POINT('',(-13.2,-30.,68.));
#371 = VECTOR('',#372,1.);
#372 = DIRECTION('',(0.,0.,1.));
#373 = ORIENTED_EDGE('',*,*,#374,.F.);
#374 = EDGE_CURVE('',#375,#367,#377,.T.);
#375 = VERTEX_POINT('',#376);
#376 = CARTESIAN_POINT('',(-19.,-30.,144.));
#377 = LINE('',#378,#379);
#378 = CARTESIAN_POINT('',(-19.,-30.,144.));
#379 = VECTOR('',#380,1.);
#380 = DIRECTION('',(1.,0.,0.));
#381 = ORIENTED_EDGE('',*,*,#382,.F.);
#382 = EDGE_CURVE('',#204,#375,#383,.T.);
#383 = LINE('',#384,#385);
#384 = CARTESIAN_POINT('',(-19.,-30.,68.));
#385 = VECTOR('',#386,1.);
#386 = DIRECTION('',(0.,0.,1.));
#387 = ORIENTED_EDGE('',*,*,#213,.T.);
#388 = ORIENTED_EDGE('',*,*,#125,.T.);
#389 = FACE_BOUND('',#390,.T.);
#390 = EDGE_LOOP('',(#391,#402,#410,#418,#426,#435));
#391 = ORIENTED_EDGE('',*,*,#392,.F.);
#392 = EDGE_CURVE('',#393,#395,#397,.T.);
#393 = VERTEX_POINT('',#394);
#394 = CARTESIAN_POINT('',(-9.566555122748,-30.,85.009564801383));
#395 = VERTEX_POINT('',#396);
#396 = CARTESIAN_POINT('',(-5.,-30.,98.57059265631));
#397 = CIRCLE('',#398,10.5);
#398 = AXIS2_PLACEMENT_3D('',#399,#400,#401);
#399 = CARTESIAN_POINT('',(0.,-30.,89.3375));
#400 = DIRECTION('',(0.,1.,0.));
#401 = DIRECTION('',(0.,0.,1.));
#402 = ORIENTED_EDGE('',*,*,#403,.F.);
#403 = EDGE_CURVE('',#404,#393,#406,.T.);
#404 = VERTEX_POINT('',#405);
#405 = CARTESIAN_POINT('',(-13.2,-30.,82.158913563126));
#406 = LINE('',#407,#408);
#407 = CARTESIAN_POINT('',(-18.54314829636,-30.,77.96689942179));
#408 = VECTOR('',#409,1.);
#409 = DIRECTION('',(0.786759768716,0.,0.617259318544));
#410 = ORIENTED_EDGE('',*,*,#411,.T.);
#411 = EDGE_CURVE('',#404,#412,#414,.T.);
#412 = VERTEX_POINT('',#413);
#413 = CARTESIAN_POINT('',(-13.2,-30.,129.84108643687));
#414 = LINE('',#415,#416);
#415 = CARTESIAN_POINT('',(-13.2,-30.,68.));
#416 = VECTOR('',#417,1.);
#417 = DIRECTION('',(0.,0.,1.));
#418 = ORIENTED_EDGE('',*,*,#419,.F.);
#419 = EDGE_CURVE('',#420,#412,#422,.T.);
#420 = VERTEX_POINT('',#421);
#421 = CARTESIAN_POINT('',(-9.566555122748,-30.,126.99043519861));
#422 = LINE('',#423,#424);
#423 = CARTESIAN_POINT('',(-1.543148296361,-30.,120.69560057821));
#424 = VECTOR('',#425,1.);
#425 = DIRECTION('',(-0.786759768716,0.,0.617259318544));
#426 = ORIENTED_EDGE('',*,*,#427,.F.);
#427 = EDGE_CURVE('',#428,#420,#430,.T.);
#428 = VERTEX_POINT('',#429);
#429 = CARTESIAN_POINT('',(-5.,-30.,113.42940734369));
#430 = CIRCLE('',#431,10.5);
#431 = AXIS2_PLACEMENT_3D('',#432,#433,#434);
#432 = CARTESIAN_POINT('',(0.,-30.,122.6625));
#433 = DIRECTION('',(0.,1.,0.));
#434 = DIRECTION('',(0.,0.,1.));
#435 = ORIENTED_EDGE('',*,*,#436,.F.);
#436 = EDGE_CURVE('',#395,#428,#437,.T.);
#437 = LINE('',#438,#439);
#438 = CARTESIAN_POINT('',(-5.,-30.,89.3375));
#439 = VECTOR('',#440,1.);
#440 = DIRECTION('',(0.,0.,1.));
#441 = FACE_BOUND('',#442,.T.);
#442 = EDGE_LOOP('',(#443,#454,#462,#470,#478,#487));
#443 = ORIENTED_EDGE('',*,*,#444,.F.);
#444 = EDGE_CURVE('',#445,#447,#449,.T.);
#445 = VERTEX_POINT('',#446);
#446 = CARTESIAN_POINT('',(9.566555122748,-30.,126.99043519861));
#447 = VERTEX_POINT('',#448);
#448 = CARTESIAN_POINT('',(5.,-30.,113.42940734369));
#449 = CIRCLE('',#450,10.5);
#450 = AXIS2_PLACEMENT_3D('',#451,#452,#453);
#451 = CARTESIAN_POINT('',(0.,-30.,122.6625));
#452 = DIRECTION('',(0.,1.,0.));
#453 = DIRECTION('',(0.,0.,1.));
#454 = ORIENTED_EDGE('',*,*,#455,.F.);
#455 = EDGE_CURVE('',#456,#445,#458,.T.);
#456 = VERTEX_POINT('',#457);
#457 = CARTESIAN_POINT('',(13.2,-30.,129.84108643687));
#458 = LINE('',#459,#460);
#459 = CARTESIAN_POINT('',(18.543148296361,-30.,134.03310057821));
#460 = VECTOR('',#461,1.);
#461 = DIRECTION('',(-0.786759768716,0.,-0.617259318544));
#462 = ORIENTED_EDGE('',*,*,#463,.F.);
#463 = EDGE_CURVE('',#464,#456,#466,.T.);
#464 = VERTEX_POINT('',#465);
#465 = CARTESIAN_POINT('',(13.2,-30.,82.158913563126));
#466 = LINE('',#467,#468);
#467 = CARTESIAN_POINT('',(13.2,-30.,68.));
#468 = VECTOR('',#469,1.);
#469 = DIRECTION('',(0.,0.,1.));
#470 = ORIENTED_EDGE('',*,*,#471,.F.);
#471 = EDGE_CURVE('',#472,#464,#474,.T.);
#472 = VERTEX_POINT('',#473);
#473 = CARTESIAN_POINT('',(9.566555122748,-30.,85.009564801383));
#474 = LINE('',#475,#476);
#475 = CARTESIAN_POINT('',(1.543148296361,-30.,91.30439942179));
#476 = VECTOR('',#477,1.);
#477 = DIRECTION('',(0.786759768716,0.,-0.617259318544));
#478 = ORIENTED_EDGE('',*,*,#479,.F.);
#479 = EDGE_CURVE('',#480,#472,#482,.T.);
#480 = VERTEX_POINT('',#481);
#481 = CARTESIAN_POINT('',(5.,-30.,98.57059265631));
#482 = CIRCLE('',#483,10.5);
#483 = AXIS2_PLACEMENT_3D('',#484,#485,#486);
#484 = CARTESIAN_POINT('',(0.,-30.,89.3375));
#485 = DIRECTION('',(0.,1.,0.));
#486 = DIRECTION('',(0.,0.,1.));
#487 = ORIENTED_EDGE('',*,*,#488,.T.);
#488 = EDGE_CURVE('',#480,#447,#489,.T.);
#489 = LINE('',#490,#491);
#490 = CARTESIAN_POINT('',(5.,-30.,89.3375));
#491 = VECTOR('',#492,1.);
#492 = DIRECTION('',(0.,0.,1.));
#493 = FACE_BOUND('',#494,.T.);
#494 = EDGE_LOOP('',(#495,#506,#515,#524,#533,#542,#551));
#495 = ORIENTED_EDGE('',*,*,#496,.T.);
#496 = EDGE_CURVE('',#497,#499,#501,.T.);
#497 = VERTEX_POINT('',#498);
#498 = CARTESIAN_POINT('',(-2.23464702829,-30.,90.761877990196));
#499 = VERTEX_POINT('',#500);
#500 = CARTESIAN_POINT('',(-1.E-15,-30.,91.9875));
#501 = CIRCLE('',#502,2.65);
#502 = AXIS2_PLACEMENT_3D('',#503,#504,#505);
#503 = CARTESIAN_POINT('',(0.,-30.,89.3375));
#504 = DIRECTION('',(0.,1.,0.));
#505 = DIRECTION('',(0.,0.,1.));
#506 = ORIENTED_EDGE('',*,*,#507,.T.);
#507 = EDGE_CURVE('',#499,#508,#510,.T.);
#508 = VERTEX_POINT('',#509);
#509 = CARTESIAN_POINT('',(2.23464702829,-30.,90.761877990196));
#510 = CIRCLE('',#511,2.65);
#511 = AXIS2_PLACEMENT_3D('',#512,#513,#514);
#512 = CARTESIAN_POINT('',(0.,-30.,89.3375));
#513 = DIRECTION('',(0.,1.,0.));
#514 = DIRECTION('',(0.,0.,1.));
#515 = ORIENTED_EDGE('',*,*,#516,.T.);
#516 = EDGE_CURVE('',#508,#517,#519,.T.);
#517 = VERTEX_POINT('',#518);
#518 = CARTESIAN_POINT('',(2.65,-30.,89.3375));
#519 = CIRCLE('',#520,2.65);
#520 = AXIS2_PLACEMENT_3D('',#521,#522,#523);
#521 = CARTESIAN_POINT('',(0.,-30.,89.3375));
#522 = DIRECTION('',(0.,1.,0.));
#523 = DIRECTION('',(0.,0.,1.));
#524 = ORIENTED_EDGE('',*,*,#525,.T.);
#525 = EDGE_CURVE('',#517,#526,#528,.T.);
#526 = VERTEX_POINT('',#527);
#527 = CARTESIAN_POINT('',(0.851649564431,-30.,86.828079146615));
#528 = CIRCLE('',#529,2.65);
#529 = AXIS2_PLACEMENT_3D('',#530,#531,#532);
#530 = CARTESIAN_POINT('',(0.,-30.,89.3375));
#531 = DIRECTION('',(0.,1.,0.));
#532 = DIRECTION('',(0.,0.,1.));
#533 = ORIENTED_EDGE('',*,*,#534,.T.);
#534 = EDGE_CURVE('',#526,#535,#537,.T.);
#535 = VERTEX_POINT('',#536);
#536 = CARTESIAN_POINT('',(-0.851649564431,-30.,86.828079146615));
#537 = CIRCLE('',#538,2.65);
#538 = AXIS2_PLACEMENT_3D('',#539,#540,#541);
#539 = CARTESIAN_POINT('',(0.,-30.,89.3375));
#540 = DIRECTION('',(0.,1.,0.));
#541 = DIRECTION('',(0.,0.,1.));
#542 = ORIENTED_EDGE('',*,*,#543,.T.);
#543 = EDGE_CURVE('',#535,#544,#546,.T.);
#544 = VERTEX_POINT('',#545);
#545 = CARTESIAN_POINT('',(-2.65,-30.,89.3375));
#546 = CIRCLE('',#547,2.65);
#547 = AXIS2_PLACEMENT_3D('',#548,#549,#550);
#548 = CARTESIAN_POINT('',(0.,-30.,89.3375));
#549 = DIRECTION('',(0.,1.,0.));
#550 = DIRECTION('',(0.,0.,1.));
#551 = ORIENTED_EDGE('',*,*,#552,.T.);
#552 = EDGE_CURVE('',#544,#497,#553,.T.);
#553 = CIRCLE('',#554,2.65);
#554 = AXIS2_PLACEMENT_3D('',#555,#556,#557);
#555 = CARTESIAN_POINT('',(0.,-30.,89.3375));
#556 = DIRECTION('',(0.,1.,0.));
#557 = DIRECTION('',(0.,0.,1.));
#558 = FACE_BOUND('',#559,.T.);
#559 = EDGE_LOOP('',(#560,#571,#580,#589,#598,#607,#616));
#560 = ORIENTED_EDGE('',*,*,#561,.T.);
#561 = EDGE_CURVE('',#562,#564,#566,.T.);
#562 = VERTEX_POINT('',#563);
#563 = CARTESIAN_POINT('',(-2.65,-30.,122.6625));
#564 = VERTEX_POINT('',#565);
#565 = CARTESIAN_POINT('',(-0.851649564431,-30.,125.17192085338));
#566 = CIRCLE('',#567,2.65);
#567 = AXIS2_PLACEMENT_3D('',#568,#569,#570);
#568 = CARTESIAN_POINT('',(0.,-30.,122.6625));
#569 = DIRECTION('',(0.,1.,0.));
#570 = DIRECTION('',(0.,0.,1.));
#571 = ORIENTED_EDGE('',*,*,#572,.T.);
#572 = EDGE_CURVE('',#564,#573,#575,.T.);
#573 = VERTEX_POINT('',#574);
#574 = CARTESIAN_POINT('',(-1.E-15,-30.,125.3125));
#575 = CIRCLE('',#576,2.65);
#576 = AXIS2_PLACEMENT_3D('',#577,#578,#579);
#577 = CARTESIAN_POINT('',(0.,-30.,122.6625));
#578 = DIRECTION('',(0.,1.,0.));
#579 = DIRECTION('',(0.,0.,1.));
#580 = ORIENTED_EDGE('',*,*,#581,.T.);
#581 = EDGE_CURVE('',#573,#582,#584,.T.);
#582 = VERTEX_POINT('',#583);
#583 = CARTESIAN_POINT('',(0.851649564431,-30.,125.17192085338));
#584 = CIRCLE('',#585,2.65);
#585 = AXIS2_PLACEMENT_3D('',#586,#587,#588);
#586 = CARTESIAN_POINT('',(0.,-30.,122.6625));
#587 = DIRECTION('',(0.,1.,0.));
#588 = DIRECTION('',(0.,0.,1.));
#589 = ORIENTED_EDGE('',*,*,#590,.T.);
#590 = EDGE_CURVE('',#582,#591,#593,.T.);
#591 = VERTEX_POINT('',#592);
#592 = CARTESIAN_POINT('',(2.65,-30.,122.6625));
#593 = CIRCLE('',#594,2.65);
#594 = AXIS2_PLACEMENT_3D('',#595,#596,#597);
#595 = CARTESIAN_POINT('',(0.,-30.,122.6625));
#596 = DIRECTION('',(0.,1.,0.));
#597 = DIRECTION('',(0.,0.,1.));
#598 = ORIENTED_EDGE('',*,*,#599,.T.);
#599 = EDGE_CURVE('',#591,#600,#602,.T.);
#600 = VERTEX_POINT('',#601);
#601 = CARTESIAN_POINT('',(2.23464702829,-30.,121.2381220098));
#602 = CIRCLE('',#603,2.65);
#603 = AXIS2_PLACEMENT_3D('',#604,#605,#606);
#604 = CARTESIAN_POINT('',(0.,-30.,122.6625));
#605 = DIRECTION('',(0.,1.,0.));
#606 = DIRECTION('',(0.,0.,1.));
#607 = ORIENTED_EDGE('',*,*,#608,.T.);
#608 = EDGE_CURVE('',#600,#609,#611,.T.);
#609 = VERTEX_POINT('',#610);
#610 = CARTESIAN_POINT('',(-2.23464702829,-30.,121.2381220098));
#611 = CIRCLE('',#612,2.65);
#612 = AXIS2_PLACEMENT_3D('',#613,#614,#615);
#613 = CARTESIAN_POINT('',(0.,-30.,122.6625));
#614 = DIRECTION('',(0.,1.,0.));
#615 = DIRECTION('',(0.,0.,1.));
#616 = ORIENTED_EDGE('',*,*,#617,.T.);
#617 = EDGE_CURVE('',#609,#562,#618,.T.);
#618 = CIRCLE('',#619,2.65);
#619 = AXIS2_PLACEMENT_3D('',#620,#621,#622);
#620 = CARTESIAN_POINT('',(0.,-30.,122.6625));
#621 = DIRECTION('',(0.,1.,0.));
#622 = DIRECTION('',(0.,0.,1.));
#623 = PLANE('',#624);
#624 = AXIS2_PLACEMENT_3D('',#625,#626,#627);
#625 = CARTESIAN_POINT('',(-2.1E-16,-30.,106.01461190416));
#626 = DIRECTION('',(-0.,-1.,-0.));
#627 = DIRECTION('',(0.,0.,-1.));
#628 = ADVANCED_FACE('',(#629),#654,.F.);
#629 = FACE_BOUND('',#630,.F.);
#630 = EDGE_LOOP('',(#631,#632,#640,#648));
#631 = ORIENTED_EDGE('',*,*,#324,.F.);
#632 = ORIENTED_EDGE('',*,*,#633,.T.);
#633 = EDGE_CURVE('',#325,#634,#636,.T.);
#634 = VERTEX_POINT('',#635);
#635 = CARTESIAN_POINT('',(13.2,-23.7,136.1962665043));
#636 = LINE('',#637,#638);
#637 = CARTESIAN_POINT('',(13.2,-30.,136.1962665043));
#638 = VECTOR('',#639,1.);
#639 = DIRECTION('',(0.,1.,0.));
#640 = ORIENTED_EDGE('',*,*,#641,.T.);
#641 = EDGE_CURVE('',#634,#642,#644,.T.);
#642 = VERTEX_POINT('',#643);
#643 = CARTESIAN_POINT('',(13.2,-23.7,144.));
#644 = LINE('',#645,#646);
#645 = CARTESIAN_POINT('',(13.2,-23.7,68.));
#646 = VECTOR('',#647,1.);
#647 = DIRECTION('',(0.,0.,1.));
#648 = ORIENTED_EDGE('',*,*,#649,.F.);
#649 = EDGE_CURVE('',#317,#642,#650,.T.);
#650 = LINE('',#651,#652);
#651 = CARTESIAN_POINT('',(13.2,-30.,144.));
#652 = VECTOR('',#653,1.);
#653 = DIRECTION('',(0.,1.,0.));
#654 = PLANE('',#655);
#655 = AXIS2_PLACEMENT_3D('',#656,#657,#658);
#656 = CARTESIAN_POINT('',(13.2,-30.,68.));
#657 = DIRECTION('',(1.,0.,0.));
#658 = DIRECTION('',(0.,0.,1.));
#659 = ADVANCED_FACE('',(#660),#678,.F.);
#660 = FACE_BOUND('',#661,.F.);
#661 = EDGE_LOOP('',(#662,#663,#671,#677));
#662 = ORIENTED_EDGE('',*,*,#332,.F.);
#663 = ORIENTED_EDGE('',*,*,#664,.T.);
#664 = EDGE_CURVE('',#333,#665,#667,.T.);
#665 = VERTEX_POINT('',#666);
#666 = CARTESIAN_POINT('',(6.480258530026,-23.7,130.92423404219));
#667 = LINE('',#668,#669);
#668 = CARTESIAN_POINT('',(6.480258530026,-30.,130.92423404219));
#669 = VECTOR('',#670,1.);
#670 = DIRECTION('',(0.,1.,0.));
#671 = ORIENTED_EDGE('',*,*,#672,.T.);
#672 = EDGE_CURVE('',#665,#634,#673,.T.);
#673 = LINE('',#674,#675);
#674 = CARTESIAN_POINT('',(-1.543148296361,-23.7,124.62939942179));
#675 = VECTOR('',#676,1.);
#676 = DIRECTION('',(0.786759768716,0.,0.617259318544));
#677 = ORIENTED_EDGE('',*,*,#633,.F.);
#678 = PLANE('',#679);
#679 = AXIS2_PLACEMENT_3D('',#680,#681,#682);
#680 = CARTESIAN_POINT('',(-1.543148296361,-30.,124.62939942179));
#681 = DIRECTION('',(0.617259318544,0.,-0.786759768716));
#682 = DIRECTION('',(0.786759768716,0.,0.617259318544));
#683 = ADVANCED_FACE('',(#684),#709,.T.);
#684 = FACE_BOUND('',#685,.T.);
#685 = EDGE_LOOP('',(#686,#687,#695,#703));
#686 = ORIENTED_EDGE('',*,*,#366,.F.);
#687 = ORIENTED_EDGE('',*,*,#688,.T.);
#688 = EDGE_CURVE('',#359,#689,#691,.T.);
#689 = VERTEX_POINT('',#690);
#690 = CARTESIAN_POINT('',(-13.2,-23.7,136.1962665043));
#691 = LINE('',#692,#693);
#692 = CARTESIAN_POINT('',(-13.2,-30.,136.1962665043));
#693 = VECTOR('',#694,1.);
#694 = DIRECTION('',(0.,1.,0.));
#695 = ORIENTED_EDGE('',*,*,#696,.T.);
#696 = EDGE_CURVE('',#689,#697,#699,.T.);
#697 = VERTEX_POINT('',#698);
#698 = CARTESIAN_POINT('',(-13.2,-23.7,144.));
#699 = LINE('',#700,#701);
#700 = CARTESIAN_POINT('',(-13.2,-23.7,68.));
#701 = VECTOR('',#702,1.);
#702 = DIRECTION('',(0.,0.,1.));
#703 = ORIENTED_EDGE('',*,*,#704,.F.);
#704 = EDGE_CURVE('',#367,#697,#705,.T.);
#705 = LINE('',#706,#707);
#706 = CARTESIAN_POINT('',(-13.2,-30.,144.));
#707 = VECTOR('',#708,1.);
#708 = DIRECTION('',(0.,1.,0.));
#709 = PLANE('',#710);
#710 = AXIS2_PLACEMENT_3D('',#711,#712,#713);
#711 = CARTESIAN_POINT('',(-13.2,-30.,68.));
#712 = DIRECTION('',(1.,0.,0.));
#713 = DIRECTION('',(0.,0.,1.));
#714 = ADVANCED_FACE('',(#715),#733,.F.);
#715 = FACE_BOUND('',#716,.F.);
#716 = EDGE_LOOP('',(#717,#718,#719,#727));
#717 = ORIENTED_EDGE('',*,*,#358,.F.);
#718 = ORIENTED_EDGE('',*,*,#688,.T.);
#719 = ORIENTED_EDGE('',*,*,#720,.T.);
#720 = EDGE_CURVE('',#689,#721,#723,.T.);
#721 = VERTEX_POINT('',#722);
#722 = CARTESIAN_POINT('',(-6.480258530026,-23.7,130.92423404219));
#723 = LINE('',#724,#725);
#724 = CARTESIAN_POINT('',(-15.45685170363,-23.7,137.96689942179));
#725 = VECTOR('',#726,1.);
#726 = DIRECTION('',(0.786759768716,0.,-0.617259318544));
#727 = ORIENTED_EDGE('',*,*,#728,.F.);
#728 = EDGE_CURVE('',#350,#721,#729,.T.);
#729 = LINE('',#730,#731);
#730 = CARTESIAN_POINT('',(-6.480258530026,-30.,130.92423404219));
#731 = VECTOR('',#732,1.);
#732 = DIRECTION('',(0.,1.,0.));
#733 = PLANE('',#734);
#734 = AXIS2_PLACEMENT_3D('',#735,#736,#737);
#735 = CARTESIAN_POINT('',(-15.45685170363,-30.,137.96689942179));
#736 = DIRECTION('',(-0.617259318544,0.,-0.786759768716));
#737 = DIRECTION('',(0.786759768716,0.,-0.617259318544));
#738 = ADVANCED_FACE('',(#739),#765,.T.);
#739 = FACE_BOUND('',#740,.T.);
#740 = EDGE_LOOP('',(#741,#752,#758,#759));
#741 = ORIENTED_EDGE('',*,*,#742,.F.);
#742 = EDGE_CURVE('',#743,#745,#747,.T.);
#743 = VERTEX_POINT('',#744);
#744 = CARTESIAN_POINT('',(-9.566555122748,-23.7,85.009564801383));
#745 = VERTEX_POINT('',#746);
#746 = CARTESIAN_POINT('',(-5.,-23.7,98.57059265631));
#747 = CIRCLE('',#748,10.5);
#748 = AXIS2_PLACEMENT_3D('',#749,#750,#751);
#749 = CARTESIAN_POINT('',(0.,-23.7,89.3375));
#750 = DIRECTION('',(0.,1.,0.));
#751 = DIRECTION('',(0.,0.,1.));
#752 = ORIENTED_EDGE('',*,*,#753,.F.);
#753 = EDGE_CURVE('',#393,#743,#754,.T.);
#754 = LINE('',#755,#756);
#755 = CARTESIAN_POINT('',(-9.566555122748,-30.,85.009564801382));
#756 = VECTOR('',#757,1.);
#757 = DIRECTION('',(0.,1.,0.));
#758 = ORIENTED_EDGE('',*,*,#392,.T.);
#759 = ORIENTED_EDGE('',*,*,#760,.T.);
#760 = EDGE_CURVE('',#395,#745,#761,.T.);
#761 = LINE('',#762,#763);
#762 = CARTESIAN_POINT('',(-5.,-30.,98.57059265631));
#763 = VECTOR('',#764,1.);
#764 = DIRECTION('',(0.,1.,0.));
#765 = CYLINDRICAL_SURFACE('',#766,10.5);
#766 = AXIS2_PLACEMENT_3D('',#767,#768,#769);
#767 = CARTESIAN_POINT('',(0.,-30.,89.3375));
#768 = DIRECTION('',(0.,1.,0.));
#769 = DIRECTION('',(0.,0.,1.));
#770 = ADVANCED_FACE('',(#771),#789,.F.);
#771 = FACE_BOUND('',#772,.F.);
#772 = EDGE_LOOP('',(#773,#774,#775,#783));
#773 = ORIENTED_EDGE('',*,*,#436,.F.);
#774 = ORIENTED_EDGE('',*,*,#760,.T.);
#775 = ORIENTED_EDGE('',*,*,#776,.T.);
#776 = EDGE_CURVE('',#745,#777,#779,.T.);
#777 = VERTEX_POINT('',#778);
#778 = CARTESIAN_POINT('',(-5.,-23.7,113.42940734369));
#779 = LINE('',#780,#781);
#780 = CARTESIAN_POINT('',(-5.,-23.7,89.3375));
#781 = VECTOR('',#782,1.);
#782 = DIRECTION('',(0.,0.,1.));
#783 = ORIENTED_EDGE('',*,*,#784,.F.);
#784 = EDGE_CURVE('',#428,#777,#785,.T.);
#785 = LINE('',#786,#787);
#786 = CARTESIAN_POINT('',(-5.,-30.,113.42940734369));
#787 = VECTOR('',#788,1.);
#788 = DIRECTION('',(0.,1.,0.));
#789 = PLANE('',#790);
#790 = AXIS2_PLACEMENT_3D('',#791,#792,#793);
#791 = CARTESIAN_POINT('',(-5.,-30.,89.3375));
#792 = DIRECTION('',(1.,0.,0.));
#793 = DIRECTION('',(0.,0.,1.));
#794 = ADVANCED_FACE('',(#795),#813,.F.);
#795 = FACE_BOUND('',#796,.F.);
#796 = EDGE_LOOP('',(#797,#798,#806,#812));
#797 = ORIENTED_EDGE('',*,*,#403,.F.);
#798 = ORIENTED_EDGE('',*,*,#799,.T.);
#799 = EDGE_CURVE('',#404,#800,#802,.T.);
#800 = VERTEX_POINT('',#801);
#801 = CARTESIAN_POINT('',(-13.2,-23.7,82.158913563126));
#802 = LINE('',#803,#804);
#803 = CARTESIAN_POINT('',(-13.2,-30.,82.158913563126));
#804 = VECTOR('',#805,1.);
#805 = DIRECTION('',(0.,1.,0.));
#806 = ORIENTED_EDGE('',*,*,#807,.T.);
#807 = EDGE_CURVE('',#800,#743,#808,.T.);
#808 = LINE('',#809,#810);
#809 = CARTESIAN_POINT('',(-18.54314829636,-23.7,77.96689942179));
#810 = VECTOR('',#811,1.);
#811 = DIRECTION('',(0.786759768716,0.,0.617259318544));
#812 = ORIENTED_EDGE('',*,*,#753,.F.);
#813 = PLANE('',#814);
#814 = AXIS2_PLACEMENT_3D('',#815,#816,#817);
#815 = CARTESIAN_POINT('',(-18.54314829636,-30.,77.96689942179));
#816 = DIRECTION('',(0.617259318544,0.,-0.786759768716));
#817 = DIRECTION('',(0.786759768716,0.,0.617259318544));
#818 = ADVANCED_FACE('',(#819),#838,.T.);
#819 = FACE_BOUND('',#820,.T.);
#820 = EDGE_LOOP('',(#821,#829,#836,#837));
#821 = ORIENTED_EDGE('',*,*,#822,.T.);
#822 = EDGE_CURVE('',#420,#823,#825,.T.);
#823 = VERTEX_POINT('',#824);
#824 = CARTESIAN_POINT('',(-9.566555122748,-23.7,126.99043519861));
#825 = LINE('',#826,#827);
#826 = CARTESIAN_POINT('',(-9.566555122748,-30.,126.99043519861));
#827 = VECTOR('',#828,1.);
#828 = DIRECTION('',(0.,1.,0.));
#829 = ORIENTED_EDGE('',*,*,#830,.F.);
#830 = EDGE_CURVE('',#777,#823,#831,.T.);
#831 = CIRCLE('',#832,10.5);
#832 = AXIS2_PLACEMENT_3D('',#833,#834,#835);
#833 = CARTESIAN_POINT('',(0.,-23.7,122.6625));
#834 = DIRECTION('',(0.,1.,0.));
#835 = DIRECTION('',(0.,0.,1.));
#836 = ORIENTED_EDGE('',*,*,#784,.F.);
#837 = ORIENTED_EDGE('',*,*,#427,.T.);
#838 = CYLINDRICAL_SURFACE('',#839,10.5);
#839 = AXIS2_PLACEMENT_3D('',#840,#841,#842);
#840 = CARTESIAN_POINT('',(0.,-30.,122.6625));
#841 = DIRECTION('',(0.,1.,0.));
#842 = DIRECTION('',(0.,0.,1.));
#843 = ADVANCED_FACE('',(#844),#862,.T.);
#844 = FACE_BOUND('',#845,.T.);
#845 = EDGE_LOOP('',(#846,#847,#848,#856));
#846 = ORIENTED_EDGE('',*,*,#411,.F.);
#847 = ORIENTED_EDGE('',*,*,#799,.T.);
#848 = ORIENTED_EDGE('',*,*,#849,.T.);
#849 = EDGE_CURVE('',#800,#850,#852,.T.);
#850 = VERTEX_POINT('',#851);
#851 = CARTESIAN_POINT('',(-13.2,-23.7,129.84108643687));
#852 = LINE('',#853,#854);
#853 = CARTESIAN_POINT('',(-13.2,-23.7,68.));
#854 = VECTOR('',#855,1.);
#855 = DIRECTION('',(0.,0.,1.));
#856 = ORIENTED_EDGE('',*,*,#857,.T.);
#857 = EDGE_CURVE('',#850,#412,#858,.T.);
#858 = LINE('',#859,#860);
#859 = CARTESIAN_POINT('',(-13.2,-30.,129.84108643687));
#860 = VECTOR('',#861,1.);
#861 = DIRECTION('',(0.,-1.,0.));
#862 = PLANE('',#863);
#863 = AXIS2_PLACEMENT_3D('',#864,#865,#866);
#864 = CARTESIAN_POINT('',(-13.2,-30.,68.));
#865 = DIRECTION('',(1.,0.,0.));
#866 = DIRECTION('',(0.,0.,1.));
#867 = ADVANCED_FACE('',(#868),#879,.F.);
#868 = FACE_BOUND('',#869,.F.);
#869 = EDGE_LOOP('',(#870,#871,#872,#878));
#870 = ORIENTED_EDGE('',*,*,#419,.F.);
#871 = ORIENTED_EDGE('',*,*,#822,.T.);
#872 = ORIENTED_EDGE('',*,*,#873,.T.);
#873 = EDGE_CURVE('',#823,#850,#874,.T.);
#874 = LINE('',#875,#876);
#875 = CARTESIAN_POINT('',(-1.543148296361,-23.7,120.69560057821));
#876 = VECTOR('',#877,1.);
#877 = DIRECTION('',(-0.786759768716,0.,0.617259318544));
#878 = ORIENTED_EDGE('',*,*,#857,.T.);
#879 = PLANE('',#880);
#880 = AXIS2_PLACEMENT_3D('',#881,#882,#883);
#881 = CARTESIAN_POINT('',(-1.543148296361,-30.,120.69560057821));
#882 = DIRECTION('',(0.617259318544,0.,0.786759768716));
#883 = DIRECTION('',(-0.786759768716,0.,0.617259318544));
#884 = ADVANCED_FACE('',(#885),#911,.T.);
#885 = FACE_BOUND('',#886,.T.);
#886 = EDGE_LOOP('',(#887,#898,#904,#905));
#887 = ORIENTED_EDGE('',*,*,#888,.F.);
#888 = EDGE_CURVE('',#889,#891,#893,.T.);
#889 = VERTEX_POINT('',#890);
#890 = CARTESIAN_POINT('',(5.,-23.7,98.57059265631));
#891 = VERTEX_POINT('',#892);
#892 = CARTESIAN_POINT('',(9.566555122748,-23.7,85.009564801383));
#893 = CIRCLE('',#894,10.5);
#894 = AXIS2_PLACEMENT_3D('',#895,#896,#897);
#895 = CARTESIAN_POINT('',(0.,-23.7,89.3375));
#896 = DIRECTION('',(0.,1.,0.));
#897 = DIRECTION('',(0.,0.,1.));
#898 = ORIENTED_EDGE('',*,*,#899,.F.);
#899 = EDGE_CURVE('',#480,#889,#900,.T.);
#900 = LINE('',#901,#902);
#901 = CARTESIAN_POINT('',(5.,-30.,98.57059265631));
#902 = VECTOR('',#903,1.);
#903 = DIRECTION('',(0.,1.,0.));
#904 = ORIENTED_EDGE('',*,*,#479,.T.);
#905 = ORIENTED_EDGE('',*,*,#906,.T.);
#906 = EDGE_CURVE('',#472,#891,#907,.T.);
#907 = LINE('',#908,#909);
#908 = CARTESIAN_POINT('',(9.566555122748,-30.,85.009564801382));
#909 = VECTOR('',#910,1.);
#910 = DIRECTION('',(0.,1.,0.));
#911 = CYLINDRICAL_SURFACE('',#912,10.5);
#912 = AXIS2_PLACEMENT_3D('',#913,#914,#915);
#913 = CARTESIAN_POINT('',(0.,-30.,89.3375));
#914 = DIRECTION('',(0.,1.,0.));
#915 = DIRECTION('',(0.,0.,1.));
#916 = ADVANCED_FACE('',(#917),#935,.T.);
#917 = FACE_BOUND('',#918,.T.);
#918 = EDGE_LOOP('',(#919,#920,#921,#929));
#919 = ORIENTED_EDGE('',*,*,#488,.F.);
#920 = ORIENTED_EDGE('',*,*,#899,.T.);
#921 = ORIENTED_EDGE('',*,*,#922,.T.);
#922 = EDGE_CURVE('',#889,#923,#925,.T.);
#923 = VERTEX_POINT('',#924);
#924 = CARTESIAN_POINT('',(5.,-23.7,113.42940734369));
#925 = LINE('',#926,#927);
#926 = CARTESIAN_POINT('',(5.,-23.7,89.3375));
#927 = VECTOR('',#928,1.);
#928 = DIRECTION('',(0.,0.,1.));
#929 = ORIENTED_EDGE('',*,*,#930,.F.);
#930 = EDGE_CURVE('',#447,#923,#931,.T.);
#931 = LINE('',#932,#933);
#932 = CARTESIAN_POINT('',(5.,-30.,113.42940734369));
#933 = VECTOR('',#934,1.);
#934 = DIRECTION('',(0.,1.,0.));
#935 = PLANE('',#936);
#936 = AXIS2_PLACEMENT_3D('',#937,#938,#939);
#937 = CARTESIAN_POINT('',(5.,-30.,89.3375));
#938 = DIRECTION('',(1.,0.,0.));
#939 = DIRECTION('',(0.,0.,1.));
#940 = ADVANCED_FACE('',(#941),#959,.F.);
#941 = FACE_BOUND('',#942,.F.);
#942 = EDGE_LOOP('',(#943,#944,#945,#953));
#943 = ORIENTED_EDGE('',*,*,#471,.F.);
#944 = ORIENTED_EDGE('',*,*,#906,.T.);
#945 = ORIENTED_EDGE('',*,*,#946,.T.);
#946 = EDGE_CURVE('',#891,#947,#949,.T.);
#947 = VERTEX_POINT('',#948);
#948 = CARTESIAN_POINT('',(13.2,-23.7,82.158913563126));
#949 = LINE('',#950,#951);
#950 = CARTESIAN_POINT('',(1.543148296361,-23.7,91.30439942179));
#951 = VECTOR('',#952,1.);
#952 = DIRECTION('',(0.786759768716,0.,-0.617259318544));
#953 = ORIENTED_EDGE('',*,*,#954,.F.);
#954 = EDGE_CURVE('',#464,#947,#955,.T.);
#955 = LINE('',#956,#957);
#956 = CARTESIAN_POINT('',(13.2,-30.,82.158913563126));
#957 = VECTOR('',#958,1.);
#958 = DIRECTION('',(0.,1.,0.));
#959 = PLANE('',#960);
#960 = AXIS2_PLACEMENT_3D('',#961,#962,#963);
#961 = CARTESIAN_POINT('',(1.543148296361,-30.,91.30439942179));
#962 = DIRECTION('',(-0.617259318544,0.,-0.786759768716));
#963 = DIRECTION('',(0.786759768716,0.,-0.617259318544));
#964 = ADVANCED_FACE('',(#965),#984,.T.);
#965 = FACE_BOUND('',#966,.T.);
#966 = EDGE_LOOP('',(#967,#976,#982,#983));
#967 = ORIENTED_EDGE('',*,*,#968,.F.);
#968 = EDGE_CURVE('',#969,#923,#971,.T.);
#969 = VERTEX_POINT('',#970);
#970 = CARTESIAN_POINT('',(9.566555122748,-23.7,126.99043519861));
#971 = CIRCLE('',#972,10.5);
#972 = AXIS2_PLACEMENT_3D('',#973,#974,#975);
#973 = CARTESIAN_POINT('',(0.,-23.7,122.6625));
#974 = DIRECTION('',(0.,1.,0.));
#975 = DIRECTION('',(0.,0.,1.));
#976 = ORIENTED_EDGE('',*,*,#977,.F.);
#977 = EDGE_CURVE('',#445,#969,#978,.T.);
#978 = LINE('',#979,#980);
#979 = CARTESIAN_POINT('',(9.566555122748,-30.,126.99043519861));
#980 = VECTOR('',#981,1.);
#981 = DIRECTION('',(0.,1.,0.));
#982 = ORIENTED_EDGE('',*,*,#444,.T.);
#983 = ORIENTED_EDGE('',*,*,#930,.T.);
#984 = CYLINDRICAL_SURFACE('',#985,10.5);
#985 = AXIS2_PLACEMENT_3D('',#986,#987,#988);
#986 = CARTESIAN_POINT('',(0.,-30.,122.6625));
#987 = DIRECTION('',(0.,1.,0.));
#988 = DIRECTION('',(0.,0.,1.));
#989 = ADVANCED_FACE('',(#990),#1008,.F.);
#990 = FACE_BOUND('',#991,.F.);
#991 = EDGE_LOOP('',(#992,#993,#994,#1002));
#992 = ORIENTED_EDGE('',*,*,#463,.F.);
#993 = ORIENTED_EDGE('',*,*,#954,.T.);
#994 = ORIENTED_EDGE('',*,*,#995,.T.);
#995 = EDGE_CURVE('',#947,#996,#998,.T.);
#996 = VERTEX_POINT('',#997);
#997 = CARTESIAN_POINT('',(13.2,-23.7,129.84108643687));
#998 = LINE('',#999,#1000);
#999 = CARTESIAN_POINT('',(13.2,-23.7,68.));
#1000 = VECTOR('',#1001,1.);
#1001 = DIRECTION('',(0.,0.,1.));
#1002 = ORIENTED_EDGE('',*,*,#1003,.T.);
#1003 = EDGE_CURVE('',#996,#456,#1004,.T.);
#1004 = LINE('',#1005,#1006);
#1005 = CARTESIAN_POINT('',(13.2,-30.,129.84108643687));
#1006 = VECTOR('',#1007,1.);
#1007 = DIRECTION('',(0.,-1.,0.));
#1008 = PLANE('',#1009);
#1009 = AXIS2_PLACEMENT_3D('',#1010,#1011,#1012);
#1010 = CARTESIAN_POINT('',(13.2,-30.,68.));
#1011 = DIRECTION('',(1.,0.,0.));
#1012 = DIRECTION('',(0.,0.,1.));
#1013 = ADVANCED_FACE('',(#1014),#1025,.F.);
#1014 = FACE_BOUND('',#1015,.F.);
#1015 = EDGE_LOOP('',(#1016,#1017,#1018,#1024));
#1016 = ORIENTED_EDGE('',*,*,#455,.F.);
#1017 = ORIENTED_EDGE('',*,*,#1003,.F.);
#1018 = ORIENTED_EDGE('',*,*,#1019,.T.);
#1019 = EDGE_CURVE('',#996,#969,#1020,.T.);
#1020 = LINE('',#1021,#1022);
#1021 = CARTESIAN_POINT('',(18.543148296361,-23.7,134.03310057821));
#1022 = VECTOR('',#1023,1.);
#1023 = DIRECTION('',(-0.786759768716,0.,-0.617259318544));
#1024 = ORIENTED_EDGE('',*,*,#977,.F.);
#1025 = PLANE('',#1026);
#1026 = AXIS2_PLACEMENT_3D('',#1027,#1028,#1029);
#1027 = CARTESIAN_POINT('',(18.543148296361,-30.,134.03310057821));
#1028 = DIRECTION('',(-0.617259318544,0.,0.786759768716));
#1029 = DIRECTION('',(-0.786759768716,0.,-0.617259318544));
#1030 = ADVANCED_FACE('',(#1031),#1056,.F.);
#1031 = FACE_BOUND('',#1032,.F.);
#1032 = EDGE_LOOP('',(#1033,#1042,#1048,#1049,#1050,#1051,#1052,#1053,
    #1054,#1055));
#1033 = ORIENTED_EDGE('',*,*,#1034,.F.);
#1034 = EDGE_CURVE('',#1035,#1035,#1037,.T.);
#1035 = VERTEX_POINT('',#1036);
#1036 = CARTESIAN_POINT('',(-1.E-15,-28.,91.9875));
#1037 = CIRCLE('',#1038,2.65);
#1038 = AXIS2_PLACEMENT_3D('',#1039,#1040,#1041);
#1039 = CARTESIAN_POINT('',(0.,-28.,89.3375));
#1040 = DIRECTION('',(0.,1.,0.));
#1041 = DIRECTION('',(0.,0.,1.));
#1042 = ORIENTED_EDGE('',*,*,#1043,.F.);
#1043 = EDGE_CURVE('',#499,#1035,#1044,.T.);
#1044 = LINE('',#1045,#1046);
#1045 = CARTESIAN_POINT('',(-6.5E-16,-30.5,91.9875));
#1046 = VECTOR('',#1047,1.);
#1047 = DIRECTION('',(0.,1.,0.));
#1048 = ORIENTED_EDGE('',*,*,#507,.T.);
#1049 = ORIENTED_EDGE('',*,*,#516,.T.);
#1050 = ORIENTED_EDGE('',*,*,#525,.T.);
#1051 = ORIENTED_EDGE('',*,*,#534,.T.);
#1052 = ORIENTED_EDGE('',*,*,#543,.T.);
#1053 = ORIENTED_EDGE('',*,*,#552,.T.);
#1054 = ORIENTED_EDGE('',*,*,#496,.T.);
#1055 = ORIENTED_EDGE('',*,*,#1043,.T.);
#1056 = CYLINDRICAL_SURFACE('',#1057,2.65);
#1057 = AXIS2_PLACEMENT_3D('',#1058,#1059,#1060);
#1058 = CARTESIAN_POINT('',(0.,-30.5,89.3375));
#1059 = DIRECTION('',(0.,1.,0.));
#1060 = DIRECTION('',(0.,0.,1.));
#1061 = ADVANCED_FACE('',(#1062,#1073),#1076,.F.);
#1062 = FACE_BOUND('',#1063,.F.);
#1063 = EDGE_LOOP('',(#1064));
#1064 = ORIENTED_EDGE('',*,*,#1065,.T.);
#1065 = EDGE_CURVE('',#1066,#1066,#1068,.T.);
#1066 = VERTEX_POINT('',#1067);
#1067 = CARTESIAN_POINT('',(-1.E-15,-28.,84.7375));
#1068 = CIRCLE('',#1069,4.6);
#1069 = AXIS2_PLACEMENT_3D('',#1070,#1071,#1072);
#1070 = CARTESIAN_POINT('',(0.,-28.,89.3375));
#1071 = DIRECTION('',(0.,-1.,0.));
#1072 = DIRECTION('',(0.,0.,-1.));
#1073 = FACE_BOUND('',#1074,.F.);
#1074 = EDGE_LOOP('',(#1075));
#1075 = ORIENTED_EDGE('',*,*,#1034,.T.);
#1076 = PLANE('',#1077);
#1077 = AXIS2_PLACEMENT_3D('',#1078,#1079,#1080);
#1078 = CARTESIAN_POINT('',(0.,-28.,89.3375));
#1079 = DIRECTION('',(0.,-1.,0.));
#1080 = DIRECTION('',(0.,0.,-1.));
#1081 = ADVANCED_FACE('',(#1082),#1101,.F.);
#1082 = FACE_BOUND('',#1083,.F.);
#1083 = EDGE_LOOP('',(#1084,#1085,#1093,#1100));
#1084 = ORIENTED_EDGE('',*,*,#1065,.F.);
#1085 = ORIENTED_EDGE('',*,*,#1086,.F.);
#1086 = EDGE_CURVE('',#1087,#1066,#1089,.T.);
#1087 = VERTEX_POINT('',#1088);
#1088 = CARTESIAN_POINT('',(-1.E-15,-23.8,84.7375));
#1089 = LINE('',#1090,#1091);
#1090 = CARTESIAN_POINT('',(-1.13E-15,-23.8,84.7375));
#1091 = VECTOR('',#1092,1.);
#1092 = DIRECTION('',(0.,-1.,0.));
#1093 = ORIENTED_EDGE('',*,*,#1094,.T.);
#1094 = EDGE_CURVE('',#1087,#1087,#1095,.T.);
#1095 = CIRCLE('',#1096,4.6);
#1096 = AXIS2_PLACEMENT_3D('',#1097,#1098,#1099);
#1097 = CARTESIAN_POINT('',(0.,-23.8,89.3375));
#1098 = DIRECTION('',(0.,-1.,0.));
#1099 = DIRECTION('',(0.,0.,-1.));
#1100 = ORIENTED_EDGE('',*,*,#1086,.T.);
#1101 = CYLINDRICAL_SURFACE('',#1102,4.6);
#1102 = AXIS2_PLACEMENT_3D('',#1103,#1104,#1105);
#1103 = CARTESIAN_POINT('',(0.,-23.8,89.3375));
#1104 = DIRECTION('',(0.,-1.,0.));
#1105 = DIRECTION('',(0.,0.,-1.));
#1106 = ADVANCED_FACE('',(#1107,#1110),#1121,.T.);
#1107 = FACE_BOUND('',#1108,.T.);
#1108 = EDGE_LOOP('',(#1109));
#1109 = ORIENTED_EDGE('',*,*,#1094,.T.);
#1110 = FACE_BOUND('',#1111,.T.);
#1111 = EDGE_LOOP('',(#1112));
#1112 = ORIENTED_EDGE('',*,*,#1113,.T.);
#1113 = EDGE_CURVE('',#1114,#1114,#1116,.T.);
#1114 = VERTEX_POINT('',#1115);
#1115 = CARTESIAN_POINT('',(-1.E-15,-23.8,91.9875));
#1116 = CIRCLE('',#1117,2.65);
#1117 = AXIS2_PLACEMENT_3D('',#1118,#1119,#1120);
#1118 = CARTESIAN_POINT('',(0.,-23.8,89.3375));
#1119 = DIRECTION('',(0.,1.,0.));
#1120 = DIRECTION('',(0.,0.,1.));
#1121 = PLANE('',#1122);
#1122 = AXIS2_PLACEMENT_3D('',#1123,#1124,#1125);
#1123 = CARTESIAN_POINT('',(0.,-23.8,89.3375));
#1124 = DIRECTION('',(0.,-1.,0.));
#1125 = DIRECTION('',(0.,0.,-1.));
#1126 = ADVANCED_FACE('',(#1127),#1200,.F.);
#1127 = FACE_BOUND('',#1128,.F.);
#1128 = EDGE_LOOP('',(#1129,#1137,#1146,#1155,#1164,#1173,#1182,#1191,
    #1198,#1199));
#1129 = ORIENTED_EDGE('',*,*,#1130,.T.);
#1130 = EDGE_CURVE('',#1114,#1131,#1133,.T.);
#1131 = VERTEX_POINT('',#1132);
#1132 = CARTESIAN_POINT('',(-1.E-15,-23.7,91.9875));
#1133 = LINE('',#1134,#1135);
#1134 = CARTESIAN_POINT('',(-6.5E-16,-30.5,91.9875));
#1135 = VECTOR('',#1136,1.);
#1136 = DIRECTION('',(0.,1.,0.));
#1137 = ORIENTED_EDGE('',*,*,#1138,.F.);
#1138 = EDGE_CURVE('',#1139,#1131,#1141,.T.);
#1139 = VERTEX_POINT('',#1140);
#1140 = CARTESIAN_POINT('',(-2.23464702829,-23.7,90.761877990196));
#1141 = CIRCLE('',#1142,2.65);
#1142 = AXIS2_PLACEMENT_3D('',#1143,#1144,#1145);
#1143 = CARTESIAN_POINT('',(0.,-23.7,89.3375));
#1144 = DIRECTION('',(0.,1.,0.));
#1145 = DIRECTION('',(0.,0.,1.));
#1146 = ORIENTED_EDGE('',*,*,#1147,.F.);
#1147 = EDGE_CURVE('',#1148,#1139,#1150,.T.);
#1148 = VERTEX_POINT('',#1149);
#1149 = CARTESIAN_POINT('',(-2.65,-23.7,89.3375));
#1150 = CIRCLE('',#1151,2.65);
#1151 = AXIS2_PLACEMENT_3D('',#1152,#1153,#1154);
#1152 = CARTESIAN_POINT('',(0.,-23.7,89.3375));
#1153 = DIRECTION('',(0.,1.,0.));
#1154 = DIRECTION('',(0.,0.,1.));
#1155 = ORIENTED_EDGE('',*,*,#1156,.F.);
#1156 = EDGE_CURVE('',#1157,#1148,#1159,.T.);
#1157 = VERTEX_POINT('',#1158);
#1158 = CARTESIAN_POINT('',(-0.851649564431,-23.7,86.828079146615));
#1159 = CIRCLE('',#1160,2.65);
#1160 = AXIS2_PLACEMENT_3D('',#1161,#1162,#1163);
#1161 = CARTESIAN_POINT('',(0.,-23.7,89.3375));
#1162 = DIRECTION('',(0.,1.,0.));
#1163 = DIRECTION('',(0.,0.,1.));
#1164 = ORIENTED_EDGE('',*,*,#1165,.F.);
#1165 = EDGE_CURVE('',#1166,#1157,#1168,.T.);
#1166 = VERTEX_POINT('',#1167);
#1167 = CARTESIAN_POINT('',(0.851649564431,-23.7,86.828079146615));
#1168 = CIRCLE('',#1169,2.65);
#1169 = AXIS2_PLACEMENT_3D('',#1170,#1171,#1172);
#1170 = CARTESIAN_POINT('',(0.,-23.7,89.3375));
#1171 = DIRECTION('',(0.,1.,0.));
#1172 = DIRECTION('',(0.,0.,1.));
#1173 = ORIENTED_EDGE('',*,*,#1174,.F.);
#1174 = EDGE_CURVE('',#1175,#1166,#1177,.T.);
#1175 = VERTEX_POINT('',#1176);
#1176 = CARTESIAN_POINT('',(2.65,-23.7,89.3375));
#1177 = CIRCLE('',#1178,2.65);
#1178 = AXIS2_PLACEMENT_3D('',#1179,#1180,#1181);
#1179 = CARTESIAN_POINT('',(0.,-23.7,89.3375));
#1180 = DIRECTION('',(0.,1.,0.));
#1181 = DIRECTION('',(0.,0.,1.));
#1182 = ORIENTED_EDGE('',*,*,#1183,.F.);
#1183 = EDGE_CURVE('',#1184,#1175,#1186,.T.);
#1184 = VERTEX_POINT('',#1185);
#1185 = CARTESIAN_POINT('',(2.23464702829,-23.7,90.761877990196));
#1186 = CIRCLE('',#1187,2.65);
#1187 = AXIS2_PLACEMENT_3D('',#1188,#1189,#1190);
#1188 = CARTESIAN_POINT('',(0.,-23.7,89.3375));
#1189 = DIRECTION('',(0.,1.,0.));
#1190 = DIRECTION('',(0.,0.,1.));
#1191 = ORIENTED_EDGE('',*,*,#1192,.F.);
#1192 = EDGE_CURVE('',#1131,#1184,#1193,.T.);
#1193 = CIRCLE('',#1194,2.65);
#1194 = AXIS2_PLACEMENT_3D('',#1195,#1196,#1197);
#1195 = CARTESIAN_POINT('',(0.,-23.7,89.3375));
#1196 = DIRECTION('',(0.,1.,0.));
#1197 = DIRECTION('',(0.,0.,1.));
#1198 = ORIENTED_EDGE('',*,*,#1130,.F.);
#1199 = ORIENTED_EDGE('',*,*,#1113,.T.);
#1200 = CYLINDRICAL_SURFACE('',#1201,2.65);
#1201 = AXIS2_PLACEMENT_3D('',#1202,#1203,#1204);
#1202 = CARTESIAN_POINT('',(0.,-30.5,89.3375));
#1203 = DIRECTION('',(0.,1.,0.));
#1204 = DIRECTION('',(0.,0.,1.));
#1205 = ADVANCED_FACE('',(#1206),#1231,.F.);
#1206 = FACE_BOUND('',#1207,.F.);
#1207 = EDGE_LOOP('',(#1208,#1217,#1223,#1224,#1225,#1226,#1227,#1228,
    #1229,#1230));
#1208 = ORIENTED_EDGE('',*,*,#1209,.F.);
#1209 = EDGE_CURVE('',#1210,#1210,#1212,.T.);
#1210 = VERTEX_POINT('',#1211);
#1211 = CARTESIAN_POINT('',(-1.E-15,-28.,125.3125));
#1212 = CIRCLE('',#1213,2.65);
#1213 = AXIS2_PLACEMENT_3D('',#1214,#1215,#1216);
#1214 = CARTESIAN_POINT('',(0.,-28.,122.6625));
#1215 = DIRECTION('',(0.,1.,0.));
#1216 = DIRECTION('',(0.,0.,1.));
#1217 = ORIENTED_EDGE('',*,*,#1218,.F.);
#1218 = EDGE_CURVE('',#573,#1210,#1219,.T.);
#1219 = LINE('',#1220,#1221);
#1220 = CARTESIAN_POINT('',(-6.5E-16,-30.5,125.3125));
#1221 = VECTOR('',#1222,1.);
#1222 = DIRECTION('',(0.,1.,0.));
#1223 = ORIENTED_EDGE('',*,*,#581,.T.);
#1224 = ORIENTED_EDGE('',*,*,#590,.T.);
#1225 = ORIENTED_EDGE('',*,*,#599,.T.);
#1226 = ORIENTED_EDGE('',*,*,#608,.T.);
#1227 = ORIENTED_EDGE('',*,*,#617,.T.);
#1228 = ORIENTED_EDGE('',*,*,#561,.T.);
#1229 = ORIENTED_EDGE('',*,*,#572,.T.);
#1230 = ORIENTED_EDGE('',*,*,#1218,.T.);
#1231 = CYLINDRICAL_SURFACE('',#1232,2.65);
#1232 = AXIS2_PLACEMENT_3D('',#1233,#1234,#1235);
#1233 = CARTESIAN_POINT('',(0.,-30.5,122.6625));
#1234 = DIRECTION('',(0.,1.,0.));
#1235 = DIRECTION('',(0.,0.,1.));
#1236 = ADVANCED_FACE('',(#1237,#1248),#1251,.F.);
#1237 = FACE_BOUND('',#1238,.F.);
#1238 = EDGE_LOOP('',(#1239));
#1239 = ORIENTED_EDGE('',*,*,#1240,.T.);
#1240 = EDGE_CURVE('',#1241,#1241,#1243,.T.);
#1241 = VERTEX_POINT('',#1242);
#1242 = CARTESIAN_POINT('',(-1.E-15,-28.,118.0625));
#1243 = CIRCLE('',#1244,4.6);
#1244 = AXIS2_PLACEMENT_3D('',#1245,#1246,#1247);
#1245 = CARTESIAN_POINT('',(0.,-28.,122.6625));
#1246 = DIRECTION('',(0.,-1.,0.));
#1247 = DIRECTION('',(0.,0.,-1.));
#1248 = FACE_BOUND('',#1249,.F.);
#1249 = EDGE_LOOP('',(#1250));
#1250 = ORIENTED_EDGE('',*,*,#1209,.T.);
#1251 = PLANE('',#1252);
#1252 = AXIS2_PLACEMENT_3D('',#1253,#1254,#1255);
#1253 = CARTESIAN_POINT('',(0.,-28.,122.6625));
#1254 = DIRECTION('',(0.,-1.,0.));
#1255 = DIRECTION('',(0.,0.,-1.));
#1256 = ADVANCED_FACE('',(#1257),#1276,.F.);
#1257 = FACE_BOUND('',#1258,.F.);
#1258 = EDGE_LOOP('',(#1259,#1260,#1268,#1275));
#1259 = ORIENTED_EDGE('',*,*,#1240,.F.);
#1260 = ORIENTED_EDGE('',*,*,#1261,.F.);
#1261 = EDGE_CURVE('',#1262,#1241,#1264,.T.);
#1262 = VERTEX_POINT('',#1263);
#1263 = CARTESIAN_POINT('',(-1.E-15,-23.8,118.0625));
#1264 = LINE('',#1265,#1266);
#1265 = CARTESIAN_POINT('',(-1.13E-15,-23.8,118.0625));
#1266 = VECTOR('',#1267,1.);
#1267 = DIRECTION('',(0.,-1.,0.));
#1268 = ORIENTED_EDGE('',*,*,#1269,.T.);
#1269 = EDGE_CURVE('',#1262,#1262,#1270,.T.);
#1270 = CIRCLE('',#1271,4.6);
#1271 = AXIS2_PLACEMENT_3D('',#1272,#1273,#1274);
#1272 = CARTESIAN_POINT('',(0.,-23.8,122.6625));
#1273 = DIRECTION('',(0.,-1.,0.));
#1274 = DIRECTION('',(0.,0.,-1.));
#1275 = ORIENTED_EDGE('',*,*,#1261,.T.);
#1276 = CYLINDRICAL_SURFACE('',#1277,4.6);
#1277 = AXIS2_PLACEMENT_3D('',#1278,#1279,#1280);
#1278 = CARTESIAN_POINT('',(0.,-23.8,122.6625));
#1279 = DIRECTION('',(0.,-1.,0.));
#1280 = DIRECTION('',(0.,0.,-1.));
#1281 = ADVANCED_FACE('',(#1282,#1285),#1296,.T.);
#1282 = FACE_BOUND('',#1283,.T.);
#1283 = EDGE_LOOP('',(#1284));
#1284 = ORIENTED_EDGE('',*,*,#1269,.T.);
#1285 = FACE_BOUND('',#1286,.T.);
#1286 = EDGE_LOOP('',(#1287));
#1287 = ORIENTED_EDGE('',*,*,#1288,.T.);
#1288 = EDGE_CURVE('',#1289,#1289,#1291,.T.);
#1289 = VERTEX_POINT('',#1290);
#1290 = CARTESIAN_POINT('',(-1.E-15,-23.8,125.3125));
#1291 = CIRCLE('',#1292,2.65);
#1292 = AXIS2_PLACEMENT_3D('',#1293,#1294,#1295);
#1293 = CARTESIAN_POINT('',(0.,-23.8,122.6625));
#1294 = DIRECTION('',(0.,1.,0.));
#1295 = DIRECTION('',(0.,0.,1.));
#1296 = PLANE('',#1297);
#1297 = AXIS2_PLACEMENT_3D('',#1298,#1299,#1300);
#1298 = CARTESIAN_POINT('',(0.,-23.8,122.6625));
#1299 = DIRECTION('',(0.,-1.,0.));
#1300 = DIRECTION('',(0.,0.,-1.));
#1301 = ADVANCED_FACE('',(#1302),#1375,.F.);
#1302 = FACE_BOUND('',#1303,.F.);
#1303 = EDGE_LOOP('',(#1304,#1312,#1321,#1330,#1339,#1348,#1357,#1366,
    #1373,#1374));
#1304 = ORIENTED_EDGE('',*,*,#1305,.T.);
#1305 = EDGE_CURVE('',#1289,#1306,#1308,.T.);
#1306 = VERTEX_POINT('',#1307);
#1307 = CARTESIAN_POINT('',(-1.E-15,-23.7,125.3125));
#1308 = LINE('',#1309,#1310);
#1309 = CARTESIAN_POINT('',(-6.5E-16,-30.5,125.3125));
#1310 = VECTOR('',#1311,1.);
#1311 = DIRECTION('',(0.,1.,0.));
#1312 = ORIENTED_EDGE('',*,*,#1313,.F.);
#1313 = EDGE_CURVE('',#1314,#1306,#1316,.T.);
#1314 = VERTEX_POINT('',#1315);
#1315 = CARTESIAN_POINT('',(-0.851649564431,-23.7,125.17192085338));
#1316 = CIRCLE('',#1317,2.65);
#1317 = AXIS2_PLACEMENT_3D('',#1318,#1319,#1320);
#1318 = CARTESIAN_POINT('',(0.,-23.7,122.6625));
#1319 = DIRECTION('',(0.,1.,0.));
#1320 = DIRECTION('',(0.,0.,1.));
#1321 = ORIENTED_EDGE('',*,*,#1322,.F.);
#1322 = EDGE_CURVE('',#1323,#1314,#1325,.T.);
#1323 = VERTEX_POINT('',#1324);
#1324 = CARTESIAN_POINT('',(-2.65,-23.7,122.6625));
#1325 = CIRCLE('',#1326,2.65);
#1326 = AXIS2_PLACEMENT_3D('',#1327,#1328,#1329);
#1327 = CARTESIAN_POINT('',(0.,-23.7,122.6625));
#1328 = DIRECTION('',(0.,1.,0.));
#1329 = DIRECTION('',(0.,0.,1.));
#1330 = ORIENTED_EDGE('',*,*,#1331,.F.);
#1331 = EDGE_CURVE('',#1332,#1323,#1334,.T.);
#1332 = VERTEX_POINT('',#1333);
#1333 = CARTESIAN_POINT('',(-2.23464702829,-23.7,121.2381220098));
#1334 = CIRCLE('',#1335,2.65);
#1335 = AXIS2_PLACEMENT_3D('',#1336,#1337,#1338);
#1336 = CARTESIAN_POINT('',(0.,-23.7,122.6625));
#1337 = DIRECTION('',(0.,1.,0.));
#1338 = DIRECTION('',(0.,0.,1.));
#1339 = ORIENTED_EDGE('',*,*,#1340,.F.);
#1340 = EDGE_CURVE('',#1341,#1332,#1343,.T.);
#1341 = VERTEX_POINT('',#1342);
#1342 = CARTESIAN_POINT('',(2.23464702829,-23.7,121.2381220098));
#1343 = CIRCLE('',#1344,2.65);
#1344 = AXIS2_PLACEMENT_3D('',#1345,#1346,#1347);
#1345 = CARTESIAN_POINT('',(0.,-23.7,122.6625));
#1346 = DIRECTION('',(0.,1.,0.));
#1347 = DIRECTION('',(0.,0.,1.));
#1348 = ORIENTED_EDGE('',*,*,#1349,.F.);
#1349 = EDGE_CURVE('',#1350,#1341,#1352,.T.);
#1350 = VERTEX_POINT('',#1351);
#1351 = CARTESIAN_POINT('',(2.65,-23.7,122.6625));
#1352 = CIRCLE('',#1353,2.65);
#1353 = AXIS2_PLACEMENT_3D('',#1354,#1355,#1356);
#1354 = CARTESIAN_POINT('',(0.,-23.7,122.6625));
#1355 = DIRECTION('',(0.,1.,0.));
#1356 = DIRECTION('',(0.,0.,1.));
#1357 = ORIENTED_EDGE('',*,*,#1358,.F.);
#1358 = EDGE_CURVE('',#1359,#1350,#1361,.T.);
#1359 = VERTEX_POINT('',#1360);
#1360 = CARTESIAN_POINT('',(0.851649564431,-23.7,125.17192085338));
#1361 = CIRCLE('',#1362,2.65);
#1362 = AXIS2_PLACEMENT_3D('',#1363,#1364,#1365);
#1363 = CARTESIAN_POINT('',(0.,-23.7,122.6625));
#1364 = DIRECTION('',(0.,1.,0.));
#1365 = DIRECTION('',(0.,0.,1.));
#1366 = ORIENTED_EDGE('',*,*,#1367,.F.);
#1367 = EDGE_CURVE('',#1306,#1359,#1368,.T.);
#1368 = CIRCLE('',#1369,2.65);
#1369 = AXIS2_PLACEMENT_3D('',#1370,#1371,#1372);
#1370 = CARTESIAN_POINT('',(0.,-23.7,122.6625));
#1371 = DIRECTION('',(0.,1.,0.));
#1372 = DIRECTION('',(0.,0.,1.));
#1373 = ORIENTED_EDGE('',*,*,#1305,.F.);
#1374 = ORIENTED_EDGE('',*,*,#1288,.T.);
#1375 = CYLINDRICAL_SURFACE('',#1376,2.65);
#1376 = AXIS2_PLACEMENT_3D('',#1377,#1378,#1379);
#1377 = CARTESIAN_POINT('',(0.,-30.5,122.6625));
#1378 = DIRECTION('',(0.,1.,0.));
#1379 = DIRECTION('',(0.,0.,1.));
#1380 = ADVANCED_FACE('',(#1381,#1452,#1460,#1468,#1477),#1486,.T.);
#1381 = FACE_BOUND('',#1382,.T.);
#1382 = EDGE_LOOP('',(#1383,#1384,#1385,#1393,#1401,#1407,#1408,#1409,
    #1418,#1425,#1426,#1427,#1435,#1443,#1449,#1450,#1451));
#1383 = ORIENTED_EDGE('',*,*,#39,.T.);
#1384 = ORIENTED_EDGE('',*,*,#149,.F.);
#1385 = ORIENTED_EDGE('',*,*,#1386,.F.);
#1386 = EDGE_CURVE('',#1387,#142,#1389,.T.);
#1387 = VERTEX_POINT('',#1388);
#1388 = CARTESIAN_POINT('',(-13.26175115207,-23.7,68.));
#1389 = LINE('',#1390,#1391);
#1390 = CARTESIAN_POINT('',(-19.,-23.7,68.));
#1391 = VECTOR('',#1392,1.);
#1392 = DIRECTION('',(1.,0.,0.));
#1393 = ORIENTED_EDGE('',*,*,#1394,.F.);
#1394 = EDGE_CURVE('',#1395,#1387,#1397,.T.);
#1395 = VERTEX_POINT('',#1396);
#1396 = CARTESIAN_POINT('',(-13.26175115207,-23.7,144.));
#1397 = LINE('',#1398,#1399);
#1398 = CARTESIAN_POINT('',(-13.26175115207,-23.7,67.75));
#1399 = VECTOR('',#1400,1.);
#1400 = DIRECTION('',(0.,0.,-1.));
#1401 = ORIENTED_EDGE('',*,*,#1402,.T.);
#1402 = EDGE_CURVE('',#1395,#697,#1403,.T.);
#1403 = LINE('',#1404,#1405);
#1404 = CARTESIAN_POINT('',(-19.,-23.7,144.));
#1405 = VECTOR('',#1406,1.);
#1406 = DIRECTION('',(1.,0.,0.));
#1407 = ORIENTED_EDGE('',*,*,#696,.F.);
#1408 = ORIENTED_EDGE('',*,*,#720,.T.);
#1409 = ORIENTED_EDGE('',*,*,#1410,.T.);
#1410 = EDGE_CURVE('',#721,#1411,#1413,.T.);
#1411 = VERTEX_POINT('',#1412);
#1412 = CARTESIAN_POINT('',(-3.E-15,-23.7,133.1625));
#1413 = CIRCLE('',#1414,10.5);
#1414 = AXIS2_PLACEMENT_3D('',#1415,#1416,#1417);
#1415 = CARTESIAN_POINT('',(0.,-23.7,122.6625));
#1416 = DIRECTION('',(0.,1.,0.));
#1417 = DIRECTION('',(0.,0.,1.));
#1418 = ORIENTED_EDGE('',*,*,#1419,.T.);
#1419 = EDGE_CURVE('',#1411,#665,#1420,.T.);
#1420 = CIRCLE('',#1421,10.5);
#1421 = AXIS2_PLACEMENT_3D('',#1422,#1423,#1424);
#1422 = CARTESIAN_POINT('',(0.,-23.7,122.6625));
#1423 = DIRECTION('',(0.,1.,0.));
#1424 = DIRECTION('',(0.,0.,1.));
#1425 = ORIENTED_EDGE('',*,*,#672,.T.);
#1426 = ORIENTED_EDGE('',*,*,#641,.T.);
#1427 = ORIENTED_EDGE('',*,*,#1428,.T.);
#1428 = EDGE_CURVE('',#642,#1429,#1431,.T.);
#1429 = VERTEX_POINT('',#1430);
#1430 = CARTESIAN_POINT('',(13.261751152074,-23.7,144.));
#1431 = LINE('',#1432,#1433);
#1432 = CARTESIAN_POINT('',(13.2,-23.7,144.));
#1433 = VECTOR('',#1434,1.);
#1434 = DIRECTION('',(1.,0.,0.));
#1435 = ORIENTED_EDGE('',*,*,#1436,.F.);
#1436 = EDGE_CURVE('',#1437,#1429,#1439,.T.);
#1437 = VERTEX_POINT('',#1438);
#1438 = CARTESIAN_POINT('',(13.261751152074,-23.7,68.));
#1439 = LINE('',#1440,#1441);
#1440 = CARTESIAN_POINT('',(13.261751152074,-23.7,67.75));
#1441 = VECTOR('',#1442,1.);
#1442 = DIRECTION('',(0.,0.,1.));
#1443 = ORIENTED_EDGE('',*,*,#1444,.F.);
#1444 = EDGE_CURVE('',#181,#1437,#1445,.T.);
#1445 = LINE('',#1446,#1447);
#1446 = CARTESIAN_POINT('',(13.2,-23.7,68.));
#1447 = VECTOR('',#1448,1.);
#1448 = DIRECTION('',(1.,0.,0.));
#1449 = ORIENTED_EDGE('',*,*,#188,.T.);
#1450 = ORIENTED_EDGE('',*,*,#110,.T.);
#1451 = ORIENTED_EDGE('',*,*,#61,.T.);
#1452 = FACE_BOUND('',#1453,.T.);
#1453 = EDGE_LOOP('',(#1454,#1455,#1456,#1457,#1458,#1459));
#1454 = ORIENTED_EDGE('',*,*,#742,.T.);
#1455 = ORIENTED_EDGE('',*,*,#776,.T.);
#1456 = ORIENTED_EDGE('',*,*,#830,.T.);
#1457 = ORIENTED_EDGE('',*,*,#873,.T.);
#1458 = ORIENTED_EDGE('',*,*,#849,.F.);
#1459 = ORIENTED_EDGE('',*,*,#807,.T.);
#1460 = FACE_BOUND('',#1461,.T.);
#1461 = EDGE_LOOP('',(#1462,#1463,#1464,#1465,#1466,#1467));
#1462 = ORIENTED_EDGE('',*,*,#968,.T.);
#1463 = ORIENTED_EDGE('',*,*,#922,.F.);
#1464 = ORIENTED_EDGE('',*,*,#888,.T.);
#1465 = ORIENTED_EDGE('',*,*,#946,.T.);
#1466 = ORIENTED_EDGE('',*,*,#995,.T.);
#1467 = ORIENTED_EDGE('',*,*,#1019,.T.);
#1468 = FACE_BOUND('',#1469,.T.);
#1469 = EDGE_LOOP('',(#1470,#1471,#1472,#1473,#1474,#1475,#1476));
#1470 = ORIENTED_EDGE('',*,*,#1138,.F.);
#1471 = ORIENTED_EDGE('',*,*,#1147,.F.);
#1472 = ORIENTED_EDGE('',*,*,#1156,.F.);
#1473 = ORIENTED_EDGE('',*,*,#1165,.F.);
#1474 = ORIENTED_EDGE('',*,*,#1174,.F.);
#1475 = ORIENTED_EDGE('',*,*,#1183,.F.);
#1476 = ORIENTED_EDGE('',*,*,#1192,.F.);
#1477 = FACE_BOUND('',#1478,.T.);
#1478 = EDGE_LOOP('',(#1479,#1480,#1481,#1482,#1483,#1484,#1485));
#1479 = ORIENTED_EDGE('',*,*,#1322,.F.);
#1480 = ORIENTED_EDGE('',*,*,#1331,.F.);
#1481 = ORIENTED_EDGE('',*,*,#1340,.F.);
#1482 = ORIENTED_EDGE('',*,*,#1349,.F.);
#1483 = ORIENTED_EDGE('',*,*,#1358,.F.);
#1484 = ORIENTED_EDGE('',*,*,#1367,.F.);
#1485 = ORIENTED_EDGE('',*,*,#1313,.F.);
#1486 = PLANE('',#1487);
#1487 = AXIS2_PLACEMENT_3D('',#1488,#1489,#1490);
#1488 = CARTESIAN_POINT('',(-4.8E-16,-23.7,106.0159784928));
#1489 = DIRECTION('',(0.,1.,0.));
#1490 = DIRECTION('',(0.,0.,1.));
#1491 = ADVANCED_FACE('',(#1492),#1517,.T.);
#1492 = FACE_BOUND('',#1493,.T.);
#1493 = EDGE_LOOP('',(#1494,#1502,#1503,#1511));
#1494 = ORIENTED_EDGE('',*,*,#1495,.F.);
#1495 = EDGE_CURVE('',#1395,#1496,#1498,.T.);
#1496 = VERTEX_POINT('',#1497);
#1497 = CARTESIAN_POINT('',(-10.44147465437,-13.5,144.));
#1498 = LINE('',#1499,#1500);
#1499 = CARTESIAN_POINT('',(-12.07317366687,-19.40131142851,144.));
#1500 = VECTOR('',#1501,1.);
#1501 = DIRECTION('',(0.266498266647,0.963835397708,0.));
#1502 = ORIENTED_EDGE('',*,*,#1394,.T.);
#1503 = ORIENTED_EDGE('',*,*,#1504,.T.);
#1504 = EDGE_CURVE('',#1387,#1505,#1507,.T.);
#1505 = VERTEX_POINT('',#1506);
#1506 = CARTESIAN_POINT('',(-10.44147465437,-13.5,68.));
#1507 = LINE('',#1508,#1509);
#1508 = CARTESIAN_POINT('',(-12.07317366687,-19.40131142851,68.));
#1509 = VECTOR('',#1510,1.);
#1510 = DIRECTION('',(0.266498266647,0.963835397708,0.));
#1511 = ORIENTED_EDGE('',*,*,#1512,.F.);
#1512 = EDGE_CURVE('',#1496,#1505,#1513,.T.);
#1513 = LINE('',#1514,#1515);
#1514 = CARTESIAN_POINT('',(-10.44147465437,-13.5,67.75));
#1515 = VECTOR('',#1516,1.);
#1516 = DIRECTION('',(0.,0.,-1.));
#1517 = PLANE('',#1518);
#1518 = AXIS2_PLACEMENT_3D('',#1519,#1520,#1521);
#1519 = CARTESIAN_POINT('',(-10.4,-13.35,67.5));
#1520 = DIRECTION('',(0.963835397708,-0.266498266647,0.));
#1521 = DIRECTION('',(-0.266498266647,-0.963835397708,0.));
#1522 = ADVANCED_FACE('',(#1523),#1548,.T.);
#1523 = FACE_BOUND('',#1524,.T.);
#1524 = EDGE_LOOP('',(#1525,#1535,#1541,#1542));
#1525 = ORIENTED_EDGE('',*,*,#1526,.F.);
#1526 = EDGE_CURVE('',#1527,#1529,#1531,.T.);
#1527 = VERTEX_POINT('',#1528);
#1528 = CARTESIAN_POINT('',(10.441474654378,-13.5,68.));
#1529 = VERTEX_POINT('',#1530);
#1530 = CARTESIAN_POINT('',(10.441474654378,-13.5,144.));
#1531 = LINE('',#1532,#1533);
#1532 = CARTESIAN_POINT('',(10.441474654378,-13.5,67.75));
#1533 = VECTOR('',#1534,1.);
#1534 = DIRECTION('',(0.,0.,1.));
#1535 = ORIENTED_EDGE('',*,*,#1536,.T.);
#1536 = EDGE_CURVE('',#1527,#1437,#1537,.T.);
#1537 = LINE('',#1538,#1539);
#1538 = CARTESIAN_POINT('',(12.223768470477,-19.94596263489,68.));
#1539 = VECTOR('',#1540,1.);
#1540 = DIRECTION('',(0.266498266647,-0.963835397708,0.));
#1541 = ORIENTED_EDGE('',*,*,#1436,.T.);
#1542 = ORIENTED_EDGE('',*,*,#1543,.F.);
#1543 = EDGE_CURVE('',#1529,#1429,#1544,.T.);
#1544 = LINE('',#1545,#1546);
#1545 = CARTESIAN_POINT('',(12.223768470477,-19.94596263489,144.));
#1546 = VECTOR('',#1547,1.);
#1547 = DIRECTION('',(0.266498266647,-0.963835397708,0.));
#1548 = PLANE('',#1549);
#1549 = AXIS2_PLACEMENT_3D('',#1550,#1551,#1552);
#1550 = CARTESIAN_POINT('',(13.4,-24.2,67.5));
#1551 = DIRECTION('',(-0.963835397708,-0.266498266647,0.));
#1552 = DIRECTION('',(-0.266498266647,0.963835397708,0.));
#1553 = ADVANCED_FACE('',(#1554),#1574,.T.);
#1554 = FACE_BOUND('',#1555,.T.);
#1555 = EDGE_LOOP('',(#1556,#1557,#1558,#1559,#1560,#1568));
#1556 = ORIENTED_EDGE('',*,*,#374,.T.);
#1557 = ORIENTED_EDGE('',*,*,#704,.T.);
#1558 = ORIENTED_EDGE('',*,*,#1402,.F.);
#1559 = ORIENTED_EDGE('',*,*,#1495,.T.);
#1560 = ORIENTED_EDGE('',*,*,#1561,.F.);
#1561 = EDGE_CURVE('',#1562,#1496,#1564,.T.);
#1562 = VERTEX_POINT('',#1563);
#1563 = CARTESIAN_POINT('',(-19.,-13.5,144.));
#1564 = LINE('',#1565,#1566);
#1565 = CARTESIAN_POINT('',(-19.,-13.5,144.));
#1566 = VECTOR('',#1567,1.);
#1567 = DIRECTION('',(1.,0.,0.));
#1568 = ORIENTED_EDGE('',*,*,#1569,.F.);
#1569 = EDGE_CURVE('',#375,#1562,#1570,.T.);
#1570 = LINE('',#1571,#1572);
#1571 = CARTESIAN_POINT('',(-19.,-24.,144.));
#1572 = VECTOR('',#1573,1.);
#1573 = DIRECTION('',(0.,1.,0.));
#1574 = PLANE('',#1575);
#1575 = AXIS2_PLACEMENT_3D('',#1576,#1577,#1578);
#1576 = CARTESIAN_POINT('',(-15.52762757882,-21.2512240086,144.));
#1577 = DIRECTION('',(0.,0.,1.));
#1578 = DIRECTION('',(1.,0.,0.));
#1579 = ADVANCED_FACE('',(#1580),#1600,.T.);
#1580 = FACE_BOUND('',#1581,.T.);
#1581 = EDGE_LOOP('',(#1582,#1583,#1584,#1585,#1593,#1599));
#1582 = ORIENTED_EDGE('',*,*,#1428,.F.);
#1583 = ORIENTED_EDGE('',*,*,#649,.F.);
#1584 = ORIENTED_EDGE('',*,*,#316,.T.);
#1585 = ORIENTED_EDGE('',*,*,#1586,.T.);
#1586 = EDGE_CURVE('',#309,#1587,#1589,.T.);
#1587 = VERTEX_POINT('',#1588);
#1588 = CARTESIAN_POINT('',(19.,-13.5,144.));
#1589 = LINE('',#1590,#1591);
#1590 = CARTESIAN_POINT('',(19.,-30.,144.));
#1591 = VECTOR('',#1592,1.);
#1592 = DIRECTION('',(0.,1.,0.));
#1593 = ORIENTED_EDGE('',*,*,#1594,.F.);
#1594 = EDGE_CURVE('',#1529,#1587,#1595,.T.);
#1595 = LINE('',#1596,#1597);
#1596 = CARTESIAN_POINT('',(-19.,-13.5,144.));
#1597 = VECTOR('',#1598,1.);
#1598 = DIRECTION('',(1.,0.,0.));
#1599 = ORIENTED_EDGE('',*,*,#1543,.T.);
#1600 = PLANE('',#1601);
#1601 = AXIS2_PLACEMENT_3D('',#1602,#1603,#1604);
#1602 = CARTESIAN_POINT('',(15.527627578824,-21.2512240086,144.));
#1603 = DIRECTION('',(0.,0.,1.));
#1604 = DIRECTION('',(1.,0.,0.));
#1605 = ADVANCED_FACE('',(#1606),#1626,.T.);
#1606 = FACE_BOUND('',#1607,.T.);
#1607 = EDGE_LOOP('',(#1608,#1609,#1617,#1623,#1624,#1625));
#1608 = ORIENTED_EDGE('',*,*,#1569,.T.);
#1609 = ORIENTED_EDGE('',*,*,#1610,.F.);
#1610 = EDGE_CURVE('',#1611,#1562,#1613,.T.);
#1611 = VERTEX_POINT('',#1612);
#1612 = CARTESIAN_POINT('',(-19.,-13.5,64.));
#1613 = LINE('',#1614,#1615);
#1614 = CARTESIAN_POINT('',(-19.,-13.5,68.));
#1615 = VECTOR('',#1616,1.);
#1616 = DIRECTION('',(0.,0.,1.));
#1617 = ORIENTED_EDGE('',*,*,#1618,.F.);
#1618 = EDGE_CURVE('',#266,#1611,#1619,.T.);
#1619 = LINE('',#1620,#1621);
#1620 = CARTESIAN_POINT('',(-19.,-24.,64.));
#1621 = VECTOR('',#1622,1.);
#1622 = DIRECTION('',(0.,1.,0.));
#1623 = ORIENTED_EDGE('',*,*,#275,.T.);
#1624 = ORIENTED_EDGE('',*,*,#203,.F.);
#1625 = ORIENTED_EDGE('',*,*,#382,.T.);
#1626 = PLANE('',#1627);
#1627 = AXIS2_PLACEMENT_3D('',#1628,#1629,#1630);
#1628 = CARTESIAN_POINT('',(-19.,-21.62564766839,104.1243523316));
#1629 = DIRECTION('',(-1.,-0.,-0.));
#1630 = DIRECTION('',(0.,0.,-1.));
#1631 = ADVANCED_FACE('',(#1632),#1679,.T.);
#1632 = FACE_BOUND('',#1633,.T.);
#1633 = EDGE_LOOP('',(#1634,#1642,#1643,#1644,#1645,#1646,#1647,#1648,
    #1649,#1657,#1665,#1673));
#1634 = ORIENTED_EDGE('',*,*,#1635,.F.);
#1635 = EDGE_CURVE('',#1505,#1636,#1638,.T.);
#1636 = VERTEX_POINT('',#1637);
#1637 = CARTESIAN_POINT('',(-5.,-13.5,68.));
#1638 = LINE('',#1639,#1640);
#1639 = CARTESIAN_POINT('',(-19.,-13.5,68.));
#1640 = VECTOR('',#1641,1.);
#1641 = DIRECTION('',(1.,0.,0.));
#1642 = ORIENTED_EDGE('',*,*,#1504,.F.);
#1643 = ORIENTED_EDGE('',*,*,#1386,.T.);
#1644 = ORIENTED_EDGE('',*,*,#141,.F.);
#1645 = ORIENTED_EDGE('',*,*,#282,.T.);
#1646 = ORIENTED_EDGE('',*,*,#180,.T.);
#1647 = ORIENTED_EDGE('',*,*,#1444,.T.);
#1648 = ORIENTED_EDGE('',*,*,#1536,.F.);
#1649 = ORIENTED_EDGE('',*,*,#1650,.F.);
#1650 = EDGE_CURVE('',#1651,#1527,#1653,.T.);
#1651 = VERTEX_POINT('',#1652);
#1652 = CARTESIAN_POINT('',(5.,-13.5,68.));
#1653 = LINE('',#1654,#1655);
#1654 = CARTESIAN_POINT('',(-19.,-13.5,68.));
#1655 = VECTOR('',#1656,1.);
#1656 = DIRECTION('',(1.,0.,0.));
#1657 = ORIENTED_EDGE('',*,*,#1658,.T.);
#1658 = EDGE_CURVE('',#1651,#1659,#1661,.T.);
#1659 = VERTEX_POINT('',#1660);
#1660 = CARTESIAN_POINT('',(5.,-12.4,68.));
#1661 = LINE('',#1662,#1663);
#1662 = CARTESIAN_POINT('',(5.,-15.,68.));
#1663 = VECTOR('',#1664,1.);
#1664 = DIRECTION('',(0.,1.,0.));
#1665 = ORIENTED_EDGE('',*,*,#1666,.T.);
#1666 = EDGE_CURVE('',#1659,#1667,#1669,.T.);
#1667 = VERTEX_POINT('',#1668);
#1668 = CARTESIAN_POINT('',(-5.,-12.4,68.));
#1669 = LINE('',#1670,#1671);
#1670 = CARTESIAN_POINT('',(-5.,-12.4,68.));
#1671 = VECTOR('',#1672,1.);
#1672 = DIRECTION('',(-1.,0.,0.));
#1673 = ORIENTED_EDGE('',*,*,#1674,.F.);
#1674 = EDGE_CURVE('',#1636,#1667,#1675,.T.);
#1675 = LINE('',#1676,#1677);
#1676 = CARTESIAN_POINT('',(-5.,-15.,68.));
#1677 = VECTOR('',#1678,1.);
#1678 = DIRECTION('',(0.,1.,0.));
#1679 = PLANE('',#1680);
#1680 = AXIS2_PLACEMENT_3D('',#1681,#1682,#1683);
#1681 = CARTESIAN_POINT('',(1.72E-15,-18.82987789692,68.));
#1682 = DIRECTION('',(0.,0.,1.));
#1683 = DIRECTION('',(1.,0.,0.));
#1684 = ADVANCED_FACE('',(#1685),#1751,.T.);
#1685 = FACE_BOUND('',#1686,.T.);
#1686 = EDGE_LOOP('',(#1687,#1697,#1705,#1713,#1721,#1729,#1737,#1745));
#1687 = ORIENTED_EDGE('',*,*,#1688,.F.);
#1688 = EDGE_CURVE('',#1689,#1691,#1693,.T.);
#1689 = VERTEX_POINT('',#1690);
#1690 = CARTESIAN_POINT('',(-6.,-12.4,136.));
#1691 = VERTEX_POINT('',#1692);
#1692 = CARTESIAN_POINT('',(-5.,-12.4,136.));
#1693 = LINE('',#1694,#1695);
#1694 = CARTESIAN_POINT('',(-6.,-12.4,136.));
#1695 = VECTOR('',#1696,1.);
#1696 = DIRECTION('',(1.,0.,0.));
#1697 = ORIENTED_EDGE('',*,*,#1698,.T.);
#1698 = EDGE_CURVE('',#1689,#1699,#1701,.T.);
#1699 = VERTEX_POINT('',#1700);
#1700 = CARTESIAN_POINT('',(-6.,-5.4,136.));
#1701 = LINE('',#1702,#1703);
#1702 = CARTESIAN_POINT('',(-6.,-12.4,136.));
#1703 = VECTOR('',#1704,1.);
#1704 = DIRECTION('',(0.,1.,0.));
#1705 = ORIENTED_EDGE('',*,*,#1706,.T.);
#1706 = EDGE_CURVE('',#1699,#1707,#1709,.T.);
#1707 = VERTEX_POINT('',#1708);
#1708 = CARTESIAN_POINT('',(6.,-5.4,136.));
#1709 = LINE('',#1710,#1711);
#1710 = CARTESIAN_POINT('',(-6.,-5.4,136.));
#1711 = VECTOR('',#1712,1.);
#1712 = DIRECTION('',(1.,0.,0.));
#1713 = ORIENTED_EDGE('',*,*,#1714,.F.);
#1714 = EDGE_CURVE('',#1715,#1707,#1717,.T.);
#1715 = VERTEX_POINT('',#1716);
#1716 = CARTESIAN_POINT('',(6.,-12.4,136.));
#1717 = LINE('',#1718,#1719);
#1718 = CARTESIAN_POINT('',(6.,-12.4,136.));
#1719 = VECTOR('',#1720,1.);
#1720 = DIRECTION('',(0.,1.,0.));
#1721 = ORIENTED_EDGE('',*,*,#1722,.F.);
#1722 = EDGE_CURVE('',#1723,#1715,#1725,.T.);
#1723 = VERTEX_POINT('',#1724);
#1724 = CARTESIAN_POINT('',(5.,-12.4,136.));
#1725 = LINE('',#1726,#1727);
#1726 = CARTESIAN_POINT('',(-6.,-12.4,136.));
#1727 = VECTOR('',#1728,1.);
#1728 = DIRECTION('',(1.,0.,0.));
#1729 = ORIENTED_EDGE('',*,*,#1730,.T.);
#1730 = EDGE_CURVE('',#1723,#1731,#1733,.T.);
#1731 = VERTEX_POINT('',#1732);
#1732 = CARTESIAN_POINT('',(5.,-9.4,136.));
#1733 = LINE('',#1734,#1735);
#1734 = CARTESIAN_POINT('',(5.,-12.4,136.));
#1735 = VECTOR('',#1736,1.);
#1736 = DIRECTION('',(0.,1.,0.));
#1737 = ORIENTED_EDGE('',*,*,#1738,.T.);
#1738 = EDGE_CURVE('',#1731,#1739,#1741,.T.);
#1739 = VERTEX_POINT('',#1740);
#1740 = CARTESIAN_POINT('',(-5.,-9.4,136.));
#1741 = LINE('',#1742,#1743);
#1742 = CARTESIAN_POINT('',(-5.5,-9.4,136.));
#1743 = VECTOR('',#1744,1.);
#1744 = DIRECTION('',(-1.,0.,0.));
#1745 = ORIENTED_EDGE('',*,*,#1746,.F.);
#1746 = EDGE_CURVE('',#1691,#1739,#1747,.T.);
#1747 = LINE('',#1748,#1749);
#1748 = CARTESIAN_POINT('',(-5.,-12.4,136.));
#1749 = VECTOR('',#1750,1.);
#1750 = DIRECTION('',(0.,1.,0.));
#1751 = PLANE('',#1752);
#1752 = AXIS2_PLACEMENT_3D('',#1753,#1754,#1755);
#1753 = CARTESIAN_POINT('',(-6.,-12.4,136.));
#1754 = DIRECTION('',(0.,0.,-1.));
#1755 = DIRECTION('',(1.,0.,0.));
#1756 = ADVANCED_FACE('',(#1757),#1837,.T.);
#1757 = FACE_BOUND('',#1758,.T.);
#1758 = EDGE_LOOP('',(#1759,#1767,#1768,#1776,#1784,#1790,#1791,#1799,
    #1807,#1815,#1823,#1831));
#1759 = ORIENTED_EDGE('',*,*,#1760,.T.);
#1760 = EDGE_CURVE('',#1761,#1689,#1763,.T.);
#1761 = VERTEX_POINT('',#1762);
#1762 = CARTESIAN_POINT('',(-8.,-12.4,138.));
#1763 = LINE('',#1764,#1765);
#1764 = CARTESIAN_POINT('',(-8.,-12.4,138.));
#1765 = VECTOR('',#1766,1.);
#1766 = DIRECTION('',(0.707106781187,0.,-0.707106781187));
#1767 = ORIENTED_EDGE('',*,*,#1688,.T.);
#1768 = ORIENTED_EDGE('',*,*,#1769,.T.);
#1769 = EDGE_CURVE('',#1691,#1770,#1772,.T.);
#1770 = VERTEX_POINT('',#1771);
#1771 = CARTESIAN_POINT('',(-5.,-12.4,137.));
#1772 = LINE('',#1773,#1774);
#1773 = CARTESIAN_POINT('',(-5.,-12.4,64.));
#1774 = VECTOR('',#1775,1.);
#1775 = DIRECTION('',(0.,0.,1.));
#1776 = ORIENTED_EDGE('',*,*,#1777,.T.);
#1777 = EDGE_CURVE('',#1770,#1778,#1780,.T.);
#1778 = VERTEX_POINT('',#1779);
#1779 = CARTESIAN_POINT('',(5.,-12.4,137.));
#1780 = LINE('',#1781,#1782);
#1781 = CARTESIAN_POINT('',(-5.,-12.4,137.));
#1782 = VECTOR('',#1783,1.);
#1783 = DIRECTION('',(1.,0.,0.));
#1784 = ORIENTED_EDGE('',*,*,#1785,.F.);
#1785 = EDGE_CURVE('',#1723,#1778,#1786,.T.);
#1786 = LINE('',#1787,#1788);
#1787 = CARTESIAN_POINT('',(5.,-12.4,64.));
#1788 = VECTOR('',#1789,1.);
#1789 = DIRECTION('',(0.,0.,1.));
#1790 = ORIENTED_EDGE('',*,*,#1722,.T.);
#1791 = ORIENTED_EDGE('',*,*,#1792,.T.);
#1792 = EDGE_CURVE('',#1715,#1793,#1795,.T.);
#1793 = VERTEX_POINT('',#1794);
#1794 = CARTESIAN_POINT('',(8.,-12.4,138.));
#1795 = LINE('',#1796,#1797);
#1796 = CARTESIAN_POINT('',(6.,-12.4,136.));
#1797 = VECTOR('',#1798,1.);
#1798 = DIRECTION('',(0.707106781187,0.,0.707106781187));
#1799 = ORIENTED_EDGE('',*,*,#1800,.T.);
#1800 = EDGE_CURVE('',#1793,#1801,#1803,.T.);
#1801 = VERTEX_POINT('',#1802);
#1802 = CARTESIAN_POINT('',(8.,-12.4,142.));
#1803 = LINE('',#1804,#1805);
#1804 = CARTESIAN_POINT('',(8.,-12.4,138.));
#1805 = VECTOR('',#1806,1.);
#1806 = DIRECTION('',(0.,0.,1.));
#1807 = ORIENTED_EDGE('',*,*,#1808,.T.);
#1808 = EDGE_CURVE('',#1801,#1809,#1811,.T.);
#1809 = VERTEX_POINT('',#1810);
#1810 = CARTESIAN_POINT('',(6.,-12.4,144.));
#1811 = LINE('',#1812,#1813);
#1812 = CARTESIAN_POINT('',(8.,-12.4,142.));
#1813 = VECTOR('',#1814,1.);
#1814 = DIRECTION('',(-0.707106781187,0.,0.707106781187));
#1815 = ORIENTED_EDGE('',*,*,#1816,.T.);
#1816 = EDGE_CURVE('',#1809,#1817,#1819,.T.);
#1817 = VERTEX_POINT('',#1818);
#1818 = CARTESIAN_POINT('',(-6.,-12.4,144.));
#1819 = LINE('',#1820,#1821);
#1820 = CARTESIAN_POINT('',(6.,-12.4,144.));
#1821 = VECTOR('',#1822,1.);
#1822 = DIRECTION('',(-1.,0.,0.));
#1823 = ORIENTED_EDGE('',*,*,#1824,.T.);
#1824 = EDGE_CURVE('',#1817,#1825,#1827,.T.);
#1825 = VERTEX_POINT('',#1826);
#1826 = CARTESIAN_POINT('',(-8.,-12.4,142.));
#1827 = LINE('',#1828,#1829);
#1828 = CARTESIAN_POINT('',(-6.,-12.4,144.));
#1829 = VECTOR('',#1830,1.);
#1830 = DIRECTION('',(-0.707106781187,0.,-0.707106781187));
#1831 = ORIENTED_EDGE('',*,*,#1832,.T.);
#1832 = EDGE_CURVE('',#1825,#1761,#1833,.T.);
#1833 = LINE('',#1834,#1835);
#1834 = CARTESIAN_POINT('',(-8.,-12.4,142.));
#1835 = VECTOR('',#1836,1.);
#1836 = DIRECTION('',(0.,0.,-1.));
#1837 = PLANE('',#1838);
#1838 = AXIS2_PLACEMENT_3D('',#1839,#1840,#1841);
#1839 = CARTESIAN_POINT('',(2.1E-16,-12.4,140.));
#1840 = DIRECTION('',(-0.,-1.,-0.));
#1841 = DIRECTION('',(0.,0.,-1.));
#1842 = ADVANCED_FACE('',(#1843),#1868,.F.);
#1843 = FACE_BOUND('',#1844,.F.);
#1844 = EDGE_LOOP('',(#1845,#1853,#1854,#1862));
#1845 = ORIENTED_EDGE('',*,*,#1846,.F.);
#1846 = EDGE_CURVE('',#1659,#1847,#1849,.T.);
#1847 = VERTEX_POINT('',#1848);
#1848 = CARTESIAN_POINT('',(5.,-12.4,131.5));
#1849 = LINE('',#1850,#1851);
#1850 = CARTESIAN_POINT('',(5.,-12.4,64.));
#1851 = VECTOR('',#1852,1.);
#1852 = DIRECTION('',(0.,0.,1.));
#1853 = ORIENTED_EDGE('',*,*,#1666,.T.);
#1854 = ORIENTED_EDGE('',*,*,#1855,.T.);
#1855 = EDGE_CURVE('',#1667,#1856,#1858,.T.);
#1856 = VERTEX_POINT('',#1857);
#1857 = CARTESIAN_POINT('',(-5.,-12.4,131.5));
#1858 = LINE('',#1859,#1860);
#1859 = CARTESIAN_POINT('',(-5.,-12.4,64.));
#1860 = VECTOR('',#1861,1.);
#1861 = DIRECTION('',(0.,0.,1.));
#1862 = ORIENTED_EDGE('',*,*,#1863,.T.);
#1863 = EDGE_CURVE('',#1856,#1847,#1864,.T.);
#1864 = LINE('',#1865,#1866);
#1865 = CARTESIAN_POINT('',(-5.,-12.4,131.5));
#1866 = VECTOR('',#1867,1.);
#1867 = DIRECTION('',(1.,0.,0.));
#1868 = PLANE('',#1869);
#1869 = AXIS2_PLACEMENT_3D('',#1870,#1871,#1872);
#1870 = CARTESIAN_POINT('',(-5.,-12.4,64.));
#1871 = DIRECTION('',(0.,1.,0.));
#1872 = DIRECTION('',(0.,0.,1.));
#1873 = ADVANCED_FACE('',(#1874),#1899,.T.);
#1874 = FACE_BOUND('',#1875,.T.);
#1875 = EDGE_LOOP('',(#1876,#1877,#1885,#1893));
#1876 = ORIENTED_EDGE('',*,*,#1863,.T.);
#1877 = ORIENTED_EDGE('',*,*,#1878,.T.);
#1878 = EDGE_CURVE('',#1847,#1879,#1881,.T.);
#1879 = VERTEX_POINT('',#1880);
#1880 = CARTESIAN_POINT('',(5.,-15.2,131.5));
#1881 = LINE('',#1882,#1883);
#1882 = CARTESIAN_POINT('',(5.,-12.4,131.5));
#1883 = VECTOR('',#1884,1.);
#1884 = DIRECTION('',(0.,-1.,0.));
#1885 = ORIENTED_EDGE('',*,*,#1886,.F.);
#1886 = EDGE_CURVE('',#1887,#1879,#1889,.T.);
#1887 = VERTEX_POINT('',#1888);
#1888 = CARTESIAN_POINT('',(-5.,-15.2,131.5));
#1889 = LINE('',#1890,#1891);
#1890 = CARTESIAN_POINT('',(-5.,-15.2,131.5));
#1891 = VECTOR('',#1892,1.);
#1892 = DIRECTION('',(1.,0.,0.));
#1893 = ORIENTED_EDGE('',*,*,#1894,.F.);
#1894 = EDGE_CURVE('',#1856,#1887,#1895,.T.);
#1895 = LINE('',#1896,#1897);
#1896 = CARTESIAN_POINT('',(-5.,-12.4,131.5));
#1897 = VECTOR('',#1898,1.);
#1898 = DIRECTION('',(0.,-1.,0.));
#1899 = PLANE('',#1900);
#1900 = AXIS2_PLACEMENT_3D('',#1901,#1902,#1903);
#1901 = CARTESIAN_POINT('',(-5.,-12.4,131.5));
#1902 = DIRECTION('',(0.,0.,-1.));
#1903 = DIRECTION('',(0.,-1.,0.));
#1904 = ADVANCED_FACE('',(#1905),#1930,.T.);
#1905 = FACE_BOUND('',#1906,.T.);
#1906 = EDGE_LOOP('',(#1907,#1908,#1916,#1924));
#1907 = ORIENTED_EDGE('',*,*,#1886,.T.);
#1908 = ORIENTED_EDGE('',*,*,#1909,.T.);
#1909 = EDGE_CURVE('',#1879,#1910,#1912,.T.);
#1910 = VERTEX_POINT('',#1911);
#1911 = CARTESIAN_POINT('',(5.,-15.2,132.5));
#1912 = LINE('',#1913,#1914);
#1913 = CARTESIAN_POINT('',(5.,-15.2,131.5));
#1914 = VECTOR('',#1915,1.);
#1915 = DIRECTION('',(0.,0.,1.));
#1916 = ORIENTED_EDGE('',*,*,#1917,.F.);
#1917 = EDGE_CURVE('',#1918,#1910,#1920,.T.);
#1918 = VERTEX_POINT('',#1919);
#1919 = CARTESIAN_POINT('',(-5.,-15.2,132.5));
#1920 = LINE('',#1921,#1922);
#1921 = CARTESIAN_POINT('',(-5.,-15.2,132.5));
#1922 = VECTOR('',#1923,1.);
#1923 = DIRECTION('',(1.,0.,0.));
#1924 = ORIENTED_EDGE('',*,*,#1925,.F.);
#1925 = EDGE_CURVE('',#1887,#1918,#1926,.T.);
#1926 = LINE('',#1927,#1928);
#1927 = CARTESIAN_POINT('',(-5.,-15.2,131.5));
#1928 = VECTOR('',#1929,1.);
#1929 = DIRECTION('',(0.,0.,1.));
#1930 = PLANE('',#1931);
#1931 = AXIS2_PLACEMENT_3D('',#1932,#1933,#1934);
#1932 = CARTESIAN_POINT('',(-5.,-15.2,131.5));
#1933 = DIRECTION('',(0.,-1.,0.));
#1934 = DIRECTION('',(0.,0.,1.));
#1935 = ADVANCED_FACE('',(#1936),#1952,.T.);
#1936 = FACE_BOUND('',#1937,.T.);
#1937 = EDGE_LOOP('',(#1938,#1939,#1945,#1946));
#1938 = ORIENTED_EDGE('',*,*,#1917,.T.);
#1939 = ORIENTED_EDGE('',*,*,#1940,.T.);
#1940 = EDGE_CURVE('',#1910,#1778,#1941,.T.);
#1941 = LINE('',#1942,#1943);
#1942 = CARTESIAN_POINT('',(5.,-15.2,132.5));
#1943 = VECTOR('',#1944,1.);
#1944 = DIRECTION('',(0.,0.528301886792,0.849056603774));
#1945 = ORIENTED_EDGE('',*,*,#1777,.F.);
#1946 = ORIENTED_EDGE('',*,*,#1947,.F.);
#1947 = EDGE_CURVE('',#1918,#1770,#1948,.T.);
#1948 = LINE('',#1949,#1950);
#1949 = CARTESIAN_POINT('',(-5.,-15.2,132.5));
#1950 = VECTOR('',#1951,1.);
#1951 = DIRECTION('',(0.,0.528301886792,0.849056603774));
#1952 = PLANE('',#1953);
#1953 = AXIS2_PLACEMENT_3D('',#1954,#1955,#1956);
#1954 = CARTESIAN_POINT('',(-5.,-15.2,132.5));
#1955 = DIRECTION('',(0.,-0.849056603774,0.528301886792));
#1956 = DIRECTION('',(0.,0.528301886792,0.849056603774));
#1957 = ADVANCED_FACE('',(#1958),#1976,.T.);
#1958 = FACE_BOUND('',#1959,.T.);
#1959 = EDGE_LOOP('',(#1960,#1961,#1969,#1975));
#1960 = ORIENTED_EDGE('',*,*,#1714,.T.);
#1961 = ORIENTED_EDGE('',*,*,#1962,.T.);
#1962 = EDGE_CURVE('',#1707,#1963,#1965,.T.);
#1963 = VERTEX_POINT('',#1964);
#1964 = CARTESIAN_POINT('',(8.,-5.4,138.));
#1965 = LINE('',#1966,#1967);
#1966 = CARTESIAN_POINT('',(6.,-5.4,136.));
#1967 = VECTOR('',#1968,1.);
#1968 = DIRECTION('',(0.707106781187,0.,0.707106781187));
#1969 = ORIENTED_EDGE('',*,*,#1970,.F.);
#1970 = EDGE_CURVE('',#1793,#1963,#1971,.T.);
#1971 = LINE('',#1972,#1973);
#1972 = CARTESIAN_POINT('',(8.,-12.4,138.));
#1973 = VECTOR('',#1974,1.);
#1974 = DIRECTION('',(0.,1.,0.));
#1975 = ORIENTED_EDGE('',*,*,#1792,.F.);
#1976 = PLANE('',#1977);
#1977 = AXIS2_PLACEMENT_3D('',#1978,#1979,#1980);
#1978 = CARTESIAN_POINT('',(6.,-12.4,136.));
#1979 = DIRECTION('',(0.707106781187,0.,-0.707106781187));
#1980 = DIRECTION('',(0.707106781187,0.,0.707106781187));
#1981 = ADVANCED_FACE('',(#1982),#2032,.F.);
#1982 = FACE_BOUND('',#1983,.F.);
#1983 = EDGE_LOOP('',(#1984,#1985,#1986,#1994,#2002,#2010,#2018,#2026));
#1984 = ORIENTED_EDGE('',*,*,#1706,.T.);
#1985 = ORIENTED_EDGE('',*,*,#1962,.T.);
#1986 = ORIENTED_EDGE('',*,*,#1987,.T.);
#1987 = EDGE_CURVE('',#1963,#1988,#1990,.T.);
#1988 = VERTEX_POINT('',#1989);
#1989 = CARTESIAN_POINT('',(8.,-5.4,142.));
#1990 = LINE('',#1991,#1992);
#1991 = CARTESIAN_POINT('',(8.,-5.4,138.));
#1992 = VECTOR('',#1993,1.);
#1993 = DIRECTION('',(0.,0.,1.));
#1994 = ORIENTED_EDGE('',*,*,#1995,.T.);
#1995 = EDGE_CURVE('',#1988,#1996,#1998,.T.);
#1996 = VERTEX_POINT('',#1997);
#1997 = CARTESIAN_POINT('',(6.,-5.4,144.));
#1998 = LINE('',#1999,#2000);
#1999 = CARTESIAN_POINT('',(8.,-5.4,142.));
#2000 = VECTOR('',#2001,1.);
#2001 = DIRECTION('',(-0.707106781187,0.,0.707106781187));
#2002 = ORIENTED_EDGE('',*,*,#2003,.T.);
#2003 = EDGE_CURVE('',#1996,#2004,#2006,.T.);
#2004 = VERTEX_POINT('',#2005);
#2005 = CARTESIAN_POINT('',(-6.,-5.4,144.));
#2006 = LINE('',#2007,#2008);
#2007 = CARTESIAN_POINT('',(6.,-5.4,144.));
#2008 = VECTOR('',#2009,1.);
#2009 = DIRECTION('',(-1.,0.,0.));
#2010 = ORIENTED_EDGE('',*,*,#2011,.T.);
#2011 = EDGE_CURVE('',#2004,#2012,#2014,.T.);
#2012 = VERTEX_POINT('',#2013);
#2013 = CARTESIAN_POINT('',(-8.,-5.4,142.));
#2014 = LINE('',#2015,#2016);
#2015 = CARTESIAN_POINT('',(-6.,-5.4,144.));
#2016 = VECTOR('',#2017,1.);
#2017 = DIRECTION('',(-0.707106781187,0.,-0.707106781187));
#2018 = ORIENTED_EDGE('',*,*,#2019,.T.);
#2019 = EDGE_CURVE('',#2012,#2020,#2022,.T.);
#2020 = VERTEX_POINT('',#2021);
#2021 = CARTESIAN_POINT('',(-8.,-5.4,138.));
#2022 = LINE('',#2023,#2024);
#2023 = CARTESIAN_POINT('',(-8.,-5.4,142.));
#2024 = VECTOR('',#2025,1.);
#2025 = DIRECTION('',(0.,0.,-1.));
#2026 = ORIENTED_EDGE('',*,*,#2027,.T.);
#2027 = EDGE_CURVE('',#2020,#1699,#2028,.T.);
#2028 = LINE('',#2029,#2030);
#2029 = CARTESIAN_POINT('',(-8.,-5.4,138.));
#2030 = VECTOR('',#2031,1.);
#2031 = DIRECTION('',(0.707106781187,0.,-0.707106781187));
#2032 = PLANE('',#2033);
#2033 = AXIS2_PLACEMENT_3D('',#2034,#2035,#2036);
#2034 = CARTESIAN_POINT('',(2.1E-16,-5.4,140.));
#2035 = DIRECTION('',(-0.,-1.,-0.));
#2036 = DIRECTION('',(0.,0.,-1.));
#2037 = ADVANCED_FACE('',(#2038),#2049,.T.);
#2038 = FACE_BOUND('',#2039,.T.);
#2039 = EDGE_LOOP('',(#2040,#2046,#2047,#2048));
#2040 = ORIENTED_EDGE('',*,*,#2041,.T.);
#2041 = EDGE_CURVE('',#1761,#2020,#2042,.T.);
#2042 = LINE('',#2043,#2044);
#2043 = CARTESIAN_POINT('',(-8.,-12.4,138.));
#2044 = VECTOR('',#2045,1.);
#2045 = DIRECTION('',(0.,1.,0.));
#2046 = ORIENTED_EDGE('',*,*,#2027,.T.);
#2047 = ORIENTED_EDGE('',*,*,#1698,.F.);
#2048 = ORIENTED_EDGE('',*,*,#1760,.F.);
#2049 = PLANE('',#2050);
#2050 = AXIS2_PLACEMENT_3D('',#2051,#2052,#2053);
#2051 = CARTESIAN_POINT('',(-8.,-12.4,138.));
#2052 = DIRECTION('',(-0.707106781187,0.,-0.707106781187));
#2053 = DIRECTION('',(0.707106781187,0.,-0.707106781187));
#2054 = ADVANCED_FACE('',(#2055),#2066,.T.);
#2055 = FACE_BOUND('',#2056,.T.);
#2056 = EDGE_LOOP('',(#2057,#2063,#2064,#2065));
#2057 = ORIENTED_EDGE('',*,*,#2058,.T.);
#2058 = EDGE_CURVE('',#1825,#2012,#2059,.T.);
#2059 = LINE('',#2060,#2061);
#2060 = CARTESIAN_POINT('',(-8.,-12.4,142.));
#2061 = VECTOR('',#2062,1.);
#2062 = DIRECTION('',(0.,1.,0.));
#2063 = ORIENTED_EDGE('',*,*,#2019,.T.);
#2064 = ORIENTED_EDGE('',*,*,#2041,.F.);
#2065 = ORIENTED_EDGE('',*,*,#1832,.F.);
#2066 = PLANE('',#2067);
#2067 = AXIS2_PLACEMENT_3D('',#2068,#2069,#2070);
#2068 = CARTESIAN_POINT('',(-8.,-12.4,142.));
#2069 = DIRECTION('',(-1.,0.,0.));
#2070 = DIRECTION('',(0.,0.,-1.));
#2071 = ADVANCED_FACE('',(#2072),#2083,.T.);
#2072 = FACE_BOUND('',#2073,.T.);
#2073 = EDGE_LOOP('',(#2074,#2080,#2081,#2082));
#2074 = ORIENTED_EDGE('',*,*,#2075,.T.);
#2075 = EDGE_CURVE('',#1817,#2004,#2076,.T.);
#2076 = LINE('',#2077,#2078);
#2077 = CARTESIAN_POINT('',(-6.,-12.4,144.));
#2078 = VECTOR('',#2079,1.);
#2079 = DIRECTION('',(0.,1.,0.));
#2080 = ORIENTED_EDGE('',*,*,#2011,.T.);
#2081 = ORIENTED_EDGE('',*,*,#2058,.F.);
#2082 = ORIENTED_EDGE('',*,*,#1824,.F.);
#2083 = PLANE('',#2084);
#2084 = AXIS2_PLACEMENT_3D('',#2085,#2086,#2087);
#2085 = CARTESIAN_POINT('',(-6.,-12.4,144.));
#2086 = DIRECTION('',(-0.707106781187,0.,0.707106781187));
#2087 = DIRECTION('',(-0.707106781187,0.,-0.707106781187));
#2088 = ADVANCED_FACE('',(#2089),#2100,.T.);
#2089 = FACE_BOUND('',#2090,.T.);
#2090 = EDGE_LOOP('',(#2091,#2097,#2098,#2099));
#2091 = ORIENTED_EDGE('',*,*,#2092,.T.);
#2092 = EDGE_CURVE('',#1809,#1996,#2093,.T.);
#2093 = LINE('',#2094,#2095);
#2094 = CARTESIAN_POINT('',(6.,-12.4,144.));
#2095 = VECTOR('',#2096,1.);
#2096 = DIRECTION('',(0.,1.,0.));
#2097 = ORIENTED_EDGE('',*,*,#2003,.T.);
#2098 = ORIENTED_EDGE('',*,*,#2075,.F.);
#2099 = ORIENTED_EDGE('',*,*,#1816,.F.);
#2100 = PLANE('',#2101);
#2101 = AXIS2_PLACEMENT_3D('',#2102,#2103,#2104);
#2102 = CARTESIAN_POINT('',(6.,-12.4,144.));
#2103 = DIRECTION('',(0.,0.,1.));
#2104 = DIRECTION('',(-1.,0.,0.));
#2105 = ADVANCED_FACE('',(#2106),#2117,.T.);
#2106 = FACE_BOUND('',#2107,.T.);
#2107 = EDGE_LOOP('',(#2108,#2114,#2115,#2116));
#2108 = ORIENTED_EDGE('',*,*,#2109,.T.);
#2109 = EDGE_CURVE('',#1801,#1988,#2110,.T.);
#2110 = LINE('',#2111,#2112);
#2111 = CARTESIAN_POINT('',(8.,-12.4,142.));
#2112 = VECTOR('',#2113,1.);
#2113 = DIRECTION('',(0.,1.,0.));
#2114 = ORIENTED_EDGE('',*,*,#1995,.T.);
#2115 = ORIENTED_EDGE('',*,*,#2092,.F.);
#2116 = ORIENTED_EDGE('',*,*,#1808,.F.);
#2117 = PLANE('',#2118);
#2118 = AXIS2_PLACEMENT_3D('',#2119,#2120,#2121);
#2119 = CARTESIAN_POINT('',(8.,-12.4,142.));
#2120 = DIRECTION('',(0.707106781187,0.,0.707106781187));
#2121 = DIRECTION('',(-0.707106781187,0.,0.707106781187));
#2122 = ADVANCED_FACE('',(#2123),#2129,.T.);
#2123 = FACE_BOUND('',#2124,.T.);
#2124 = EDGE_LOOP('',(#2125,#2126,#2127,#2128));
#2125 = ORIENTED_EDGE('',*,*,#1970,.T.);
#2126 = ORIENTED_EDGE('',*,*,#1987,.T.);
#2127 = ORIENTED_EDGE('',*,*,#2109,.F.);
#2128 = ORIENTED_EDGE('',*,*,#1800,.F.);
#2129 = PLANE('',#2130);
#2130 = AXIS2_PLACEMENT_3D('',#2131,#2132,#2133);
#2131 = CARTESIAN_POINT('',(8.,-12.4,138.));
#2132 = DIRECTION('',(1.,0.,0.));
#2133 = DIRECTION('',(0.,0.,1.));
#2134 = ADVANCED_FACE('',(#2135),#2166,.T.);
#2135 = FACE_BOUND('',#2136,.T.);
#2136 = EDGE_LOOP('',(#2137,#2138,#2146,#2154,#2160,#2161,#2162,#2163,
    #2164,#2165));
#2137 = ORIENTED_EDGE('',*,*,#1658,.F.);
#2138 = ORIENTED_EDGE('',*,*,#2139,.T.);
#2139 = EDGE_CURVE('',#1651,#2140,#2142,.T.);
#2140 = VERTEX_POINT('',#2141);
#2141 = CARTESIAN_POINT('',(5.,-13.5,64.));
#2142 = LINE('',#2143,#2144);
#2143 = CARTESIAN_POINT('',(5.,-13.5,64.));
#2144 = VECTOR('',#2145,1.);
#2145 = DIRECTION('',(0.,0.,-1.));
#2146 = ORIENTED_EDGE('',*,*,#2147,.T.);
#2147 = EDGE_CURVE('',#2140,#2148,#2150,.T.);
#2148 = VERTEX_POINT('',#2149);
#2149 = CARTESIAN_POINT('',(5.,-9.4,64.));
#2150 = LINE('',#2151,#2152);
#2151 = CARTESIAN_POINT('',(5.,-15.,64.));
#2152 = VECTOR('',#2153,1.);
#2153 = DIRECTION('',(0.,1.,0.));
#2154 = ORIENTED_EDGE('',*,*,#2155,.T.);
#2155 = EDGE_CURVE('',#2148,#1731,#2156,.T.);
#2156 = LINE('',#2157,#2158);
#2157 = CARTESIAN_POINT('',(5.,-9.4,64.));
#2158 = VECTOR('',#2159,1.);
#2159 = DIRECTION('',(0.,0.,1.));
#2160 = ORIENTED_EDGE('',*,*,#1730,.F.);
#2161 = ORIENTED_EDGE('',*,*,#1785,.T.);
#2162 = ORIENTED_EDGE('',*,*,#1940,.F.);
#2163 = ORIENTED_EDGE('',*,*,#1909,.F.);
#2164 = ORIENTED_EDGE('',*,*,#1878,.F.);
#2165 = ORIENTED_EDGE('',*,*,#1846,.F.);
#2166 = PLANE('',#2167);
#2167 = AXIS2_PLACEMENT_3D('',#2168,#2169,#2170);
#2168 = CARTESIAN_POINT('',(5.,-11.09930291508,100.72370088719));
#2169 = DIRECTION('',(1.,0.,0.));
#2170 = DIRECTION('',(0.,0.,1.));
#2171 = ADVANCED_FACE('',(#2172),#2203,.T.);
#2172 = FACE_BOUND('',#2173,.T.);
#2173 = EDGE_LOOP('',(#2174,#2175,#2176,#2177,#2178,#2179,#2180,#2181,
    #2189,#2197));
#2174 = ORIENTED_EDGE('',*,*,#1674,.T.);
#2175 = ORIENTED_EDGE('',*,*,#1855,.T.);
#2176 = ORIENTED_EDGE('',*,*,#1894,.T.);
#2177 = ORIENTED_EDGE('',*,*,#1925,.T.);
#2178 = ORIENTED_EDGE('',*,*,#1947,.T.);
#2179 = ORIENTED_EDGE('',*,*,#1769,.F.);
#2180 = ORIENTED_EDGE('',*,*,#1746,.T.);
#2181 = ORIENTED_EDGE('',*,*,#2182,.F.);
#2182 = EDGE_CURVE('',#2183,#1739,#2185,.T.);
#2183 = VERTEX_POINT('',#2184);
#2184 = CARTESIAN_POINT('',(-5.,-9.4,64.));
#2185 = LINE('',#2186,#2187);
#2186 = CARTESIAN_POINT('',(-5.,-9.4,64.));
#2187 = VECTOR('',#2188,1.);
#2188 = DIRECTION('',(0.,0.,1.));
#2189 = ORIENTED_EDGE('',*,*,#2190,.F.);
#2190 = EDGE_CURVE('',#2191,#2183,#2193,.T.);
#2191 = VERTEX_POINT('',#2192);
#2192 = CARTESIAN_POINT('',(-5.,-13.5,64.));
#2193 = LINE('',#2194,#2195);
#2194 = CARTESIAN_POINT('',(-5.,-15.,64.));
#2195 = VECTOR('',#2196,1.);
#2196 = DIRECTION('',(0.,1.,0.));
#2197 = ORIENTED_EDGE('',*,*,#2198,.F.);
#2198 = EDGE_CURVE('',#1636,#2191,#2199,.T.);
#2199 = LINE('',#2200,#2201);
#2200 = CARTESIAN_POINT('',(-5.,-13.5,64.));
#2201 = VECTOR('',#2202,1.);
#2202 = DIRECTION('',(0.,0.,-1.));
#2203 = PLANE('',#2204);
#2204 = AXIS2_PLACEMENT_3D('',#2205,#2206,#2207);
#2205 = CARTESIAN_POINT('',(-5.,-11.09930291508,100.72370088719));
#2206 = DIRECTION('',(-1.,-0.,-0.));
#2207 = DIRECTION('',(0.,0.,-1.));
#2208 = ADVANCED_FACE('',(#2209),#2229,.T.);
#2209 = FACE_BOUND('',#2210,.T.);
#2210 = EDGE_LOOP('',(#2211,#2212,#2213,#2214,#2215,#2223));
#2211 = ORIENTED_EDGE('',*,*,#1586,.F.);
#2212 = ORIENTED_EDGE('',*,*,#308,.F.);
#2213 = ORIENTED_EDGE('',*,*,#251,.T.);
#2214 = ORIENTED_EDGE('',*,*,#289,.F.);
#2215 = ORIENTED_EDGE('',*,*,#2216,.T.);
#2216 = EDGE_CURVE('',#268,#2217,#2219,.T.);
#2217 = VERTEX_POINT('',#2218);
#2218 = CARTESIAN_POINT('',(19.,-13.5,64.));
#2219 = LINE('',#2220,#2221);
#2220 = CARTESIAN_POINT('',(19.,-24.,64.));
#2221 = VECTOR('',#2222,1.);
#2222 = DIRECTION('',(0.,1.,0.));
#2223 = ORIENTED_EDGE('',*,*,#2224,.T.);
#2224 = EDGE_CURVE('',#2217,#1587,#2225,.T.);
#2225 = LINE('',#2226,#2227);
#2226 = CARTESIAN_POINT('',(19.,-13.5,64.));
#2227 = VECTOR('',#2228,1.);
#2228 = DIRECTION('',(0.,0.,1.));
#2229 = PLANE('',#2230);
#2230 = AXIS2_PLACEMENT_3D('',#2231,#2232,#2233);
#2231 = CARTESIAN_POINT('',(19.,-21.62564766839,104.1243523316));
#2232 = DIRECTION('',(1.,0.,0.));
#2233 = DIRECTION('',(0.,0.,1.));
#2234 = ADVANCED_FACE('',(#2235),#2248,.T.);
#2235 = FACE_BOUND('',#2236,.T.);
#2236 = EDGE_LOOP('',(#2237,#2238,#2239,#2240,#2246,#2247));
#2237 = ORIENTED_EDGE('',*,*,#1512,.T.);
#2238 = ORIENTED_EDGE('',*,*,#1635,.T.);
#2239 = ORIENTED_EDGE('',*,*,#2198,.T.);
#2240 = ORIENTED_EDGE('',*,*,#2241,.F.);
#2241 = EDGE_CURVE('',#1611,#2191,#2242,.T.);
#2242 = LINE('',#2243,#2244);
#2243 = CARTESIAN_POINT('',(-19.,-13.5,64.));
#2244 = VECTOR('',#2245,1.);
#2245 = DIRECTION('',(1.,0.,0.));
#2246 = ORIENTED_EDGE('',*,*,#1610,.T.);
#2247 = ORIENTED_EDGE('',*,*,#1561,.T.);
#2248 = PLANE('',#2249);
#2249 = AXIS2_PLACEMENT_3D('',#2250,#2251,#2252);
#2250 = CARTESIAN_POINT('',(-14.19974507304,-13.5,101.80025492695));
#2251 = DIRECTION('',(0.,1.,0.));
#2252 = DIRECTION('',(0.,0.,1.));
#2253 = ADVANCED_FACE('',(#2254),#2267,.T.);
#2254 = FACE_BOUND('',#2255,.T.);
#2255 = EDGE_LOOP('',(#2256,#2262,#2263,#2264,#2265,#2266));
#2256 = ORIENTED_EDGE('',*,*,#2257,.F.);
#2257 = EDGE_CURVE('',#2140,#2217,#2258,.T.);
#2258 = LINE('',#2259,#2260);
#2259 = CARTESIAN_POINT('',(-19.,-13.5,64.));
#2260 = VECTOR('',#2261,1.);
#2261 = DIRECTION('',(1.,0.,0.));
#2262 = ORIENTED_EDGE('',*,*,#2139,.F.);
#2263 = ORIENTED_EDGE('',*,*,#1650,.T.);
#2264 = ORIENTED_EDGE('',*,*,#1526,.T.);
#2265 = ORIENTED_EDGE('',*,*,#1594,.T.);
#2266 = ORIENTED_EDGE('',*,*,#2224,.F.);
#2267 = PLANE('',#2268);
#2268 = AXIS2_PLACEMENT_3D('',#2269,#2270,#2271);
#2269 = CARTESIAN_POINT('',(14.199745073046,-13.5,101.80025492695));
#2270 = DIRECTION('',(0.,1.,0.));
#2271 = DIRECTION('',(0.,0.,1.));
#2272 = ADVANCED_FACE('',(#2273),#2288,.T.);
#2273 = FACE_BOUND('',#2274,.T.);
#2274 = EDGE_LOOP('',(#2275,#2276,#2277,#2283,#2284,#2285,#2286,#2287));
#2275 = ORIENTED_EDGE('',*,*,#2241,.T.);
#2276 = ORIENTED_EDGE('',*,*,#2190,.T.);
#2277 = ORIENTED_EDGE('',*,*,#2278,.T.);
#2278 = EDGE_CURVE('',#2183,#2148,#2279,.T.);
#2279 = LINE('',#2280,#2281);
#2280 = CARTESIAN_POINT('',(-5.,-9.4,64.));
#2281 = VECTOR('',#2282,1.);
#2282 = DIRECTION('',(1.,0.,0.));
#2283 = ORIENTED_EDGE('',*,*,#2147,.F.);
#2284 = ORIENTED_EDGE('',*,*,#2257,.T.);
#2285 = ORIENTED_EDGE('',*,*,#2216,.F.);
#2286 = ORIENTED_EDGE('',*,*,#265,.F.);
#2287 = ORIENTED_EDGE('',*,*,#1618,.T.);
#2288 = PLANE('',#2289);
#2289 = AXIS2_PLACEMENT_3D('',#2290,#2291,#2292);
#2290 = CARTESIAN_POINT('',(0.,-17.79125475285,64.));
#2291 = DIRECTION('',(-0.,-0.,-1.));
#2292 = DIRECTION('',(-1.,0.,0.));
#2293 = ADVANCED_FACE('',(#2294),#2300,.T.);
#2294 = FACE_BOUND('',#2295,.T.);
#2295 = EDGE_LOOP('',(#2296,#2297,#2298,#2299));
#2296 = ORIENTED_EDGE('',*,*,#2278,.F.);
#2297 = ORIENTED_EDGE('',*,*,#2182,.T.);
#2298 = ORIENTED_EDGE('',*,*,#1738,.F.);
#2299 = ORIENTED_EDGE('',*,*,#2155,.F.);
#2300 = PLANE('',#2301);
#2301 = AXIS2_PLACEMENT_3D('',#2302,#2303,#2304);
#2302 = CARTESIAN_POINT('',(0.,-9.4,100.));
#2303 = DIRECTION('',(0.,1.,0.));
#2304 = DIRECTION('',(0.,0.,1.));
#2305 = ADVANCED_FACE('',(#2306),#2314,.T.);
#2306 = FACE_BOUND('',#2307,.T.);
#2307 = EDGE_LOOP('',(#2308,#2309,#2310,#2311,#2312,#2313));
#2308 = ORIENTED_EDGE('',*,*,#1410,.F.);
#2309 = ORIENTED_EDGE('',*,*,#728,.F.);
#2310 = ORIENTED_EDGE('',*,*,#349,.T.);
#2311 = ORIENTED_EDGE('',*,*,#340,.T.);
#2312 = ORIENTED_EDGE('',*,*,#664,.T.);
#2313 = ORIENTED_EDGE('',*,*,#1419,.F.);
#2314 = CYLINDRICAL_SURFACE('',#2315,10.5);
#2315 = AXIS2_PLACEMENT_3D('',#2316,#2317,#2318);
#2316 = CARTESIAN_POINT('',(0.,-30.,122.6625));
#2317 = DIRECTION('',(0.,1.,0.));
#2318 = DIRECTION('',(0.,0.,1.));
#2319 = ( GEOMETRIC_REPRESENTATION_CONTEXT(3) 
GLOBAL_UNCERTAINTY_ASSIGNED_CONTEXT((#2323)) 
GLOBAL_UNIT_ASSIGNED_CONTEXT((#2320,#2321,#2322)) REPRESENTATION_CONTEXT
('Context #1','3D Context with UNIT and UNCERTAINTY') );
#2320 = ( LENGTH_UNIT() NAMED_UNIT(*) SI_UNIT(.MILLI.,.METRE.) );
#2321 = ( NAMED_UNIT(*) PLANE_ANGLE_UNIT() SI_UNIT($,.RADIAN.) );
#2322 = ( NAMED_UNIT(*) SI_UNIT($,.STERADIAN.) SOLID_ANGLE_UNIT() );
#2323 = UNCERTAINTY_MEASURE_WITH_UNIT(LENGTH_MEASURE(1.E-07),#2320,
  'distance_accuracy_value','confusion accuracy');
#2324 = PRODUCT_RELATED_PRODUCT_CATEGORY('part',$,(#7));
ENDSEC;
END-ISO-10303-21;
