999
FreeCAD v1.1 20260414 (Git shallow)
  0
SECTION
  2
HEADER
  9
$ACADVER
  1
AC1014
  9
$ACADMAINTVER
 70
     9
  9
$DWGCODEPAGE
  3
ANSI_1252
  9
$TEXTSTYLE
  7
STANDARD
  9
$DIMSTYLE
  2
STANDARD
  9
$DIMTXSTY
  7
STANDARD
  9
$CMLSTYLE
  2
STANDARD
  9
$LUNITS
 70
2
  9
$INSUNITS
 70
4
  9
$PEXTMAX
 10
50
 20
50
 30
50
  9
$PEXTMIN
 10
0
 20
0
 30
0
  9
$HANDSEED
  5
FFFF
  0
ENDSEC
  0
SECTION
  2
CLASSES
  0
CLASS
  1
ACDBDICTIONARYWDFLT
  2
AcDbDictionaryWithDefault
  3
ObjectDBX Classes
 90
        0
280
     0
281
     0
  0
CLASS
  1
XRECORD
  2
AcDbXrecord
  3
ObjectDBX Classes
 90
        0
280
     0
281
     0
  0
CLASS
  1
LWPOLYLINE
  2
AcDbPolyline
  3
ObjectDBX Classes
 90
        0
280
     0
281
     1
  0
ENDSEC
  0
SECTION
  2
TABLES
  0
TABLE
  2
VPORT
  5
20
330
0
100
AcDbSymbolTable
 70
     1
  0
VPORT
  5
21
330
20
100
AcDbSymbolTableRecord
100
AcDbViewportTableRecord
  2
*ACTIVE
 70
     0
  0
ENDTAB
  0
TABLE
  2
LTYPE
  5
22
330
0
100
AcDbSymbolTable
 70
     1
  0
LTYPE
  5
23
330
21
100
AcDbSymbolTableRecord
100
AcDbLinetypeTableRecord
  2
BYBLOCK
 70
     0
  3

 72
    65
 73
     0
 40
0.0
  0
LTYPE
  5
24
330
21
100
AcDbSymbolTableRecord
100
AcDbLinetypeTableRecord
  2
BYLAYER
 70
     0
  3

 72
    65
 73
     0
 40
0.0
  0
LTYPE
  5
25
330
21
100
AcDbSymbolTableRecord
100
AcDbLinetypeTableRecord
  2
CONTINUOUS
 70
     0
  3
Solid line
 72
    65
 73
     0
 40
0.0
  0
ENDTAB
  0
TABLE
  2
LAYER
  5
B34
330
0
100
AcDbSymbolTable
 70
15
  0
LAYER
  5
B35
330
B34
100
AcDbSymbolTableRecord
100
AcDbLayerTableRecord
  2
0
 70
   0
 62
   7
  6
CONTINUOUS
  0
LAYER
  5
B36
330
B34
100
AcDbSymbolTableRecord
100
AcDbLayerTableRecord
  2
View
 70
    0
 62
    7
  6
CONTINUOUS
  0
LAYER
  5
B37
330
B34
100
AcDbSymbolTableRecord
100
AcDbLayerTableRecord
  2
ProjItem
 70
    0
 62
    7
  6
CONTINUOUS
  0
LAYER
  5
B38
330
B34
100
AcDbSymbolTableRecord
100
AcDbLayerTableRecord
  2
ProjItem001
 70
    0
 62
    7
  6
CONTINUOUS
  0
LAYER
  5
B39
330
B34
100
AcDbSymbolTableRecord
100
AcDbLayerTableRecord
  2
ProjItem002
 70
    0
 62
    7
  6
CONTINUOUS
  0
LAYER
  5
B3A
330
B34
100
AcDbSymbolTableRecord
100
AcDbLayerTableRecord
  2
Dimension
 70
    0
 62
    7
  6
CONTINUOUS
  0
LAYER
  5
B3B
330
B34
100
AcDbSymbolTableRecord
100
AcDbLayerTableRecord
  2
Dimension001
 70
    0
 62
    7
  6
CONTINUOUS
  0
LAYER
  5
B3C
330
B34
100
AcDbSymbolTableRecord
100
AcDbLayerTableRecord
  2
Dimension002
 70
    0
 62
    7
  6
CONTINUOUS
  0
LAYER
  5
B3D
330
B34
100
AcDbSymbolTableRecord
100
AcDbLayerTableRecord
  2
Dimension003
 70
    0
 62
    7
  6
CONTINUOUS
  0
LAYER
  5
B3E
330
B34
100
AcDbSymbolTableRecord
100
AcDbLayerTableRecord
  2
Dimension004
 70
    0
 62
    7
  6
CONTINUOUS
  0
LAYER
  5
B3F
330
B34
100
AcDbSymbolTableRecord
100
AcDbLayerTableRecord
  2
Dimension005
 70
    0
 62
    7
  6
CONTINUOUS
  0
LAYER
  5
B40
330
B34
100
AcDbSymbolTableRecord
100
AcDbLayerTableRecord
  2
Dimension007
 70
    0
 62
    7
  6
CONTINUOUS
  0
LAYER
  5
B41
330
B34
100
AcDbSymbolTableRecord
100
AcDbLayerTableRecord
  2
Dimension008
 70
    0
 62
    7
  6
CONTINUOUS
  0
LAYER
  5
B42
330
B34
100
AcDbSymbolTableRecord
100
AcDbLayerTableRecord
  2
Dimension009
 70
    0
 62
    7
  6
CONTINUOUS
  0
LAYER
  5
B43
330
B34
100
AcDbSymbolTableRecord
100
AcDbLayerTableRecord
  2
Dimension010
 70
    0
 62
    7
  6
CONTINUOUS
  0
ENDTAB
  0
TABLE
  2
STYLE
  5
70
330
0
100
AcDbSymbolTable
 70
     2
  0
STYLE
  5
71
330
70
100
AcDbSymbolTableRecord
100
AcDbTextStyleTableRecord
  2
STANDARD
 70
     0
 40
0.0
 41
1.0
 50
0.0
 71
     0
 42
2.5
  3
arial.ttf
  4

  0
STYLE
  5
72
330
70
100
AcDbSymbolTableRecord
100
AcDbTextStyleTableRecord
  2
ANNOTATIVE
 70
     0
 40
0.0
 41
1.0
 50
0.0
 71
     0
 42
2.5
  3
arial.ttf
  4

  0
ENDTAB
  0
TABLE
  2
VIEW
  5
73
330
0
100
AcDbSymbolTable
 70
     0
  0
ENDTAB
  0
TABLE
  2
UCS
  5
74
330
0
100
AcDbSymbolTable
 70
     0
  0
ENDTAB
  0
TABLE
  2
APPID
  5
75
330
0
100
AcDbSymbolTable
 70
     2
  0
APPID
  5
76
330
75
100
AcDbSymbolTableRecord
100
AcDbRegAppTableRecord
  2
ACAD
 70
     0
  0
APPID
  5
77
330
75
100
AcDbSymbolTableRecord
100
AcDbRegAppTableRecord
  2
ACADANNOTATIVE
 70
     0
  0
ENDTAB
  0
TABLE
  2
DIMSTYLE
  5
78
330
0
100
AcDbSymbolTable
 70
     2
  0
DIMSTYLE
105
79
330
78
100
AcDbSymbolTableRecord
100
AcDbDimStyleTableRecord
  2
STANDARD
 70
     0
  3

  4

  5

  6

  7

 40
0.0
 41
2.5
 42
0.625
 43
3.75
 44
1.25
 45
0.0
 46
0.0
 47
0.0
 48
0.0
140
2.5
141
2.5
142
0.0
143
0.03937007874016
144
1.0
145
0.0
146
1.0
147
0.625
 71
     0
 72
     0
 73
     0
 74
     0
 75
     0
 76
     0
 77
     1
 78
     8
170
     0
171
     3
172
     1
173
     0
174
     0
175
     0
176
     0
177
     0
178
     0
270
     2
271
     2
272
     2
273
     2
274
     3
340
71
275
     0
280
     0
281
     0
282
     0
283
     0
284
     8
285
     0
286
     0
287
     3
288
     0
  0
ENDTAB
  0
TABLE
  2
BLOCK_RECORD
  5
A01
330
0
100
AcDbSymbolTable
  70
5
  0
BLOCK_RECORD
  5
A02
330
A01
100
AcDbSymbolTableRecord
100
AcDbBlockTableRecord
  2
*MODEL_SPACE
  0
BLOCK_RECORD
  5
A03
330
A01
100
AcDbSymbolTableRecord
100
AcDbBlockTableRecord
  2
*PAPER_SPACE
  0
BLOCK_RECORD
  5
ADB
330
A01
100
AcDbSymbolTableRecord
100
AcDbBlockTableRecord
  2
*Dimension
  0
BLOCK_RECORD
  5
AE5
330
A01
100
AcDbSymbolTableRecord
100
AcDbBlockTableRecord
  2
*Dimension001
  0
BLOCK_RECORD
  5
AEF
330
A01
100
AcDbSymbolTableRecord
100
AcDbBlockTableRecord
  2
*Dimension002
  0
BLOCK_RECORD
  5
AF7
330
A01
100
AcDbSymbolTableRecord
100
AcDbBlockTableRecord
  2
*Dimension003
  0
BLOCK_RECORD
  5
B01
330
A01
100
AcDbSymbolTableRecord
100
AcDbBlockTableRecord
  2
*Dimension004
  0
BLOCK_RECORD
  5
B0B
330
A01
100
AcDbSymbolTableRecord
100
AcDbBlockTableRecord
  2
*Dimension005
  0
BLOCK_RECORD
  5
B15
330
A01
100
AcDbSymbolTableRecord
100
AcDbBlockTableRecord
  2
*Dimension007
  0
BLOCK_RECORD
  5
B1D
330
A01
100
AcDbSymbolTableRecord
100
AcDbBlockTableRecord
  2
*Dimension008
  0
BLOCK_RECORD
  5
B24
330
A01
100
AcDbSymbolTableRecord
100
AcDbBlockTableRecord
  2
*Dimension009
  0
BLOCK_RECORD
  5
B2B
330
A01
100
AcDbSymbolTableRecord
100
AcDbBlockTableRecord
  2
*Dimension010
  0
ENDTAB
  0
ENDSEC
  0
SECTION
  2
BLOCKS
  0
BLOCK
  5
A04
330
A02
100
AcDbEntity
  8
0
100
AcDbBlockBegin
  2
*MODEL_SPACE
 70
   0
 10
0
 20
0
 30
0
  3
*MODEL_SPACE
  1
 
  0
ENDBLK
  5
A05
330
A02
100
AcDbEntity
  8
0
100
AcDbBlockEnd
  0
BLOCK
  5
A06
330
A03
100
AcDbEntity
 67
1
  8
0
100
AcDbBlockBegin
  2
*PAPER_SPACE
 70
   0
 10
0
 20
0
 30
0
  3
*PAPER_SPACE
  1
 
  0
ENDBLK
  5
A07
330
A03
100
AcDbEntity
 67
    1
  8
0
100
AcDbBlockEnd
  0
BLOCK
  5
ADC
330
ADB
100
AcDbEntity
  8
Dimension
100
AcDbBlockBegin
  2
*Dimension
 70
   1
 10
0
 20
0
 30
0
  3
*Dimension
  1
 
  0
LINE
  5
ADD
330
ADB
100
AcDbEntity
  8
Dimension
100
AcDbLine
 10
62.9945
 20
132.148
 30
0
 11
36.987
 21
119.296
 31
0
  0
LINE
  5
ADE
330
ADB
100
AcDbEntity
  8
Dimension
100
AcDbLine
 10
62.9945
 20
124.648
 30
0
 11
36.987
 21
111.796
 31
0
  0
LINE
  5
ADF
330
ADB
100
AcDbEntity
  8
Dimension
100
AcDbLine
 10
36.987
 20
111.796
 30
0
 11
36.987
 21
119.296
 31
0
  0
TEXT
  5
AE0
330
ADB
100
AcDbEntity
  8
Dimension
100
AcDbText
 10
41.987
 20
111.796
 30
0
 40
3.5
  1
MagInset
  7
STANDARD
 72
1
 11
36.987
 21
111.796
 31
0
100
AcDbText
  0
SOLID
  5
AE1
330
ADB
100
AcDbEntity
  8
0
 62
     0
100
AcDbTrace
 10
37.3605
 20
116.981
 30
0
 11
36.6134
 21
116.612
 31
0
 12
36.987
 22
111.796
 32
0
 13
36.987
 23
111.796
 33
0
  0
SOLID
  5
AE2
330
ADB
100
AcDbEntity
  8
0
 62
     0
100
AcDbTrace
 10
37.3605
 20
114.481
 30
0
 11
36.6134
 21
114.112
 31
0
 12
36.987
 22
119.296
 32
0
 13
36.987
 23
119.296
 33
0
  0
ENDBLK
  5
AE3
330
ADB
100
AcDbEntity
  8
Dimension
100
AcDbBlockEnd
  0
BLOCK
  5
AE6
330
AE5
100
AcDbEntity
  8
Dimension001
100
AcDbBlockBegin
  2
*Dimension001
 70
   1
 10
0
 20
0
 30
0
  3
*Dimension001
  1
 
  0
LINE
  5
AE7
330
AE5
100
AcDbEntity
  8
Dimension001
100
AcDbLine
 10
55.4945
 20
132.148
 30
0
 11
68.2505
 21
126.413
 31
0
  0
LINE
  5
AE8
330
AE5
100
AcDbEntity
  8
Dimension001
100
AcDbLine
 10
62.9945
 20
132.148
 30
0
 11
75.7505
 21
126.413
 31
0
  0
LINE
  5
AE9
330
AE5
100
AcDbEntity
  8
Dimension001
100
AcDbLine
 10
75.7505
 20
126.413
 30
0
 11
68.2505
 21
126.413
 31
0
  0
TEXT
  5
AEA
330
AE5
100
AcDbEntity
  8
Dimension001
100
AcDbText
 10
75.7505
 20
121.413
 30
0
 40
3.5
  1
MagInset
  7
STANDARD
 72
1
 11
75.7505
 21
126.413
 31
0
100
AcDbText
  0
SOLID
  5
AEB
330
AE5
100
AcDbEntity
  8
0
 62
     0
100
AcDbTrace
 10
70.3705
 20
126.584
 30
0
 11
71.1305
 21
126.242
 31
0
 12
75.7505
 22
126.413
 32
0
 13
75.7505
 23
126.413
 33
0
  0
SOLID
  5
AEC
330
AE5
100
AcDbEntity
  8
0
 62
     0
100
AcDbTrace
 10
72.8705
 20
126.584
 30
0
 11
73.6305
 21
126.242
 31
0
 12
68.2505
 22
126.413
 32
0
 13
68.2505
 23
126.413
 33
0
  0
ENDBLK
  5
AED
330
AE5
100
AcDbEntity
  8
Dimension001
100
AcDbBlockEnd
  0
BLOCK
  5
AF0
330
AEF
100
AcDbEntity
  8
Dimension002
100
AcDbBlockBegin
  2
*Dimension002
 70
   1
 10
0
 20
0
 30
0
  3
*Dimension002
  1
 
  0
LINE
  5
AF1
330
AEF
100
AcDbEntity
  8
Dimension002
100
AcDbLine
 10
60.6695
 20
173.395
 30
0
 11
65.3195
 21
173.402
 31
0
  0
TEXT
  5
AF2
330
AEF
100
AcDbEntity
  8
Dimension002
100
AcDbText
 10
32.7507
 20
178.759
 30
0
 40
3.5
  1
MagDiameter
  7
STANDARD
 72
1
 11
32.7507
 21
178.759
 31
0
100
AcDbText
  0
SOLID
  5
AF3
330
AEF
100
AcDbEntity
  8
0
 62
     0
100
AcDbTrace
 10
65.6688
 20
173.819
 30
0
 11
65.6701
 21
172.986
 31
0
 12
60.6695
 22
173.395
 32
0
 13
60.6695
 23
173.395
 33
0
  0
SOLID
  5
AF4
330
AEF
100
AcDbEntity
  8
0
 62
     0
100
AcDbTrace
 10
60.3188
 20
173.811
 30
0
 11
60.3201
 21
172.977
 31
0
 12
65.3195
 22
173.402
 32
0
 13
65.3195
 23
173.402
 33
0
  0
ENDBLK
  5
AF5
330
AEF
100
AcDbEntity
  8
Dimension002
100
AcDbBlockEnd
  0
BLOCK
  5
AF8
330
AF7
100
AcDbEntity
  8
Dimension003
100
AcDbBlockBegin
  2
*Dimension003
 70
   1
 10
0
 20
0
 30
0
  3
*Dimension003
  1
 
  0
LINE
  5
AF9
330
AF7
100
AcDbEntity
  8
Dimension003
100
AcDbLine
 10
66.3096
 20
79.4601
 30
0
 11
37.5144
 21
79.4601
 31
0
  0
LINE
  5
AFA
330
AF7
100
AcDbEntity
  8
Dimension003
100
AcDbLine
 10
66.3096
 20
49.4601
 30
0
 11
37.5144
 21
49.4601
 31
0
  0
LINE
  5
AFB
330
AF7
100
AcDbEntity
  8
Dimension003
100
AcDbLine
 10
37.5144
 20
49.4601
 30
0
 11
37.5144
 21
79.4601
 31
0
  0
TEXT
  5
AFC
330
AF7
100
AcDbEntity
  8
Dimension003
100
AcDbText
 10
42.5144
 20
64.4601
 30
0
 40
3.5
  1
Width
  7
STANDARD
 72
1
 11
37.5144
 21
64.4601
 31
0
100
AcDbText
  0
SOLID
  5
AFD
330
AF7
100
AcDbEntity
  8
0
 62
     0
100
AcDbTrace
 10
37.9311
 20
54.4601
 30
0
 11
37.0978
 21
54.4601
 31
0
 12
37.5144
 22
49.4601
 32
0
 13
37.5144
 23
49.4601
 33
0
  0
SOLID
  5
AFE
330
AF7
100
AcDbEntity
  8
0
 62
     0
100
AcDbTrace
 10
37.9311
 20
74.4601
 30
0
 11
37.0978
 21
74.4601
 31
0
 12
37.5144
 22
79.4601
 32
0
 13
37.5144
 23
79.4601
 33
0
  0
ENDBLK
  5
AFF
330
AF7
100
AcDbEntity
  8
Dimension003
100
AcDbBlockEnd
  0
BLOCK
  5
B02
330
B01
100
AcDbEntity
  8
Dimension004
100
AcDbBlockBegin
  2
*Dimension004
 70
   1
 10
0
 20
0
 30
0
  3
*Dimension004
  1
 
  0
LINE
  5
B03
330
B01
100
AcDbEntity
  8
Dimension004
100
AcDbLine
 10
145.807
 20
54.4927
 30
0
 11
145.807
 21
83.2081
 31
0
  0
LINE
  5
B04
330
B01
100
AcDbEntity
  8
Dimension004
100
AcDbLine
 10
51.9706
 20
54.4927
 30
0
 11
51.9706
 21
83.2081
 31
0
  0
LINE
  5
B05
330
B01
100
AcDbEntity
  8
Dimension004
100
AcDbLine
 10
51.9706
 20
83.2081
 30
0
 11
145.807
 21
83.2081
 31
0
  0
TEXT
  5
B06
330
B01
100
AcDbEntity
  8
Dimension004
100
AcDbText
 10
95.6621
 20
88.2081
 30
0
 40
3.5
  1
Length
  7
STANDARD
 72
1
 11
95.6621
 21
83.2081
 31
0
100
AcDbText
  0
SOLID
  5
B07
330
B01
100
AcDbEntity
  8
0
 62
     0
100
AcDbTrace
 10
46.9706
 20
83.6248
 30
0
 11
46.9706
 21
82.7914
 31
0
 12
51.9706
 22
83.2081
 32
0
 13
51.9706
 23
83.2081
 33
0
  0
SOLID
  5
B08
330
B01
100
AcDbEntity
  8
0
 62
     0
100
AcDbTrace
 10
150.807
 20
83.6248
 30
0
 11
150.807
 21
82.7914
 31
0
 12
145.807
 22
83.2081
 32
0
 13
145.807
 23
83.2081
 33
0
  0
ENDBLK
  5
B09
330
B01
100
AcDbEntity
  8
Dimension004
100
AcDbBlockEnd
  0
BLOCK
  5
B0C
330
B0B
100
AcDbEntity
  8
Dimension005
100
AcDbBlockBegin
  2
*Dimension005
 70
   1
 10
0
 20
0
 30
0
  3
*Dimension005
  1
 
  0
LINE
  5
B0D
330
B0B
100
AcDbEntity
  8
Dimension005
100
AcDbLine
 10
145.283
 20
124.648
 30
0
 11
155.259
 21
124.648
 31
0
  0
LINE
  5
B0E
330
B0B
100
AcDbEntity
  8
Dimension005
100
AcDbLine
 10
145.283
 20
180.898
 30
0
 11
155.259
 21
180.898
 31
0
  0
LINE
  5
B0F
330
B0B
100
AcDbEntity
  8
Dimension005
100
AcDbLine
 10
155.259
 20
180.898
 30
0
 11
155.259
 21
124.648
 31
0
  0
TEXT
  5
B10
330
B0B
100
AcDbEntity
  8
Dimension005
100
AcDbText
 10
150.259
 20
152.773
 30
0
 40
3.5
  1
Depth
  7
STANDARD
 72
1
 11
155.259
 21
152.773
 31
0
100
AcDbText
  0
SOLID
  5
B11
330
B0B
100
AcDbEntity
  8
0
 62
     0
100
AcDbTrace
 10
155.675
 20
185.898
 30
0
 11
154.842
 21
185.898
 31
0
 12
155.259
 22
180.898
 32
0
 13
155.259
 23
180.898
 33
0
  0
SOLID
  5
B12
330
B0B
100
AcDbEntity
  8
0
 62
     0
100
AcDbTrace
 10
155.675
 20
119.648
 30
0
 11
154.842
 21
119.648
 31
0
 12
155.259
 22
124.648
 32
0
 13
155.259
 23
124.648
 33
0
  0
ENDBLK
  5
B13
330
B0B
100
AcDbEntity
  8
Dimension005
100
AcDbBlockEnd
  0
BLOCK
  5
B16
330
B15
100
AcDbEntity
  8
Dimension007
100
AcDbBlockBegin
  2
*Dimension007
 70
   1
 10
0
 20
0
 30
0
  3
*Dimension007
  1
 
  0
ARC
  5
B17
330
B15
100
AcDbEntity
  8
0
100
AcDbCircle
 10
144.426
 20
51.7101
 30
0
 40
26.3173
100
AcDbArc
 50
110
 51
180
  0
TEXT
  5
B18
330
B15
100
AcDbEntity
  8
Dimension007
100
AcDbText
 10
126.079
 20
64.3798
 30
0
 40
3.5
  1
Angle
  7
STANDARD
 72
1
 11
126.079
 21
64.3798
 31
0
100
AcDbText
  0
SOLID
  5
B19
330
B15
100
AcDbEntity
  8
0
 62
     0
100
AcDbTrace
 10
118.829
 20
56.6753
 30
0
 11
117.998
 21
56.7262
 31
0
 12
118.108
 22
51.7101
 32
0
 13
118.108
 23
51.7101
 33
0
  0
SOLID
  5
B1A
330
B15
100
AcDbEntity
  8
0
 62
     0
100
AcDbTrace
 10
130.673
 20
74.8286
 30
0
 11
131.005
 21
74.0644
 31
0
 12
135.425
 22
76.4402
 32
0
 13
135.425
 23
76.4402
 33
0
  0
ENDBLK
  5
B1B
330
B15
100
AcDbEntity
  8
Dimension007
100
AcDbBlockEnd
  0
BLOCK
  5
B1E
330
B1D
100
AcDbEntity
  8
Dimension008
100
AcDbBlockBegin
  2
*Dimension008
 70
   1
 10
0
 20
0
 30
0
  3
*Dimension008
  1
 
  0
LINE
  5
B1F
330
B1D
100
AcDbEntity
  8
Dimension008
100
AcDbLine
 10
55.4945
 20
53.2101
 30
0
 11
51.7446
 21
53.2435
 31
0
  0
TEXT
  5
B20
330
B1D
100
AcDbEntity
  8
Dimension008
100
AcDbText
 10
25.2258
 20
58.3736
 30
0
 40
3.5
  1
Fillet
  7
STANDARD
 72
1
 11
25.2258
 21
58.3736
 31
0
100
AcDbText
  0
SOLID
  5
B21
330
B1D
100
AcDbEntity
  8
0
 62
     0
100
AcDbTrace
 10
56.7407
 20
52.7823
 30
0
 11
56.7481
 21
53.6156
 31
0
 12
51.7446
 22
53.2435
 32
0
 13
51.7446
 23
53.2435
 33
0
  0
ENDBLK
  5
B22
330
B1D
100
AcDbEntity
  8
Dimension008
100
AcDbBlockEnd
  0
BLOCK
  5
B25
330
B24
100
AcDbEntity
  8
Dimension009
100
AcDbBlockBegin
  2
*Dimension009
 70
   1
 10
0
 20
0
 30
0
  3
*Dimension009
  1
 
  0
LINE
  5
B26
330
B24
100
AcDbEntity
  8
Dimension009
100
AcDbLine
 10
66.3096
 20
71.9601
 30
0
 11
66.3096
 21
71.9601
 31
0
  0
TEXT
  5
B27
330
B24
100
AcDbEntity
  8
Dimension009
100
AcDbText
 10
28.0904
 20
82.9819
 30
0
 40
3.5
  1
Fillet*2
  7
STANDARD
 72
1
 11
28.0904
 21
82.9819
 31
0
100
AcDbText
  0
SOLID
  5
B28
330
B24
100
AcDbEntity
  8
0
 62
     0
100
AcDbTrace
 10
66.3096
 20
71.9601
 30
0
 11
66.3096
 21
71.9601
 31
0
 12
66.3096
 22
71.9601
 32
0
 13
66.3096
 23
71.9601
 33
0
  0
ENDBLK
  5
B29
330
B24
100
AcDbEntity
  8
Dimension009
100
AcDbBlockEnd
  0
BLOCK
  5
B2C
330
B2B
100
AcDbEntity
  8
Dimension010
100
AcDbBlockBegin
  2
*Dimension010
 70
   1
 10
0
 20
0
 30
0
  3
*Dimension010
  1
 
  0
LINE
  5
B2D
330
B2B
100
AcDbEntity
  8
Dimension010
100
AcDbLine
 10
51.9706
 20
54.4927
 30
0
 11
85.1286
 21
108.283
 31
0
  0
LINE
  5
B2E
330
B2B
100
AcDbEntity
  8
Dimension010
100
AcDbLine
 10
54.0849
 20
53.7231
 30
0
 11
87.243
 21
107.514
 31
0
  0
LINE
  5
B2F
330
B2B
100
AcDbEntity
  8
Dimension010
100
AcDbLine
 10
87.243
 20
107.514
 30
0
 11
85.1286
 21
108.283
 31
0
  0
TEXT
  5
B30
330
B2B
100
AcDbEntity
  8
Dimension010
100
AcDbText
 10
88.9531
 20
102.815
 30
0
 40
3.5
  1
Thickness
  7
STANDARD
 72
1
 11
87.243
 21
107.514
 31
0
100
AcDbText
  0
SOLID
  5
B31
330
B2B
100
AcDbEntity
  8
0
 62
     0
100
AcDbTrace
 10
82.3258
 20
108.869
 30
0
 11
82.7631
 21
109.578
 31
0
 12
87.243
 22
107.514
 32
0
 13
87.243
 23
107.514
 33
0
  0
SOLID
  5
B32
330
B2B
100
AcDbEntity
  8
0
 62
     0
100
AcDbTrace
 10
89.6085
 20
106.218
 30
0
 11
90.0458
 21
106.928
 31
0
 12
85.1286
 22
108.283
 32
0
 13
85.1286
 23
108.283
 33
0
  0
ENDBLK
  5
B33
330
B2B
100
AcDbEntity
  8
Dimension010
100
AcDbBlockEnd
  0
ENDSEC
  0
SECTION
  2
ENTITIES
  0
CIRCLE
  5
A08
330
A02
100
AcDbEntity
  8
View
100
AcDbCircle
 10
62.994455988
 20
173.398367963
 30
0.000000000
 40
2.625000000
  0
LINE
  5
A09
330
A02
100
AcDbEntity
  8
View
100
AcDbLine
 10
142.283345937
 20
125.398367963
 30
0.000000000
 11
55.494455988
 21
125.398367963
 31
0.000000000
  0
CIRCLE
  5
A0A
330
A02
100
AcDbEntity
  8
View
100
AcDbCircle
 10
134.783345937
 20
173.398367963
 30
0.000000000
 40
2.625000000
  0
CIRCLE
  5
A0B
330
A02
100
AcDbEntity
  8
View
100
AcDbCircle
 10
134.783345937
 20
132.148367963
 30
0.000000000
 40
2.625000000
  0
CIRCLE
  5
A0C
330
A02
100
AcDbEntity
  8
View
100
AcDbCircle
 10
62.994455988
 20
132.148367963
 30
0.000000000
 40
2.625000000
  0
CIRCLE
  5
A0D
330
A02
100
AcDbEntity
  8
View
100
AcDbCircle
 10
62.994455988
 20
173.398367963
 30
0.000000000
 40
2.325000000
  0
SPLINE
  5
A0E
330
A02
100
AcDbEntity
  8
View
100
AcDbSpline
210
0
220
0
230
1
 70
8
 71
1
 72
17
 73
15
 74
0
 40
0.000000000
 40
0.000000000
 40
0.112199738
 40
0.224399475
 40
0.336599213
 40
0.448798951
 40
0.560998688
 40
0.673198426
 40
0.785398163
 40
0.897597901
 40
1.009797639
 40
1.121997376
 40
1.234197114
 40
1.346396852
 40
1.458596589
 40
1.570796327
 40
1.570796327
 10
55.494455988
 20
125.398367963
 30
0.000000000
 10
55.074589202
 20
125.398367963
 30
0.000000000
 10
54.660002485
 20
125.398367963
 30
0.000000000
 10
54.255909505
 20
125.398367963
 30
0.000000000
 10
53.867391966
 20
125.398367963
 30
0.000000000
 10
53.499335701
 20
125.398367963
 30
0.000000000
 10
53.156369231
 20
125.398367963
 30
0.000000000
 10
52.842805558
 20
125.398367963
 30
0.000000000
 10
52.562587928
 20
125.398367963
 30
0.000000000
 10
52.319240241
 20
125.398367963
 30
0.000000000
 10
52.115822733
 20
125.398367963
 30
0.000000000
 10
51.954893499
 20
125.398367963
 30
0.000000000
 10
51.838476317
 20
125.398367963
 30
0.000000000
 10
51.768035201
 20
125.398367963
 30
0.000000000
 10
51.744455988
 20
125.398367963
 30
0.000000000
  0
LINE
  5
A0F
330
A02
100
AcDbEntity
  8
View
100
AcDbLine
 10
142.283345937
 20
180.898367963
 30
0.000000000
 11
55.494455988
 21
180.898367963
 31
0.000000000
  0
LINE
  5
A10
330
A02
100
AcDbEntity
  8
View
100
AcDbLine
 10
142.283345937
 20
124.648367963
 30
0.000000000
 11
55.494455988
 21
124.648367963
 31
0.000000000
  0
SPLINE
  5
A11
330
A02
100
AcDbEntity
  8
View
100
AcDbSpline
210
0
220
0
230
1
 70
8
 71
2
 72
30
 73
27
 74
0
 40
0.349065850
 40
0.349065850
 40
0.349065850
 40
0.461265588
 40
0.461265588
 40
0.573465326
 40
0.573465326
 40
0.685665063
 40
0.685665063
 40
0.797864801
 40
0.797864801
 40
0.910064539
 40
0.910064539
 40
1.022264276
 40
1.022264276
 40
1.134464014
 40
1.134464014
 40
1.246663751
 40
1.246663751
 40
1.358863489
 40
1.358863489
 40
1.471063227
 40
1.471063227
 40
1.583262964
 40
1.583262964
 40
1.695462702
 40
1.695462702
 40
1.919862177
 40
1.919862177
 40
1.919862177
 10
146.033345937
 20
125.398367963
 30
0.000000000
 10
146.021556331
 20
125.398367963
 30
0.000000000
 10
146.009766724
 20
125.398367963
 30
0.000000000
 10
145.974546166
 20
125.398367963
 30
0.000000000
 10
145.939325608
 20
125.398367963
 30
0.000000000
 10
145.881117017
 20
125.398367963
 30
0.000000000
 10
145.822908426
 20
125.398367963
 30
0.000000000
 10
145.742443809
 20
125.398367963
 30
0.000000000
 10
145.661979192
 20
125.398367963
 30
0.000000000
 10
145.560270438
 20
125.398367963
 30
0.000000000
 10
145.458561684
 20
125.398367963
 30
0.000000000
 10
145.336887840
 20
125.398367963
 30
0.000000000
 10
145.215213997
 20
125.398367963
 30
0.000000000
 10
145.075105182
 20
125.398367963
 30
0.000000000
 10
144.934996367
 20
125.398367963
 30
0.000000000
 10
144.778214530
 20
125.398367963
 30
0.000000000
 10
144.621432694
 20
125.398367963
 30
0.000000000
 10
144.449949459
 20
125.398367963
 30
0.000000000
 10
144.278466224
 20
125.398367963
 30
0.000000000
 10
144.094438092
 20
125.398367963
 30
0.000000000
 10
143.910409959
 20
125.398367963
 30
0.000000000
 10
143.716151189
 20
125.398367963
 30
0.000000000
 10
143.521892420
 20
125.398367963
 30
0.000000000
 10
143.319845930
 20
125.398367963
 30
0.000000000
 10
143.117799440
 20
125.398367963
 30
0.000000000
 10
142.704693353
 20
125.398367963
 30
0.000000000
 10
142.283345937
 20
125.398367963
 30
0.000000000
  0
CIRCLE
  5
A12
330
A02
100
AcDbEntity
  8
View
100
AcDbCircle
 10
134.783345937
 20
173.398367963
 30
0.000000000
 40
2.325000000
  0
CIRCLE
  5
A13
330
A02
100
AcDbEntity
  8
View
100
AcDbCircle
 10
134.783345937
 20
132.148367963
 30
0.000000000
 40
2.325000000
  0
CIRCLE
  5
A14
330
A02
100
AcDbEntity
  8
View
100
AcDbCircle
 10
62.994455988
 20
132.148367963
 30
0.000000000
 40
2.325000000
  0
SPLINE
  5
A15
330
A02
100
AcDbEntity
  8
View
100
AcDbSpline
210
0
220
0
230
1
 70
8
 71
2
 72
30
 73
27
 74
0
 40
0.000000000
 40
0.000000000
 40
0.000000000
 40
0.224399475
 40
0.224399475
 40
0.336599213
 40
0.336599213
 40
0.448798951
 40
0.448798951
 40
0.560998688
 40
0.560998688
 40
0.673198426
 40
0.673198426
 40
0.785398163
 40
0.785398163
 40
0.897597901
 40
0.897597901
 40
1.009797639
 40
1.009797639
 40
1.121997376
 40
1.121997376
 40
1.234197114
 40
1.234197114
 40
1.346396852
 40
1.346396852
 40
1.458596589
 40
1.458596589
 40
1.570796327
 40
1.570796327
 40
1.570796327
 10
55.494455988
 20
180.898367963
 30
0.000000000
 10
55.157378055
 20
180.898367962
 30
0.000000000
 10
54.826893186
 20
180.898367963
 30
0.000000000
 10
54.665255994
 20
180.898367963
 30
0.000000000
 10
54.503618802
 20
180.898367963
 30
0.000000000
 10
54.348211786
 20
180.898367962
 30
0.000000000
 10
54.192804770
 20
180.898367963
 30
0.000000000
 10
54.045582264
 20
180.898367962
 30
0.000000000
 10
53.898359758
 20
180.898367963
 30
0.000000000
 10
53.761173170
 20
180.898367962
 30
0.000000000
 10
53.623986582
 20
180.898367963
 30
0.000000000
 10
53.498561113
 20
180.898367962
 30
0.000000000
 10
53.373135644
 20
180.898367963
 30
0.000000000
 10
53.261048592
 20
180.898367962
 30
0.000000000
 10
53.148961540
 20
180.898367963
 30
0.000000000
 10
53.051622465
 20
180.898367963
 30
0.000000000
 10
52.954283390
 20
180.898367963
 30
0.000000000
 10
52.872916387
 20
180.898367962
 30
0.000000000
 10
52.791549384
 20
180.898367963
 30
0.000000000
 10
52.727177690
 20
180.898367962
 30
0.000000000
 10
52.662805997
 20
180.898367963
 30
0.000000000
 10
52.616239124
 20
180.898367962
 30
0.000000000
 10
52.569672251
 20
180.898367963
 30
0.000000000
 10
52.541495805
 20
180.898367962
 30
0.000000000
 10
52.513319358
 20
180.898367963
 30
0.000000000
 10
52.503887673
 20
180.898367963
 30
0.000000000
 10
52.494455988
 20
180.898367963
 30
0.000000000
  0
SPLINE
  5
A16
330
A02
100
AcDbEntity
  8
View
100
AcDbSpline
210
0
220
0
230
1
 70
8
 71
2
 72
6
 73
3
 74
0
 40
1.570796327
 40
1.570796327
 40
1.570796327
 40
1.919862177
 40
1.919862177
 40
1.919862177
 10
52.494455988
 20
180.898367963
 30
0.000000000
 10
52.495575528
 20
180.898367962
 30
0.000000000
 10
52.675378125
 20
180.898367963
 30
0.000000000
  0
SPLINE
  5
A17
330
A02
100
AcDbEntity
  8
View
100
AcDbSpline
210
0
220
0
230
1
 70
8
 71
2
 72
30
 73
27
 74
0
 40
0.000000000
 40
0.000000000
 40
0.000000000
 40
0.224399475
 40
0.224399475
 40
0.336599213
 40
0.336599213
 40
0.448798951
 40
0.448798951
 40
0.560998688
 40
0.560998688
 40
0.673198426
 40
0.673198426
 40
0.785398163
 40
0.785398163
 40
0.897597901
 40
0.897597901
 40
1.009797639
 40
1.009797639
 40
1.121997376
 40
1.121997376
 40
1.234197114
 40
1.234197114
 40
1.346396852
 40
1.346396852
 40
1.458596589
 40
1.458596589
 40
1.570796327
 40
1.570796327
 40
1.570796327
 10
55.494455988
 20
124.648367963
 30
0.000000000
 10
55.157378055
 20
124.648367963
 30
0.000000000
 10
54.826893186
 20
124.648367963
 30
0.000000000
 10
54.665255994
 20
124.648367963
 30
0.000000000
 10
54.503618802
 20
124.648367963
 30
0.000000000
 10
54.348211786
 20
124.648367963
 30
0.000000000
 10
54.192804770
 20
124.648367963
 30
0.000000000
 10
54.045582264
 20
124.648367963
 30
0.000000000
 10
53.898359758
 20
124.648367963
 30
0.000000000
 10
53.761173170
 20
124.648367963
 30
0.000000000
 10
53.623986582
 20
124.648367963
 30
0.000000000
 10
53.498561113
 20
124.648367963
 30
0.000000000
 10
53.373135644
 20
124.648367963
 30
0.000000000
 10
53.261048592
 20
124.648367963
 30
0.000000000
 10
53.148961540
 20
124.648367963
 30
0.000000000
 10
53.051622465
 20
124.648367963
 30
0.000000000
 10
52.954283390
 20
124.648367963
 30
0.000000000
 10
52.872916387
 20
124.648367963
 30
0.000000000
 10
52.791549384
 20
124.648367963
 30
0.000000000
 10
52.727177690
 20
124.648367963
 30
0.000000000
 10
52.662805997
 20
124.648367963
 30
0.000000000
 10
52.616239124
 20
124.648367963
 30
0.000000000
 10
52.569672251
 20
124.648367963
 30
0.000000000
 10
52.541495805
 20
124.648367963
 30
0.000000000
 10
52.513319358
 20
124.648367963
 30
0.000000000
 10
52.503887673
 20
124.648367963
 30
0.000000000
 10
52.494455988
 20
124.648367963
 30
0.000000000
  0
SPLINE
  5
A18
330
A02
100
AcDbEntity
  8
View
100
AcDbSpline
210
0
220
0
230
1
 70
8
 71
2
 72
6
 73
3
 74
0
 40
-0.000000000
 40
-0.000000000
 40
-0.000000000
 40
0.349065850
 40
0.349065850
 40
0.349065850
 10
145.102423800
 20
180.898367963
 30
0.000000000
 10
145.282226397
 20
180.898367962
 30
0.000000000
 10
145.283345937
 20
180.898367963
 30
0.000000000
  0
SPLINE
  5
A19
330
A02
100
AcDbEntity
  8
View
100
AcDbSpline
210
0
220
0
230
1
 70
8
 71
2
 72
30
 73
27
 74
0
 40
0.349065850
 40
0.349065850
 40
0.349065850
 40
0.461265588
 40
0.461265588
 40
0.573465326
 40
0.573465326
 40
0.685665063
 40
0.685665063
 40
0.797864801
 40
0.797864801
 40
0.910064539
 40
0.910064539
 40
1.022264276
 40
1.022264276
 40
1.134464014
 40
1.134464014
 40
1.246663751
 40
1.246663751
 40
1.358863489
 40
1.358863489
 40
1.471063227
 40
1.471063227
 40
1.583262964
 40
1.583262964
 40
1.695462702
 40
1.695462702
 40
1.919862177
 40
1.919862177
 40
1.919862177
 10
145.283345937
 20
180.898367963
 30
0.000000000
 10
145.273914252
 20
180.898367962
 30
0.000000000
 10
145.264482567
 20
180.898367963
 30
0.000000000
 10
145.236306120
 20
180.898367963
 30
0.000000000
 10
145.208129674
 20
180.898367963
 30
0.000000000
 10
145.161562801
 20
180.898367962
 30
0.000000000
 10
145.114995928
 20
180.898367963
 30
0.000000000
 10
145.050624235
 20
180.898367962
 30
0.000000000
 10
144.986252541
 20
180.898367963
 30
0.000000000
 10
144.904885538
 20
180.898367962
 30
0.000000000
 10
144.823518535
 20
180.898367963
 30
0.000000000
 10
144.726179460
 20
180.898367962
 30
0.000000000
 10
144.628840385
 20
180.898367963
 30
0.000000000
 10
144.516753333
 20
180.898367962
 30
0.000000000
 10
144.404666281
 20
180.898367963
 30
0.000000000
 10
144.279240812
 20
180.898367962
 30
0.000000000
 10
144.153815343
 20
180.898367963
 30
0.000000000
 10
144.016628755
 20
180.898367962
 30
0.000000000
 10
143.879442167
 20
180.898367963
 30
0.000000000
 10
143.732219661
 20
180.898367962
 30
0.000000000
 10
143.584997155
 20
180.898367963
 30
0.000000000
 10
143.429590139
 20
180.898367962
 30
0.000000000
 10
143.274183123
 20
180.898367963
 30
0.000000000
 10
143.112545931
 20
180.898367962
 30
0.000000000
 10
142.950908739
 20
180.898367963
 30
0.000000000
 10
142.620423870
 20
180.898367962
 30
0.000000000
 10
142.283345937
 20
180.898367963
 30
0.000000000
  0
SPLINE
  5
A1A
330
A02
100
AcDbEntity
  8
View
100
AcDbSpline
210
0
220
0
230
1
 70
8
 71
2
 72
30
 73
27
 74
0
 40
0.349065850
 40
0.349065850
 40
0.349065850
 40
0.461265588
 40
0.461265588
 40
0.573465326
 40
0.573465326
 40
0.685665063
 40
0.685665063
 40
0.797864801
 40
0.797864801
 40
0.910064539
 40
0.910064539
 40
1.022264276
 40
1.022264276
 40
1.134464014
 40
1.134464014
 40
1.246663751
 40
1.246663751
 40
1.358863489
 40
1.358863489
 40
1.471063227
 40
1.471063227
 40
1.583262964
 40
1.583262964
 40
1.695462702
 40
1.695462702
 40
1.919862177
 40
1.919862177
 40
1.919862177
 10
145.283345937
 20
124.648367963
 30
0.000000000
 10
145.273914252
 20
124.648367963
 30
0.000000000
 10
145.264482567
 20
124.648367963
 30
0.000000000
 10
145.236306120
 20
124.648367963
 30
0.000000000
 10
145.208129674
 20
124.648367963
 30
0.000000000
 10
145.161562801
 20
124.648367963
 30
0.000000000
 10
145.114995928
 20
124.648367963
 30
0.000000000
 10
145.050624235
 20
124.648367963
 30
0.000000000
 10
144.986252541
 20
124.648367963
 30
0.000000000
 10
144.904885538
 20
124.648367963
 30
0.000000000
 10
144.823518535
 20
124.648367963
 30
0.000000000
 10
144.726179460
 20
124.648367963
 30
0.000000000
 10
144.628840385
 20
124.648367963
 30
0.000000000
 10
144.516753333
 20
124.648367963
 30
0.000000000
 10
144.404666281
 20
124.648367963
 30
0.000000000
 10
144.279240812
 20
124.648367963
 30
0.000000000
 10
144.153815343
 20
124.648367963
 30
0.000000000
 10
144.016628755
 20
124.648367963
 30
0.000000000
 10
143.879442167
 20
124.648367963
 30
0.000000000
 10
143.732219661
 20
124.648367963
 30
0.000000000
 10
143.584997155
 20
124.648367963
 30
0.000000000
 10
143.429590139
 20
124.648367963
 30
0.000000000
 10
143.274183123
 20
124.648367963
 30
0.000000000
 10
143.112545931
 20
124.648367963
 30
0.000000000
 10
142.950908739
 20
124.648367963
 30
0.000000000
 10
142.620423870
 20
124.648367963
 30
0.000000000
 10
142.283345937
 20
124.648367963
 30
0.000000000
  0
LINE
  5
A1B
330
A02
100
AcDbEntity
  8
View
100
AcDbLine
 10
51.744455988
 20
125.398367963
 30
0.000000000
 11
51.744455988
 21
180.148367963
 31
0.000000000
  0
LINE
  5
A1C
330
A02
100
AcDbEntity
  8
View
100
AcDbLine
 10
146.033345937
 20
125.398367963
 30
0.000000000
 11
146.033345937
 21
180.148367963
 31
0.000000000
  0
SPLINE
  5
A1D
330
A02
100
AcDbEntity
  8
View
100
AcDbSpline
210
0
220
0
230
1
 70
8
 71
3
 72
14
 73
10
 74
0
 40
0.000000000
 40
0.000000000
 40
0.000000000
 40
0.000000000
 40
0.463636568
 40
0.463636568
 40
0.463636568
 40
0.745454534
 40
0.745454534
 40
0.745454534
 40
1.000000000
 40
1.000000000
 40
1.000000000
 40
1.000000000
 10
51.744455988
 20
180.148367963
 30
0.000000000
 10
51.744665139
 20
180.249824548
 30
0.000000000
 10
51.764453767
 20
180.347306471
 30
0.000000000
 10
51.803821873
 20
180.440813730
 30
0.000000000
 10
51.827699124
 20
180.497128202
 30
0.000000000
 10
51.857989331
 20
180.549751336
 30
0.000000000
 10
51.894692494
 20
180.598683131
 30
0.000000000
 10
52.032975864
 20
180.785362753
 30
0.000000000
 10
52.262143026
 20
180.899871094
 30
0.000000000
 10
52.494455988
 20
180.898367963
 30
0.000000000
  0
LINE
  5
A1E
330
A02
100
AcDbEntity
  8
View
100
AcDbLine
 10
52.494455988
 20
124.648367963
 30
0.000000000
 11
51.744455988
 21
125.398367963
 31
0.000000000
  0
SPLINE
  5
A1F
330
A02
100
AcDbEntity
  8
View
100
AcDbSpline
210
0
220
0
230
1
 70
8
 71
3
 72
14
 73
10
 74
0
 40
0.000000000
 40
0.000000000
 40
0.000000000
 40
0.000000000
 40
0.473118387
 40
0.473118387
 40
0.473118387
 40
0.763440807
 40
0.763440807
 40
0.763440807
 40
1.000000000
 40
1.000000000
 40
1.000000000
 40
1.000000000
 10
146.033345937
 20
180.148367963
 30
0.000000000
 10
146.033229851
 20
180.235611671
 30
0.000000000
 10
146.018450044
 20
180.320296152
 30
0.000000000
 10
145.989006517
 20
180.402421404
 30
0.000000000
 10
145.970965991
 20
180.452482125
 30
0.000000000
 10
145.947873352
 20
180.500092395
 30
0.000000000
 10
145.919728599
 20
180.545252213
 30
0.000000000
 10
145.786972089
 20
180.762103705
 30
0.000000000
 10
145.537598600
 20
180.900475963
 30
0.000000000
 10
145.283345937
 20
180.898367963
 30
0.000000000
  0
LINE
  5
A20
330
A02
100
AcDbEntity
  8
View
100
AcDbLine
 10
145.283345937
 20
124.648367963
 30
0.000000000
 11
146.033345937
 21
125.398367963
 31
0.000000000
  0
LINE
  5
A21
330
A02
100
AcDbEntity
  8
View
100
AcDbLine
 10
55.494455988
 20
125.398367963
 30
0.000000000
 11
55.494455988
 21
180.148367963
 31
0.000000000
  0
LINE
  5
A22
330
A02
100
AcDbEntity
  8
View
100
AcDbLine
 10
142.283345937
 20
180.148367963
 30
0.000000000
 11
55.494455988
 21
180.148367963
 31
0.000000000
  0
LINE
  5
A23
330
A02
100
AcDbEntity
  8
View
100
AcDbLine
 10
142.283345937
 20
125.398367963
 30
0.000000000
 11
142.283345937
 21
180.148367963
 31
0.000000000
  0
SPLINE
  5
A24
330
A02
100
AcDbEntity
  8
View
100
AcDbSpline
210
0
220
0
230
1
 70
8
 71
1
 72
17
 73
15
 74
0
 40
0.000000000
 40
0.000000000
 40
0.112199738
 40
0.224399475
 40
0.336599213
 40
0.448798951
 40
0.560998688
 40
0.673198426
 40
0.785398163
 40
0.897597901
 40
1.009797639
 40
1.121997376
 40
1.234197114
 40
1.346396852
 40
1.458596589
 40
1.570796327
 40
1.570796327
 10
55.494455988
 20
180.148367963
 30
0.000000000
 10
55.074589202
 20
180.148367963
 30
0.000000000
 10
54.660002485
 20
180.148367963
 30
0.000000000
 10
54.255909505
 20
180.148367963
 30
0.000000000
 10
53.867391966
 20
180.148367963
 30
0.000000000
 10
53.499335701
 20
180.148367963
 30
0.000000000
 10
53.156369231
 20
180.148367963
 30
0.000000000
 10
52.842805558
 20
180.148367963
 30
0.000000000
 10
52.562587928
 20
180.148367963
 30
0.000000000
 10
52.319240241
 20
180.148367963
 30
0.000000000
 10
52.115822733
 20
180.148367963
 30
0.000000000
 10
51.954893499
 20
180.148367963
 30
0.000000000
 10
51.838476317
 20
180.148367963
 30
0.000000000
 10
51.768035201
 20
180.148367963
 30
0.000000000
 10
51.744455988
 20
180.148367963
 30
0.000000000
  0
SPLINE
  5
A25
330
A02
100
AcDbEntity
  8
View
100
AcDbSpline
210
0
220
0
230
1
 70
8
 71
3
 72
26
 73
22
 74
0
 40
0.000000000
 40
0.000000000
 40
0.000000000
 40
0.000000000
 40
0.785398163
 40
0.785398163
 40
0.785398163
 40
0.897597901
 40
0.897597901
 40
0.897597901
 40
1.121997376
 40
1.121997376
 40
1.121997376
 40
1.234197114
 40
1.234197114
 40
1.234197114
 40
1.346396852
 40
1.346396852
 40
1.346396852
 40
1.458596589
 40
1.458596589
 40
1.458596589
 40
1.570796327
 40
1.570796327
 40
1.570796327
 40
1.570796327
 10
142.283345937
 20
180.148367962
 30
0.000000000
 10
142.283345937
 20
180.345175207
 30
0.000000000
 10
142.283345937
 20
180.539074464
 30
0.000000000
 10
142.283345937
 20
180.678698048
 30
0.000000000
 10
142.283345937
 20
180.697379224
 30
0.000000000
 10
142.283345937
 20
180.716060399
 30
0.000000000
 10
142.283345937
 20
180.734741574
 30
0.000000000
 10
142.283345937
 20
180.768680889
 30
0.000000000
 10
142.283345937
 20
180.798465235
 30
0.000000000
 10
142.283345937
 20
180.824094613
 30
0.000000000
 10
142.283345937
 20
180.834823229
 30
0.000000000
 10
142.283345937
 20
180.845551845
 30
0.000000000
 10
142.283345937
 20
180.856280460
 30
0.000000000
 10
142.283345937
 20
180.864041606
 30
0.000000000
 10
142.283345937
 20
180.871802751
 30
0.000000000
 10
142.283345937
 20
180.879563897
 30
0.000000000
 10
142.283345937
 20
180.884259971
 30
0.000000000
 10
142.283345937
 20
180.888956045
 30
0.000000000
 10
142.283345937
 20
180.893652120
 30
0.000000000
 10
142.283345937
 20
180.895224067
 30
0.000000000
 10
142.283345937
 20
180.896796015
 30
0.000000000
 10
142.283345937
 20
180.898367963
 30
0.000000000
  0
SPLINE
  5
A26
330
A02
100
AcDbEntity
  8
View
100
AcDbSpline
210
0
220
0
230
1
 70
8
 71
3
 72
26
 73
22
 74
0
 40
0.000000000
 40
0.000000000
 40
0.000000000
 40
0.000000000
 40
0.785398163
 40
0.785398163
 40
0.785398163
 40
0.897597901
 40
0.897597901
 40
0.897597901
 40
1.121997376
 40
1.121997376
 40
1.121997376
 40
1.234197114
 40
1.234197114
 40
1.234197114
 40
1.346396852
 40
1.346396852
 40
1.346396852
 40
1.458596589
 40
1.458596589
 40
1.458596589
 40
1.570796327
 40
1.570796327
 40
1.570796327
 40
1.570796327
 10
55.494455988
 20
180.148367962
 30
0.000000000
 10
55.494455988
 20
180.345175207
 30
0.000000000
 10
55.494455988
 20
180.539074464
 30
0.000000000
 10
55.494455988
 20
180.678698048
 30
0.000000000
 10
55.494455988
 20
180.697379224
 30
0.000000000
 10
55.494455988
 20
180.716060399
 30
0.000000000
 10
55.494455988
 20
180.734741574
 30
0.000000000
 10
55.494455988
 20
180.768680889
 30
0.000000000
 10
55.494455988
 20
180.798465235
 30
0.000000000
 10
55.494455988
 20
180.824094613
 30
0.000000000
 10
55.494455988
 20
180.834823229
 30
0.000000000
 10
55.494455988
 20
180.845551845
 30
0.000000000
 10
55.494455988
 20
180.856280460
 30
0.000000000
 10
55.494455988
 20
180.864041606
 30
0.000000000
 10
55.494455988
 20
180.871802751
 30
0.000000000
 10
55.494455988
 20
180.879563897
 30
0.000000000
 10
55.494455988
 20
180.884259971
 30
0.000000000
 10
55.494455988
 20
180.888956045
 30
0.000000000
 10
55.494455988
 20
180.893652120
 30
0.000000000
 10
55.494455988
 20
180.895224067
 30
0.000000000
 10
55.494455988
 20
180.896796015
 30
0.000000000
 10
55.494455988
 20
180.898367963
 30
0.000000000
  0
LINE
  5
A27
330
A02
100
AcDbEntity
  8
View
100
AcDbLine
 10
142.283345937
 20
124.648367963
 30
0.000000000
 11
142.283345937
 21
125.398367963
 31
0.000000000
  0
LINE
  5
A28
330
A02
100
AcDbEntity
  8
View
100
AcDbLine
 10
55.494455988
 20
124.648367963
 30
0.000000000
 11
55.494455988
 21
125.398367963
 31
0.000000000
  0
SPLINE
  5
A29
330
A02
100
AcDbEntity
  8
View
100
AcDbSpline
210
0
220
0
230
1
 70
8
 71
2
 72
30
 73
27
 74
0
 40
0.349065850
 40
0.349065850
 40
0.349065850
 40
0.461265588
 40
0.461265588
 40
0.573465326
 40
0.573465326
 40
0.685665063
 40
0.685665063
 40
0.797864801
 40
0.797864801
 40
0.910064539
 40
0.910064539
 40
1.022264276
 40
1.022264276
 40
1.134464014
 40
1.134464014
 40
1.246663751
 40
1.246663751
 40
1.358863489
 40
1.358863489
 40
1.471063227
 40
1.471063227
 40
1.583262964
 40
1.583262964
 40
1.695462702
 40
1.695462702
 40
1.919862177
 40
1.919862177
 40
1.919862177
 10
146.033345937
 20
180.148367963
 30
0.000000000
 10
146.021556331
 20
180.148367962
 30
0.000000000
 10
146.009766724
 20
180.148367963
 30
0.000000000
 10
145.974546166
 20
180.148367963
 30
0.000000000
 10
145.939325608
 20
180.148367963
 30
0.000000000
 10
145.881117017
 20
180.148367962
 30
0.000000000
 10
145.822908426
 20
180.148367963
 30
0.000000000
 10
145.742443809
 20
180.148367962
 30
0.000000000
 10
145.661979192
 20
180.148367963
 30
0.000000000
 10
145.560270438
 20
180.148367962
 30
0.000000000
 10
145.458561684
 20
180.148367963
 30
0.000000000
 10
145.336887840
 20
180.148367962
 30
0.000000000
 10
145.215213997
 20
180.148367963
 30
0.000000000
 10
145.075105182
 20
180.148367962
 30
0.000000000
 10
144.934996367
 20
180.148367963
 30
0.000000000
 10
144.778214530
 20
180.148367962
 30
0.000000000
 10
144.621432694
 20
180.148367963
 30
0.000000000
 10
144.449949459
 20
180.148367962
 30
0.000000000
 10
144.278466224
 20
180.148367963
 30
0.000000000
 10
144.094438092
 20
180.148367962
 30
0.000000000
 10
143.910409959
 20
180.148367963
 30
0.000000000
 10
143.716151189
 20
180.148367962
 30
0.000000000
 10
143.521892420
 20
180.148367963
 30
0.000000000
 10
143.319845930
 20
180.148367962
 30
0.000000000
 10
143.117799440
 20
180.148367963
 30
0.000000000
 10
142.704693353
 20
180.148367962
 30
0.000000000
 10
142.283345937
 20
180.148367963
 30
0.000000000
  0
ELLIPSE
  5
A2A
330
A02
100
AcDbEntity
  8
ProjItem
100
AcDbEllipse
 10
182.099112923
 20
62.344529458
 30
0.000000000
 11
-1.312500000
 21
-2.273316685
 31
0.000000000
 40
0.577350269
 41
5.497787144
 42
3.926990817
  0
ELLIPSE
  5
A2B
330
A02
100
AcDbEntity
  8
ProjItem
100
AcDbEllipse
 10
182.099112923
 20
62.344529458
 30
0.000000000
 11
-1.312500000
 21
-2.273316685
 31
0.000000000
 40
0.577350269
 41
3.926990817
 42
5.497787144
  0
LINE
  5
A2C
330
A02
100
AcDbEntity
  8
ProjItem
100
AcDbLine
 10
238.164824679
 20
55.522247348
 30
0.000000000
 11
176.795812064
 21
20.090831395
 31
0.000000000
  0
ELLIPSE
  5
A2D
330
A02
100
AcDbEntity
  8
ProjItem
100
AcDbEllipse
 10
232.861523820
 20
91.652221054
 30
0.000000000
 11
-1.312500000
 21
-2.273316685
 31
0.000000000
 40
0.577350269
 41
5.497787144
 42
3.926990817
  0
ELLIPSE
  5
A2E
330
A02
100
AcDbEntity
  8
ProjItem
100
AcDbEllipse
 10
232.861523820
 20
91.652221054
 30
0.000000000
 11
-1.312500000
 21
-2.273316685
 31
0.000000000
 40
0.577350269
 41
3.926990817
 42
5.497787144
  0
ELLIPSE
  5
A2F
330
A02
100
AcDbEntity
  8
ProjItem
100
AcDbEllipse
 10
232.861523820
 20
57.971737090
 30
0.000000000
 11
-1.312500000
 21
-2.273316685
 31
0.000000000
 40
0.577350269
 41
5.497787144
 42
3.926990817
  0
ELLIPSE
  5
A30
330
A02
100
AcDbEntity
  8
ProjItem
100
AcDbEllipse
 10
232.861523820
 20
57.971737090
 30
0.000000000
 11
-1.312500000
 21
-2.273316685
 31
0.000000000
 40
0.577350269
 41
3.926990817
 42
5.497787144
  0
ELLIPSE
  5
A31
330
A02
100
AcDbEntity
  8
ProjItem
100
AcDbEllipse
 10
182.099112923
 20
28.664045494
 30
0.000000000
 11
-1.312500000
 21
-2.273316685
 31
0.000000000
 40
0.577350269
 41
5.497787144
 42
3.926990817
  0
ELLIPSE
  5
A32
330
A02
100
AcDbEntity
  8
ProjItem
100
AcDbEllipse
 10
182.099112923
 20
28.664045494
 30
0.000000000
 11
-1.312500000
 21
-2.273316685
 31
0.000000000
 40
0.577350269
 41
3.926990817
 42
5.497787144
  0
ELLIPSE
  5
A33
330
A02
100
AcDbEntity
  8
ProjItem
100
AcDbEllipse
 10
181.886980889
 20
62.467003945
 30
0.000000000
 11
-1.162500000
 21
-2.013509064
 31
0.000000000
 40
0.577350269
 41
5.560385509
 42
0.000000000
  0
ELLIPSE
  5
A34
330
A02
100
AcDbEntity
  8
ProjItem
100
AcDbEllipse
 10
181.886980889
 20
62.467003945
 30
0.000000000
 11
-1.162500000
 21
-2.013509064
 31
0.000000000
 40
0.577350269
 41
0.000000000
 42
3.141592654
  0
ELLIPSE
  5
A35
330
A02
100
AcDbEntity
  8
ProjItem
100
AcDbEllipse
 10
181.886980889
 20
62.467003945
 30
0.000000000
 11
-1.162500000
 21
-2.013509064
 31
0.000000000
 40
0.577350269
 41
3.141592654
 42
3.864392451
  0
ELLIPSE
  5
A36
330
A02
100
AcDbEntity
  8
ProjItem
100
AcDbEllipse
 10
174.144161635
 20
21.621762484
 30
0.000000000
 11
-3.750000000
 21
0.000000000
 31
0.000000000
 40
0.577350269
 41
-5.497787144
 42
-3.926990817
  0
ELLIPSE
  5
A37
330
A02
100
AcDbEntity
  8
ProjItem
100
AcDbEllipse
 10
174.144161635
 20
21.621762484
 30
0.000000000
 11
-3.750000000
 21
0.000000000
 31
0.000000000
 40
0.577350269
 41
-5.846852994
 42
-5.497787144
  0
LINE
  5
A38
330
A02
100
AcDbEntity
  8
ProjItem
100
AcDbLine
 10
176.265481978
 20
19.784645177
 30
0.000000000
 11
176.795812064
 21
20.090831395
 31
0.000000000
  0
ELLIPSE
  5
A39
330
A02
100
AcDbEntity
  8
ProjItem
100
AcDbEllipse
 10
235.513174250
 20
57.053178437
 30
0.000000000
 11
-3.750000000
 21
0.000000000
 31
0.000000000
 40
0.577350269
 41
-3.926990817
 42
-3.141592654
  0
ELLIPSE
  5
A3A
330
A02
100
AcDbEntity
  8
ProjItem
100
AcDbEllipse
 10
232.649391786
 20
91.774695541
 30
0.000000000
 11
-1.162500000
 21
-2.013509064
 31
0.000000000
 40
0.577350269
 41
5.560385509
 42
0.000000000
  0
ELLIPSE
  5
A3B
330
A02
100
AcDbEntity
  8
ProjItem
100
AcDbEllipse
 10
232.649391786
 20
91.774695541
 30
0.000000000
 11
-1.162500000
 21
-2.013509064
 31
0.000000000
 40
0.577350269
 41
0.000000000
 42
3.141592654
  0
ELLIPSE
  5
A3C
330
A02
100
AcDbEntity
  8
ProjItem
100
AcDbEllipse
 10
232.649391786
 20
91.774695541
 30
0.000000000
 11
-1.162500000
 21
-2.013509064
 31
0.000000000
 40
0.577350269
 41
3.141592654
 42
3.864392451
  0
ELLIPSE
  5
A3D
330
A02
100
AcDbEntity
  8
ProjItem
100
AcDbEllipse
 10
232.649391786
 20
58.094211578
 30
0.000000000
 11
-1.162500000
 21
-2.013509064
 31
0.000000000
 40
0.577350269
 41
5.560385509
 42
0.000000000
  0
ELLIPSE
  5
A3E
330
A02
100
AcDbEntity
  8
ProjItem
100
AcDbEllipse
 10
232.649391786
 20
58.094211578
 30
0.000000000
 11
-1.162500000
 21
-2.013509064
 31
0.000000000
 40
0.577350269
 41
0.000000000
 42
3.141592654
  0
ELLIPSE
  5
A3F
330
A02
100
AcDbEntity
  8
ProjItem
100
AcDbEllipse
 10
232.649391786
 20
58.094211578
 30
0.000000000
 11
-1.162500000
 21
-2.013509064
 31
0.000000000
 40
0.577350269
 41
3.141592654
 42
3.864392451
  0
ELLIPSE
  5
A40
330
A02
100
AcDbEntity
  8
ProjItem
100
AcDbEllipse
 10
181.886980889
 20
28.786519981
 30
0.000000000
 11
-1.162500000
 21
-2.013509064
 31
0.000000000
 40
0.577350269
 41
5.560385509
 42
0.000000000
  0
ELLIPSE
  5
A41
330
A02
100
AcDbEntity
  8
ProjItem
100
AcDbEllipse
 10
181.886980889
 20
28.786519981
 30
0.000000000
 11
-1.162500000
 21
-2.013509064
 31
0.000000000
 40
0.577350269
 41
0.000000000
 42
3.141592654
  0
ELLIPSE
  5
A42
330
A02
100
AcDbEntity
  8
ProjItem
100
AcDbEllipse
 10
181.886980889
 20
28.786519981
 30
0.000000000
 11
-1.162500000
 21
-2.013509064
 31
0.000000000
 40
0.577350269
 41
3.141592654
 42
3.864392451
  0
ELLIPSE
  5
A43
330
A02
100
AcDbEntity
  8
ProjItem
100
AcDbEllipse
 10
181.038452751
 20
62.956901893
 30
0.000000000
 11
-1.162500000
 21
-2.013509064
 31
0.000000000
 40
0.577350269
 41
0.373588055
 42
2.768004599
  0
ELLIPSE
  5
A44
330
A02
100
AcDbEntity
  8
ProjItem
100
AcDbEllipse
 10
174.144161635
 20
21.009390048
 30
0.000000000
 11
-3.000000000
 21
0.000000000
 31
0.000000000
 40
0.577350269
 41
-5.497787144
 42
-3.926990817
  0
LINE
  5
A45
330
A02
100
AcDbEntity
  8
ProjItem
100
AcDbLine
 10
170.745507433
 20
20.706767107
 30
0.000000000
 11
161.736037672
 21
31.861676748
 31
0.000000000
  0
ELLIPSE
  5
A46
330
A02
100
AcDbEntity
  8
ProjItem
100
AcDbEllipse
 10
231.800863649
 20
92.264593489
 30
0.000000000
 11
-1.162500000
 21
-2.013509064
 31
0.000000000
 40
0.577350269
 41
0.373588055
 42
2.768004599
  0
ELLIPSE
  5
A47
330
A02
100
AcDbEntity
  8
ProjItem
100
AcDbEllipse
 10
231.800863649
 20
58.584109526
 30
0.000000000
 11
-1.162500000
 21
-2.013509064
 31
0.000000000
 40
0.577350269
 41
0.373588055
 42
2.768004599
  0
ELLIPSE
  5
A48
330
A02
100
AcDbEntity
  8
ProjItem
100
AcDbEllipse
 10
181.038452751
 20
29.276417930
 30
0.000000000
 11
-1.162500000
 21
-2.013509064
 31
0.000000000
 40
0.577350269
 41
0.373588055
 42
2.768004599
  0
ELLIPSE
  5
A49
330
A02
100
AcDbEntity
  8
ProjItem
100
AcDbEllipse
 10
168.533346075
 20
33.691667502
 30
0.000000000
 11
-7.500000000
 21
0.000000000
 31
0.000000000
 40
0.577350269
 41
-0.000000000
 42
-5.846852994
  0
LINE
  5
A4A
330
A02
100
AcDbEntity
  8
ProjItem
100
AcDbLine
 10
239.263174250
 20
57.053178437
 30
0.000000000
 11
239.263174250
 21
101.756366243
 31
0.000000000
  0
LINE
  5
A4B
330
A02
100
AcDbEntity
  8
ProjItem
100
AcDbLine
 10
172.022841291
 20
19.784645177
 30
0.000000000
 11
171.492511205
 21
20.090831395
 31
0.000000000
  0
SPLINE
  5
A4C
330
A02
100
AcDbEntity
  8
ProjItem
100
AcDbSpline
210
0
220
0
230
1
 70
8
 71
3
 72
14
 73
10
 74
0
 40
0.000000000
 40
0.000000000
 40
0.000000000
 40
0.000000000
 40
0.595279492
 40
0.595279492
 40
0.595279492
 40
0.735827972
 40
0.735827972
 40
0.735827972
 40
1.000000000
 40
1.000000000
 40
1.000000000
 40
1.000000000
 10
236.976003794
 20
104.050350635
 30
0.000000000
 10
237.626415194
 20
103.875316797
 30
0.000000000
 10
238.196557558
 20
103.581860917
 30
0.000000000
 10
238.605803569
 20
103.187816799
 30
0.000000000
 10
238.702674082
 20
103.094705683
 30
0.000000000
 10
238.790026478
 20
102.996215711
 30
0.000000000
 10
238.867860757
 20
102.892346884
 30
0.000000000
 10
239.120988595
 20
102.555956422
 30
0.000000000
 10
239.264140673
 20
102.158827687
 30
0.000000000
 10
239.263174250
 20
101.756366243
 30
0.000000000
  0
LINE
  5
A4D
330
A02
100
AcDbEntity
  8
ProjItem
100
AcDbLine
 10
161.033346075
 20
33.691667502
 30
0.000000000
 11
161.033346075
 21
78.394855308
 31
0.000000000
  0
LINE
  5
A4E
330
A02
100
AcDbEntity
  8
ProjItem
100
AcDbLine
 10
217.655133541
 20
109.251970427
 30
0.000000000
 11
236.976003794
 21
104.050350635
 31
0.000000000
  0
SPLINE
  5
A4F
330
A02
100
AcDbEntity
  8
ProjItem
100
AcDbSpline
210
0
220
0
230
1
 70
8
 71
3
 72
11
 73
7
 74
0
 40
0.000000000
 40
0.000000000
 40
0.000000000
 40
0.000000000
 40
0.500000000
 40
0.500000000
 40
0.500000000
 40
1.000000000
 40
1.000000000
 40
1.000000000
 40
1.000000000
 10
161.033346075
 20
78.394855308
 30
0.000000000
 10
161.032601478
 20
78.961836914
 30
0.000000000
 10
161.196758160
 20
79.525296644
 30
0.000000000
 10
161.500383955
 20
80.036735595
 30
0.000000000
 10
161.908158904
 20
80.726082604
 30
0.000000000
 10
162.561798725
 20
81.324839784
 30
0.000000000
 10
163.385375302
 20
81.800050321
 30
0.000000000
  0
LINE
  5
A50
330
A02
100
AcDbEntity
  8
ProjItem
100
AcDbLine
 10
163.385375302
 20
81.800050321
 30
0.000000000
 11
209.459514742
 21
108.400967130
 31
0.000000000
  0
SPLINE
  5
A51
330
A02
100
AcDbEntity
  8
ProjItem
100
AcDbSpline
210
0
220
0
230
1
 70
8
 71
3
 72
11
 73
7
 74
0
 40
0.000000000
 40
0.000000000
 40
0.000000000
 40
0.000000000
 40
0.386921178
 40
0.386921178
 40
0.386921178
 40
1.000000000
 40
1.000000000
 40
1.000000000
 40
1.000000000
 10
209.459514742
 20
108.400967130
 30
0.000000000
 10
210.288875838
 20
108.880295030
 30
0.000000000
 10
211.294170504
 20
109.234920401
 30
0.000000000
 10
212.379420201
 20
109.438553972
 30
0.000000000
 10
214.098127844
 20
109.764738801
 30
0.000000000
 10
216.011356688
 20
109.697831580
 30
0.000000000
 10
217.655133541
 20
109.251970427
 30
0.000000000
  0
SPLINE
  5
A52
330
A02
100
AcDbEntity
  8
ProjItem
100
AcDbSpline
210
0
220
0
230
1
 70
8
 71
3
 72
11
 73
7
 74
0
 40
0.000000000
 40
0.000000000
 40
0.000000000
 40
0.000000000
 40
0.346133276
 40
0.346133276
 40
0.346133276
 40
1.000000000
 40
1.000000000
 40
1.000000000
 40
1.000000000
 10
236.729164508
 20
101.487326642
 30
0.000000000
 10
236.911221072
 20
101.591786473
 30
0.000000000
 10
236.986558003
 20
101.693708169
 30
0.000000000
 10
237.003226360
 20
101.729795007
 30
0.000000000
 10
237.015583009
 20
101.755357308
 30
0.000000000
 10
237.012548654
 20
101.756696993
 30
0.000000000
 10
237.013174250
 20
101.756366243
 30
0.000000000
  0
LINE
  5
A53
330
A02
100
AcDbEntity
  8
ProjItem
100
AcDbLine
 10
175.360151893
 20
66.055910689
 30
0.000000000
 11
236.729164508
 21
101.487326642
 31
0.000000000
  0
SPLINE
  5
A54
330
A02
100
AcDbEntity
  8
ProjItem
100
AcDbSpline
210
0
220
0
230
1
 70
8
 71
3
 72
20
 73
16
 74
0
 40
0.000000000
 40
0.000000000
 40
0.000000000
 40
0.000000000
 40
0.146686543
 40
0.146686543
 40
0.146686543
 40
0.293373085
 40
0.293373085
 40
0.293373085
 40
0.440059628
 40
0.440059628
 40
0.440059628
 40
0.728150537
 40
0.728150537
 40
0.728150537
 40
1.000000000
 40
1.000000000
 40
1.000000000
 40
1.000000000
 10
172.688431773
 20
66.247197507
 30
0.000000000
 10
172.714943802
 20
66.211945530
 30
0.000000000
 10
172.762108240
 20
66.169170321
 30
0.000000000
 10
172.829925087
 20
66.118871881
 30
0.000000000
 10
172.920808115
 20
66.053519304
 30
0.000000000
 10
173.051940954
 20
65.983770525
 30
0.000000000
 10
173.211491062
 20
65.926953472
 30
0.000000000
 10
173.344187481
 20
65.879234378
 30
0.000000000
 10
173.490857878
 20
65.842028698
 30
0.000000000
 10
173.651502253
 20
65.815336432
 30
0.000000000
 10
173.963952294
 20
65.763531252
 30
0.000000000
 10
174.312207670
 20
65.762849142
 30
0.000000000
 10
174.625511020
 20
65.813507669
 30
0.000000000
 10
174.921384168
 20
65.859772275
 30
0.000000000
 10
175.184988094
 20
65.953475061
 30
0.000000000
 10
175.360151893
 20
66.055910689
 30
0.000000000
  0
LINE
  5
A55
330
A02
100
AcDbEntity
  8
ProjItem
100
AcDbLine
 10
163.678962012
 20
77.402107148
 30
0.000000000
 11
172.688431773
 21
66.247197507
 31
0.000000000
  0
SPLINE
  5
A56
330
A02
100
AcDbEntity
  8
ProjItem
100
AcDbSpline
210
0
220
0
230
1
 70
8
 71
3
 72
8
 73
4
 74
0
 40
0.000000000
 40
0.000000000
 40
0.000000000
 40
0.000000000
 40
1.000000000
 40
1.000000000
 40
1.000000000
 40
1.000000000
 10
163.283346075
 20
78.394855308
 30
0.000000000
 10
163.284176528
 20
78.085068411
 30
0.000000000
 10
163.395493707
 20
77.755767761
 30
0.000000000
 10
163.678962012
 20
77.402107148
 30
0.000000000
  0
LINE
  5
A57
330
A02
100
AcDbEntity
  8
ProjItem
100
AcDbLine
 10
176.795812064
 20
20.090831395
 30
0.000000000
 11
176.795812064
 21
64.794019200
 31
0.000000000
  0
LINE
  5
A58
330
A02
100
AcDbEntity
  8
ProjItem
100
AcDbLine
 10
238.164824679
 20
100.225435154
 30
0.000000000
 11
176.795812064
 21
64.794019200
 31
0.000000000
  0
LINE
  5
A59
330
A02
100
AcDbEntity
  8
ProjItem
100
AcDbLine
 10
238.164824679
 20
55.522247348
 30
0.000000000
 11
238.164824679
 21
100.225435154
 31
0.000000000
  0
ELLIPSE
  5
A5A
330
A02
100
AcDbEntity
  8
ProjItem
100
AcDbEllipse
 10
174.144161635
 20
66.324950290
 30
0.000000000
 11
-3.750000000
 21
0.000000000
 31
0.000000000
 40
0.577350269
 41
-5.846852994
 42
-3.926990817
  0
LINE
  5
A5B
330
A02
100
AcDbEntity
  8
ProjItem
100
AcDbLine
 10
170.745507433
 20
20.706767107
 30
0.000000000
 11
170.745507433
 21
65.409954913
 31
0.000000000
  0
ELLIPSE
  5
A5C
330
A02
100
AcDbEntity
  8
ProjItem
100
AcDbEllipse
 10
237.634494593
 20
100.531621371
 30
0.000000000
 11
-0.375000000
 21
0.649519053
 31
0.000000000
 40
0.577350269
 41
3.926990817
 42
5.497787144
  0
LINE
  5
A5D
330
A02
100
AcDbEntity
  8
ProjItem
100
AcDbLine
 10
237.634494593
 20
101.143993807
 30
0.000000000
 11
176.265481978
 21
65.712577854
 31
0.000000000
  0
ELLIPSE
  5
A5E
330
A02
100
AcDbEntity
  8
ProjItem
100
AcDbEllipse
 10
176.265481978
 20
65.100205418
 30
0.000000000
 11
-0.375000000
 21
0.649519053
 31
0.000000000
 40
0.577350269
 41
3.926990817
 42
5.497787144
  0
ELLIPSE
  5
A5F
330
A02
100
AcDbEntity
  8
ProjItem
100
AcDbEllipse
 10
235.513174250
 20
101.756366243
 30
0.000000000
 11
-3.750000000
 21
0.000000000
 31
0.000000000
 40
0.577350269
 41
-3.926990817
 42
-3.141592654
  0
ELLIPSE
  5
A60
330
A02
100
AcDbEntity
  8
ProjItem
100
AcDbEllipse
 10
174.144161635
 20
66.937322725
 30
0.000000000
 11
-3.000000000
 21
0.000000000
 31
0.000000000
 40
0.577350269
 41
-5.846852994
 42
-3.926990817
  0
ELLIPSE
  5
A61
330
A02
100
AcDbEntity
  8
ProjItem
100
AcDbEllipse
 10
171.425238274
 20
65.592953988
 30
0.000000000
 11
0.583462659
 21
0.471244443
 31
0.000000000
 40
0.739997209
 41
-5.251095310
 42
-3.680298983
  0
LINE
  5
A62
330
A02
100
AcDbEntity
  8
ProjItem
100
AcDbLine
 10
161.736037672
 20
31.861676748
 30
0.000000000
 11
161.736037672
 21
76.564864554
 31
0.000000000
  0
LINE
  5
A63
330
A02
100
AcDbEntity
  8
ProjItem
100
AcDbLine
 10
170.745507433
 20
65.409954913
 30
0.000000000
 11
161.736037672
 21
76.564864554
 31
0.000000000
  0
ELLIPSE
  5
A64
330
A02
100
AcDbEntity
  8
ProjItem
100
AcDbEllipse
 10
236.781029035
 20
103.326137377
 30
0.000000000
 11
-0.194974759
 21
-0.724213258
 31
0.000000000
 40
0.345066366
 41
3.141592654
 42
3.804147018
  0
ELLIPSE
  5
A65
330
A02
100
AcDbEntity
  8
ProjItem
100
AcDbEllipse
 10
235.513174250
 20
102.368738678
 30
0.000000000
 11
-3.000000000
 21
0.000000000
 31
0.000000000
 40
0.577350269
 41
-3.926990817
 42
-2.007128640
  0
LINE
  5
A66
330
A02
100
AcDbEntity
  8
ProjItem
100
AcDbLine
 10
171.425238274
 20
66.205326424
 30
0.000000000
 11
162.415768512
 21
77.360236065
 31
0.000000000
  0
ELLIPSE
  5
A67
330
A02
100
AcDbEntity
  8
ProjItem
100
AcDbEllipse
 10
168.533346075
 20
79.007227744
 30
0.000000000
 11
-6.750000000
 21
0.000000000
 31
0.000000000
 40
0.577350269
 41
-0.785398163
 42
-5.846852994
  0
LINE
  5
A68
330
A02
100
AcDbEntity
  8
ProjItem
100
AcDbLine
 10
163.760375302
 20
81.762903704
 30
0.000000000
 11
209.834514742
 21
108.363820513
 31
0.000000000
  0
ELLIPSE
  5
A69
330
A02
100
AcDbEntity
  8
ProjItem
100
AcDbEllipse
 10
214.607485515
 20
105.608144552
 30
0.000000000
 11
-6.750000000
 21
0.000000000
 31
0.000000000
 40
0.577350269
 41
-2.007128640
 42
-0.785398163
  0
LINE
  5
A6A
330
A02
100
AcDbEntity
  8
ProjItem
100
AcDbLine
 10
217.460158782
 20
109.140129605
 30
0.000000000
 11
236.781029035
 21
103.938509813
 31
0.000000000
  0
ELLIPSE
  5
A6B
330
A02
100
AcDbEntity
  8
ProjItem
100
AcDbEllipse
 10
235.513174250
 20
102.368738678
 30
0.000000000
 11
2.250000000
 21
0.000000000
 31
0.000000000
 40
0.577350269
 41
5.497787144
 42
1.134464014
  0
LINE
  5
A6C
330
A02
100
AcDbEntity
  8
ProjItem
100
AcDbLine
 10
175.735151893
 20
66.018764072
 30
0.000000000
 11
237.104164508
 21
101.450180025
 31
0.000000000
  0
LINE
  5
A6D
330
A02
100
AcDbEntity
  8
ProjItem
100
AcDbLine
 10
236.464065339
 20
103.546067029
 30
0.000000000
 11
217.143195086
 21
108.747686821
 31
0.000000000
  0
ELLIPSE
  5
A6E
330
A02
100
AcDbEntity
  8
ProjItem
100
AcDbEllipse
 10
174.144161635
 20
66.937322725
 30
0.000000000
 11
2.250000000
 21
0.000000000
 31
0.000000000
 40
0.577350269
 41
3.577924967
 42
5.497787144
  0
ELLIPSE
  5
A6F
330
A02
100
AcDbEntity
  8
ProjItem
100
AcDbEllipse
 10
214.607485515
 20
105.608144552
 30
0.000000000
 11
6.000000000
 21
0.000000000
 31
0.000000000
 40
0.577350269
 41
1.134464014
 42
2.356194490
  0
LINE
  5
A70
330
A02
100
AcDbEntity
  8
ProjItem
100
AcDbLine
 10
163.095499353
 20
77.543235141
 30
0.000000000
 11
172.104969114
 21
66.388325499
 31
0.000000000
  0
LINE
  5
A71
330
A02
100
AcDbEntity
  8
ProjItem
100
AcDbLine
 10
210.364844828
 20
108.057634295
 30
0.000000000
 11
164.290705388
 21
81.456717486
 31
0.000000000
  0
ELLIPSE
  5
A72
330
A02
100
AcDbEntity
  8
ProjItem
100
AcDbEllipse
 10
168.533346075
 20
79.007227744
 30
0.000000000
 11
6.000000000
 21
0.000000000
 31
0.000000000
 40
0.577350269
 41
2.356194490
 42
3.577924967
  0
ELLIPSE
  5
A73
330
A02
100
AcDbEntity
  8
ProjItem
100
AcDbEllipse
 10
162.415768512
 20
76.747863629
 30
0.000000000
 11
0.583462659
 21
0.471244443
 31
0.000000000
 40
0.739997209
 41
-5.251095310
 42
-3.680298983
  0
ELLIPSE
  5
A74
330
A02
100
AcDbEntity
  8
ProjItem
100
AcDbEllipse
 10
168.533346075
 20
78.394855308
 30
0.000000000
 11
-7.500000000
 21
0.000000000
 31
0.000000000
 40
0.577350269
 41
-0.000000000
 42
-5.846852994
  0
ELLIPSE
  5
A75
330
A02
100
AcDbEntity
  8
ProjItem
100
AcDbEllipse
 10
217.460158782
 20
108.527757169
 30
0.000000000
 11
-0.194974759
 21
-0.724213258
 31
0.000000000
 40
0.345066366
 41
3.141592654
 42
3.804147018
  0
ELLIPSE
  5
A76
330
A02
100
AcDbEntity
  8
ProjItem
100
AcDbEllipse
 10
163.760375302
 20
81.150531269
 30
0.000000000
 11
0.375000000
 21
-0.649519053
 31
0.000000000
 40
0.577350269
 41
-3.926990817
 42
-3.141592654
  0
ELLIPSE
  5
A77
330
A02
100
AcDbEntity
  8
ProjItem
100
AcDbEllipse
 10
209.834514742
 20
107.751448077
 30
0.000000000
 11
0.375000000
 21
-0.649519053
 31
0.000000000
 40
0.577350269
 41
-3.926990817
 42
-3.141592654
  0
ELLIPSE
  5
A78
330
A02
100
AcDbEntity
  8
ProjItem
100
AcDbEllipse
 10
237.104164508
 20
100.837807589
 30
0.000000000
 11
-0.375000000
 21
0.649519053
 31
0.000000000
 40
0.577350269
 41
5.497787144
 42
0.000000000
  0
ELLIPSE
  5
A79
330
A02
100
AcDbEntity
  8
ProjItem
100
AcDbEllipse
 10
235.513174250
 20
101.756366243
 30
0.000000000
 11
1.500000000
 21
0.000000000
 31
0.000000000
 40
0.577350269
 41
0.000000000
 42
1.134464014
  0
ELLIPSE
  5
A7A
330
A02
100
AcDbEntity
  8
ProjItem
100
AcDbEllipse
 10
236.464065339
 20
102.933694594
 30
0.000000000
 11
-0.194974759
 21
-0.724213258
 31
0.000000000
 40
0.345066366
 41
3.804147018
 42
5.374943344
  0
ELLIPSE
  5
A7B
330
A02
100
AcDbEntity
  8
ProjItem
100
AcDbEllipse
 10
175.735151893
 20
65.406391636
 30
0.000000000
 11
-0.375000000
 21
0.649519053
 31
0.000000000
 40
0.577350269
 41
5.497787144
 42
0.000000000
  0
LINE
  5
A7C
330
A02
100
AcDbEntity
  8
ProjItem
100
AcDbLine
 10
236.147101642
 20
102.541251810
 30
0.000000000
 11
216.826231390
 21
107.742871602
 31
0.000000000
  0
ELLIPSE
  5
A7D
330
A02
100
AcDbEntity
  8
ProjItem
100
AcDbEllipse
 10
217.143195086
 20
108.135314386
 30
0.000000000
 11
-0.194974759
 21
-0.724213258
 31
0.000000000
 40
0.345066366
 41
3.804147018
 42
5.374943344
  0
ELLIPSE
  5
A7E
330
A02
100
AcDbEntity
  8
ProjItem
100
AcDbEllipse
 10
172.104969114
 20
65.775953063
 30
0.000000000
 11
0.583462659
 21
0.471244443
 31
0.000000000
 40
0.739997209
 41
-0.000000000
 42
-5.251095310
  0
ELLIPSE
  5
A7F
330
A02
100
AcDbEntity
  8
ProjItem
100
AcDbEllipse
 10
214.607485515
 20
104.995772117
 30
0.000000000
 11
5.250000000
 21
0.000000000
 31
0.000000000
 40
0.577350269
 41
1.134464014
 42
2.356194490
  0
ELLIPSE
  5
A80
330
A02
100
AcDbEntity
  8
ProjItem
100
AcDbEllipse
 10
210.364844828
 20
107.445261859
 30
0.000000000
 11
0.375000000
 21
-0.649519053
 31
0.000000000
 40
0.577350269
 41
-5.497787144
 42
-3.926990817
  0
ELLIPSE
  5
A81
330
A02
100
AcDbEntity
  8
ProjItem
100
AcDbEllipse
 10
163.095499353
 20
76.930862705
 30
0.000000000
 11
0.583462659
 21
0.471244443
 31
0.000000000
 40
0.739997209
 41
-0.000000000
 42
-5.251095310
  0
LINE
  5
A82
330
A02
100
AcDbEntity
  8
ProjItem
100
AcDbLine
 10
210.895174914
 20
107.139075642
 30
0.000000000
 11
164.821035474
 21
80.538158833
 31
0.000000000
  0
ELLIPSE
  5
A83
330
A02
100
AcDbEntity
  8
ProjItem
100
AcDbEllipse
 10
164.290705388
 20
80.844345051
 30
0.000000000
 11
0.375000000
 21
-0.649519053
 31
0.000000000
 40
0.577350269
 41
-5.497787144
 42
-3.926990817
  0
ELLIPSE
  5
A84
330
A02
100
AcDbEntity
  8
ProjItem
100
AcDbEllipse
 10
168.533346075
 20
78.394855308
 30
0.000000000
 11
5.250000000
 21
0.000000000
 31
0.000000000
 40
0.577350269
 41
2.356194490
 42
3.141592654
  0
LINE
  5
A85
330
A02
100
AcDbEntity
  8
ProjItem
100
AcDbLine
 10
236.147101642
 20
101.151272490
 30
0.000000000
 11
236.147101642
 21
102.541251810
 31
0.000000000
  0
LINE
  5
A86
330
A02
100
AcDbEntity
  8
ProjItem
100
AcDbLine
 10
216.826231390
 20
89.996362849
 30
0.000000000
 11
216.826231390
 21
107.742871602
 31
0.000000000
  0
LINE
  5
A87
330
A02
100
AcDbEntity
  8
ProjItem
100
AcDbLine
 10
210.895174914
 20
86.572065796
 30
0.000000000
 11
210.895174914
 21
107.139075642
 31
0.000000000
  0
LINE
  5
A88
330
A02
100
AcDbEntity
  8
ProjItem
100
AcDbLine
 10
164.821035474
 20
75.988069851
 30
0.000000000
 11
164.821035474
 21
80.538158833
 31
0.000000000
  0
LINE
  5
A89
330
A02
100
AcDbEntity
  8
ProjItem001
100
AcDbLine
 10
215.148260162
 20
125.398367963
 30
0.000000000
 11
215.148260162
 21
180.148367963
 31
0.000000000
  0
SPLINE
  5
A8A
330
A02
100
AcDbEntity
  8
ProjItem001
100
AcDbSpline
210
0
220
0
230
1
 70
8
 71
2
 72
30
 73
27
 74
0
 40
0.000000000
 40
0.000000000
 40
0.000000000
 40
0.137133013
 40
0.137133013
 40
0.274266025
 40
0.274266025
 40
0.411399038
 40
0.411399038
 40
0.548532051
 40
0.548532051
 40
0.685665063
 40
0.685665063
 40
0.822798076
 40
0.822798076
 40
0.959931089
 40
0.959931089
 40
1.097064101
 40
1.097064101
 40
1.234197114
 40
1.234197114
 40
1.371330127
 40
1.371330127
 40
1.508463139
 40
1.508463139
 40
1.782729165
 40
1.782729165
 40
1.919862177
 40
1.919862177
 40
1.919862177
 10
215.148260162
 20
125.398367963
 30
0.000000000
 10
215.130657652
 20
125.398367963
 30
0.000000000
 10
215.113055141
 20
125.398367963
 30
0.000000000
 10
215.060578115
 20
125.398367963
 30
0.000000000
 10
215.008101088
 20
125.398367963
 30
0.000000000
 10
214.921734855
 20
125.398367963
 30
0.000000000
 10
214.835368622
 20
125.398367963
 30
0.000000000
 10
214.716734795
 20
125.398367963
 30
0.000000000
 10
214.598100968
 20
125.398367963
 30
0.000000000
 10
214.449427018
 20
125.398367963
 30
0.000000000
 10
214.300753068
 20
125.398367963
 30
0.000000000
 10
214.124830499
 20
125.398367963
 30
0.000000000
 10
213.948907929
 20
125.398367963
 30
0.000000000
 10
213.749039864
 20
125.398367963
 30
0.000000000
 10
213.549171799
 20
125.398367963
 30
0.000000000
 10
213.329110963
 20
125.398367963
 30
0.000000000
 10
213.109050127
 20
125.398367963
 30
0.000000000
 10
212.872928386
 20
125.398367963
 30
0.000000000
 10
212.636806645
 20
125.398367963
 30
0.000000000
 10
212.389057422
 20
125.398367963
 30
0.000000000
 10
212.141308199
 20
125.398367963
 30
0.000000000
 10
211.886583238
 20
125.398367963
 30
0.000000000
 10
211.631858276
 20
125.398367963
 30
0.000000000
 10
211.116546818
 20
125.398367963
 30
0.000000000
 10
210.609448096
 20
125.398367963
 30
0.000000000
 10
210.362566360
 20
125.398367963
 30
0.000000000
 10
210.115684625
 20
125.398367963
 30
0.000000000
  0
LINE
  5
A8B
330
A02
100
AcDbEntity
  8
ProjItem001
100
AcDbLine
 10
214.398260162
 20
124.648367963
 30
0.000000000
 11
215.148260162
 21
125.398367963
 31
0.000000000
  0
ARC
  5
A8C
330
A02
100
AcDbEntity
  8
ProjItem001
100
AcDbCircle
 10
214.398260162
 20
180.148367963
 30
0.000000000
 40
0.750000000
100
AcDbArc
 50
0.000000000
 51
90.000000000
  0
SPLINE
  5
A8D
330
A02
100
AcDbEntity
  8
ProjItem001
100
AcDbSpline
210
0
220
0
230
1
 70
8
 71
2
 72
30
 73
27
 74
0
 40
0.000000000
 40
0.000000000
 40
0.000000000
 40
0.137133013
 40
0.137133013
 40
0.274266025
 40
0.274266025
 40
0.411399038
 40
0.411399038
 40
0.548532051
 40
0.548532051
 40
0.685665063
 40
0.685665063
 40
0.822798076
 40
0.822798076
 40
0.959931089
 40
0.959931089
 40
1.097064101
 40
1.097064101
 40
1.234197114
 40
1.234197114
 40
1.371330127
 40
1.371330127
 40
1.508463139
 40
1.508463139
 40
1.782729165
 40
1.782729165
 40
1.919862177
 40
1.919862177
 40
1.919862177
 10
214.398260162
 20
180.898367963
 30
0.000000000
 10
214.384178154
 20
180.898367962
 30
0.000000000
 10
214.370096146
 20
180.898367963
 30
0.000000000
 10
214.328114524
 20
180.898367962
 30
0.000000000
 10
214.286132903
 20
180.898367963
 30
0.000000000
 10
214.217039917
 20
180.898367963
 30
0.000000000
 10
214.147946930
 20
180.898367963
 30
0.000000000
 10
214.053039869
 20
180.898367963
 30
0.000000000
 10
213.958132807
 20
180.898367963
 30
0.000000000
 10
213.839193647
 20
180.898367962
 30
0.000000000
 10
213.720254487
 20
180.898367963
 30
0.000000000
 10
213.579516431
 20
180.898367962
 30
0.000000000
 10
213.438778376
 20
180.898367963
 30
0.000000000
 10
213.278883924
 20
180.898367962
 30
0.000000000
 10
213.118989471
 20
180.898367963
 30
0.000000000
 10
212.942940803
 20
180.898367962
 30
0.000000000
 10
212.766892134
 20
180.898367963
 30
0.000000000
 10
212.577994741
 20
180.898367962
 30
0.000000000
 10
212.389097348
 20
180.898367963
 30
0.000000000
 10
212.190897970
 20
180.898367962
 30
0.000000000
 10
211.992698592
 20
180.898367963
 30
0.000000000
 10
211.788918623
 20
180.898367962
 30
0.000000000
 10
211.585138653
 20
180.898367963
 30
0.000000000
 10
211.172889487
 20
180.898367962
 30
0.000000000
 10
210.767210509
 20
180.898367963
 30
0.000000000
 10
210.569705121
 20
180.898367962
 30
0.000000000
 10
210.372199732
 20
180.898367963
 30
0.000000000
  0
SPLINE
  5
A8E
330
A02
100
AcDbEntity
  8
ProjItem001
100
AcDbSpline
210
0
220
0
230
1
 70
8
 71
2
 72
30
 73
27
 74
0
 40
0.000000000
 40
0.000000000
 40
0.000000000
 40
0.137133013
 40
0.137133013
 40
0.274266025
 40
0.274266025
 40
0.411399038
 40
0.411399038
 40
0.548532051
 40
0.548532051
 40
0.685665063
 40
0.685665063
 40
0.822798076
 40
0.822798076
 40
0.959931089
 40
0.959931089
 40
1.097064101
 40
1.097064101
 40
1.234197114
 40
1.234197114
 40
1.371330127
 40
1.371330127
 40
1.508463139
 40
1.508463139
 40
1.782729165
 40
1.782729165
 40
1.919862177
 40
1.919862177
 40
1.919862177
 10
214.398260162
 20
124.648367963
 30
0.000000000
 10
214.384178154
 20
124.648367963
 30
0.000000000
 10
214.370096146
 20
124.648367963
 30
0.000000000
 10
214.328114524
 20
124.648367963
 30
0.000000000
 10
214.286132903
 20
124.648367963
 30
0.000000000
 10
214.217039917
 20
124.648367963
 30
0.000000000
 10
214.147946930
 20
124.648367963
 30
0.000000000
 10
214.053039869
 20
124.648367963
 30
0.000000000
 10
213.958132807
 20
124.648367963
 30
0.000000000
 10
213.839193647
 20
124.648367963
 30
0.000000000
 10
213.720254487
 20
124.648367963
 30
0.000000000
 10
213.579516431
 20
124.648367963
 30
0.000000000
 10
213.438778376
 20
124.648367963
 30
0.000000000
 10
213.278883924
 20
124.648367963
 30
0.000000000
 10
213.118989471
 20
124.648367963
 30
0.000000000
 10
212.942940803
 20
124.648367963
 30
0.000000000
 10
212.766892134
 20
124.648367963
 30
0.000000000
 10
212.577994741
 20
124.648367963
 30
0.000000000
 10
212.389097348
 20
124.648367963
 30
0.000000000
 10
212.190897970
 20
124.648367963
 30
0.000000000
 10
211.992698592
 20
124.648367963
 30
0.000000000
 10
211.788918623
 20
124.648367963
 30
0.000000000
 10
211.585138653
 20
124.648367963
 30
0.000000000
 10
211.172889487
 20
124.648367963
 30
0.000000000
 10
210.767210509
 20
124.648367963
 30
0.000000000
 10
210.569705121
 20
124.648367963
 30
0.000000000
 10
210.372199732
 20
124.648367963
 30
0.000000000
  0
LINE
  5
A8F
330
A02
100
AcDbEntity
  8
ProjItem001
100
AcDbLine
 10
210.115684625
 20
125.398367963
 30
0.000000000
 11
190.083109087
 21
125.398367963
 31
0.000000000
  0
SPLINE
  5
A90
330
A02
100
AcDbEntity
  8
ProjItem001
100
AcDbSpline
210
0
220
0
230
1
 70
8
 71
1
 72
4
 73
2
 74
0
 40
-0.000000000
 40
-0.000000000
 40
0.089650915
 40
0.089650915
 10
210.372199732
 20
180.898367963
 30
0.000000000
 10
210.628714840
 20
180.898367963
 30
0.000000000
  0
SPLINE
  5
A91
330
A02
100
AcDbEntity
  8
ProjItem001
100
AcDbSpline
210
0
220
0
230
1
 70
8
 71
3
 72
20
 73
16
 74
0
 40
1.197127929
 40
1.197127929
 40
1.197127929
 40
1.197127929
 40
1.558495053
 40
1.558495053
 40
1.558495053
 40
1.661742803
 40
1.661742803
 40
1.661742803
 40
1.764990553
 40
1.764990553
 40
1.764990553
 40
1.868238302
 40
1.868238302
 40
1.868238302
 40
1.919862177
 40
1.919862177
 40
1.919862177
 40
1.919862177
 10
213.648260162
 20
180.898367962
 30
0.000000000
 10
213.886626481
 20
180.898367963
 30
0.000000000
 10
214.075796058
 20
180.898367963
 30
0.000000000
 10
214.204503202
 20
180.898367962
 30
0.000000000
 10
214.239921436
 20
180.898367963
 30
0.000000000
 10
214.271378831
 20
180.898367962
 30
0.000000000
 10
214.298875386
 20
180.898367962
 30
0.000000000
 10
214.324105382
 20
180.898367963
 30
0.000000000
 10
214.345264982
 20
180.898367962
 30
0.000000000
 10
214.362354186
 20
180.898367962
 30
0.000000000
 10
214.377127228
 20
180.898367963
 30
0.000000000
 10
214.387763671
 20
180.898367962
 30
0.000000000
 10
214.394263513
 20
180.898367963
 30
0.000000000
 10
214.395595730
 20
180.898367963
 30
0.000000000
 10
214.396927946
 20
180.898367963
 30
0.000000000
 10
214.398260162
 20
180.898367963
 30
0.000000000
  0
ARC
  5
A92
330
A02
100
AcDbEntity
  8
ProjItem001
100
AcDbCircle
 10
214.398260162
 20
180.148367963
 30
0.000000000
 40
0.750000000
100
AcDbArc
 50
0.000000000
 51
90.000000000
  0
LINE
  5
A93
330
A02
100
AcDbEntity
  8
ProjItem001
100
AcDbLine
 10
210.372199732
 20
180.898367963
 30
0.000000000
 11
190.339624195
 21
180.898367963
 31
0.000000000
  0
SPLINE
  5
A94
330
A02
100
AcDbEntity
  8
ProjItem001
100
AcDbSpline
210
0
220
0
230
1
 70
8
 71
1
 72
17
 73
15
 74
0
 40
0.000000000
 40
0.000000000
 40
0.087266463
 40
0.174532925
 40
0.261799388
 40
0.349065850
 40
0.436332313
 40
0.523598776
 40
0.610865238
 40
0.698131701
 40
0.785398163
 40
0.872664626
 40
0.959931089
 40
1.047197551
 40
1.134464014
 40
1.221730476
 40
1.221730476
 10
190.339624195
 20
180.898367963
 30
0.000000000
 10
189.795586896
 20
180.898367963
 30
0.000000000
 10
189.273260162
 20
180.898367963
 30
0.000000000
 10
188.776619217
 20
180.898367963
 30
0.000000000
 10
188.309443797
 20
180.898367963
 30
0.000000000
 10
187.875289389
 20
180.898367963
 30
0.000000000
 10
187.477460171
 20
180.898367963
 30
0.000000000
 10
187.118983863
 20
180.898367963
 30
0.000000000
 10
186.802588687
 20
180.898367963
 30
0.000000000
 10
186.530682600
 20
180.898367963
 30
0.000000000
 10
186.305334972
 20
180.898367963
 30
0.000000000
 10
186.128260835
 20
180.898367963
 30
0.000000000
 10
186.000807829
 20
180.898367963
 30
0.000000000
 10
185.923945950
 20
180.898367963
 30
0.000000000
 10
185.898260162
 20
180.898367963
 30
0.000000000
  0
SPLINE
  5
A95
330
A02
100
AcDbEntity
  8
ProjItem001
100
AcDbSpline
210
0
220
0
230
1
 70
8
 71
1
 72
17
 73
15
 74
0
 40
0.000000000
 40
0.000000000
 40
0.087266463
 40
0.174532925
 40
0.261799388
 40
0.349065850
 40
0.436332313
 40
0.523598776
 40
0.610865238
 40
0.698131701
 40
0.785398163
 40
0.872664626
 40
0.959931089
 40
1.047197551
 40
1.134464014
 40
1.221730476
 40
1.221730476
 10
185.898260162
 20
180.898367963
 30
0.000000000
 10
185.923945950
 20
180.898367963
 30
0.000000000
 10
186.000807829
 20
180.898367963
 30
0.000000000
 10
186.128260835
 20
180.898367963
 30
0.000000000
 10
186.305334972
 20
180.898367963
 30
0.000000000
 10
186.530682600
 20
180.898367963
 30
0.000000000
 10
186.802588687
 20
180.898367963
 30
0.000000000
 10
187.118983863
 20
180.898367963
 30
0.000000000
 10
187.477460171
 20
180.898367963
 30
0.000000000
 10
187.875289389
 20
180.898367963
 30
0.000000000
 10
188.309443797
 20
180.898367963
 30
0.000000000
 10
188.776619217
 20
180.898367963
 30
0.000000000
 10
189.273260162
 20
180.898367963
 30
0.000000000
 10
189.795586896
 20
180.898367963
 30
0.000000000
 10
190.339624195
 20
180.898367963
 30
0.000000000
  0
LINE
  5
A96
330
A02
100
AcDbEntity
  8
ProjItem001
100
AcDbLine
 10
210.372199732
 20
124.648367963
 30
0.000000000
 11
190.339624195
 21
124.648367963
 31
0.000000000
  0
SPLINE
  5
A97
330
A02
100
AcDbEntity
  8
ProjItem001
100
AcDbSpline
210
0
220
0
230
1
 70
8
 71
1
 72
17
 73
15
 74
0
 40
0.000000000
 40
0.000000000
 40
0.087266463
 40
0.174532925
 40
0.261799388
 40
0.349065850
 40
0.436332313
 40
0.523598776
 40
0.610865238
 40
0.698131701
 40
0.785398163
 40
0.872664626
 40
0.959931089
 40
1.047197551
 40
1.134464014
 40
1.221730476
 40
1.221730476
 10
190.339624195
 20
124.648367963
 30
0.000000000
 10
189.795586896
 20
124.648367963
 30
0.000000000
 10
189.273260162
 20
124.648367963
 30
0.000000000
 10
188.776619217
 20
124.648367963
 30
0.000000000
 10
188.309443797
 20
124.648367963
 30
0.000000000
 10
187.875289389
 20
124.648367963
 30
0.000000000
 10
187.477460171
 20
124.648367963
 30
0.000000000
 10
187.118983863
 20
124.648367963
 30
0.000000000
 10
186.802588687
 20
124.648367963
 30
0.000000000
 10
186.530682600
 20
124.648367963
 30
0.000000000
 10
186.305334972
 20
124.648367963
 30
0.000000000
 10
186.128260835
 20
124.648367963
 30
0.000000000
 10
186.000807829
 20
124.648367963
 30
0.000000000
 10
185.923945950
 20
124.648367963
 30
0.000000000
 10
185.898260162
 20
124.648367963
 30
0.000000000
  0
SPLINE
  5
A98
330
A02
100
AcDbEntity
  8
ProjItem001
100
AcDbSpline
210
0
220
0
230
1
 70
8
 71
1
 72
17
 73
15
 74
0
 40
0.000000000
 40
0.000000000
 40
0.087266463
 40
0.174532925
 40
0.261799388
 40
0.349065850
 40
0.436332313
 40
0.523598776
 40
0.610865238
 40
0.698131701
 40
0.785398163
 40
0.872664626
 40
0.959931089
 40
1.047197551
 40
1.134464014
 40
1.221730476
 40
1.221730476
 10
190.083109087
 20
125.398367963
 30
0.000000000
 10
189.478623199
 20
125.398367963
 30
0.000000000
 10
188.898260162
 20
125.398367963
 30
0.000000000
 10
188.346436890
 20
125.398367963
 30
0.000000000
 10
187.827353090
 20
125.398367963
 30
0.000000000
 10
187.344959303
 20
125.398367963
 30
0.000000000
 10
186.902926839
 20
125.398367963
 30
0.000000000
 10
186.504619830
 20
125.398367963
 30
0.000000000
 10
186.153069634
 20
125.398367963
 30
0.000000000
 10
185.850951760
 20
125.398367963
 30
0.000000000
 10
185.600565506
 20
125.398367963
 30
0.000000000
 10
185.403816465
 20
125.398367963
 30
0.000000000
 10
185.262202015
 20
125.398367963
 30
0.000000000
 10
185.176799927
 20
125.398367963
 30
0.000000000
 10
185.148260162
 20
125.398367963
 30
0.000000000
  0
LINE
  5
A99
330
A02
100
AcDbEntity
  8
ProjItem001
100
AcDbLine
 10
185.148260162
 20
125.398367963
 30
0.000000000
 11
185.148260162
 21
180.148367963
 31
0.000000000
  0
ARC
  5
A9A
330
A02
100
AcDbEntity
  8
ProjItem001
100
AcDbCircle
 10
185.898260162
 20
180.148367963
 30
0.000000000
 40
0.750000000
100
AcDbArc
 50
90.000000000
 51
180.000000000
  0
LINE
  5
A9B
330
A02
100
AcDbEntity
  8
ProjItem001
100
AcDbLine
 10
185.898260162
 20
124.648367963
 30
0.000000000
 11
185.148260162
 21
125.398367963
 31
0.000000000
  0
SPLINE
  5
A9C
330
A02
100
AcDbEntity
  8
ProjItem001
100
AcDbSpline
210
0
220
0
230
1
 70
8
 71
2
 72
30
 73
27
 74
0
 40
0.000000000
 40
0.000000000
 40
0.000000000
 40
0.137133013
 40
0.137133013
 40
0.274266025
 40
0.274266025
 40
0.411399038
 40
0.411399038
 40
0.548532051
 40
0.548532051
 40
0.685665063
 40
0.685665063
 40
0.822798076
 40
0.822798076
 40
0.959931089
 40
0.959931089
 40
1.097064101
 40
1.097064101
 40
1.234197114
 40
1.234197114
 40
1.371330127
 40
1.371330127
 40
1.508463139
 40
1.508463139
 40
1.782729165
 40
1.782729165
 40
1.919862177
 40
1.919862177
 40
1.919862177
 10
215.148260162
 20
180.148367963
 30
0.000000000
 10
215.130657652
 20
180.148367962
 30
0.000000000
 10
215.113055141
 20
180.148367963
 30
0.000000000
 10
215.060578115
 20
180.148367962
 30
0.000000000
 10
215.008101088
 20
180.148367963
 30
0.000000000
 10
214.921734855
 20
180.148367963
 30
0.000000000
 10
214.835368622
 20
180.148367963
 30
0.000000000
 10
214.716734795
 20
180.148367963
 30
0.000000000
 10
214.598100968
 20
180.148367963
 30
0.000000000
 10
214.449427018
 20
180.148367962
 30
0.000000000
 10
214.300753068
 20
180.148367963
 30
0.000000000
 10
214.124830499
 20
180.148367962
 30
0.000000000
 10
213.948907929
 20
180.148367963
 30
0.000000000
 10
213.749039864
 20
180.148367962
 30
0.000000000
 10
213.549171799
 20
180.148367963
 30
0.000000000
 10
213.329110963
 20
180.148367962
 30
0.000000000
 10
213.109050127
 20
180.148367963
 30
0.000000000
 10
212.872928386
 20
180.148367962
 30
0.000000000
 10
212.636806645
 20
180.148367963
 30
0.000000000
 10
212.389057422
 20
180.148367962
 30
0.000000000
 10
212.141308199
 20
180.148367963
 30
0.000000000
 10
211.886583238
 20
180.148367962
 30
0.000000000
 10
211.631858276
 20
180.148367963
 30
0.000000000
 10
211.116546818
 20
180.148367962
 30
0.000000000
 10
210.609448096
 20
180.148367963
 30
0.000000000
 10
210.362566360
 20
180.148367962
 30
0.000000000
 10
210.115684625
 20
180.148367963
 30
0.000000000
  0
LINE
  5
A9D
330
A02
100
AcDbEntity
  8
ProjItem001
100
AcDbLine
 10
210.115684625
 20
125.398367963
 30
0.000000000
 11
210.115684625
 21
180.148367963
 31
0.000000000
  0
ARC
  5
A9E
330
A02
100
AcDbEntity
  8
ProjItem001
100
AcDbCircle
 10
214.398260162
 20
180.148367963
 30
0.000000000
 40
0.750000000
100
AcDbArc
 50
0.000000000
 51
90.000000000
  0
ARC
  5
A9F
330
A02
100
AcDbEntity
  8
ProjItem001
100
AcDbCircle
 10
214.398260162
 20
180.148367963
 30
0.000000000
 40
0.750000000
100
AcDbArc
 50
0.000000000
 51
90.000000000
  0
ELLIPSE
  5
AA0
330
A02
100
AcDbEntity
  8
ProjItem001
100
AcDbEllipse
 10
210.372199732
 20
180.148367963
 30
0.000000000
 11
0.000000000
 21
0.750000000
 31
0.000000000
 40
0.342020143
 41
-0.000000000
 42
-4.712388980
  0
LINE
  5
AA1
330
A02
100
AcDbEntity
  8
ProjItem001
100
AcDbLine
 10
210.372199732
 20
124.648367963
 30
0.000000000
 11
210.115684625
 21
125.398367963
 31
0.000000000
  0
LINE
  5
AA2
330
A02
100
AcDbEntity
  8
ProjItem001
100
AcDbLine
 10
190.083109087
 20
125.398367963
 30
0.000000000
 11
190.083109087
 21
180.148367963
 31
0.000000000
  0
LINE
  5
AA3
330
A02
100
AcDbEntity
  8
ProjItem001
100
AcDbLine
 10
210.115684625
 20
180.148367963
 30
0.000000000
 11
190.083109087
 21
180.148367963
 31
0.000000000
  0
ELLIPSE
  5
AA4
330
A02
100
AcDbEntity
  8
ProjItem001
100
AcDbEllipse
 10
190.339624195
 20
180.148367963
 30
0.000000000
 11
0.000000000
 21
0.750000000
 31
0.000000000
 40
0.342020143
 41
-0.000000000
 42
-4.712388980
  0
LINE
  5
AA5
330
A02
100
AcDbEntity
  8
ProjItem001
100
AcDbLine
 10
190.339624195
 20
124.648367963
 30
0.000000000
 11
190.083109087
 21
125.398367963
 31
0.000000000
  0
SPLINE
  5
AA6
330
A02
100
AcDbEntity
  8
ProjItem001
100
AcDbSpline
210
0
220
0
230
1
 70
8
 71
1
 72
17
 73
15
 74
0
 40
0.000000000
 40
0.000000000
 40
0.087266463
 40
0.174532925
 40
0.261799388
 40
0.349065850
 40
0.436332313
 40
0.523598776
 40
0.610865238
 40
0.698131701
 40
0.785398163
 40
0.872664626
 40
0.959931089
 40
1.047197551
 40
1.134464014
 40
1.221730476
 40
1.221730476
 10
190.083109087
 20
180.148367963
 30
0.000000000
 10
189.478623199
 20
180.148367963
 30
0.000000000
 10
188.898260162
 20
180.148367963
 30
0.000000000
 10
188.346436890
 20
180.148367963
 30
0.000000000
 10
187.827353090
 20
180.148367963
 30
0.000000000
 10
187.344959303
 20
180.148367963
 30
0.000000000
 10
186.902926839
 20
180.148367963
 30
0.000000000
 10
186.504619830
 20
180.148367963
 30
0.000000000
 10
186.153069634
 20
180.148367963
 30
0.000000000
 10
185.850951760
 20
180.148367963
 30
0.000000000
 10
185.600565506
 20
180.148367963
 30
0.000000000
 10
185.403816465
 20
180.148367963
 30
0.000000000
 10
185.262202015
 20
180.148367963
 30
0.000000000
 10
185.176799927
 20
180.148367963
 30
0.000000000
 10
185.148260162
 20
180.148367963
 30
0.000000000
  0
LINE
  5
AA7
330
A02
100
AcDbEntity
  8
ProjItem002
100
AcDbLine
 10
142.283345937
 20
49.460112875
 30
0.000000000
 11
55.494455988
 21
49.460112875
 31
0.000000000
  0
ARC
  5
AA8
330
A02
100
AcDbEntity
  8
ProjItem002
100
AcDbCircle
 10
55.494455988
 20
53.210112875
 30
0.000000000
 40
3.750000000
100
AcDbArc
 50
160.000000001
 51
-90.000000000
  0
LINE
  5
AA9
330
A02
100
AcDbEntity
  8
ProjItem002
100
AcDbLine
 10
51.970608660
 20
54.492688412
 30
0.000000000
 11
59.261869871
 21
74.525263949
 31
0.000000000
  0
ARC
  5
AAA
330
A02
100
AcDbEntity
  8
ProjItem002
100
AcDbCircle
 10
142.283345937
 20
53.210112875
 30
0.000000000
 40
3.750000000
100
AcDbArc
 50
-90.000000000
 51
19.999999999
  0
LINE
  5
AAB
330
A02
100
AcDbEntity
  8
ProjItem002
100
AcDbLine
 10
138.515932054
 20
74.525263949
 30
0.000000000
 11
145.807193265
 21
54.492688412
 31
0.000000000
  0
ARC
  5
AAC
330
A02
100
AcDbEntity
  8
ProjItem002
100
AcDbCircle
 10
66.309564527
 20
71.960112875
 30
0.000000000
 40
7.500000000
100
AcDbArc
 50
90.000000000
 51
160.000000001
  0
LINE
  5
AAD
330
A02
100
AcDbEntity
  8
ProjItem002
100
AcDbLine
 10
66.309564527
 20
79.460112875
 30
0.000000000
 11
131.468237398
 21
79.460112875
 31
0.000000000
  0
ARC
  5
AAE
330
A02
100
AcDbEntity
  8
ProjItem002
100
AcDbCircle
 10
131.468237398
 20
71.960112875
 30
0.000000000
 40
7.500000000
100
AcDbArc
 50
19.999999999
 51
90.000000000
  0
ARC
  5
AAF
330
A02
100
AcDbEntity
  8
ProjItem002
100
AcDbCircle
 10
142.283345937
 20
53.210112875
 30
0.000000000
 40
1.500000000
100
AcDbArc
 50
-90.000000000
 51
19.999999999
  0
LINE
  5
AB0
330
A02
100
AcDbEntity
  8
ProjItem002
100
AcDbLine
 10
55.494455988
 20
51.710112875
 30
0.000000000
 11
142.283345937
 21
51.710112875
 31
0.000000000
  0
LINE
  5
AB1
330
A02
100
AcDbEntity
  8
ProjItem002
100
AcDbLine
 10
143.692884868
 20
53.723143090
 30
0.000000000
 11
136.401623657
 21
73.755718627
 31
0.000000000
  0
ARC
  5
AB2
330
A02
100
AcDbEntity
  8
ProjItem002
100
AcDbCircle
 10
55.494455988
 20
53.210112875
 30
0.000000000
 40
1.500000000
100
AcDbArc
 50
160.000000001
 51
-90.000000000
  0
ARC
  5
AB3
330
A02
100
AcDbEntity
  8
ProjItem002
100
AcDbCircle
 10
131.468237398
 20
71.960112875
 30
0.000000000
 40
5.250000000
100
AcDbArc
 50
19.999999999
 51
90.000000000
  0
LINE
  5
AB4
330
A02
100
AcDbEntity
  8
ProjItem002
100
AcDbLine
 10
61.376178268
 20
73.755718627
 30
0.000000000
 11
54.084917057
 21
53.723143090
 31
0.000000000
  0
LINE
  5
AB5
330
A02
100
AcDbEntity
  8
ProjItem002
100
AcDbLine
 10
131.468237398
 20
77.210112875
 30
0.000000000
 11
66.309564527
 21
77.210112875
 31
0.000000000
  0
ARC
  5
AB6
330
A02
100
AcDbEntity
  8
ProjItem002
100
AcDbCircle
 10
66.309564527
 20
71.960112875
 30
0.000000000
 40
5.250000000
100
AcDbArc
 50
90.000000000
 51
160.000000001
  0
ARC
  5
AB7
330
A02
100
AcDbEntity
  8
ProjItem002
100
AcDbCircle
 10
55.494455988
 20
53.210112875
 30
0.000000000
 40
3.750000000
100
AcDbArc
 50
160.000000001
 51
-90.000000000
  0
SPLINE
  5
AB8
330
A02
100
AcDbEntity
  8
ProjItem002
100
AcDbSpline
210
0
220
0
230
1
 70
8
 71
3
 72
26
 73
22
 74
0
 40
0.000000000
 40
0.000000000
 40
0.000000000
 40
0.000000000
 40
0.112199738
 40
0.112199738
 40
0.112199738
 40
0.224399475
 40
0.224399475
 40
0.224399475
 40
0.336599213
 40
0.336599213
 40
0.336599213
 40
0.448798951
 40
0.448798951
 40
0.448798951
 40
0.560998688
 40
0.560998688
 40
0.560998688
 40
0.785398163
 40
0.785398163
 40
0.785398163
 40
1.570796327
 40
1.570796327
 40
1.570796327
 40
1.570796327
 10
142.283345937
 20
49.460112875
 30
0.000000000
 10
142.283345937
 20
49.461684822
 30
0.000000000
 10
142.283345937
 20
49.463256770
 30
0.000000000
 10
142.283345937
 20
49.464828717
 30
0.000000000
 10
142.283345937
 20
49.469524792
 30
0.000000000
 10
142.283345937
 20
49.474220866
 30
0.000000000
 10
142.283345937
 20
49.478916940
 30
0.000000000
 10
142.283345937
 20
49.486678086
 30
0.000000000
 10
142.283345937
 20
49.494439231
 30
0.000000000
 10
142.283345937
 20
49.502200377
 30
0.000000000
 10
142.283345937
 20
49.512928992
 30
0.000000000
 10
142.283345937
 20
49.523657608
 30
0.000000000
 10
142.283345937
 20
49.534386224
 30
0.000000000
 10
142.283345937
 20
49.547947391
 30
0.000000000
 10
142.283345937
 20
49.561508558
 30
0.000000000
 10
142.283345937
 20
49.575069725
 30
0.000000000
 10
142.283345937
 20
49.606137547
 30
0.000000000
 10
142.283345937
 20
49.641041902
 30
0.000000000
 10
142.283345937
 20
49.679782789
 30
0.000000000
 10
142.283345937
 20
49.819406373
 30
0.000000000
 10
142.283345937
 20
50.013305630
 30
0.000000000
 10
142.283345937
 20
50.210112875
 30
0.000000000
  0
LINE
  5
AB9
330
A02
100
AcDbEntity
  8
ProjItem002
100
AcDbLine
 10
142.283345937
 20
50.210112875
 30
0.000000000
 11
55.494455988
 21
50.210112875
 31
0.000000000
  0
SPLINE
  5
ABA
330
A02
100
AcDbEntity
  8
ProjItem002
100
AcDbSpline
210
0
220
0
230
1
 70
8
 71
3
 72
26
 73
22
 74
0
 40
0.000000000
 40
0.000000000
 40
0.000000000
 40
0.000000000
 40
0.112199738
 40
0.112199738
 40
0.112199738
 40
0.224399475
 40
0.224399475
 40
0.224399475
 40
0.336599213
 40
0.336599213
 40
0.336599213
 40
0.448798951
 40
0.448798951
 40
0.448798951
 40
0.560998688
 40
0.560998688
 40
0.560998688
 40
0.785398163
 40
0.785398163
 40
0.785398163
 40
1.570796327
 40
1.570796327
 40
1.570796327
 40
1.570796327
 10
55.494455988
 20
49.460112875
 30
0.000000000
 10
55.494455988
 20
49.461684822
 30
0.000000000
 10
55.494455988
 20
49.463256770
 30
0.000000000
 10
55.494455988
 20
49.464828717
 30
0.000000000
 10
55.494455988
 20
49.469524792
 30
0.000000000
 10
55.494455988
 20
49.474220866
 30
0.000000000
 10
55.494455988
 20
49.478916940
 30
0.000000000
 10
55.494455988
 20
49.486678086
 30
0.000000000
 10
55.494455988
 20
49.494439231
 30
0.000000000
 10
55.494455988
 20
49.502200377
 30
0.000000000
 10
55.494455988
 20
49.512928992
 30
0.000000000
 10
55.494455988
 20
49.523657608
 30
0.000000000
 10
55.494455988
 20
49.534386224
 30
0.000000000
 10
55.494455988
 20
49.547947391
 30
0.000000000
 10
55.494455988
 20
49.561508558
 30
0.000000000
 10
55.494455988
 20
49.575069725
 30
0.000000000
 10
55.494455988
 20
49.606137547
 30
0.000000000
 10
55.494455988
 20
49.641041902
 30
0.000000000
 10
55.494455988
 20
49.679782789
 30
0.000000000
 10
55.494455988
 20
49.819406373
 30
0.000000000
 10
55.494455988
 20
50.013305630
 30
0.000000000
 10
55.494455988
 20
50.210112875
 30
0.000000000
  0
ARC
  5
ABB
330
A02
100
AcDbEntity
  8
ProjItem002
100
AcDbCircle
 10
142.283345937
 20
53.210112875
 30
0.000000000
 40
3.750000000
100
AcDbArc
 50
-90.000000000
 51
19.999999999
  0
ARC
  5
ABC
330
A02
100
AcDbEntity
  8
ProjItem002
100
AcDbCircle
 10
55.494455988
 20
53.210112875
 30
0.000000000
 40
3.000000000
100
AcDbArc
 50
160.000000001
 51
-90.000000000
  0
SPLINE
  5
ABD
330
A02
100
AcDbEntity
  8
ProjItem002
100
AcDbSpline
210
0
220
0
230
1
 70
8
 71
3
 72
26
 73
22
 74
0
 40
0.000000000
 40
0.000000000
 40
0.000000000
 40
0.000000000
 40
0.112199738
 40
0.112199738
 40
0.112199738
 40
0.224399475
 40
0.224399475
 40
0.224399475
 40
0.336599213
 40
0.336599213
 40
0.336599213
 40
0.448798951
 40
0.448798951
 40
0.448798951
 40
0.560998688
 40
0.560998688
 40
0.560998688
 40
0.785398163
 40
0.785398163
 40
0.785398163
 40
1.570796327
 40
1.570796327
 40
1.570796327
 40
1.570796327
 10
51.970608660
 20
54.492688412
 30
0.000000000
 10
51.972085807
 20
54.492150774
 30
0.000000000
 10
51.973562955
 20
54.491613137
 30
0.000000000
 10
51.975040102
 20
54.491075499
 30
0.000000000
 10
51.979452969
 20
54.489469347
 30
0.000000000
 10
51.983865835
 20
54.487863195
 30
0.000000000
 10
51.988278702
 20
54.486257043
 30
0.000000000
 10
51.995571793
 20
54.483602575
 30
0.000000000
 10
52.002864884
 20
54.480948107
 30
0.000000000
 10
52.010157975
 20
54.478293638
 30
0.000000000
 10
52.020239576
 20
54.474624236
 30
0.000000000
 10
52.030321177
 20
54.470954833
 30
0.000000000
 10
52.040402778
 20
54.467285431
 30
0.000000000
 10
52.053146107
 20
54.462647238
 30
0.000000000
 10
52.065889435
 20
54.458009046
 30
0.000000000
 10
52.078632764
 20
54.453370854
 30
0.000000000
 10
52.107826967
 20
54.442745033
 30
0.000000000
 10
52.140626331
 20
54.430807040
 30
0.000000000
 10
52.177030857
 20
54.417556877
 30
0.000000000
 10
52.308234109
 20
54.369802798
 30
0.000000000
 10
52.490439810
 20
54.303485346
 30
0.000000000
 10
52.675378125
 20
54.236173305
 30
0.000000000
  0
SPLINE
  5
ABE
330
A02
100
AcDbEntity
  8
ProjItem002
100
AcDbSpline
210
0
220
0
230
1
 70
8
 71
3
 72
26
 73
22
 74
0
 40
0.000000000
 40
0.000000000
 40
0.000000000
 40
0.000000000
 40
0.112199738
 40
0.112199738
 40
0.112199738
 40
0.224399475
 40
0.224399475
 40
0.224399475
 40
0.336599213
 40
0.336599213
 40
0.336599213
 40
0.448798951
 40
0.448798951
 40
0.448798951
 40
0.560998688
 40
0.560998688
 40
0.560998688
 40
0.785398163
 40
0.785398163
 40
0.785398163
 40
1.570796327
 40
1.570796327
 40
1.570796327
 40
1.570796327
 10
145.807193265
 20
54.492688412
 30
0.000000000
 10
145.805716118
 20
54.492150774
 30
0.000000000
 10
145.804238970
 20
54.491613137
 30
0.000000000
 10
145.802761823
 20
54.491075499
 30
0.000000000
 10
145.798348956
 20
54.489469347
 30
0.000000000
 10
145.793936090
 20
54.487863195
 30
0.000000000
 10
145.789523223
 20
54.486257043
 30
0.000000000
 10
145.782230132
 20
54.483602575
 30
0.000000000
 10
145.774937041
 20
54.480948107
 30
0.000000000
 10
145.767643950
 20
54.478293638
 30
0.000000000
 10
145.757562349
 20
54.474624236
 30
0.000000000
 10
145.747480748
 20
54.470954833
 30
0.000000000
 10
145.737399147
 20
54.467285431
 30
0.000000000
 10
145.724655818
 20
54.462647238
 30
0.000000000
 10
145.711912490
 20
54.458009046
 30
0.000000000
 10
145.699169161
 20
54.453370854
 30
0.000000000
 10
145.669974958
 20
54.442745033
 30
0.000000000
 10
145.637175594
 20
54.430807040
 30
0.000000000
 10
145.600771068
 20
54.417556877
 30
0.000000000
 10
145.469567816
 20
54.369802798
 30
0.000000000
 10
145.287362115
 20
54.303485346
 30
0.000000000
 10
145.102423800
 20
54.236173305
 30
0.000000000
  0
ARC
  5
ABF
330
A02
100
AcDbEntity
  8
ProjItem002
100
AcDbCircle
 10
142.283345937
 20
53.210112875
 30
0.000000000
 40
3.000000000
100
AcDbArc
 50
-90.000000000
 51
19.999999999
  0
LINE
  5
AC0
330
A02
100
AcDbEntity
  8
ProjItem002
100
AcDbLine
 10
52.675378125
 20
54.236173305
 30
0.000000000
 11
59.966639336
 21
74.268748842
 31
0.000000000
  0
ARC
  5
AC1
330
A02
100
AcDbEntity
  8
ProjItem002
100
AcDbCircle
 10
66.309564527
 20
71.960112875
 30
0.000000000
 40
6.750000000
100
AcDbArc
 50
90.000000000
 51
160.000000001
  0
LINE
  5
AC2
330
A02
100
AcDbEntity
  8
ProjItem002
100
AcDbLine
 10
66.309564527
 20
78.710112875
 30
0.000000000
 11
131.468237398
 21
78.710112875
 31
0.000000000
  0
ARC
  5
AC3
330
A02
100
AcDbEntity
  8
ProjItem002
100
AcDbCircle
 10
131.468237398
 20
71.960112875
 30
0.000000000
 40
6.750000000
100
AcDbArc
 50
19.999999999
 51
90.000000000
  0
LINE
  5
AC4
330
A02
100
AcDbEntity
  8
ProjItem002
100
AcDbLine
 10
137.811162589
 20
74.268748842
 30
0.000000000
 11
145.102423800
 21
54.236173305
 31
0.000000000
  0
ARC
  5
AC5
330
A02
100
AcDbEntity
  8
ProjItem002
100
AcDbCircle
 10
142.283345937
 20
53.210112875
 30
0.000000000
 40
2.250000000
100
AcDbArc
 50
-90.000000000
 51
19.999999999
  0
LINE
  5
AC6
330
A02
100
AcDbEntity
  8
ProjItem002
100
AcDbLine
 10
55.494455988
 20
50.960112875
 30
0.000000000
 11
142.283345937
 21
50.960112875
 31
0.000000000
  0
LINE
  5
AC7
330
A02
100
AcDbEntity
  8
ProjItem002
100
AcDbLine
 10
144.397654334
 20
53.979658197
 30
0.000000000
 11
137.106393123
 21
74.012233735
 31
0.000000000
  0
ARC
  5
AC8
330
A02
100
AcDbEntity
  8
ProjItem002
100
AcDbCircle
 10
55.494455988
 20
53.210112875
 30
0.000000000
 40
2.250000000
100
AcDbArc
 50
160.000000001
 51
-90.000000000
  0
ARC
  5
AC9
330
A02
100
AcDbEntity
  8
ProjItem002
100
AcDbCircle
 10
131.468237398
 20
71.960112875
 30
0.000000000
 40
6.000000000
100
AcDbArc
 50
19.999999999
 51
90.000000000
  0
LINE
  5
ACA
330
A02
100
AcDbEntity
  8
ProjItem002
100
AcDbLine
 10
60.671408802
 20
74.012233735
 30
0.000000000
 11
53.380147591
 21
53.979658197
 31
0.000000000
  0
LINE
  5
ACB
330
A02
100
AcDbEntity
  8
ProjItem002
100
AcDbLine
 10
131.468237398
 20
77.960112875
 30
0.000000000
 11
66.309564527
 21
77.960112875
 31
0.000000000
  0
ARC
  5
ACC
330
A02
100
AcDbEntity
  8
ProjItem002
100
AcDbCircle
 10
66.309564527
 20
71.960112875
 30
0.000000000
 40
6.000000000
100
AcDbArc
 50
90.000000000
 51
160.000000001
  0
SPLINE
  5
ACD
330
A02
100
AcDbEntity
  8
ProjItem002
100
AcDbSpline
210
0
220
0
230
1
 70
8
 71
3
 72
26
 73
22
 74
0
 40
0.000000000
 40
0.000000000
 40
0.000000000
 40
0.000000000
 40
0.112199738
 40
0.112199738
 40
0.112199738
 40
0.224399475
 40
0.224399475
 40
0.224399475
 40
0.336599213
 40
0.336599213
 40
0.336599213
 40
0.448798951
 40
0.448798951
 40
0.448798951
 40
0.560998688
 40
0.560998688
 40
0.560998688
 40
0.785398163
 40
0.785398163
 40
0.785398163
 40
1.570796327
 40
1.570796327
 40
1.570796327
 40
1.570796327
 10
59.261869871
 20
74.525263949
 30
0.000000000
 10
59.263347018
 20
74.524726312
 30
0.000000000
 10
59.264824166
 20
74.524188674
 30
0.000000000
 10
59.266301313
 20
74.523651036
 30
0.000000000
 10
59.270714180
 20
74.522044884
 30
0.000000000
 10
59.275127046
 20
74.520438732
 30
0.000000000
 10
59.279539913
 20
74.518832580
 30
0.000000000
 10
59.286833004
 20
74.516178112
 30
0.000000000
 10
59.294126095
 20
74.513523644
 30
0.000000000
 10
59.301419186
 20
74.510869176
 30
0.000000000
 10
59.311500787
 20
74.507199773
 30
0.000000000
 10
59.321582388
 20
74.503530371
 30
0.000000000
 10
59.331663989
 20
74.499860968
 30
0.000000000
 10
59.344407318
 20
74.495222776
 30
0.000000000
 10
59.357150646
 20
74.490584583
 30
0.000000000
 10
59.369893975
 20
74.485946391
 30
0.000000000
 10
59.399088178
 20
74.475320570
 30
0.000000000
 10
59.431887542
 20
74.463382578
 30
0.000000000
 10
59.468292068
 20
74.450132414
 30
0.000000000
 10
59.599495320
 20
74.402378336
 30
0.000000000
 10
59.781701021
 20
74.336060884
 30
0.000000000
 10
59.966639336
 20
74.268748842
 30
0.000000000
  0
ARC
  5
ACE
330
A02
100
AcDbEntity
  8
ProjItem002
100
AcDbCircle
 10
66.309564527
 20
71.960112875
 30
0.000000000
 40
7.500000000
100
AcDbArc
 50
90.000000000
 51
160.000000001
  0
SPLINE
  5
ACF
330
A02
100
AcDbEntity
  8
ProjItem002
100
AcDbSpline
210
0
220
0
230
1
 70
8
 71
3
 72
26
 73
22
 74
0
 40
0.000000000
 40
0.000000000
 40
0.000000000
 40
0.000000000
 40
0.112199738
 40
0.112199738
 40
0.112199738
 40
0.224399475
 40
0.224399475
 40
0.224399475
 40
0.336599213
 40
0.336599213
 40
0.336599213
 40
0.448798951
 40
0.448798951
 40
0.448798951
 40
0.560998688
 40
0.560998688
 40
0.560998688
 40
0.785398163
 40
0.785398163
 40
0.785398163
 40
1.570796327
 40
1.570796327
 40
1.570796327
 40
1.570796327
 10
138.515932054
 20
74.525263949
 30
0.000000000
 10
138.514454907
 20
74.524726312
 30
0.000000000
 10
138.512977759
 20
74.524188674
 30
0.000000000
 10
138.511500612
 20
74.523651036
 30
0.000000000
 10
138.507087745
 20
74.522044884
 30
0.000000000
 10
138.502674879
 20
74.520438732
 30
0.000000000
 10
138.498262012
 20
74.518832580
 30
0.000000000
 10
138.490968921
 20
74.516178112
 30
0.000000000
 10
138.483675830
 20
74.513523644
 30
0.000000000
 10
138.476382739
 20
74.510869176
 30
0.000000000
 10
138.466301138
 20
74.507199773
 30
0.000000000
 10
138.456219537
 20
74.503530371
 30
0.000000000
 10
138.446137936
 20
74.499860968
 30
0.000000000
 10
138.433394607
 20
74.495222776
 30
0.000000000
 10
138.420651279
 20
74.490584583
 30
0.000000000
 10
138.407907950
 20
74.485946391
 30
0.000000000
 10
138.378713747
 20
74.475320570
 30
0.000000000
 10
138.345914383
 20
74.463382578
 30
0.000000000
 10
138.309509857
 20
74.450132414
 30
0.000000000
 10
138.178306605
 20
74.402378336
 30
0.000000000
 10
137.996100904
 20
74.336060884
 30
0.000000000
 10
137.811162589
 20
74.268748842
 30
0.000000000
  0
SPLINE
  5
AD0
330
A02
100
AcDbEntity
  8
ProjItem002
100
AcDbSpline
210
0
220
0
230
1
 70
8
 71
3
 72
26
 73
22
 74
0
 40
0.000000000
 40
0.000000000
 40
0.000000000
 40
0.000000000
 40
0.112199738
 40
0.112199738
 40
0.112199738
 40
0.224399475
 40
0.224399475
 40
0.224399475
 40
0.336599213
 40
0.336599213
 40
0.336599213
 40
0.448798951
 40
0.448798951
 40
0.448798951
 40
0.560998688
 40
0.560998688
 40
0.560998688
 40
0.785398163
 40
0.785398163
 40
0.785398163
 40
1.570796327
 40
1.570796327
 40
1.570796327
 40
1.570796327
 10
66.309564527
 20
79.460112875
 30
0.000000000
 10
66.309564527
 20
79.458540927
 30
0.000000000
 10
66.309564527
 20
79.456968980
 30
0.000000000
 10
66.309564527
 20
79.455397032
 30
0.000000000
 10
66.309564527
 20
79.450700958
 30
0.000000000
 10
66.309564527
 20
79.446004883
 30
0.000000000
 10
66.309564527
 20
79.441308809
 30
0.000000000
 10
66.309564527
 20
79.433547663
 30
0.000000000
 10
66.309564527
 20
79.425786518
 30
0.000000000
 10
66.309564527
 20
79.418025372
 30
0.000000000
 10
66.309564527
 20
79.407296757
 30
0.000000000
 10
66.309564527
 20
79.396568141
 30
0.000000000
 10
66.309564527
 20
79.385839526
 30
0.000000000
 10
66.309564527
 20
79.372278358
 30
0.000000000
 10
66.309564527
 20
79.358717191
 30
0.000000000
 10
66.309564527
 20
79.345156024
 30
0.000000000
 10
66.309564527
 20
79.314088202
 30
0.000000000
 10
66.309564527
 20
79.279183848
 30
0.000000000
 10
66.309564527
 20
79.240442961
 30
0.000000000
 10
66.309564527
 20
79.100819376
 30
0.000000000
 10
66.309564527
 20
78.906920119
 30
0.000000000
 10
66.309564527
 20
78.710112875
 30
0.000000000
  0
SPLINE
  5
AD1
330
A02
100
AcDbEntity
  8
ProjItem002
100
AcDbSpline
210
0
220
0
230
1
 70
8
 71
3
 72
26
 73
22
 74
0
 40
0.000000000
 40
0.000000000
 40
0.000000000
 40
0.000000000
 40
0.112199738
 40
0.112199738
 40
0.112199738
 40
0.224399475
 40
0.224399475
 40
0.224399475
 40
0.336599213
 40
0.336599213
 40
0.336599213
 40
0.448798951
 40
0.448798951
 40
0.448798951
 40
0.560998688
 40
0.560998688
 40
0.560998688
 40
0.785398163
 40
0.785398163
 40
0.785398163
 40
1.570796327
 40
1.570796327
 40
1.570796327
 40
1.570796327
 10
131.468237398
 20
79.460112875
 30
0.000000000
 10
131.468237398
 20
79.458540927
 30
0.000000000
 10
131.468237398
 20
79.456968980
 30
0.000000000
 10
131.468237398
 20
79.455397032
 30
0.000000000
 10
131.468237398
 20
79.450700958
 30
0.000000000
 10
131.468237398
 20
79.446004883
 30
0.000000000
 10
131.468237398
 20
79.441308809
 30
0.000000000
 10
131.468237398
 20
79.433547663
 30
0.000000000
 10
131.468237398
 20
79.425786518
 30
0.000000000
 10
131.468237398
 20
79.418025372
 30
0.000000000
 10
131.468237398
 20
79.407296757
 30
0.000000000
 10
131.468237398
 20
79.396568141
 30
0.000000000
 10
131.468237398
 20
79.385839526
 30
0.000000000
 10
131.468237398
 20
79.372278358
 30
0.000000000
 10
131.468237398
 20
79.358717191
 30
0.000000000
 10
131.468237398
 20
79.345156024
 30
0.000000000
 10
131.468237398
 20
79.314088202
 30
0.000000000
 10
131.468237398
 20
79.279183848
 30
0.000000000
 10
131.468237398
 20
79.240442961
 30
0.000000000
 10
131.468237398
 20
79.100819376
 30
0.000000000
 10
131.468237398
 20
78.906920119
 30
0.000000000
 10
131.468237398
 20
78.710112875
 30
0.000000000
  0
SPLINE
  5
AD2
330
A02
100
AcDbEntity
  8
ProjItem002
100
AcDbSpline
210
0
220
0
230
1
 70
8
 71
3
 72
26
 73
22
 74
0
 40
1.570796327
 40
1.570796327
 40
1.570796327
 40
1.570796327
 40
2.356194490
 40
2.356194490
 40
2.356194490
 40
2.468394228
 40
2.468394228
 40
2.468394228
 40
2.692793703
 40
2.692793703
 40
2.692793703
 40
2.804993441
 40
2.804993441
 40
2.804993441
 40
2.917193178
 40
2.917193178
 40
2.917193178
 40
3.029392916
 40
3.029392916
 40
3.029392916
 40
3.141592654
 40
3.141592654
 40
3.141592654
 40
3.141592654
 10
142.283345937
 20
50.960112875
 30
0.000000000
 10
142.283345937
 20
51.156920119
 30
0.000000000
 10
142.283345937
 20
51.350819376
 30
0.000000000
 10
142.283345937
 20
51.490442961
 30
0.000000000
 10
142.283345937
 20
51.509124136
 30
0.000000000
 10
142.283345937
 20
51.527805311
 30
0.000000000
 10
142.283345937
 20
51.546486486
 30
0.000000000
 10
142.283345937
 20
51.580425801
 30
0.000000000
 10
142.283345937
 20
51.610210148
 30
0.000000000
 10
142.283345937
 20
51.635839526
 30
0.000000000
 10
142.283345937
 20
51.646568141
 30
0.000000000
 10
142.283345937
 20
51.657296757
 30
0.000000000
 10
142.283345937
 20
51.668025372
 30
0.000000000
 10
142.283345937
 20
51.675786518
 30
0.000000000
 10
142.283345937
 20
51.683547663
 30
0.000000000
 10
142.283345937
 20
51.691308809
 30
0.000000000
 10
142.283345937
 20
51.696004883
 30
0.000000000
 10
142.283345937
 20
51.700700958
 30
0.000000000
 10
142.283345937
 20
51.705397032
 30
0.000000000
 10
142.283345937
 20
51.706968980
 30
0.000000000
 10
142.283345937
 20
51.708540927
 30
0.000000000
 10
142.283345937
 20
51.710112875
 30
0.000000000
  0
SPLINE
  5
AD3
330
A02
100
AcDbEntity
  8
ProjItem002
100
AcDbSpline
210
0
220
0
230
1
 70
8
 71
3
 72
26
 73
22
 74
0
 40
1.570796327
 40
1.570796327
 40
1.570796327
 40
1.570796327
 40
2.356194490
 40
2.356194490
 40
2.356194490
 40
2.468394228
 40
2.468394228
 40
2.468394228
 40
2.692793703
 40
2.692793703
 40
2.692793703
 40
2.804993441
 40
2.804993441
 40
2.804993441
 40
2.917193178
 40
2.917193178
 40
2.917193178
 40
3.029392916
 40
3.029392916
 40
3.029392916
 40
3.141592654
 40
3.141592654
 40
3.141592654
 40
3.141592654
 10
144.397654334
 20
53.979658197
 30
0.000000000
 10
144.212716019
 20
53.912346155
 30
0.000000000
 10
144.030510317
 20
53.846028703
 30
0.000000000
 10
143.899307066
 20
53.798274625
 30
0.000000000
 10
143.881752503
 20
53.791885287
 30
0.000000000
 10
143.864197941
 20
53.785495949
 30
0.000000000
 10
143.846643378
 20
53.779106610
 30
0.000000000
 10
143.814750854
 20
53.767498681
 30
0.000000000
 10
143.786762724
 20
53.757311835
 30
0.000000000
 10
143.762678987
 20
53.748546071
 30
0.000000000
 10
143.752597386
 20
53.744876668
 30
0.000000000
 10
143.742515785
 20
53.741207266
 30
0.000000000
 10
143.732434184
 20
53.737537863
 30
0.000000000
 10
143.725141093
 20
53.734883395
 30
0.000000000
 10
143.717848002
 20
53.732228927
 30
0.000000000
 10
143.710554910
 20
53.729574459
 30
0.000000000
 10
143.706142044
 20
53.727968307
 30
0.000000000
 10
143.701729177
 20
53.726362155
 30
0.000000000
 10
143.697316311
 20
53.724756003
 30
0.000000000
 10
143.695839163
 20
53.724218365
 30
0.000000000
 10
143.694362016
 20
53.723680727
 30
0.000000000
 10
143.692884868
 20
53.723143090
 30
0.000000000
  0
SPLINE
  5
AD4
330
A02
100
AcDbEntity
  8
ProjItem002
100
AcDbSpline
210
0
220
0
230
1
 70
8
 71
3
 72
26
 73
22
 74
0
 40
1.570796327
 40
1.570796327
 40
1.570796327
 40
1.570796327
 40
2.356194490
 40
2.356194490
 40
2.356194490
 40
2.468394228
 40
2.468394228
 40
2.468394228
 40
2.692793703
 40
2.692793703
 40
2.692793703
 40
2.804993441
 40
2.804993441
 40
2.804993441
 40
2.917193178
 40
2.917193178
 40
2.917193178
 40
3.029392916
 40
3.029392916
 40
3.029392916
 40
3.141592654
 40
3.141592654
 40
3.141592654
 40
3.141592654
 10
55.494455988
 20
50.960112875
 30
0.000000000
 10
55.494455988
 20
51.156920119
 30
0.000000000
 10
55.494455988
 20
51.350819376
 30
0.000000000
 10
55.494455988
 20
51.490442961
 30
0.000000000
 10
55.494455988
 20
51.509124136
 30
0.000000000
 10
55.494455988
 20
51.527805311
 30
0.000000000
 10
55.494455988
 20
51.546486486
 30
0.000000000
 10
55.494455988
 20
51.580425801
 30
0.000000000
 10
55.494455988
 20
51.610210148
 30
0.000000000
 10
55.494455988
 20
51.635839526
 30
0.000000000
 10
55.494455988
 20
51.646568141
 30
0.000000000
 10
55.494455988
 20
51.657296757
 30
0.000000000
 10
55.494455988
 20
51.668025372
 30
0.000000000
 10
55.494455988
 20
51.675786518
 30
0.000000000
 10
55.494455988
 20
51.683547663
 30
0.000000000
 10
55.494455988
 20
51.691308809
 30
0.000000000
 10
55.494455988
 20
51.696004883
 30
0.000000000
 10
55.494455988
 20
51.700700958
 30
0.000000000
 10
55.494455988
 20
51.705397032
 30
0.000000000
 10
55.494455988
 20
51.706968980
 30
0.000000000
 10
55.494455988
 20
51.708540927
 30
0.000000000
 10
55.494455988
 20
51.710112875
 30
0.000000000
  0
SPLINE
  5
AD5
330
A02
100
AcDbEntity
  8
ProjItem002
100
AcDbSpline
210
0
220
0
230
1
 70
8
 71
3
 72
26
 73
22
 74
0
 40
0.000000000
 40
0.000000000
 40
0.000000000
 40
0.000000000
 40
0.785398163
 40
0.785398163
 40
0.785398163
 40
0.897597901
 40
0.897597901
 40
0.897597901
 40
1.121997376
 40
1.121997376
 40
1.121997376
 40
1.234197114
 40
1.234197114
 40
1.234197114
 40
1.346396852
 40
1.346396852
 40
1.346396852
 40
1.458596589
 40
1.458596589
 40
1.458596589
 40
1.570796327
 40
1.570796327
 40
1.570796327
 40
1.570796327
 10
137.106393123
 20
74.012233735
 30
0.000000000
 10
136.921454808
 20
73.944921693
 30
0.000000000
 10
136.739249106
 20
73.878604241
 30
0.000000000
 10
136.608045855
 20
73.830850163
 30
0.000000000
 10
136.590491292
 20
73.824460824
 30
0.000000000
 10
136.572936730
 20
73.818071486
 30
0.000000000
 10
136.555382167
 20
73.811682148
 30
0.000000000
 10
136.523489643
 20
73.800074218
 30
0.000000000
 10
136.495501513
 20
73.789887372
 30
0.000000000
 10
136.471417775
 20
73.781121609
 30
0.000000000
 10
136.461336175
 20
73.777452206
 30
0.000000000
 10
136.451254574
 20
73.773782803
 30
0.000000000
 10
136.441172973
 20
73.770113401
 30
0.000000000
 10
136.433879882
 20
73.767458932
 30
0.000000000
 10
136.426586791
 20
73.764804464
 30
0.000000000
 10
136.419293699
 20
73.762149996
 30
0.000000000
 10
136.414880833
 20
73.760543844
 30
0.000000000
 10
136.410467966
 20
73.758937692
 30
0.000000000
 10
136.406055100
 20
73.757331540
 30
0.000000000
 10
136.404577952
 20
73.756793902
 30
0.000000000
 10
136.403100805
 20
73.756256265
 30
0.000000000
 10
136.401623657
 20
73.755718627
 30
0.000000000
  0
SPLINE
  5
AD6
330
A02
100
AcDbEntity
  8
ProjItem002
100
AcDbSpline
210
0
220
0
230
1
 70
8
 71
3
 72
26
 73
22
 74
0
 40
0.000000000
 40
0.000000000
 40
0.000000000
 40
0.000000000
 40
0.785398163
 40
0.785398163
 40
0.785398163
 40
0.897597901
 40
0.897597901
 40
0.897597901
 40
1.121997376
 40
1.121997376
 40
1.121997376
 40
1.234197114
 40
1.234197114
 40
1.234197114
 40
1.346396852
 40
1.346396852
 40
1.346396852
 40
1.458596589
 40
1.458596589
 40
1.458596589
 40
1.570796327
 40
1.570796327
 40
1.570796327
 40
1.570796327
 10
53.380147591
 20
53.979658197
 30
0.000000000
 10
53.565085906
 20
53.912346155
 30
0.000000000
 10
53.747291608
 20
53.846028703
 30
0.000000000
 10
53.878494859
 20
53.798274625
 30
0.000000000
 10
53.896049422
 20
53.791885287
 30
0.000000000
 10
53.913603984
 20
53.785495949
 30
0.000000000
 10
53.931158547
 20
53.779106610
 30
0.000000000
 10
53.963051071
 20
53.767498681
 30
0.000000000
 10
53.991039201
 20
53.757311835
 30
0.000000000
 10
54.015122938
 20
53.748546071
 30
0.000000000
 10
54.025204539
 20
53.744876668
 30
0.000000000
 10
54.035286140
 20
53.741207266
 30
0.000000000
 10
54.045367741
 20
53.737537863
 30
0.000000000
 10
54.052660832
 20
53.734883395
 30
0.000000000
 10
54.059953923
 20
53.732228927
 30
0.000000000
 10
54.067247015
 20
53.729574459
 30
0.000000000
 10
54.071659881
 20
53.727968307
 30
0.000000000
 10
54.076072748
 20
53.726362155
 30
0.000000000
 10
54.080485614
 20
53.724756003
 30
0.000000000
 10
54.081962762
 20
53.724218365
 30
0.000000000
 10
54.083439909
 20
53.723680727
 30
0.000000000
 10
54.084917057
 20
53.723143090
 30
0.000000000
  0
SPLINE
  5
AD7
330
A02
100
AcDbEntity
  8
ProjItem002
100
AcDbSpline
210
0
220
0
230
1
 70
8
 71
3
 72
26
 73
22
 74
0
 40
1.570796327
 40
1.570796327
 40
1.570796327
 40
1.570796327
 40
2.356194490
 40
2.356194490
 40
2.356194490
 40
2.468394228
 40
2.468394228
 40
2.468394228
 40
2.692793703
 40
2.692793703
 40
2.692793703
 40
2.804993441
 40
2.804993441
 40
2.804993441
 40
2.917193178
 40
2.917193178
 40
2.917193178
 40
3.029392916
 40
3.029392916
 40
3.029392916
 40
3.141592654
 40
3.141592654
 40
3.141592654
 40
3.141592654
 10
131.468237398
 20
77.960112875
 30
0.000000000
 10
131.468237398
 20
77.763305630
 30
0.000000000
 10
131.468237398
 20
77.569406373
 30
0.000000000
 10
131.468237398
 20
77.429782789
 30
0.000000000
 10
131.468237398
 20
77.411101613
 30
0.000000000
 10
131.468237398
 20
77.392420438
 30
0.000000000
 10
131.468237398
 20
77.373739263
 30
0.000000000
 10
131.468237398
 20
77.339799948
 30
0.000000000
 10
131.468237398
 20
77.310015602
 30
0.000000000
 10
131.468237398
 20
77.284386224
 30
0.000000000
 10
131.468237398
 20
77.273657608
 30
0.000000000
 10
131.468237398
 20
77.262928992
 30
0.000000000
 10
131.468237398
 20
77.252200377
 30
0.000000000
 10
131.468237398
 20
77.244439231
 30
0.000000000
 10
131.468237398
 20
77.236678086
 30
0.000000000
 10
131.468237398
 20
77.228916940
 30
0.000000000
 10
131.468237398
 20
77.224220866
 30
0.000000000
 10
131.468237398
 20
77.219524792
 30
0.000000000
 10
131.468237398
 20
77.214828717
 30
0.000000000
 10
131.468237398
 20
77.213256770
 30
0.000000000
 10
131.468237398
 20
77.211684822
 30
0.000000000
 10
131.468237398
 20
77.210112875
 30
0.000000000
  0
SPLINE
  5
AD8
330
A02
100
AcDbEntity
  8
ProjItem002
100
AcDbSpline
210
0
220
0
230
1
 70
8
 71
3
 72
26
 73
22
 74
0
 40
1.570796327
 40
1.570796327
 40
1.570796327
 40
1.570796327
 40
2.356194490
 40
2.356194490
 40
2.356194490
 40
2.468394228
 40
2.468394228
 40
2.468394228
 40
2.692793703
 40
2.692793703
 40
2.692793703
 40
2.804993441
 40
2.804993441
 40
2.804993441
 40
2.917193178
 40
2.917193178
 40
2.917193178
 40
3.029392916
 40
3.029392916
 40
3.029392916
 40
3.141592654
 40
3.141592654
 40
3.141592654
 40
3.141592654
 10
60.671408802
 20
74.012233735
 30
0.000000000
 10
60.856347117
 20
73.944921693
 30
0.000000000
 10
61.038552819
 20
73.878604241
 30
0.000000000
 10
61.169756070
 20
73.830850163
 30
0.000000000
 10
61.187310633
 20
73.824460824
 30
0.000000000
 10
61.204865195
 20
73.818071486
 30
0.000000000
 10
61.222419758
 20
73.811682148
 30
0.000000000
 10
61.254312282
 20
73.800074218
 30
0.000000000
 10
61.282300412
 20
73.789887372
 30
0.000000000
 10
61.306384150
 20
73.781121609
 30
0.000000000
 10
61.316465750
 20
73.777452206
 30
0.000000000
 10
61.326547351
 20
73.773782803
 30
0.000000000
 10
61.336628952
 20
73.770113401
 30
0.000000000
 10
61.343922043
 20
73.767458932
 30
0.000000000
 10
61.351215134
 20
73.764804464
 30
0.000000000
 10
61.358508226
 20
73.762149996
 30
0.000000000
 10
61.362921092
 20
73.760543844
 30
0.000000000
 10
61.367333959
 20
73.758937692
 30
0.000000000
 10
61.371746825
 20
73.757331540
 30
0.000000000
 10
61.373223973
 20
73.756793902
 30
0.000000000
 10
61.374701120
 20
73.756256265
 30
0.000000000
 10
61.376178268
 20
73.755718627
 30
0.000000000
  0
SPLINE
  5
AD9
330
A02
100
AcDbEntity
  8
ProjItem002
100
AcDbSpline
210
0
220
0
230
1
 70
8
 71
3
 72
26
 73
22
 74
0
 40
0.000000000
 40
0.000000000
 40
0.000000000
 40
0.000000000
 40
0.785398163
 40
0.785398163
 40
0.785398163
 40
0.897597901
 40
0.897597901
 40
0.897597901
 40
1.121997376
 40
1.121997376
 40
1.121997376
 40
1.234197114
 40
1.234197114
 40
1.234197114
 40
1.346396852
 40
1.346396852
 40
1.346396852
 40
1.458596589
 40
1.458596589
 40
1.458596589
 40
1.570796327
 40
1.570796327
 40
1.570796327
 40
1.570796327
 10
66.309564527
 20
77.960112875
 30
0.000000000
 10
66.309564527
 20
77.763305630
 30
0.000000000
 10
66.309564527
 20
77.569406373
 30
0.000000000
 10
66.309564527
 20
77.429782789
 30
0.000000000
 10
66.309564527
 20
77.411101613
 30
0.000000000
 10
66.309564527
 20
77.392420438
 30
0.000000000
 10
66.309564527
 20
77.373739263
 30
0.000000000
 10
66.309564527
 20
77.339799948
 30
0.000000000
 10
66.309564527
 20
77.310015602
 30
0.000000000
 10
66.309564527
 20
77.284386224
 30
0.000000000
 10
66.309564527
 20
77.273657608
 30
0.000000000
 10
66.309564527
 20
77.262928992
 30
0.000000000
 10
66.309564527
 20
77.252200377
 30
0.000000000
 10
66.309564527
 20
77.244439231
 30
0.000000000
 10
66.309564527
 20
77.236678086
 30
0.000000000
 10
66.309564527
 20
77.228916940
 30
0.000000000
 10
66.309564527
 20
77.224220866
 30
0.000000000
 10
66.309564527
 20
77.219524792
 30
0.000000000
 10
66.309564527
 20
77.214828717
 30
0.000000000
 10
66.309564527
 20
77.213256770
 30
0.000000000
 10
66.309564527
 20
77.211684822
 30
0.000000000
 10
66.309564527
 20
77.210112875
 30
0.000000000
  0
DIMENSION
  5
ADA
330
A02
100
AcDbEntity
  8
Dimension
100
AcDbDimension
  2
*Dimension
 10
36.986984000
 20
111.796418000
 30
0.000000000
 11
41.986984000
 21
111.796418000
 31
0.000000000
 70
1
  1
MagInset
  3
STANDARD
100
AcDbAlignedDimension
 13
62.994455988
 23
124.648367963
 33
0.000000000
 14
62.994455988
 24
132.148367963
 34
0.000000000
  0
DIMENSION
  5
AE4
330
A02
100
AcDbEntity
  8
Dimension001
100
AcDbDimension
  2
*Dimension001
 10
75.750511000
 20
126.413059000
 30
0.000000000
 11
75.750511000
 21
121.413059000
 31
0.000000000
 70
1
  1
MagInset
  3
STANDARD
100
AcDbAlignedDimension
 13
62.994455988
 23
132.148367963
 33
0.000000000
 14
55.494455988
 24
132.148367963
 34
0.000000000
  0
DIMENSION
  5
AEE
330
A02
100
AcDbEntity
  8
Dimension002
100
AcDbDimension
  2
*Dimension002
 10
60.669459067
 20
173.394583949
 30
0.000000000
 11
32.750662000
 21
178.758527000
 31
0.000000000
 70
3
  1
MagDiameter
  3
STANDARD
100
AcDbDiametricDimension
 15
65.319452908
 25
173.402151976
 35
0.000000000
 40
0
  0
DIMENSION
  5
AF6
330
A02
100
AcDbEntity
  8
Dimension003
100
AcDbDimension
  2
*Dimension003
 10
37.514420000
 20
64.460112875
 30
0.000000000
 11
42.514420000
 21
64.460112875
 31
0.000000000
 70
1
  1
Width
  3
STANDARD
100
AcDbAlignedDimension
 13
66.309564527
 23
49.460112875
 33
0.000000000
 14
66.309564527
 24
79.460112875
 34
0.000000000
  0
DIMENSION
  5
B00
330
A02
100
AcDbEntity
  8
Dimension004
100
AcDbDimension
  2
*Dimension004
 10
95.662093000
 20
83.208083875
 30
0.000000000
 11
95.662093000
 21
88.208083875
 31
0.000000000
 70
32
  1
Length
  3
STANDARD
100
AcDbAlignedDimension
 13
51.970608660
 23
54.492688412
 33
0.000000000
 14
145.807193265
 24
54.492688412
 34
0.000000000
100
AcDbRotatedDimension
  0
DIMENSION
  5
B0A
330
A02
100
AcDbEntity
  8
Dimension005
100
AcDbDimension
  2
*Dimension005
 10
155.258591000
 20
152.773368000
 30
0.000000000
 11
150.258591000
 21
152.773368000
 31
0.000000000
 70
32
  1
Depth
  3
STANDARD
100
AcDbAlignedDimension
 13
145.283345937
 23
180.898367963
 33
0.000000000
 14
145.283345937
 24
124.648367963
 34
0.000000000
 50
90
100
AcDbRotatedDimension
  0
DIMENSION
  5
B14
330
A02
100
AcDbEntity
  8
Dimension007
100
AcDbDimension
  2
*Dimension007
 10
136.401623657
 20
73.755718627
 30
0.000000000
 11
126.078784000
 21
64.379779875
 31
0.000000000
 70
2
  1
Angle
  3
STANDARD
100
AcDb2LineAngularDimension
 13
144.425567947
 23
51.710112875
 33
0.000000000
 14
55.494455988
 24
51.710112875
 34
0.000000000
 15
144.425567947
 25
51.710112875
 35
0.000000000
 16
124.764306147
 26
69.203901346
 36
0.000000000
  0
DIMENSION
  5
B1C
330
A02
100
AcDbEntity
  8
Dimension008
100
AcDbDimension
  2
*Dimension008
 10
55.494455988
 20
53.210112875
 30
0.000000000
 11
25.225809000
 21
58.373554875
 31
0.000000000
 70
4
  1
Fillet
  3
STANDARD
100
AcDbRadialDimension
 15
51.744604616
 25
53.243499798
 35
0.000000000
 40
0
  0
DIMENSION
  5
B23
330
A02
100
AcDbEntity
  8
Dimension009
100
AcDbDimension
  2
*Dimension009
 10
66.309564527
 20
71.960112875
 30
0.000000000
 11
28.090396000
 21
82.981862875
 31
0.000000000
 70
4
  1
Fillet*2
  3
STANDARD
100
AcDbRadialDimension
 15
66.309564527
 25
71.960112875
 35
0.000000000
 40
0
  0
DIMENSION
  5
B2A
330
A02
100
AcDbEntity
  8
Dimension010
100
AcDbDimension
  2
*Dimension010
 10
87.242953283
 20
107.513516979
 30
0.000000000
 11
88.953054000
 21
102.815053875
 31
0.000000000
 70
1
  1
Thickness
  3
STANDARD
100
AcDbAlignedDimension
 13
54.084917057
 23
53.723143090
 33
0.000000000
 14
51.970608660
 24
54.492688412
 34
0.000000000
  0
ENDSEC
  0
SECTION
  2
OBJECTS
  0
DICTIONARY
  5
F000
330
0
100
AcDbDictionary
  3
ACAD_GROUP
350
F001
  0
DICTIONARY
  5
F001
330
F000
100
AcDbDictionary
  0
ENDSEC
  0
EOF