ISO-10303-21;
HEADER;
FILE_DESCRIPTION(('FreeCAD Model'),'2;1');
FILE_NAME('Open CASCADE Shape Model','2026-09-08T15:47:22',('FreeCAD'),(
    'FreeCAD'),'Open CASCADE STEP processor 7.8','FreeCAD','Unknown');
FILE_SCHEMA(('AUTOMOTIVE_DESIGN { 1 0 10303 214 1 1 1 1 }'));
ENDSEC;
DATA;
#1 = APPLICATION_PROTOCOL_DEFINITION('international standard',
  'automotive_design',2000,#2);
#2 = APPLICATION_CONTEXT(
  'core data for automotive mechanical design processes');
#3 = SHAPE_DEFINITION_REPRESENTATION(#4,#10);
#4 = PRODUCT_DEFINITION_SHAPE('','',#5);
#5 = PRODUCT_DEFINITION('design','',#6,#9);
#6 = PRODUCT_DEFINITION_FORMATION('','',#7);
#7 = PRODUCT('Open CASCADE STEP translator 7.8 3',
  'Open CASCADE STEP translator 7.8 3','',(#8));
#8 = PRODUCT_CONTEXT('',#2,'mechanical');
#9 = PRODUCT_DEFINITION_CONTEXT('part definition',#2,'design');
#10 = ADVANCED_BREP_SHAPE_REPRESENTATION('',(#11,#15),#496);
#11 = AXIS2_PLACEMENT_3D('',#12,#13,#14);
#12 = CARTESIAN_POINT('',(0.,0.,0.));
#13 = DIRECTION('',(0.,0.,1.));
#14 = DIRECTION('',(1.,0.,-0.));
#15 = MANIFOLD_SOLID_BREP('',#16);
#16 = CLOSED_SHELL('',(#17,#57,#88,#119,#224,#329,#346,#363,#380,#397,
    #409,#426,#448,#465,#482));
#17 = ADVANCED_FACE('',(#18),#52,.T.);
#18 = FACE_BOUND('',#19,.F.);
#19 = EDGE_LOOP('',(#20,#30,#38,#46));
#20 = ORIENTED_EDGE('',*,*,#21,.T.);
#21 = EDGE_CURVE('',#22,#24,#26,.T.);
#22 = VERTEX_POINT('',#23);
#23 = CARTESIAN_POINT('',(-32.,-8.,2.));
#24 = VERTEX_POINT('',#25);
#25 = CARTESIAN_POINT('',(-32.,-8.,3.552713678801E-15));
#26 = LINE('',#27,#28);
#27 = CARTESIAN_POINT('',(-32.,-8.,2.));
#28 = VECTOR('',#29,1.);
#29 = DIRECTION('',(-0.,-2.22044604925E-16,-1.));
#30 = ORIENTED_EDGE('',*,*,#31,.T.);
#31 = EDGE_CURVE('',#24,#32,#34,.T.);
#32 = VERTEX_POINT('',#33);
#33 = CARTESIAN_POINT('',(-12.,-8.,3.552713678801E-15));
#34 = LINE('',#35,#36);
#35 = CARTESIAN_POINT('',(-32.,-8.,3.552713678801E-15));
#36 = VECTOR('',#37,1.);
#37 = DIRECTION('',(1.,0.,0.));
#38 = ORIENTED_EDGE('',*,*,#39,.F.);
#39 = EDGE_CURVE('',#40,#32,#42,.T.);
#40 = VERTEX_POINT('',#41);
#41 = CARTESIAN_POINT('',(-12.,-8.,2.));
#42 = LINE('',#43,#44);
#43 = CARTESIAN_POINT('',(-12.,-8.,2.));
#44 = VECTOR('',#45,1.);
#45 = DIRECTION('',(-0.,-2.22044604925E-16,-1.));
#46 = ORIENTED_EDGE('',*,*,#47,.F.);
#47 = EDGE_CURVE('',#22,#40,#48,.T.);
#48 = LINE('',#49,#50);
#49 = CARTESIAN_POINT('',(-32.,-8.,2.));
#50 = VECTOR('',#51,1.);
#51 = DIRECTION('',(1.,0.,0.));
#52 = PLANE('',#53);
#53 = AXIS2_PLACEMENT_3D('',#54,#55,#56);
#54 = CARTESIAN_POINT('',(-32.,-8.,2.));
#55 = DIRECTION('',(-0.,1.,-2.22044604925E-16));
#56 = DIRECTION('',(-1.,0.,0.));
#57 = ADVANCED_FACE('',(#58),#83,.T.);
#58 = FACE_BOUND('',#59,.F.);
#59 = EDGE_LOOP('',(#60,#70,#76,#77));
#60 = ORIENTED_EDGE('',*,*,#61,.T.);
#61 = EDGE_CURVE('',#62,#64,#66,.T.);
#62 = VERTEX_POINT('',#63);
#63 = CARTESIAN_POINT('',(-38.,-14.,2.));
#64 = VERTEX_POINT('',#65);
#65 = CARTESIAN_POINT('',(-38.,-14.,3.552713678801E-15));
#66 = LINE('',#67,#68);
#67 = CARTESIAN_POINT('',(-38.,-14.,2.));
#68 = VECTOR('',#69,1.);
#69 = DIRECTION('',(-0.,-2.22044604925E-16,-1.));
#70 = ORIENTED_EDGE('',*,*,#71,.T.);
#71 = EDGE_CURVE('',#64,#24,#72,.T.);
#72 = LINE('',#73,#74);
#73 = CARTESIAN_POINT('',(-38.,-14.,7.105427357601E-15));
#74 = VECTOR('',#75,1.);
#75 = DIRECTION('',(0.707106781187,0.707106781187,-1.570092458684E-16));
#76 = ORIENTED_EDGE('',*,*,#21,.F.);
#77 = ORIENTED_EDGE('',*,*,#78,.F.);
#78 = EDGE_CURVE('',#62,#22,#79,.T.);
#79 = LINE('',#80,#81);
#80 = CARTESIAN_POINT('',(-38.,-14.,2.));
#81 = VECTOR('',#82,1.);
#82 = DIRECTION('',(0.707106781187,0.707106781187,-1.570092458684E-16));
#83 = PLANE('',#84);
#84 = AXIS2_PLACEMENT_3D('',#85,#86,#87);
#85 = CARTESIAN_POINT('',(-38.,-14.,2.));
#86 = DIRECTION('',(-0.707106781187,0.707106781187,-1.570092458684E-16)
  );
#87 = DIRECTION('',(-0.707106781187,-0.707106781187,1.570092458684E-16)
  );
#88 = ADVANCED_FACE('',(#89),#114,.T.);
#89 = FACE_BOUND('',#90,.F.);
#90 = EDGE_LOOP('',(#91,#92,#100,#108));
#91 = ORIENTED_EDGE('',*,*,#39,.T.);
#92 = ORIENTED_EDGE('',*,*,#93,.T.);
#93 = EDGE_CURVE('',#32,#94,#96,.T.);
#94 = VERTEX_POINT('',#95);
#95 = CARTESIAN_POINT('',(-6.,-14.,3.552713678801E-15));
#96 = LINE('',#97,#98);
#97 = CARTESIAN_POINT('',(-12.,-8.,3.552713678801E-15));
#98 = VECTOR('',#99,1.);
#99 = DIRECTION('',(0.707106781187,-0.707106781187,1.570092458684E-16));
#100 = ORIENTED_EDGE('',*,*,#101,.F.);
#101 = EDGE_CURVE('',#102,#94,#104,.T.);
#102 = VERTEX_POINT('',#103);
#103 = CARTESIAN_POINT('',(-6.,-14.,2.));
#104 = LINE('',#105,#106);
#105 = CARTESIAN_POINT('',(-6.,-14.,2.));
#106 = VECTOR('',#107,1.);
#107 = DIRECTION('',(-0.,-2.22044604925E-16,-1.));
#108 = ORIENTED_EDGE('',*,*,#109,.F.);
#109 = EDGE_CURVE('',#40,#102,#110,.T.);
#110 = LINE('',#111,#112);
#111 = CARTESIAN_POINT('',(-12.,-8.,2.));
#112 = VECTOR('',#113,1.);
#113 = DIRECTION('',(0.707106781187,-0.707106781187,1.570092458684E-16)
  );
#114 = PLANE('',#115);
#115 = AXIS2_PLACEMENT_3D('',#116,#117,#118);
#116 = CARTESIAN_POINT('',(-12.,-8.,2.));
#117 = DIRECTION('',(0.707106781187,0.707106781187,-1.570092458684E-16)
  );
#118 = DIRECTION('',(-0.707106781187,0.707106781187,-1.570092458684E-16)
  );
#119 = ADVANCED_FACE('',(#120,#163,#174),#219,.T.);
#120 = FACE_BOUND('',#121,.F.);
#121 = EDGE_LOOP('',(#122,#123,#124,#132,#140,#148,#156,#162));
#122 = ORIENTED_EDGE('',*,*,#47,.T.);
#123 = ORIENTED_EDGE('',*,*,#109,.T.);
#124 = ORIENTED_EDGE('',*,*,#125,.T.);
#125 = EDGE_CURVE('',#102,#126,#128,.T.);
#126 = VERTEX_POINT('',#127);
#127 = CARTESIAN_POINT('',(-6.,-62.,2.));
#128 = LINE('',#129,#130);
#129 = CARTESIAN_POINT('',(-6.,-14.,2.));
#130 = VECTOR('',#131,1.);
#131 = DIRECTION('',(0.,-1.,2.22044604925E-16));
#132 = ORIENTED_EDGE('',*,*,#133,.T.);
#133 = EDGE_CURVE('',#126,#134,#136,.T.);
#134 = VERTEX_POINT('',#135);
#135 = CARTESIAN_POINT('',(-12.,-68.,2.));
#136 = LINE('',#137,#138);
#137 = CARTESIAN_POINT('',(-6.,-62.,2.));
#138 = VECTOR('',#139,1.);
#139 = DIRECTION('',(-0.707106781187,-0.707106781187,1.570092458684E-16)
  );
#140 = ORIENTED_EDGE('',*,*,#141,.T.);
#141 = EDGE_CURVE('',#134,#142,#144,.T.);
#142 = VERTEX_POINT('',#143);
#143 = CARTESIAN_POINT('',(-32.,-68.,2.));
#144 = LINE('',#145,#146);
#145 = CARTESIAN_POINT('',(-12.,-68.,2.));
#146 = VECTOR('',#147,1.);
#147 = DIRECTION('',(-1.,0.,-0.));
#148 = ORIENTED_EDGE('',*,*,#149,.T.);
#149 = EDGE_CURVE('',#142,#150,#152,.T.);
#150 = VERTEX_POINT('',#151);
#151 = CARTESIAN_POINT('',(-38.,-62.,2.));
#152 = LINE('',#153,#154);
#153 = CARTESIAN_POINT('',(-32.,-68.,2.));
#154 = VECTOR('',#155,1.);
#155 = DIRECTION('',(-0.707106781187,0.707106781187,-1.570092458684E-16)
  );
#156 = ORIENTED_EDGE('',*,*,#157,.T.);
#157 = EDGE_CURVE('',#150,#62,#158,.T.);
#158 = LINE('',#159,#160);
#159 = CARTESIAN_POINT('',(-38.,-62.,2.));
#160 = VECTOR('',#161,1.);
#161 = DIRECTION('',(-0.,1.,-2.22044604925E-16));
#162 = ORIENTED_EDGE('',*,*,#78,.T.);
#163 = FACE_BOUND('',#164,.F.);
#164 = EDGE_LOOP('',(#165));
#165 = ORIENTED_EDGE('',*,*,#166,.T.);
#166 = EDGE_CURVE('',#167,#167,#169,.T.);
#167 = VERTEX_POINT('',#168);
#168 = CARTESIAN_POINT('',(-29.,-57.3125,2.));
#169 = CIRCLE('',#170,2.65);
#170 = AXIS2_PLACEMENT_3D('',#171,#172,#173);
#171 = CARTESIAN_POINT('',(-29.,-54.6625,2.));
#172 = DIRECTION('',(-0.,2.22044604925E-16,1.));
#173 = DIRECTION('',(0.,-1.,2.22044604925E-16));
#174 = FACE_BOUND('',#175,.F.);
#175 = EDGE_LOOP('',(#176,#186,#195,#203,#212));
#176 = ORIENTED_EDGE('',*,*,#177,.F.);
#177 = EDGE_CURVE('',#178,#180,#182,.T.);
#178 = VERTEX_POINT('',#179);
#179 = CARTESIAN_POINT('',(-26.35,-19.8375,2.));
#180 = VERTEX_POINT('',#181);
#181 = CARTESIAN_POINT('',(-26.35,-22.8375,2.));
#182 = LINE('',#183,#184);
#183 = CARTESIAN_POINT('',(-26.35,-28.91875,2.));
#184 = VECTOR('',#185,1.);
#185 = DIRECTION('',(0.,-1.,2.22044604925E-16));
#186 = ORIENTED_EDGE('',*,*,#187,.T.);
#187 = EDGE_CURVE('',#178,#188,#190,.T.);
#188 = VERTEX_POINT('',#189);
#189 = CARTESIAN_POINT('',(-31.65,-19.8375,2.));
#190 = CIRCLE('',#191,2.65);
#191 = AXIS2_PLACEMENT_3D('',#192,#193,#194);
#192 = CARTESIAN_POINT('',(-29.,-19.8375,2.));
#193 = DIRECTION('',(-0.,2.22044604925E-16,1.));
#194 = DIRECTION('',(0.,-1.,2.22044604925E-16));
#195 = ORIENTED_EDGE('',*,*,#196,.T.);
#196 = EDGE_CURVE('',#188,#197,#199,.T.);
#197 = VERTEX_POINT('',#198);
#198 = CARTESIAN_POINT('',(-31.65,-22.8375,2.));
#199 = LINE('',#200,#201);
#200 = CARTESIAN_POINT('',(-31.65,-28.91875,2.));
#201 = VECTOR('',#202,1.);
#202 = DIRECTION('',(0.,-1.,2.22044604925E-16));
#203 = ORIENTED_EDGE('',*,*,#204,.T.);
#204 = EDGE_CURVE('',#197,#205,#207,.T.);
#205 = VERTEX_POINT('',#206);
#206 = CARTESIAN_POINT('',(-29.,-25.4875,2.));
#207 = CIRCLE('',#208,2.65);
#208 = AXIS2_PLACEMENT_3D('',#209,#210,#211);
#209 = CARTESIAN_POINT('',(-29.,-22.8375,2.));
#210 = DIRECTION('',(-0.,2.22044604925E-16,1.));
#211 = DIRECTION('',(0.,-1.,2.22044604925E-16));
#212 = ORIENTED_EDGE('',*,*,#213,.T.);
#213 = EDGE_CURVE('',#205,#180,#214,.T.);
#214 = CIRCLE('',#215,2.65);
#215 = AXIS2_PLACEMENT_3D('',#216,#217,#218);
#216 = CARTESIAN_POINT('',(-29.,-22.8375,2.));
#217 = DIRECTION('',(-0.,2.22044604925E-16,1.));
#218 = DIRECTION('',(0.,-1.,2.22044604925E-16));
#219 = PLANE('',#220);
#220 = AXIS2_PLACEMENT_3D('',#221,#222,#223);
#221 = CARTESIAN_POINT('',(-22.,-38.,2.));
#222 = DIRECTION('',(0.,2.22044604925E-16,1.));
#223 = DIRECTION('',(0.,-1.,2.22044604925E-16));
#224 = ADVANCED_FACE('',(#225,#268,#279),#324,.F.);
#225 = FACE_BOUND('',#226,.T.);
#226 = EDGE_LOOP('',(#227,#228,#229,#237,#245,#253,#261,#267));
#227 = ORIENTED_EDGE('',*,*,#31,.T.);
#228 = ORIENTED_EDGE('',*,*,#93,.T.);
#229 = ORIENTED_EDGE('',*,*,#230,.T.);
#230 = EDGE_CURVE('',#94,#231,#233,.T.);
#231 = VERTEX_POINT('',#232);
#232 = CARTESIAN_POINT('',(-6.,-62.,1.7763568394E-14));
#233 = LINE('',#234,#235);
#234 = CARTESIAN_POINT('',(-6.,-14.,7.105427357601E-15));
#235 = VECTOR('',#236,1.);
#236 = DIRECTION('',(0.,-1.,2.22044604925E-16));
#237 = ORIENTED_EDGE('',*,*,#238,.T.);
#238 = EDGE_CURVE('',#231,#239,#241,.T.);
#239 = VERTEX_POINT('',#240);
#240 = CARTESIAN_POINT('',(-12.,-68.,1.7763568394E-14));
#241 = LINE('',#242,#243);
#242 = CARTESIAN_POINT('',(-6.,-62.,1.7763568394E-14));
#243 = VECTOR('',#244,1.);
#244 = DIRECTION('',(-0.707106781187,-0.707106781187,1.570092458684E-16)
  );
#245 = ORIENTED_EDGE('',*,*,#246,.T.);
#246 = EDGE_CURVE('',#239,#247,#249,.T.);
#247 = VERTEX_POINT('',#248);
#248 = CARTESIAN_POINT('',(-32.,-68.,1.7763568394E-14));
#249 = LINE('',#250,#251);
#250 = CARTESIAN_POINT('',(-12.,-68.,1.7763568394E-14));
#251 = VECTOR('',#252,1.);
#252 = DIRECTION('',(-1.,0.,-0.));
#253 = ORIENTED_EDGE('',*,*,#254,.T.);
#254 = EDGE_CURVE('',#247,#255,#257,.T.);
#255 = VERTEX_POINT('',#256);
#256 = CARTESIAN_POINT('',(-38.,-62.,1.7763568394E-14));
#257 = LINE('',#258,#259);
#258 = CARTESIAN_POINT('',(-32.,-68.,1.7763568394E-14));
#259 = VECTOR('',#260,1.);
#260 = DIRECTION('',(-0.707106781187,0.707106781187,-1.570092458684E-16)
  );
#261 = ORIENTED_EDGE('',*,*,#262,.T.);
#262 = EDGE_CURVE('',#255,#64,#263,.T.);
#263 = LINE('',#264,#265);
#264 = CARTESIAN_POINT('',(-38.,-62.,1.7763568394E-14));
#265 = VECTOR('',#266,1.);
#266 = DIRECTION('',(-0.,1.,-2.22044604925E-16));
#267 = ORIENTED_EDGE('',*,*,#71,.T.);
#268 = FACE_BOUND('',#269,.T.);
#269 = EDGE_LOOP('',(#270));
#270 = ORIENTED_EDGE('',*,*,#271,.T.);
#271 = EDGE_CURVE('',#272,#272,#274,.T.);
#272 = VERTEX_POINT('',#273);
#273 = CARTESIAN_POINT('',(-29.,-57.3125,1.06581410364E-14));
#274 = CIRCLE('',#275,2.65);
#275 = AXIS2_PLACEMENT_3D('',#276,#277,#278);
#276 = CARTESIAN_POINT('',(-29.,-54.6625,7.105427357601E-15));
#277 = DIRECTION('',(-0.,2.22044604925E-16,1.));
#278 = DIRECTION('',(0.,-1.,2.22044604925E-16));
#279 = FACE_BOUND('',#280,.T.);
#280 = EDGE_LOOP('',(#281,#291,#300,#308,#317));
#281 = ORIENTED_EDGE('',*,*,#282,.F.);
#282 = EDGE_CURVE('',#283,#285,#287,.T.);
#283 = VERTEX_POINT('',#284);
#284 = CARTESIAN_POINT('',(-26.35,-19.8375,3.552713678801E-15));
#285 = VERTEX_POINT('',#286);
#286 = CARTESIAN_POINT('',(-26.35,-22.8375,3.552713678801E-15));
#287 = LINE('',#288,#289);
#288 = CARTESIAN_POINT('',(-26.35,-28.91875,3.552713678801E-15));
#289 = VECTOR('',#290,1.);
#290 = DIRECTION('',(0.,-1.,2.22044604925E-16));
#291 = ORIENTED_EDGE('',*,*,#292,.T.);
#292 = EDGE_CURVE('',#283,#293,#295,.T.);
#293 = VERTEX_POINT('',#294);
#294 = CARTESIAN_POINT('',(-31.65,-19.8375,3.552713678801E-15));
#295 = CIRCLE('',#296,2.65);
#296 = AXIS2_PLACEMENT_3D('',#297,#298,#299);
#297 = CARTESIAN_POINT('',(-29.,-19.8375,0.));
#298 = DIRECTION('',(-0.,2.22044604925E-16,1.));
#299 = DIRECTION('',(0.,-1.,2.22044604925E-16));
#300 = ORIENTED_EDGE('',*,*,#301,.T.);
#301 = EDGE_CURVE('',#293,#302,#304,.T.);
#302 = VERTEX_POINT('',#303);
#303 = CARTESIAN_POINT('',(-31.65,-22.8375,3.552713678801E-15));
#304 = LINE('',#305,#306);
#305 = CARTESIAN_POINT('',(-31.65,-28.91875,3.552713678801E-15));
#306 = VECTOR('',#307,1.);
#307 = DIRECTION('',(0.,-1.,2.22044604925E-16));
#308 = ORIENTED_EDGE('',*,*,#309,.T.);
#309 = EDGE_CURVE('',#302,#310,#312,.T.);
#310 = VERTEX_POINT('',#311);
#311 = CARTESIAN_POINT('',(-29.,-25.4875,3.552713678801E-15));
#312 = CIRCLE('',#313,2.65);
#313 = AXIS2_PLACEMENT_3D('',#314,#315,#316);
#314 = CARTESIAN_POINT('',(-29.,-22.8375,0.));
#315 = DIRECTION('',(-0.,2.22044604925E-16,1.));
#316 = DIRECTION('',(0.,-1.,2.22044604925E-16));
#317 = ORIENTED_EDGE('',*,*,#318,.T.);
#318 = EDGE_CURVE('',#310,#285,#319,.T.);
#319 = CIRCLE('',#320,2.65);
#320 = AXIS2_PLACEMENT_3D('',#321,#322,#323);
#321 = CARTESIAN_POINT('',(-29.,-22.8375,0.));
#322 = DIRECTION('',(-0.,2.22044604925E-16,1.));
#323 = DIRECTION('',(0.,-1.,2.22044604925E-16));
#324 = PLANE('',#325);
#325 = AXIS2_PLACEMENT_3D('',#326,#327,#328);
#326 = CARTESIAN_POINT('',(-22.,-38.,3.552713678801E-15));
#327 = DIRECTION('',(0.,2.22044604925E-16,1.));
#328 = DIRECTION('',(0.,-1.,2.22044604925E-16));
#329 = ADVANCED_FACE('',(#330),#341,.T.);
#330 = FACE_BOUND('',#331,.F.);
#331 = EDGE_LOOP('',(#332,#338,#339,#340));
#332 = ORIENTED_EDGE('',*,*,#333,.T.);
#333 = EDGE_CURVE('',#150,#255,#334,.T.);
#334 = LINE('',#335,#336);
#335 = CARTESIAN_POINT('',(-38.,-62.,2.));
#336 = VECTOR('',#337,1.);
#337 = DIRECTION('',(-0.,-2.22044604925E-16,-1.));
#338 = ORIENTED_EDGE('',*,*,#262,.T.);
#339 = ORIENTED_EDGE('',*,*,#61,.F.);
#340 = ORIENTED_EDGE('',*,*,#157,.F.);
#341 = PLANE('',#342);
#342 = AXIS2_PLACEMENT_3D('',#343,#344,#345);
#343 = CARTESIAN_POINT('',(-38.,-62.,2.));
#344 = DIRECTION('',(-1.,0.,-0.));
#345 = DIRECTION('',(0.,-1.,2.22044604925E-16));
#346 = ADVANCED_FACE('',(#347),#358,.T.);
#347 = FACE_BOUND('',#348,.F.);
#348 = EDGE_LOOP('',(#349,#350,#351,#357));
#349 = ORIENTED_EDGE('',*,*,#101,.T.);
#350 = ORIENTED_EDGE('',*,*,#230,.T.);
#351 = ORIENTED_EDGE('',*,*,#352,.F.);
#352 = EDGE_CURVE('',#126,#231,#353,.T.);
#353 = LINE('',#354,#355);
#354 = CARTESIAN_POINT('',(-6.,-62.,2.));
#355 = VECTOR('',#356,1.);
#356 = DIRECTION('',(-0.,-2.22044604925E-16,-1.));
#357 = ORIENTED_EDGE('',*,*,#125,.F.);
#358 = PLANE('',#359);
#359 = AXIS2_PLACEMENT_3D('',#360,#361,#362);
#360 = CARTESIAN_POINT('',(-6.,-14.,2.));
#361 = DIRECTION('',(1.,0.,0.));
#362 = DIRECTION('',(0.,1.,-2.22044604925E-16));
#363 = ADVANCED_FACE('',(#364),#375,.T.);
#364 = FACE_BOUND('',#365,.F.);
#365 = EDGE_LOOP('',(#366,#372,#373,#374));
#366 = ORIENTED_EDGE('',*,*,#367,.T.);
#367 = EDGE_CURVE('',#142,#247,#368,.T.);
#368 = LINE('',#369,#370);
#369 = CARTESIAN_POINT('',(-32.,-68.,2.));
#370 = VECTOR('',#371,1.);
#371 = DIRECTION('',(-0.,-2.22044604925E-16,-1.));
#372 = ORIENTED_EDGE('',*,*,#254,.T.);
#373 = ORIENTED_EDGE('',*,*,#333,.F.);
#374 = ORIENTED_EDGE('',*,*,#149,.F.);
#375 = PLANE('',#376);
#376 = AXIS2_PLACEMENT_3D('',#377,#378,#379);
#377 = CARTESIAN_POINT('',(-32.,-68.,2.));
#378 = DIRECTION('',(-0.707106781187,-0.707106781187,1.570092458684E-16)
  );
#379 = DIRECTION('',(0.707106781187,-0.707106781187,1.570092458684E-16)
  );
#380 = ADVANCED_FACE('',(#381),#392,.T.);
#381 = FACE_BOUND('',#382,.F.);
#382 = EDGE_LOOP('',(#383,#384,#385,#391));
#383 = ORIENTED_EDGE('',*,*,#352,.T.);
#384 = ORIENTED_EDGE('',*,*,#238,.T.);
#385 = ORIENTED_EDGE('',*,*,#386,.F.);
#386 = EDGE_CURVE('',#134,#239,#387,.T.);
#387 = LINE('',#388,#389);
#388 = CARTESIAN_POINT('',(-12.,-68.,2.));
#389 = VECTOR('',#390,1.);
#390 = DIRECTION('',(-0.,-2.22044604925E-16,-1.));
#391 = ORIENTED_EDGE('',*,*,#133,.F.);
#392 = PLANE('',#393);
#393 = AXIS2_PLACEMENT_3D('',#394,#395,#396);
#394 = CARTESIAN_POINT('',(-6.,-62.,2.));
#395 = DIRECTION('',(0.707106781187,-0.707106781187,1.570092458684E-16)
  );
#396 = DIRECTION('',(0.707106781187,0.707106781187,-1.570092458684E-16)
  );
#397 = ADVANCED_FACE('',(#398),#404,.T.);
#398 = FACE_BOUND('',#399,.F.);
#399 = EDGE_LOOP('',(#400,#401,#402,#403));
#400 = ORIENTED_EDGE('',*,*,#386,.T.);
#401 = ORIENTED_EDGE('',*,*,#246,.T.);
#402 = ORIENTED_EDGE('',*,*,#367,.F.);
#403 = ORIENTED_EDGE('',*,*,#141,.F.);
#404 = PLANE('',#405);
#405 = AXIS2_PLACEMENT_3D('',#406,#407,#408);
#406 = CARTESIAN_POINT('',(-12.,-68.,2.));
#407 = DIRECTION('',(0.,-1.,2.22044604925E-16));
#408 = DIRECTION('',(1.,0.,0.));
#409 = ADVANCED_FACE('',(#410),#421,.F.);
#410 = FACE_BOUND('',#411,.T.);
#411 = EDGE_LOOP('',(#412,#413,#419,#420));
#412 = ORIENTED_EDGE('',*,*,#271,.F.);
#413 = ORIENTED_EDGE('',*,*,#414,.F.);
#414 = EDGE_CURVE('',#167,#272,#415,.T.);
#415 = LINE('',#416,#417);
#416 = CARTESIAN_POINT('',(-29.,-57.3125,3.));
#417 = VECTOR('',#418,1.);
#418 = DIRECTION('',(-0.,-2.22044604925E-16,-1.));
#419 = ORIENTED_EDGE('',*,*,#166,.T.);
#420 = ORIENTED_EDGE('',*,*,#414,.T.);
#421 = CYLINDRICAL_SURFACE('',#422,2.65);
#422 = AXIS2_PLACEMENT_3D('',#423,#424,#425);
#423 = CARTESIAN_POINT('',(-29.,-54.6625,3.));
#424 = DIRECTION('',(-0.,-2.22044604925E-16,-1.));
#425 = DIRECTION('',(0.,-1.,2.22044604925E-16));
#426 = ADVANCED_FACE('',(#427),#443,.F.);
#427 = FACE_BOUND('',#428,.T.);
#428 = EDGE_LOOP('',(#429,#430,#436,#437));
#429 = ORIENTED_EDGE('',*,*,#177,.F.);
#430 = ORIENTED_EDGE('',*,*,#431,.T.);
#431 = EDGE_CURVE('',#178,#283,#432,.T.);
#432 = LINE('',#433,#434);
#433 = CARTESIAN_POINT('',(-26.35,-19.8375,3.));
#434 = VECTOR('',#435,1.);
#435 = DIRECTION('',(-0.,-2.22044604925E-16,-1.));
#436 = ORIENTED_EDGE('',*,*,#282,.T.);
#437 = ORIENTED_EDGE('',*,*,#438,.F.);
#438 = EDGE_CURVE('',#180,#285,#439,.T.);
#439 = LINE('',#440,#441);
#440 = CARTESIAN_POINT('',(-26.35,-22.8375,3.));
#441 = VECTOR('',#442,1.);
#442 = DIRECTION('',(-0.,-2.22044604925E-16,-1.));
#443 = PLANE('',#444);
#444 = AXIS2_PLACEMENT_3D('',#445,#446,#447);
#445 = CARTESIAN_POINT('',(-26.35,-19.8375,3.));
#446 = DIRECTION('',(1.,0.,0.));
#447 = DIRECTION('',(0.,1.,-2.22044604925E-16));
#448 = ADVANCED_FACE('',(#449),#460,.F.);
#449 = FACE_BOUND('',#450,.T.);
#450 = EDGE_LOOP('',(#451,#452,#453,#454));
#451 = ORIENTED_EDGE('',*,*,#292,.F.);
#452 = ORIENTED_EDGE('',*,*,#431,.F.);
#453 = ORIENTED_EDGE('',*,*,#187,.T.);
#454 = ORIENTED_EDGE('',*,*,#455,.T.);
#455 = EDGE_CURVE('',#188,#293,#456,.T.);
#456 = LINE('',#457,#458);
#457 = CARTESIAN_POINT('',(-31.65,-19.8375,3.));
#458 = VECTOR('',#459,1.);
#459 = DIRECTION('',(-0.,-2.22044604925E-16,-1.));
#460 = CYLINDRICAL_SURFACE('',#461,2.65);
#461 = AXIS2_PLACEMENT_3D('',#462,#463,#464);
#462 = CARTESIAN_POINT('',(-29.,-19.8375,3.));
#463 = DIRECTION('',(-0.,-2.22044604925E-16,-1.));
#464 = DIRECTION('',(0.,-1.,2.22044604925E-16));
#465 = ADVANCED_FACE('',(#466),#477,.T.);
#466 = FACE_BOUND('',#467,.F.);
#467 = EDGE_LOOP('',(#468,#469,#470,#471));
#468 = ORIENTED_EDGE('',*,*,#196,.F.);
#469 = ORIENTED_EDGE('',*,*,#455,.T.);
#470 = ORIENTED_EDGE('',*,*,#301,.T.);
#471 = ORIENTED_EDGE('',*,*,#472,.F.);
#472 = EDGE_CURVE('',#197,#302,#473,.T.);
#473 = LINE('',#474,#475);
#474 = CARTESIAN_POINT('',(-31.65,-22.8375,3.));
#475 = VECTOR('',#476,1.);
#476 = DIRECTION('',(-0.,-2.22044604925E-16,-1.));
#477 = PLANE('',#478);
#478 = AXIS2_PLACEMENT_3D('',#479,#480,#481);
#479 = CARTESIAN_POINT('',(-31.65,-19.8375,3.));
#480 = DIRECTION('',(1.,0.,0.));
#481 = DIRECTION('',(0.,1.,-2.22044604925E-16));
#482 = ADVANCED_FACE('',(#483),#491,.F.);
#483 = FACE_BOUND('',#484,.T.);
#484 = EDGE_LOOP('',(#485,#486,#487,#488,#489,#490));
#485 = ORIENTED_EDGE('',*,*,#309,.F.);
#486 = ORIENTED_EDGE('',*,*,#472,.F.);
#487 = ORIENTED_EDGE('',*,*,#204,.T.);
#488 = ORIENTED_EDGE('',*,*,#213,.T.);
#489 = ORIENTED_EDGE('',*,*,#438,.T.);
#490 = ORIENTED_EDGE('',*,*,#318,.F.);
#491 = CYLINDRICAL_SURFACE('',#492,2.65);
#492 = AXIS2_PLACEMENT_3D('',#493,#494,#495);
#493 = CARTESIAN_POINT('',(-29.,-22.8375,3.));
#494 = DIRECTION('',(-0.,-2.22044604925E-16,-1.));
#495 = DIRECTION('',(0.,-1.,2.22044604925E-16));
#496 = ( GEOMETRIC_REPRESENTATION_CONTEXT(3) 
GLOBAL_UNCERTAINTY_ASSIGNED_CONTEXT((#500)) GLOBAL_UNIT_ASSIGNED_CONTEXT
((#497,#498,#499)) REPRESENTATION_CONTEXT('Context #1',
  '3D Context with UNIT and UNCERTAINTY') );
#497 = ( LENGTH_UNIT() NAMED_UNIT(*) SI_UNIT(.MILLI.,.METRE.) );
#498 = ( NAMED_UNIT(*) PLANE_ANGLE_UNIT() SI_UNIT($,.RADIAN.) );
#499 = ( NAMED_UNIT(*) SI_UNIT($,.STERADIAN.) SOLID_ANGLE_UNIT() );
#500 = UNCERTAINTY_MEASURE_WITH_UNIT(LENGTH_MEASURE(1.E-07),#497,
  'distance_accuracy_value','confusion accuracy');
#501 = PRODUCT_RELATED_PRODUCT_CATEGORY('part',$,(#7));
ENDSEC;
END-ISO-10303-21;
